<?xml version="1.0" encoding="utf-8" standalone="no"?>
<!DOCTYPE svg PUBLIC "-//W3C//DTD SVG 1.1//EN"
  "http://www.w3.org/Graphics/SVG/1.1/DTD/svg11.dtd">
<svg xmlns:xlink="http://www.w3.org/1999/xlink" width="352.114821pt" height="207.1035pt" viewBox="0 0 352.114821 207.1035" xmlns="http://www.w3.org/2000/svg" version="1.1">
 <metadata>
  <rdf:RDF xmlns:dc="http://purl.org/dc/elements/1.1/" xmlns:cc="http://creativecommons.org/ns#" xmlns:rdf="http://www.w3.org/1999/02/22-rdf-syntax-ns#">
   <cc:Work>
    <dc:type rdf:resource="http://purl.org/dc/dcmitype/StillImage"/>
    <dc:date>2025-11-03T09:47:24.087328</dc:date>
    <dc:format>image/svg+xml</dc:format>
    <dc:creator>
     <cc:Agent>
      <dc:title>Matplotlib v3.10.3, https://matplotlib.org/</dc:title>
     </cc:Agent>
    </dc:creator>
   </cc:Work>
  </rdf:RDF>
 </metadata>
 <defs>
  <style type="text/css">*{stroke-linejoin: round; stroke-linecap: butt}</style>
 </defs>
 <g id="figure_1">
  <g id="patch_1">
   <path d="M 0 207.1035 
L 352.114821 207.1035 
L 352.114821 0 
L 0 0 
z
" style="fill: #ffffff"/>
  </g>
  <g id="axes_1">
   <g id="patch_2">
    <path d="M 51.749375 169.176 
L 338.552321 169.176 
L 338.552321 23.7 
L 51.749375 23.7 
z
" style="fill: #ffffff"/>
   </g>
   <g id="matplotlib.axis_1">
    <g id="xtick_1">
     <g id="line2d_1">
      <defs>
       <path id="m1c290f6125" d="M 0 0 
L 0 -3.5 
" style="stroke: #000000; stroke-width: 0.8"/>
      </defs>
      <g>
       <use xlink:href="#m1c290f6125" x="51.749375" y="169.176" style="stroke: #000000; stroke-width: 0.8"/>
      </g>
     </g>
     <g id="line2d_2">
      <defs>
       <path id="m948b72de12" d="M 0 0 
L 0 3.5 
" style="stroke: #000000; stroke-width: 0.8"/>
      </defs>
      <g>
       <use xlink:href="#m948b72de12" x="51.749375" y="23.7" style="stroke: #000000; stroke-width: 0.8"/>
      </g>
     </g>
     <g id="text_1">
      <!-- 0 -->
      <g transform="translate(48.568125 180.274438) scale(0.1 -0.1)">
       <defs>
        <path id="DejaVuSans-30" d="M 2034 4250 
Q 1547 4250 1301 3770 
Q 1056 3291 1056 2328 
Q 1056 1369 1301 889 
Q 1547 409 2034 409 
Q 2525 409 2770 889 
Q 3016 1369 3016 2328 
Q 3016 3291 2770 3770 
Q 2525 4250 2034 4250 
z
M 2034 4750 
Q 2819 4750 3233 4129 
Q 3647 3509 3647 2328 
Q 3647 1150 3233 529 
Q 2819 -91 2034 -91 
Q 1250 -91 836 529 
Q 422 1150 422 2328 
Q 422 3509 836 4129 
Q 1250 4750 2034 4750 
z
" transform="scale(0.015625)"/>
       </defs>
       <use xlink:href="#DejaVuSans-30"/>
      </g>
     </g>
    </g>
    <g id="xtick_2">
     <g id="line2d_3">
      <g>
       <use xlink:href="#m1c290f6125" x="99.549866" y="169.176" style="stroke: #000000; stroke-width: 0.8"/>
      </g>
     </g>
     <g id="line2d_4">
      <g>
       <use xlink:href="#m948b72de12" x="99.549866" y="23.7" style="stroke: #000000; stroke-width: 0.8"/>
      </g>
     </g>
     <g id="text_2">
      <!-- 5 -->
      <g transform="translate(96.368616 180.274438) scale(0.1 -0.1)">
       <defs>
        <path id="DejaVuSans-35" d="M 691 4666 
L 3169 4666 
L 3169 4134 
L 1269 4134 
L 1269 2991 
Q 1406 3038 1543 3061 
Q 1681 3084 1819 3084 
Q 2600 3084 3056 2656 
Q 3513 2228 3513 1497 
Q 3513 744 3044 326 
Q 2575 -91 1722 -91 
Q 1428 -91 1123 -41 
Q 819 9 494 109 
L 494 744 
Q 775 591 1075 516 
Q 1375 441 1709 441 
Q 2250 441 2565 725 
Q 2881 1009 2881 1497 
Q 2881 1984 2565 2268 
Q 2250 2553 1709 2553 
Q 1456 2553 1204 2497 
Q 953 2441 691 2322 
L 691 4666 
z
" transform="scale(0.015625)"/>
       </defs>
       <use xlink:href="#DejaVuSans-35"/>
      </g>
     </g>
    </g>
    <g id="xtick_3">
     <g id="line2d_5">
      <g>
       <use xlink:href="#m1c290f6125" x="147.350357" y="169.176" style="stroke: #000000; stroke-width: 0.8"/>
      </g>
     </g>
     <g id="line2d_6">
      <g>
       <use xlink:href="#m948b72de12" x="147.350357" y="23.7" style="stroke: #000000; stroke-width: 0.8"/>
      </g>
     </g>
     <g id="text_3">
      <!-- 10 -->
      <g transform="translate(140.987857 180.274438) scale(0.1 -0.1)">
       <defs>
        <path id="DejaVuSans-31" d="M 794 531 
L 1825 531 
L 1825 4091 
L 703 3866 
L 703 4441 
L 1819 4666 
L 2450 4666 
L 2450 531 
L 3481 531 
L 3481 0 
L 794 0 
L 794 531 
z
" transform="scale(0.015625)"/>
       </defs>
       <use xlink:href="#DejaVuSans-31"/>
       <use xlink:href="#DejaVuSans-30" transform="translate(63.623047 0)"/>
      </g>
     </g>
    </g>
    <g id="xtick_4">
     <g id="line2d_7">
      <g>
       <use xlink:href="#m1c290f6125" x="195.150848" y="169.176" style="stroke: #000000; stroke-width: 0.8"/>
      </g>
     </g>
     <g id="line2d_8">
      <g>
       <use xlink:href="#m948b72de12" x="195.150848" y="23.7" style="stroke: #000000; stroke-width: 0.8"/>
      </g>
     </g>
     <g id="text_4">
      <!-- 15 -->
      <g transform="translate(188.788348 180.274438) scale(0.1 -0.1)">
       <use xlink:href="#DejaVuSans-31"/>
       <use xlink:href="#DejaVuSans-35" transform="translate(63.623047 0)"/>
      </g>
     </g>
    </g>
    <g id="xtick_5">
     <g id="line2d_9">
      <g>
       <use xlink:href="#m1c290f6125" x="242.951339" y="169.176" style="stroke: #000000; stroke-width: 0.8"/>
      </g>
     </g>
     <g id="line2d_10">
      <g>
       <use xlink:href="#m948b72de12" x="242.951339" y="23.7" style="stroke: #000000; stroke-width: 0.8"/>
      </g>
     </g>
     <g id="text_5">
      <!-- 20 -->
      <g transform="translate(236.588839 180.274438) scale(0.1 -0.1)">
       <defs>
        <path id="DejaVuSans-32" d="M 1228 531 
L 3431 531 
L 3431 0 
L 469 0 
L 469 531 
Q 828 903 1448 1529 
Q 2069 2156 2228 2338 
Q 2531 2678 2651 2914 
Q 2772 3150 2772 3378 
Q 2772 3750 2511 3984 
Q 2250 4219 1831 4219 
Q 1534 4219 1204 4116 
Q 875 4013 500 3803 
L 500 4441 
Q 881 4594 1212 4672 
Q 1544 4750 1819 4750 
Q 2544 4750 2975 4387 
Q 3406 4025 3406 3419 
Q 3406 3131 3298 2873 
Q 3191 2616 2906 2266 
Q 2828 2175 2409 1742 
Q 1991 1309 1228 531 
z
" transform="scale(0.015625)"/>
       </defs>
       <use xlink:href="#DejaVuSans-32"/>
       <use xlink:href="#DejaVuSans-30" transform="translate(63.623047 0)"/>
      </g>
     </g>
    </g>
    <g id="xtick_6">
     <g id="line2d_11">
      <g>
       <use xlink:href="#m1c290f6125" x="290.75183" y="169.176" style="stroke: #000000; stroke-width: 0.8"/>
      </g>
     </g>
     <g id="line2d_12">
      <g>
       <use xlink:href="#m948b72de12" x="290.75183" y="23.7" style="stroke: #000000; stroke-width: 0.8"/>
      </g>
     </g>
     <g id="text_6">
      <!-- 25 -->
      <g transform="translate(284.38933 180.274438) scale(0.1 -0.1)">
       <use xlink:href="#DejaVuSans-32"/>
       <use xlink:href="#DejaVuSans-35" transform="translate(63.623047 0)"/>
      </g>
     </g>
    </g>
    <g id="xtick_7">
     <g id="line2d_13">
      <g>
       <use xlink:href="#m1c290f6125" x="338.552321" y="169.176" style="stroke: #000000; stroke-width: 0.8"/>
      </g>
     </g>
     <g id="line2d_14">
      <g>
       <use xlink:href="#m948b72de12" x="338.552321" y="23.7" style="stroke: #000000; stroke-width: 0.8"/>
      </g>
     </g>
     <g id="text_7">
      <!-- 30 -->
      <g transform="translate(332.189821 180.274438) scale(0.1 -0.1)">
       <defs>
        <path id="DejaVuSans-33" d="M 2597 2516 
Q 3050 2419 3304 2112 
Q 3559 1806 3559 1356 
Q 3559 666 3084 287 
Q 2609 -91 1734 -91 
Q 1441 -91 1130 -33 
Q 819 25 488 141 
L 488 750 
Q 750 597 1062 519 
Q 1375 441 1716 441 
Q 2309 441 2620 675 
Q 2931 909 2931 1356 
Q 2931 1769 2642 2001 
Q 2353 2234 1838 2234 
L 1294 2234 
L 1294 2753 
L 1863 2753 
Q 2328 2753 2575 2939 
Q 2822 3125 2822 3475 
Q 2822 3834 2567 4026 
Q 2313 4219 1838 4219 
Q 1578 4219 1281 4162 
Q 984 4106 628 3988 
L 628 4550 
Q 988 4650 1302 4700 
Q 1616 4750 1894 4750 
Q 2613 4750 3031 4423 
Q 3450 4097 3450 3541 
Q 3450 3153 3228 2886 
Q 3006 2619 2597 2516 
z
" transform="scale(0.015625)"/>
       </defs>
       <use xlink:href="#DejaVuSans-33"/>
       <use xlink:href="#DejaVuSans-30" transform="translate(63.623047 0)"/>
      </g>
     </g>
    </g>
    <g id="text_8">
     <!-- Time -->
     <g transform="translate(178.023817 196.991938) scale(0.14 -0.14)">
      <defs>
       <path id="DejaVuSans-54" d="M -19 4666 
L 3928 4666 
L 3928 4134 
L 2272 4134 
L 2272 0 
L 1638 0 
L 1638 4134 
L -19 4134 
L -19 4666 
z
" transform="scale(0.015625)"/>
       <path id="DejaVuSans-69" d="M 603 3500 
L 1178 3500 
L 1178 0 
L 603 0 
L 603 3500 
z
M 603 4863 
L 1178 4863 
L 1178 4134 
L 603 4134 
L 603 4863 
z
" transform="scale(0.015625)"/>
       <path id="DejaVuSans-6d" d="M 3328 2828 
Q 3544 3216 3844 3400 
Q 4144 3584 4550 3584 
Q 5097 3584 5394 3201 
Q 5691 2819 5691 2113 
L 5691 0 
L 5113 0 
L 5113 2094 
Q 5113 2597 4934 2840 
Q 4756 3084 4391 3084 
Q 3944 3084 3684 2787 
Q 3425 2491 3425 1978 
L 3425 0 
L 2847 0 
L 2847 2094 
Q 2847 2600 2669 2842 
Q 2491 3084 2119 3084 
Q 1678 3084 1418 2786 
Q 1159 2488 1159 1978 
L 1159 0 
L 581 0 
L 581 3500 
L 1159 3500 
L 1159 2956 
Q 1356 3278 1631 3431 
Q 1906 3584 2284 3584 
Q 2666 3584 2933 3390 
Q 3200 3197 3328 2828 
z
" transform="scale(0.015625)"/>
       <path id="DejaVuSans-65" d="M 3597 1894 
L 3597 1613 
L 953 1613 
Q 991 1019 1311 708 
Q 1631 397 2203 397 
Q 2534 397 2845 478 
Q 3156 559 3463 722 
L 3463 178 
Q 3153 47 2828 -22 
Q 2503 -91 2169 -91 
Q 1331 -91 842 396 
Q 353 884 353 1716 
Q 353 2575 817 3079 
Q 1281 3584 2069 3584 
Q 2775 3584 3186 3129 
Q 3597 2675 3597 1894 
z
M 3022 2063 
Q 3016 2534 2758 2815 
Q 2500 3097 2075 3097 
Q 1594 3097 1305 2825 
Q 1016 2553 972 2059 
L 3022 2063 
z
" transform="scale(0.015625)"/>
      </defs>
      <use xlink:href="#DejaVuSans-54"/>
      <use xlink:href="#DejaVuSans-69" transform="translate(57.958984 0)"/>
      <use xlink:href="#DejaVuSans-6d" transform="translate(85.742188 0)"/>
      <use xlink:href="#DejaVuSans-65" transform="translate(183.154297 0)"/>
     </g>
    </g>
   </g>
   <g id="matplotlib.axis_2">
    <g id="ytick_1">
     <g id="line2d_15">
      <defs>
       <path id="mefe61e2cbc" d="M 0 0 
L 3.5 0 
" style="stroke: #000000; stroke-width: 0.8"/>
      </defs>
      <g>
       <use xlink:href="#mefe61e2cbc" x="51.749375" y="169.176" style="stroke: #000000; stroke-width: 0.8"/>
      </g>
     </g>
     <g id="line2d_16">
      <defs>
       <path id="m2a8036e65b" d="M 0 0 
L -3.5 0 
" style="stroke: #000000; stroke-width: 0.8"/>
      </defs>
      <g>
       <use xlink:href="#m2a8036e65b" x="338.552321" y="169.176" style="stroke: #000000; stroke-width: 0.8"/>
      </g>
     </g>
     <g id="text_9">
      <!-- $\mathdefault{10^{-4}}$ -->
      <g transform="translate(24.749375 172.975219) scale(0.1 -0.1)">
       <defs>
        <path id="DejaVuSans-2212" d="M 678 2272 
L 4684 2272 
L 4684 1741 
L 678 1741 
L 678 2272 
z
" transform="scale(0.015625)"/>
        <path id="DejaVuSans-34" d="M 2419 4116 
L 825 1625 
L 2419 1625 
L 2419 4116 
z
M 2253 4666 
L 3047 4666 
L 3047 1625 
L 3713 1625 
L 3713 1100 
L 3047 1100 
L 3047 0 
L 2419 0 
L 2419 1100 
L 313 1100 
L 313 1709 
L 2253 4666 
z
" transform="scale(0.015625)"/>
       </defs>
       <use xlink:href="#DejaVuSans-31" transform="translate(0 0.684375)"/>
       <use xlink:href="#DejaVuSans-30" transform="translate(63.623047 0.684375)"/>
       <use xlink:href="#DejaVuSans-2212" transform="translate(128.203125 38.965625) scale(0.7)"/>
       <use xlink:href="#DejaVuSans-34" transform="translate(186.855469 38.965625) scale(0.7)"/>
      </g>
     </g>
    </g>
    <g id="ytick_2">
     <g id="line2d_17">
      <g>
       <use xlink:href="#mefe61e2cbc" x="51.749375" y="132.807" style="stroke: #000000; stroke-width: 0.8"/>
      </g>
     </g>
     <g id="line2d_18">
      <g>
       <use xlink:href="#m2a8036e65b" x="338.552321" y="132.807" style="stroke: #000000; stroke-width: 0.8"/>
      </g>
     </g>
     <g id="text_10">
      <!-- $\mathdefault{10^{-3}}$ -->
      <g transform="translate(24.749375 136.606219) scale(0.1 -0.1)">
       <use xlink:href="#DejaVuSans-31" transform="translate(0 0.765625)"/>
       <use xlink:href="#DejaVuSans-30" transform="translate(63.623047 0.765625)"/>
       <use xlink:href="#DejaVuSans-2212" transform="translate(128.203125 39.046875) scale(0.7)"/>
       <use xlink:href="#DejaVuSans-33" transform="translate(186.855469 39.046875) scale(0.7)"/>
      </g>
     </g>
    </g>
    <g id="ytick_3">
     <g id="line2d_19">
      <g>
       <use xlink:href="#mefe61e2cbc" x="51.749375" y="96.438" style="stroke: #000000; stroke-width: 0.8"/>
      </g>
     </g>
     <g id="line2d_20">
      <g>
       <use xlink:href="#m2a8036e65b" x="338.552321" y="96.438" style="stroke: #000000; stroke-width: 0.8"/>
      </g>
     </g>
     <g id="text_11">
      <!-- $\mathdefault{10^{-2}}$ -->
      <g transform="translate(24.749375 100.237219) scale(0.1 -0.1)">
       <use xlink:href="#DejaVuSans-31" transform="translate(0 0.765625)"/>
       <use xlink:href="#DejaVuSans-30" transform="translate(63.623047 0.765625)"/>
       <use xlink:href="#DejaVuSans-2212" transform="translate(128.203125 39.046875) scale(0.7)"/>
       <use xlink:href="#DejaVuSans-32" transform="translate(186.855469 39.046875) scale(0.7)"/>
      </g>
     </g>
    </g>
    <g id="ytick_4">
     <g id="line2d_21">
      <g>
       <use xlink:href="#mefe61e2cbc" x="51.749375" y="60.069" style="stroke: #000000; stroke-width: 0.8"/>
      </g>
     </g>
     <g id="line2d_22">
      <g>
       <use xlink:href="#m2a8036e65b" x="338.552321" y="60.069" style="stroke: #000000; stroke-width: 0.8"/>
      </g>
     </g>
     <g id="text_12">
      <!-- $\mathdefault{10^{-1}}$ -->
      <g transform="translate(24.749375 63.868219) scale(0.1 -0.1)">
       <use xlink:href="#DejaVuSans-31" transform="translate(0 0.684375)"/>
       <use xlink:href="#DejaVuSans-30" transform="translate(63.623047 0.684375)"/>
       <use xlink:href="#DejaVuSans-2212" transform="translate(128.203125 38.965625) scale(0.7)"/>
       <use xlink:href="#DejaVuSans-31" transform="translate(186.855469 38.965625) scale(0.7)"/>
      </g>
     </g>
    </g>
    <g id="ytick_5">
     <g id="line2d_23">
      <g>
       <use xlink:href="#mefe61e2cbc" x="51.749375" y="23.7" style="stroke: #000000; stroke-width: 0.8"/>
      </g>
     </g>
     <g id="line2d_24">
      <g>
       <use xlink:href="#m2a8036e65b" x="338.552321" y="23.7" style="stroke: #000000; stroke-width: 0.8"/>
      </g>
     </g>
     <g id="text_13">
      <!-- $\mathdefault{10^{0}}$ -->
      <g transform="translate(30.649375 27.499219) scale(0.1 -0.1)">
       <use xlink:href="#DejaVuSans-31" transform="translate(0 0.765625)"/>
       <use xlink:href="#DejaVuSans-30" transform="translate(63.623047 0.765625)"/>
       <use xlink:href="#DejaVuSans-30" transform="translate(128.203125 39.046875) scale(0.7)"/>
      </g>
     </g>
    </g>
    <g id="ytick_6">
     <g id="line2d_25">
      <defs>
       <path id="mec450fa287" d="M 0 0 
L 2 0 
" style="stroke: #000000; stroke-width: 0.6"/>
      </defs>
      <g>
       <use xlink:href="#mec450fa287" x="51.749375" y="158.22784" style="stroke: #000000; stroke-width: 0.6"/>
      </g>
     </g>
     <g id="line2d_26">
      <defs>
       <path id="m93365b9961" d="M 0 0 
L -2 0 
" style="stroke: #000000; stroke-width: 0.6"/>
      </defs>
      <g>
       <use xlink:href="#m93365b9961" x="338.552321" y="158.22784" style="stroke: #000000; stroke-width: 0.6"/>
      </g>
     </g>
    </g>
    <g id="ytick_7">
     <g id="line2d_27">
      <g>
       <use xlink:href="#mec450fa287" x="51.749375" y="151.823577" style="stroke: #000000; stroke-width: 0.6"/>
      </g>
     </g>
     <g id="line2d_28">
      <g>
       <use xlink:href="#m93365b9961" x="338.552321" y="151.823577" style="stroke: #000000; stroke-width: 0.6"/>
      </g>
     </g>
    </g>
    <g id="ytick_8">
     <g id="line2d_29">
      <g>
       <use xlink:href="#mec450fa287" x="51.749375" y="147.27968" style="stroke: #000000; stroke-width: 0.6"/>
      </g>
     </g>
     <g id="line2d_30">
      <g>
       <use xlink:href="#m93365b9961" x="338.552321" y="147.27968" style="stroke: #000000; stroke-width: 0.6"/>
      </g>
     </g>
    </g>
    <g id="ytick_9">
     <g id="line2d_31">
      <g>
       <use xlink:href="#mec450fa287" x="51.749375" y="143.75516" style="stroke: #000000; stroke-width: 0.6"/>
      </g>
     </g>
     <g id="line2d_32">
      <g>
       <use xlink:href="#m93365b9961" x="338.552321" y="143.75516" style="stroke: #000000; stroke-width: 0.6"/>
      </g>
     </g>
    </g>
    <g id="ytick_10">
     <g id="line2d_33">
      <g>
       <use xlink:href="#mec450fa287" x="51.749375" y="140.875417" style="stroke: #000000; stroke-width: 0.6"/>
      </g>
     </g>
     <g id="line2d_34">
      <g>
       <use xlink:href="#m93365b9961" x="338.552321" y="140.875417" style="stroke: #000000; stroke-width: 0.6"/>
      </g>
     </g>
    </g>
    <g id="ytick_11">
     <g id="line2d_35">
      <g>
       <use xlink:href="#mec450fa287" x="51.749375" y="138.440629" style="stroke: #000000; stroke-width: 0.6"/>
      </g>
     </g>
     <g id="line2d_36">
      <g>
       <use xlink:href="#m93365b9961" x="338.552321" y="138.440629" style="stroke: #000000; stroke-width: 0.6"/>
      </g>
     </g>
    </g>
    <g id="ytick_12">
     <g id="line2d_37">
      <g>
       <use xlink:href="#mec450fa287" x="51.749375" y="136.33152" style="stroke: #000000; stroke-width: 0.6"/>
      </g>
     </g>
     <g id="line2d_38">
      <g>
       <use xlink:href="#m93365b9961" x="338.552321" y="136.33152" style="stroke: #000000; stroke-width: 0.6"/>
      </g>
     </g>
    </g>
    <g id="ytick_13">
     <g id="line2d_39">
      <g>
       <use xlink:href="#mec450fa287" x="51.749375" y="134.471154" style="stroke: #000000; stroke-width: 0.6"/>
      </g>
     </g>
     <g id="line2d_40">
      <g>
       <use xlink:href="#m93365b9961" x="338.552321" y="134.471154" style="stroke: #000000; stroke-width: 0.6"/>
      </g>
     </g>
    </g>
    <g id="ytick_14">
     <g id="line2d_41">
      <g>
       <use xlink:href="#mec450fa287" x="51.749375" y="121.85884" style="stroke: #000000; stroke-width: 0.6"/>
      </g>
     </g>
     <g id="line2d_42">
      <g>
       <use xlink:href="#m93365b9961" x="338.552321" y="121.85884" style="stroke: #000000; stroke-width: 0.6"/>
      </g>
     </g>
    </g>
    <g id="ytick_15">
     <g id="line2d_43">
      <g>
       <use xlink:href="#mec450fa287" x="51.749375" y="115.454577" style="stroke: #000000; stroke-width: 0.6"/>
      </g>
     </g>
     <g id="line2d_44">
      <g>
       <use xlink:href="#m93365b9961" x="338.552321" y="115.454577" style="stroke: #000000; stroke-width: 0.6"/>
      </g>
     </g>
    </g>
    <g id="ytick_16">
     <g id="line2d_45">
      <g>
       <use xlink:href="#mec450fa287" x="51.749375" y="110.91068" style="stroke: #000000; stroke-width: 0.6"/>
      </g>
     </g>
     <g id="line2d_46">
      <g>
       <use xlink:href="#m93365b9961" x="338.552321" y="110.91068" style="stroke: #000000; stroke-width: 0.6"/>
      </g>
     </g>
    </g>
    <g id="ytick_17">
     <g id="line2d_47">
      <g>
       <use xlink:href="#mec450fa287" x="51.749375" y="107.38616" style="stroke: #000000; stroke-width: 0.6"/>
      </g>
     </g>
     <g id="line2d_48">
      <g>
       <use xlink:href="#m93365b9961" x="338.552321" y="107.38616" style="stroke: #000000; stroke-width: 0.6"/>
      </g>
     </g>
    </g>
    <g id="ytick_18">
     <g id="line2d_49">
      <g>
       <use xlink:href="#mec450fa287" x="51.749375" y="104.506417" style="stroke: #000000; stroke-width: 0.6"/>
      </g>
     </g>
     <g id="line2d_50">
      <g>
       <use xlink:href="#m93365b9961" x="338.552321" y="104.506417" style="stroke: #000000; stroke-width: 0.6"/>
      </g>
     </g>
    </g>
    <g id="ytick_19">
     <g id="line2d_51">
      <g>
       <use xlink:href="#mec450fa287" x="51.749375" y="102.071629" style="stroke: #000000; stroke-width: 0.6"/>
      </g>
     </g>
     <g id="line2d_52">
      <g>
       <use xlink:href="#m93365b9961" x="338.552321" y="102.071629" style="stroke: #000000; stroke-width: 0.6"/>
      </g>
     </g>
    </g>
    <g id="ytick_20">
     <g id="line2d_53">
      <g>
       <use xlink:href="#mec450fa287" x="51.749375" y="99.96252" style="stroke: #000000; stroke-width: 0.6"/>
      </g>
     </g>
     <g id="line2d_54">
      <g>
       <use xlink:href="#m93365b9961" x="338.552321" y="99.96252" style="stroke: #000000; stroke-width: 0.6"/>
      </g>
     </g>
    </g>
    <g id="ytick_21">
     <g id="line2d_55">
      <g>
       <use xlink:href="#mec450fa287" x="51.749375" y="98.102154" style="stroke: #000000; stroke-width: 0.6"/>
      </g>
     </g>
     <g id="line2d_56">
      <g>
       <use xlink:href="#m93365b9961" x="338.552321" y="98.102154" style="stroke: #000000; stroke-width: 0.6"/>
      </g>
     </g>
    </g>
    <g id="ytick_22">
     <g id="line2d_57">
      <g>
       <use xlink:href="#mec450fa287" x="51.749375" y="85.48984" style="stroke: #000000; stroke-width: 0.6"/>
      </g>
     </g>
     <g id="line2d_58">
      <g>
       <use xlink:href="#m93365b9961" x="338.552321" y="85.48984" style="stroke: #000000; stroke-width: 0.6"/>
      </g>
     </g>
    </g>
    <g id="ytick_23">
     <g id="line2d_59">
      <g>
       <use xlink:href="#mec450fa287" x="51.749375" y="79.085577" style="stroke: #000000; stroke-width: 0.6"/>
      </g>
     </g>
     <g id="line2d_60">
      <g>
       <use xlink:href="#m93365b9961" x="338.552321" y="79.085577" style="stroke: #000000; stroke-width: 0.6"/>
      </g>
     </g>
    </g>
    <g id="ytick_24">
     <g id="line2d_61">
      <g>
       <use xlink:href="#mec450fa287" x="51.749375" y="74.54168" style="stroke: #000000; stroke-width: 0.6"/>
      </g>
     </g>
     <g id="line2d_62">
      <g>
       <use xlink:href="#m93365b9961" x="338.552321" y="74.54168" style="stroke: #000000; stroke-width: 0.6"/>
      </g>
     </g>
    </g>
    <g id="ytick_25">
     <g id="line2d_63">
      <g>
       <use xlink:href="#mec450fa287" x="51.749375" y="71.01716" style="stroke: #000000; stroke-width: 0.6"/>
      </g>
     </g>
     <g id="line2d_64">
      <g>
       <use xlink:href="#m93365b9961" x="338.552321" y="71.01716" style="stroke: #000000; stroke-width: 0.6"/>
      </g>
     </g>
    </g>
    <g id="ytick_26">
     <g id="line2d_65">
      <g>
       <use xlink:href="#mec450fa287" x="51.749375" y="68.137417" style="stroke: #000000; stroke-width: 0.6"/>
      </g>
     </g>
     <g id="line2d_66">
      <g>
       <use xlink:href="#m93365b9961" x="338.552321" y="68.137417" style="stroke: #000000; stroke-width: 0.6"/>
      </g>
     </g>
    </g>
    <g id="ytick_27">
     <g id="line2d_67">
      <g>
       <use xlink:href="#mec450fa287" x="51.749375" y="65.702629" style="stroke: #000000; stroke-width: 0.6"/>
      </g>
     </g>
     <g id="line2d_68">
      <g>
       <use xlink:href="#m93365b9961" x="338.552321" y="65.702629" style="stroke: #000000; stroke-width: 0.6"/>
      </g>
     </g>
    </g>
    <g id="ytick_28">
     <g id="line2d_69">
      <g>
       <use xlink:href="#mec450fa287" x="51.749375" y="63.59352" style="stroke: #000000; stroke-width: 0.6"/>
      </g>
     </g>
     <g id="line2d_70">
      <g>
       <use xlink:href="#m93365b9961" x="338.552321" y="63.59352" style="stroke: #000000; stroke-width: 0.6"/>
      </g>
     </g>
    </g>
    <g id="ytick_29">
     <g id="line2d_71">
      <g>
       <use xlink:href="#mec450fa287" x="51.749375" y="61.733154" style="stroke: #000000; stroke-width: 0.6"/>
      </g>
     </g>
     <g id="line2d_72">
      <g>
       <use xlink:href="#m93365b9961" x="338.552321" y="61.733154" style="stroke: #000000; stroke-width: 0.6"/>
      </g>
     </g>
    </g>
    <g id="ytick_30">
     <g id="line2d_73">
      <g>
       <use xlink:href="#mec450fa287" x="51.749375" y="49.12084" style="stroke: #000000; stroke-width: 0.6"/>
      </g>
     </g>
     <g id="line2d_74">
      <g>
       <use xlink:href="#m93365b9961" x="338.552321" y="49.12084" style="stroke: #000000; stroke-width: 0.6"/>
      </g>
     </g>
    </g>
    <g id="ytick_31">
     <g id="line2d_75">
      <g>
       <use xlink:href="#mec450fa287" x="51.749375" y="42.716577" style="stroke: #000000; stroke-width: 0.6"/>
      </g>
     </g>
     <g id="line2d_76">
      <g>
       <use xlink:href="#m93365b9961" x="338.552321" y="42.716577" style="stroke: #000000; stroke-width: 0.6"/>
      </g>
     </g>
    </g>
    <g id="ytick_32">
     <g id="line2d_77">
      <g>
       <use xlink:href="#mec450fa287" x="51.749375" y="38.17268" style="stroke: #000000; stroke-width: 0.6"/>
      </g>
     </g>
     <g id="line2d_78">
      <g>
       <use xlink:href="#m93365b9961" x="338.552321" y="38.17268" style="stroke: #000000; stroke-width: 0.6"/>
      </g>
     </g>
    </g>
    <g id="ytick_33">
     <g id="line2d_79">
      <g>
       <use xlink:href="#mec450fa287" x="51.749375" y="34.64816" style="stroke: #000000; stroke-width: 0.6"/>
      </g>
     </g>
     <g id="line2d_80">
      <g>
       <use xlink:href="#m93365b9961" x="338.552321" y="34.64816" style="stroke: #000000; stroke-width: 0.6"/>
      </g>
     </g>
    </g>
    <g id="ytick_34">
     <g id="line2d_81">
      <g>
       <use xlink:href="#mec450fa287" x="51.749375" y="31.768417" style="stroke: #000000; stroke-width: 0.6"/>
      </g>
     </g>
     <g id="line2d_82">
      <g>
       <use xlink:href="#m93365b9961" x="338.552321" y="31.768417" style="stroke: #000000; stroke-width: 0.6"/>
      </g>
     </g>
    </g>
    <g id="ytick_35">
     <g id="line2d_83">
      <g>
       <use xlink:href="#mec450fa287" x="51.749375" y="29.333629" style="stroke: #000000; stroke-width: 0.6"/>
      </g>
     </g>
     <g id="line2d_84">
      <g>
       <use xlink:href="#m93365b9961" x="338.552321" y="29.333629" style="stroke: #000000; stroke-width: 0.6"/>
      </g>
     </g>
    </g>
    <g id="ytick_36">
     <g id="line2d_85">
      <g>
       <use xlink:href="#mec450fa287" x="51.749375" y="27.22452" style="stroke: #000000; stroke-width: 0.6"/>
      </g>
     </g>
     <g id="line2d_86">
      <g>
       <use xlink:href="#m93365b9961" x="338.552321" y="27.22452" style="stroke: #000000; stroke-width: 0.6"/>
      </g>
     </g>
    </g>
    <g id="ytick_37">
     <g id="line2d_87">
      <g>
       <use xlink:href="#mec450fa287" x="51.749375" y="25.364154" style="stroke: #000000; stroke-width: 0.6"/>
      </g>
     </g>
     <g id="line2d_88">
      <g>
       <use xlink:href="#m93365b9961" x="338.552321" y="25.364154" style="stroke: #000000; stroke-width: 0.6"/>
      </g>
     </g>
    </g>
    <g id="text_14">
     <!-- Fidelity -->
     <g transform="translate(17.837813 121.429094) rotate(-90) scale(0.14 -0.14)">
      <defs>
       <path id="DejaVuSans-46" d="M 628 4666 
L 3309 4666 
L 3309 4134 
L 1259 4134 
L 1259 2759 
L 3109 2759 
L 3109 2228 
L 1259 2228 
L 1259 0 
L 628 0 
L 628 4666 
z
" transform="scale(0.015625)"/>
       <path id="DejaVuSans-64" d="M 2906 2969 
L 2906 4863 
L 3481 4863 
L 3481 0 
L 2906 0 
L 2906 525 
Q 2725 213 2448 61 
Q 2172 -91 1784 -91 
Q 1150 -91 751 415 
Q 353 922 353 1747 
Q 353 2572 751 3078 
Q 1150 3584 1784 3584 
Q 2172 3584 2448 3432 
Q 2725 3281 2906 2969 
z
M 947 1747 
Q 947 1113 1208 752 
Q 1469 391 1925 391 
Q 2381 391 2643 752 
Q 2906 1113 2906 1747 
Q 2906 2381 2643 2742 
Q 2381 3103 1925 3103 
Q 1469 3103 1208 2742 
Q 947 2381 947 1747 
z
" transform="scale(0.015625)"/>
       <path id="DejaVuSans-6c" d="M 603 4863 
L 1178 4863 
L 1178 0 
L 603 0 
L 603 4863 
z
" transform="scale(0.015625)"/>
       <path id="DejaVuSans-74" d="M 1172 4494 
L 1172 3500 
L 2356 3500 
L 2356 3053 
L 1172 3053 
L 1172 1153 
Q 1172 725 1289 603 
Q 1406 481 1766 481 
L 2356 481 
L 2356 0 
L 1766 0 
Q 1100 0 847 248 
Q 594 497 594 1153 
L 594 3053 
L 172 3053 
L 172 3500 
L 594 3500 
L 594 4494 
L 1172 4494 
z
" transform="scale(0.015625)"/>
       <path id="DejaVuSans-79" d="M 2059 -325 
Q 1816 -950 1584 -1140 
Q 1353 -1331 966 -1331 
L 506 -1331 
L 506 -850 
L 844 -850 
Q 1081 -850 1212 -737 
Q 1344 -625 1503 -206 
L 1606 56 
L 191 3500 
L 800 3500 
L 1894 763 
L 2988 3500 
L 3597 3500 
L 2059 -325 
z
" transform="scale(0.015625)"/>
      </defs>
      <use xlink:href="#DejaVuSans-46"/>
      <use xlink:href="#DejaVuSans-69" transform="translate(50.269531 0)"/>
      <use xlink:href="#DejaVuSans-64" transform="translate(78.052734 0)"/>
      <use xlink:href="#DejaVuSans-65" transform="translate(141.529297 0)"/>
      <use xlink:href="#DejaVuSans-6c" transform="translate(203.052734 0)"/>
      <use xlink:href="#DejaVuSans-69" transform="translate(230.835938 0)"/>
      <use xlink:href="#DejaVuSans-74" transform="translate(258.619141 0)"/>
      <use xlink:href="#DejaVuSans-79" transform="translate(297.828125 0)"/>
     </g>
    </g>
   </g>
   <g id="line2d_89">
    <path d="M 51.749375 23.7 
L 52.705385 24.486047 
L 53.661395 26.788554 
L 54.617404 30.364924 
L 56.529424 38.686135 
L 57.485434 41.84214 
L 59.397454 46.250643 
L 62.265483 52.673916 
L 65.133512 58.54938 
L 68.957552 67.610847 
L 71.825581 73.010803 
L 72.781591 76.205396 
L 74.693611 84.523366 
L 75.649621 84.310856 
L 77.56164 75.206625 
L 78.51765 72.36131 
L 79.47366 71.932759 
L 80.42967 73.836241 
L 81.385679 77.694494 
L 83.297699 87.886766 
L 84.253709 91.72248 
L 85.209719 93.817032 
L 86.165729 94.631076 
L 87.121738 94.570616 
L 89.033758 93.009806 
L 89.989768 93.017435 
L 90.945778 94.474079 
L 92.857797 99.729302 
L 93.813807 101.149152 
L 94.769817 102.155338 
L 95.725827 104.659844 
L 96.681837 109.380161 
L 97.637846 113.510196 
L 98.593856 112.116479 
L 99.549866 107.727839 
L 100.505876 105.335996 
L 101.461886 106.678832 
L 102.417895 112.078168 
L 103.373905 119.817002 
L 104.329915 121.080687 
L 106.241935 103.738291 
L 107.197945 97.288123 
L 108.153954 92.81397 
L 109.109964 89.847408 
L 110.065974 88.246547 
L 111.021984 87.961394 
L 111.977994 88.796713 
L 112.934004 90.419594 
L 113.890013 92.606895 
L 114.846023 95.385587 
L 116.758043 101.872075 
L 117.714053 103.094617 
L 118.670062 101.125757 
L 121.538092 88.283263 
L 122.494102 86.653077 
L 123.450112 87.573698 
L 125.362131 93.780948 
L 126.318141 94.219496 
L 128.230161 89.994824 
L 129.18617 89.952864 
L 131.09819 93.342558 
L 132.0542 93.796975 
L 133.96622 92.526546 
L 134.922229 92.371946 
L 135.878239 92.927385 
L 136.834249 94.129169 
L 137.790259 95.839791 
L 138.746269 98.068845 
L 139.702278 101.083309 
L 141.614298 109.470017 
L 142.570308 112.352644 
L 143.526318 112.539774 
L 146.394347 108.427454 
L 147.350357 107.873773 
L 148.306367 107.896596 
L 149.262377 108.710029 
L 150.218386 110.691086 
L 151.174396 114.268265 
L 152.130406 119.761582 
L 154.042426 133.885454 
L 154.998436 138.061624 
L 155.954445 139.274569 
L 156.910455 139.417942 
L 157.866465 138.017627 
L 158.822475 132.822803 
L 161.690504 108.350036 
L 162.646514 102.744637 
L 163.602524 99.41534 
L 164.558534 98.606791 
L 165.514544 100.400933 
L 166.470553 104.852401 
L 167.426563 112.352644 
L 168.382573 124.067545 
L 169.338583 141.140883 
L 170.294593 149.433982 
L 171.250603 137.308833 
L 172.206612 127.811568 
L 173.162622 121.985707 
L 174.118632 117.739153 
L 175.074642 114.219501 
L 176.030652 111.662766 
L 176.986661 110.757426 
L 177.942671 111.959568 
L 178.898681 115.110857 
L 180.810701 123.47918 
L 181.766711 127.190755 
L 182.72272 131.518456 
L 183.67873 136.390862 
L 184.63474 137.162487 
L 186.54676 128.243372 
L 187.502769 127.51505 
L 188.458779 130.219517 
L 189.414789 136.174356 
L 190.370799 146.471484 
L 191.326809 164.553326 
L 192.282819 174.809629 
L 193.238828 151.204092 
L 194.194838 136.096357 
L 195.150848 127.777069 
L 196.106858 123.305131 
L 198.018878 117.408012 
L 199.930897 109.444806 
L 200.886907 106.885582 
L 201.842917 106.264449 
L 202.798927 107.560866 
L 203.754936 110.652192 
L 204.710946 115.693295 
L 205.666956 123.22743 
L 206.622966 134.244638 
L 207.578976 150.607989 
L 209.490995 204.039589 
L 210.447005 173.100411 
L 211.403015 160.981727 
L 212.359025 158.22784 
L 213.315035 163.74905 
L 214.271044 183.64868 
L 215.227054 207.209154 
L 216.183064 161.266326 
L 217.139074 141.060774 
L 218.095084 128.184326 
L 219.051094 118.998853 
L 220.007103 112.435056 
L 220.963113 108.25296 
L 221.919123 106.412259 
L 222.875133 106.809256 
L 223.831143 109.18072 
L 224.787152 113.060457 
L 227.655182 126.646801 
L 228.611192 133.750743 
L 229.567202 148.46844 
L 230.523211 195.40701 
L 231.479221 163.637425 
L 232.435231 139.132486 
L 233.391241 129.37118 
L 234.347251 125.56206 
L 235.30326 124.631541 
L 236.25927 124.388682 
L 237.21528 122.819359 
L 238.17129 119.104638 
L 239.1273 114.739197 
L 240.08331 111.820924 
L 241.039319 111.387709 
L 241.995329 113.283726 
L 242.951339 116.409502 
L 243.907349 118.659867 
L 244.863359 117.745238 
L 247.731388 107.026993 
L 248.687398 104.952275 
L 249.643408 104.307605 
L 250.599418 105.528602 
L 251.555427 108.47138 
L 252.511437 112.193381 
L 253.467447 115.428274 
L 254.423457 117.551657 
L 255.379467 118.880687 
L 256.335477 119.740849 
L 257.291486 120.06178 
L 258.247496 119.886552 
L 259.203506 119.365494 
L 261.115526 117.605862 
L 262.071535 117.455748 
L 263.027545 119.071504 
L 263.983555 122.878217 
L 264.939565 127.674022 
L 265.895575 129.562945 
L 266.851585 125.138474 
L 268.763604 109.964276 
L 269.719614 104.982089 
L 270.675624 102.148534 
L 272.587643 98.978969 
L 274.499663 94.842386 
L 275.455673 93.441544 
L 276.411683 93.270015 
L 277.367693 94.391999 
L 278.323702 96.716857 
L 279.279712 100.407024 
L 280.235722 106.11218 
L 281.191732 114.890877 
L 283.103752 141.630264 
L 284.059761 139.370007 
L 285.015771 128.50583 
L 285.971781 120.931042 
L 286.927791 117.007972 
L 287.883801 116.066483 
L 288.83981 117.443801 
L 290.75183 122.478957 
L 291.70784 123.339788 
L 292.66385 122.852965 
L 293.61986 122.226365 
L 294.575869 122.735655 
L 295.531879 125.343922 
L 296.487889 130.019664 
L 297.443899 132.997685 
L 298.399909 127.526352 
L 299.355918 117.372304 
L 300.311928 108.488308 
L 301.267938 102.042323 
L 302.223948 97.815204 
L 303.179958 95.544495 
L 304.135968 95.073938 
L 305.091977 96.195058 
L 307.003997 100.51502 
L 307.960007 101.356968 
L 308.916017 100.374566 
L 309.872026 98.14961 
L 311.784046 93.145143 
L 312.740056 91.1664 
L 313.696066 89.786129 
L 314.652076 89.212041 
L 315.608085 89.610881 
L 316.564095 90.942865 
L 317.520105 92.969176 
L 318.476115 95.475984 
L 319.432125 98.478663 
L 321.344144 105.025556 
L 322.300154 105.777702 
L 323.256164 103.635816 
L 324.212174 100.543671 
L 325.168184 98.442757 
L 326.124193 98.259125 
L 327.080203 100.332066 
L 328.036213 104.641247 
L 328.992223 110.792661 
L 329.948233 118.120957 
L 330.904243 126.350175 
L 331.860252 136.490264 
L 332.816262 151.3567 
L 333.772272 178.908571 
L 334.63718 208.1035 
M 334.786003 208.1035 
L 335.684292 160.24695 
L 336.640301 138.576597 
L 337.596311 124.113024 
L 338.552321 114.371164 
L 338.552321 114.371164 
" clip-path="url(#pd551cee536)" style="fill: none; stroke: #000000; stroke-width: 1.5; stroke-linecap: square"/>
   </g>
   <g id="line2d_90">
    <path d="M 51.749375 23.7 
L 52.705385 24.484022 
L 53.661395 26.755995 
L 54.617404 30.203434 
L 56.529424 37.787904 
L 57.485434 40.604665 
L 62.265483 51.969403 
L 66.089522 59.564138 
L 68.001542 63.646126 
L 69.913562 67.401922 
L 70.869571 69.721339 
L 73.737601 78.539668 
L 74.693611 78.641719 
L 76.60563 75.047631 
L 77.56164 74.106271 
L 78.51765 74.520766 
L 79.47366 76.176466 
L 81.385679 81.26887 
L 83.297699 86.419337 
L 84.253709 88.71998 
L 85.209719 90.215898 
L 86.165729 90.316346 
L 87.121738 88.984773 
L 89.033758 84.499612 
L 89.989768 82.694562 
L 90.945778 81.6972 
L 91.901787 81.587636 
L 92.857797 82.328965 
L 93.813807 83.903509 
L 94.769817 86.295854 
L 95.725827 89.198052 
L 96.681837 91.735375 
L 97.637846 93.005992 
L 98.593856 93.132326 
L 99.549866 92.854202 
L 100.505876 92.362181 
L 101.461886 91.347304 
L 102.417895 89.89535 
L 103.373905 88.676437 
L 104.329915 88.208979 
L 105.285925 88.493902 
L 106.241935 89.364717 
L 107.197945 90.94175 
L 108.153954 93.673187 
L 109.109964 97.960636 
L 111.021984 109.09953 
L 111.977994 113.228755 
L 112.934004 116.011848 
L 113.890013 118.189672 
L 114.846023 119.555469 
L 115.802033 119.264654 
L 117.714053 116.071957 
L 118.670062 114.997927 
L 119.626072 114.292704 
L 120.582082 114.112746 
L 121.538092 115.08512 
L 122.494102 118.302762 
L 123.450112 125.304583 
L 124.406121 138.083668 
L 125.362131 159.121361 
L 126.318141 174.809629 
L 127.274151 167.24559 
L 128.230161 167.670589 
L 129.18617 176.225041 
L 130.14218 170.322244 
L 131.09819 159.544841 
L 132.0542 159.289393 
L 133.01021 170.493001 
L 133.96622 169.657099 
L 134.922229 149.388789 
L 135.878239 136.076917 
L 136.834249 128.149003 
L 137.790259 124.397954 
L 138.746269 125.32424 
L 139.702278 132.525221 
L 140.658288 149.570341 
L 141.614298 172.119049 
L 142.570308 150.175226 
L 143.526318 135.712035 
L 144.482328 128.675149 
L 145.438337 124.92607 
L 146.394347 122.356231 
L 147.350357 120.281797 
L 148.306367 118.821933 
L 149.262377 117.642103 
L 150.218386 115.746837 
L 152.130406 109.538652 
L 153.086416 107.589639 
L 154.042426 107.573648 
L 154.998436 109.226795 
L 156.910455 114.322081 
L 157.866465 117.212609 
L 158.822475 121.103256 
L 159.778485 127.413692 
L 160.734495 138.440629 
L 161.690504 157.992677 
L 162.646514 167.814836 
L 163.602524 146.211022 
L 164.558534 134.072579 
L 165.514544 128.529908 
L 168.382573 119.217815 
L 169.338583 118.127192 
L 170.294593 118.692147 
L 171.250603 120.497676 
L 173.162622 126.048717 
L 174.118632 124.379416 
L 176.030652 113.006257 
L 176.986661 109.330064 
L 177.942671 107.082674 
L 178.898681 105.892241 
L 179.854691 105.814836 
L 180.810701 106.90702 
L 181.766711 108.861904 
L 183.67873 113.692797 
L 184.63474 116.214947 
L 185.59075 117.916591 
L 186.54676 118.046336 
L 187.502769 117.467705 
L 188.458779 117.031225 
L 189.414789 116.050073 
L 190.370799 113.608257 
L 191.326809 110.539938 
L 192.282819 108.370196 
L 193.238828 107.554479 
L 194.194838 107.411452 
L 195.150848 107.020818 
L 196.106858 106.199848 
L 197.062868 105.892241 
L 198.018878 107.335697 
L 198.974887 111.029588 
L 199.930897 116.640499 
L 200.886907 123.496691 
L 202.798927 139.370007 
L 203.754936 144.732473 
L 204.710946 140.562638 
L 205.666956 131.301589 
L 206.622966 123.45295 
L 207.578976 118.077385 
L 208.534986 114.395763 
L 210.447005 108.651739 
L 211.403015 106.543486 
L 212.359025 105.720742 
L 213.315035 106.326361 
L 214.271044 107.481214 
L 215.227054 107.589639 
L 216.183064 105.958479 
L 219.051094 98.432001 
L 220.007103 96.723289 
L 220.963113 96.114384 
L 221.919123 96.917471 
L 222.875133 98.892017 
L 224.787152 103.869223 
L 225.743162 106.585469 
L 226.699172 108.706594 
L 227.655182 107.150996 
L 229.567202 95.266347 
L 230.523211 91.177716 
L 231.479221 89.260095 
L 232.435231 89.085598 
L 233.391241 90.420674 
L 234.347251 93.398487 
L 235.30326 98.197209 
L 237.21528 109.864179 
L 238.17129 112.570447 
L 240.08331 113.338888 
L 241.039319 114.618892 
L 243.907349 119.789268 
L 244.863359 122.937295 
L 245.819369 128.374056 
L 246.775378 135.542094 
L 247.731388 140.666211 
L 248.687398 141.410887 
L 249.643408 141.007592 
L 250.599418 140.459739 
L 251.555427 138.828953 
L 252.511437 136.096357 
L 254.423457 128.821738 
L 255.379467 126.646801 
L 256.335477 126.86214 
L 257.291486 130.059433 
L 258.247496 136.23311 
L 260.159516 152.142676 
L 261.115526 156.227696 
L 262.071535 153.25545 
L 263.983555 138.759728 
L 264.939565 134.31399 
L 265.895575 133.885454 
L 266.851585 138.805845 
L 267.807594 151.771015 
L 268.763604 181.788314 
L 269.719614 167.670589 
L 270.675624 142.16383 
L 271.631634 128.870905 
L 272.587643 121.353672 
L 273.543653 117.289297 
L 276.411683 110.48603 
L 277.367693 108.360113 
L 278.323702 107.123011 
L 279.279712 107.222742 
L 280.235722 109.18072 
L 281.191732 113.853729 
L 282.147742 122.348083 
L 283.103752 136.057501 
L 284.059761 158.149063 
L 285.015771 205.545 
L 286.927791 159.804488 
L 287.883801 147.842406 
L 291.70784 115.266167 
L 292.66385 110.21544 
L 293.61986 108.216294 
L 294.575869 109.535032 
L 295.531879 114.554108 
L 296.487889 123.681738 
L 297.443899 137.266882 
L 298.399909 157.233162 
L 299.355918 188.728047 
L 300.311928 158.872618 
L 301.267938 136.935219 
L 302.223948 124.556417 
L 303.179958 117.372304 
L 304.135968 113.421995 
L 305.091977 111.371438 
L 306.047987 110.512961 
L 307.003997 110.382583 
L 307.960007 109.819895 
L 308.916017 107.58644 
L 309.872026 104.271254 
L 310.828036 101.602562 
L 311.784046 100.623759 
L 312.740056 101.484722 
L 314.652076 106.211574 
L 315.608085 107.506659 
L 316.564095 107.232124 
L 317.520105 106.543486 
L 318.476115 106.385551 
L 319.432125 106.456873 
L 320.388135 105.712216 
L 321.344144 103.568693 
L 323.256164 97.730983 
L 324.212174 95.983396 
L 325.168184 95.708034 
L 326.124193 96.607916 
L 327.080203 97.683058 
L 328.036213 97.94499 
L 328.992223 97.686476 
L 329.948233 98.095136 
L 330.904243 99.624597 
L 331.860252 101.55008 
L 332.816262 102.993829 
L 333.772272 104.17816 
L 334.728282 106.235052 
L 335.684292 110.321599 
L 336.640301 117.479671 
L 337.596311 129.345786 
L 338.552321 151.254797 
L 338.552321 151.254797 
" clip-path="url(#pd551cee536)" style="fill: none; stroke: #ff0000; stroke-width: 1.5; stroke-linecap: square"/>
   </g>
   <g id="patch_3">
    <path d="M 51.749375 169.176 
L 51.749375 23.7 
" style="fill: none; stroke: #000000; stroke-width: 0.8; stroke-linejoin: miter; stroke-linecap: square"/>
   </g>
   <g id="patch_4">
    <path d="M 338.552321 169.176 
L 338.552321 23.7 
" style="fill: none; stroke: #000000; stroke-width: 0.8; stroke-linejoin: miter; stroke-linecap: square"/>
   </g>
   <g id="patch_5">
    <path d="M 51.749375 169.176 
L 338.552321 169.176 
" style="fill: none; stroke: #000000; stroke-width: 0.8; stroke-linejoin: miter; stroke-linecap: square"/>
   </g>
   <g id="patch_6">
    <path d="M 51.749375 23.7 
L 338.552321 23.7 
" style="fill: none; stroke: #000000; stroke-width: 0.8; stroke-linejoin: miter; stroke-linecap: square"/>
   </g>
   <g id="text_15">
    <!-- $N=10, J_z=1,\, J_{long}=1.0$ -->
    <g transform="translate(113.600848 17.7) scale(0.14 -0.14)">
     <defs>
      <path id="DejaVuSans-Oblique-4e" d="M 1081 4666 
L 1931 4666 
L 3219 666 
L 4000 4666 
L 4616 4666 
L 3706 0 
L 2853 0 
L 1569 4025 
L 788 0 
L 172 0 
L 1081 4666 
z
" transform="scale(0.015625)"/>
      <path id="DejaVuSans-3d" d="M 678 2906 
L 4684 2906 
L 4684 2381 
L 678 2381 
L 678 2906 
z
M 678 1631 
L 4684 1631 
L 4684 1100 
L 678 1100 
L 678 1631 
z
" transform="scale(0.015625)"/>
      <path id="DejaVuSans-2c" d="M 750 794 
L 1409 794 
L 1409 256 
L 897 -744 
L 494 -744 
L 750 256 
L 750 794 
z
" transform="scale(0.015625)"/>
      <path id="DejaVuSans-Oblique-4a" d="M 1069 4666 
L 1703 4666 
L 856 325 
Q 691 -522 298 -901 
Q -94 -1281 -800 -1281 
L -1050 -1281 
L -947 -750 
L -750 -750 
Q -328 -750 -109 -509 
Q 109 -269 225 325 
L 1069 4666 
z
" transform="scale(0.015625)"/>
      <path id="DejaVuSans-Oblique-7a" d="M 744 3500 
L 3475 3500 
L 3372 2975 
L 738 459 
L 2913 459 
L 2822 0 
L -19 0 
L 84 525 
L 2719 3041 
L 653 3041 
L 744 3500 
z
" transform="scale(0.015625)"/>
      <path id="DejaVuSans-Oblique-6c" d="M 1172 4863 
L 1747 4863 
L 800 0 
L 225 0 
L 1172 4863 
z
" transform="scale(0.015625)"/>
      <path id="DejaVuSans-Oblique-6f" d="M 1625 -91 
Q 1009 -91 651 289 
Q 294 669 294 1325 
Q 294 1706 417 2101 
Q 541 2497 738 2766 
Q 1047 3184 1428 3384 
Q 1809 3584 2291 3584 
Q 2888 3584 3255 3212 
Q 3622 2841 3622 2241 
Q 3622 1825 3500 1412 
Q 3378 1000 3181 728 
Q 2875 309 2494 109 
Q 2113 -91 1625 -91 
z
M 891 1344 
Q 891 869 1089 633 
Q 1288 397 1691 397 
Q 2269 397 2648 901 
Q 3028 1406 3028 2181 
Q 3028 2634 2825 2865 
Q 2622 3097 2228 3097 
Q 1903 3097 1650 2945 
Q 1397 2794 1197 2484 
Q 1050 2253 970 1956 
Q 891 1659 891 1344 
z
" transform="scale(0.015625)"/>
      <path id="DejaVuSans-Oblique-6e" d="M 3566 2113 
L 3156 0 
L 2578 0 
L 2988 2091 
Q 3016 2238 3031 2350 
Q 3047 2463 3047 2528 
Q 3047 2791 2881 2937 
Q 2716 3084 2419 3084 
Q 1956 3084 1622 2776 
Q 1288 2469 1184 1941 
L 800 0 
L 225 0 
L 903 3500 
L 1478 3500 
L 1363 2950 
Q 1603 3253 1940 3418 
Q 2278 3584 2650 3584 
Q 3113 3584 3367 3334 
Q 3622 3084 3622 2631 
Q 3622 2519 3608 2391 
Q 3594 2263 3566 2113 
z
" transform="scale(0.015625)"/>
      <path id="DejaVuSans-Oblique-67" d="M 3816 3500 
L 3219 434 
Q 3047 -456 2561 -893 
Q 2075 -1331 1253 -1331 
Q 950 -1331 690 -1286 
Q 431 -1241 206 -1147 
L 313 -588 
Q 525 -725 762 -790 
Q 1000 -856 1269 -856 
Q 1816 -856 2167 -557 
Q 2519 -259 2631 300 
L 2681 563 
Q 2441 288 2122 144 
Q 1803 0 1434 0 
Q 903 0 598 351 
Q 294 703 294 1319 
Q 294 1803 478 2267 
Q 663 2731 997 3091 
Q 1219 3328 1514 3456 
Q 1809 3584 2131 3584 
Q 2484 3584 2746 3420 
Q 3009 3256 3138 2956 
L 3238 3500 
L 3816 3500 
z
M 2950 2216 
Q 2950 2641 2750 2872 
Q 2550 3103 2181 3103 
Q 1953 3103 1747 3012 
Q 1541 2922 1394 2759 
Q 1156 2491 1023 2127 
Q 891 1763 891 1375 
Q 891 944 1092 712 
Q 1294 481 1672 481 
Q 2219 481 2584 976 
Q 2950 1472 2950 2216 
z
" transform="scale(0.015625)"/>
      <path id="DejaVuSans-2e" d="M 684 794 
L 1344 794 
L 1344 0 
L 684 0 
L 684 794 
z
" transform="scale(0.015625)"/>
     </defs>
     <use xlink:href="#DejaVuSans-Oblique-4e" transform="translate(0 0.78125)"/>
     <use xlink:href="#DejaVuSans-3d" transform="translate(94.287109 0.78125)"/>
     <use xlink:href="#DejaVuSans-31" transform="translate(197.558594 0.78125)"/>
     <use xlink:href="#DejaVuSans-30" transform="translate(261.181641 0.78125)"/>
     <use xlink:href="#DejaVuSans-2c" transform="translate(324.804688 0.78125)"/>
     <use xlink:href="#DejaVuSans-Oblique-4a" transform="translate(376.074219 0.78125)"/>
     <use xlink:href="#DejaVuSans-Oblique-7a" transform="translate(405.566406 -15.625) scale(0.7)"/>
     <use xlink:href="#DejaVuSans-3d" transform="translate(464.526367 0.78125)"/>
     <use xlink:href="#DejaVuSans-31" transform="translate(567.797852 0.78125)"/>
     <use xlink:href="#DejaVuSans-2c" transform="translate(631.420898 0.78125)"/>
     <use xlink:href="#DejaVuSans-Oblique-4a" transform="translate(698.926106 0.78125)"/>
     <use xlink:href="#DejaVuSans-Oblique-6c" transform="translate(728.418293 -15.625) scale(0.7)"/>
     <use xlink:href="#DejaVuSans-Oblique-6f" transform="translate(747.866536 -15.625) scale(0.7)"/>
     <use xlink:href="#DejaVuSans-Oblique-6e" transform="translate(790.693684 -15.625) scale(0.7)"/>
     <use xlink:href="#DejaVuSans-Oblique-67" transform="translate(835.058918 -15.625) scale(0.7)"/>
     <use xlink:href="#DejaVuSans-3d" transform="translate(901.709309 0.78125)"/>
     <use xlink:href="#DejaVuSans-31" transform="translate(1004.980793 0.78125)"/>
     <use xlink:href="#DejaVuSans-2e" transform="translate(1068.60384 0.78125)"/>
     <use xlink:href="#DejaVuSans-30" transform="translate(1100.39095 0.78125)"/>
    </g>
   </g>
   <g id="legend_1">
    <g id="line2d_91">
     <path d="M 259.572321 38.108281 
L 270.572321 38.108281 
L 281.572321 38.108281 
" style="fill: none; stroke: #000000; stroke-width: 1.5; stroke-linecap: square"/>
    </g>
    <g id="text_16">
     <!-- $\alpha=0$ -->
     <g transform="translate(290.372321 41.958281) scale(0.11 -0.11)">
      <defs>
       <path id="DejaVuSans-Oblique-3b1" d="M 2619 1628 
L 2622 2350 
Q 2625 3088 2069 3091 
Q 1653 3094 1394 2747 
Q 1069 2319 959 1747 
Q 825 1059 994 731 
Q 1169 397 1547 397 
Q 1966 397 2319 1063 
L 2619 1628 
z
M 2166 3578 
Q 3141 3594 3128 2584 
Q 3128 2584 3616 3500 
L 4128 3500 
L 3119 1603 
L 3109 919 
Q 3109 766 3194 638 
Q 3291 488 3391 488 
L 3669 488 
L 3575 0 
L 3228 0 
Q 2934 0 2722 263 
Q 2622 394 2619 669 
Q 2416 334 2066 50 
Q 1900 -81 1453 -78 
Q 722 -72 456 397 
Q 184 884 353 1747 
Q 534 2675 1009 3097 
Q 1544 3569 2166 3578 
z
" transform="scale(0.015625)"/>
      </defs>
      <use xlink:href="#DejaVuSans-Oblique-3b1" transform="translate(0 0.78125)"/>
      <use xlink:href="#DejaVuSans-3d" transform="translate(85.400391 0.78125)"/>
      <use xlink:href="#DejaVuSans-30" transform="translate(188.671875 0.78125)"/>
     </g>
    </g>
    <g id="line2d_92">
     <path d="M 259.572321 54.254219 
L 270.572321 54.254219 
L 281.572321 54.254219 
" style="fill: none; stroke: #ff0000; stroke-width: 1.5; stroke-linecap: square"/>
    </g>
    <g id="text_17">
     <!-- $\alpha=0.5$ -->
     <g transform="translate(290.372321 58.104219) scale(0.11 -0.11)">
      <use xlink:href="#DejaVuSans-Oblique-3b1" transform="translate(0 0.78125)"/>
      <use xlink:href="#DejaVuSans-3d" transform="translate(85.400391 0.78125)"/>
      <use xlink:href="#DejaVuSans-30" transform="translate(188.671875 0.78125)"/>
      <use xlink:href="#DejaVuSans-2e" transform="translate(252.294922 0.78125)"/>
      <use xlink:href="#DejaVuSans-35" transform="translate(284.082031 0.78125)"/>
     </g>
    </g>
   </g>
  </g>
 </g>
 <defs>
  <clipPath id="pd551cee536">
   <rect x="51.749375" y="23.7" width="286.802946" height="145.476"/>
  </clipPath>
 </defs>
</svg>
