<?xml version="1.0" encoding="utf-8" standalone="no"?>
<!DOCTYPE svg PUBLIC "-//W3C//DTD SVG 1.1//EN"
  "http://www.w3.org/Graphics/SVG/1.1/DTD/svg11.dtd">
<svg xmlns:xlink="http://www.w3.org/1999/xlink" width="352.114821pt" height="206.6675pt" viewBox="0 0 352.114821 206.6675" xmlns="http://www.w3.org/2000/svg" version="1.1">
 <metadata>
  <rdf:RDF xmlns:dc="http://purl.org/dc/elements/1.1/" xmlns:cc="http://creativecommons.org/ns#" xmlns:rdf="http://www.w3.org/1999/02/22-rdf-syntax-ns#">
   <cc:Work>
    <dc:type rdf:resource="http://purl.org/dc/dcmitype/StillImage"/>
    <dc:date>2025-09-30T19:47:17.348230</dc:date>
    <dc:format>image/svg+xml</dc:format>
    <dc:creator>
     <cc:Agent>
      <dc:title>Matplotlib v3.10.3, https://matplotlib.org/</dc:title>
     </cc:Agent>
    </dc:creator>
   </cc:Work>
  </rdf:RDF>
 </metadata>
 <defs>
  <style type="text/css">*{stroke-linejoin: round; stroke-linecap: butt}</style>
 </defs>
 <g id="figure_1">
  <g id="patch_1">
   <path d="M 0 206.6675 
L 352.114821 206.6675 
L 352.114821 0 
L 0 0 
z
" style="fill: #ffffff"/>
  </g>
  <g id="axes_1">
   <g id="patch_2">
    <path d="M 51.749375 168.74 
L 338.552321 168.74 
L 338.552321 23.84 
L 51.749375 23.84 
z
" style="fill: #ffffff"/>
   </g>
   <g id="matplotlib.axis_1">
    <g id="xtick_1">
     <g id="line2d_1">
      <defs>
       <path id="m8945982a0b" d="M 0 0 
L 0 -3.5 
" style="stroke: #000000; stroke-width: 0.8"/>
      </defs>
      <g>
       <use xlink:href="#m8945982a0b" x="51.749375" y="168.74" style="stroke: #000000; stroke-width: 0.8"/>
      </g>
     </g>
     <g id="line2d_2">
      <defs>
       <path id="m9b6f869af0" d="M 0 0 
L 0 3.5 
" style="stroke: #000000; stroke-width: 0.8"/>
      </defs>
      <g>
       <use xlink:href="#m9b6f869af0" x="51.749375" y="23.84" style="stroke: #000000; stroke-width: 0.8"/>
      </g>
     </g>
     <g id="text_1">
      <!-- 0 -->
      <g transform="translate(48.568125 179.838437) scale(0.1 -0.1)">
       <defs>
        <path id="DejaVuSans-30" d="M 2034 4250 
Q 1547 4250 1301 3770 
Q 1056 3291 1056 2328 
Q 1056 1369 1301 889 
Q 1547 409 2034 409 
Q 2525 409 2770 889 
Q 3016 1369 3016 2328 
Q 3016 3291 2770 3770 
Q 2525 4250 2034 4250 
z
M 2034 4750 
Q 2819 4750 3233 4129 
Q 3647 3509 3647 2328 
Q 3647 1150 3233 529 
Q 2819 -91 2034 -91 
Q 1250 -91 836 529 
Q 422 1150 422 2328 
Q 422 3509 836 4129 
Q 1250 4750 2034 4750 
z
" transform="scale(0.015625)"/>
       </defs>
       <use xlink:href="#DejaVuSans-30"/>
      </g>
     </g>
    </g>
    <g id="xtick_2">
     <g id="line2d_3">
      <g>
       <use xlink:href="#m8945982a0b" x="99.549866" y="168.74" style="stroke: #000000; stroke-width: 0.8"/>
      </g>
     </g>
     <g id="line2d_4">
      <g>
       <use xlink:href="#m9b6f869af0" x="99.549866" y="23.84" style="stroke: #000000; stroke-width: 0.8"/>
      </g>
     </g>
     <g id="text_2">
      <!-- 5 -->
      <g transform="translate(96.368616 179.838437) scale(0.1 -0.1)">
       <defs>
        <path id="DejaVuSans-35" d="M 691 4666 
L 3169 4666 
L 3169 4134 
L 1269 4134 
L 1269 2991 
Q 1406 3038 1543 3061 
Q 1681 3084 1819 3084 
Q 2600 3084 3056 2656 
Q 3513 2228 3513 1497 
Q 3513 744 3044 326 
Q 2575 -91 1722 -91 
Q 1428 -91 1123 -41 
Q 819 9 494 109 
L 494 744 
Q 775 591 1075 516 
Q 1375 441 1709 441 
Q 2250 441 2565 725 
Q 2881 1009 2881 1497 
Q 2881 1984 2565 2268 
Q 2250 2553 1709 2553 
Q 1456 2553 1204 2497 
Q 953 2441 691 2322 
L 691 4666 
z
" transform="scale(0.015625)"/>
       </defs>
       <use xlink:href="#DejaVuSans-35"/>
      </g>
     </g>
    </g>
    <g id="xtick_3">
     <g id="line2d_5">
      <g>
       <use xlink:href="#m8945982a0b" x="147.350357" y="168.74" style="stroke: #000000; stroke-width: 0.8"/>
      </g>
     </g>
     <g id="line2d_6">
      <g>
       <use xlink:href="#m9b6f869af0" x="147.350357" y="23.84" style="stroke: #000000; stroke-width: 0.8"/>
      </g>
     </g>
     <g id="text_3">
      <!-- 10 -->
      <g transform="translate(140.987857 179.838437) scale(0.1 -0.1)">
       <defs>
        <path id="DejaVuSans-31" d="M 794 531 
L 1825 531 
L 1825 4091 
L 703 3866 
L 703 4441 
L 1819 4666 
L 2450 4666 
L 2450 531 
L 3481 531 
L 3481 0 
L 794 0 
L 794 531 
z
" transform="scale(0.015625)"/>
       </defs>
       <use xlink:href="#DejaVuSans-31"/>
       <use xlink:href="#DejaVuSans-30" transform="translate(63.623047 0)"/>
      </g>
     </g>
    </g>
    <g id="xtick_4">
     <g id="line2d_7">
      <g>
       <use xlink:href="#m8945982a0b" x="195.150848" y="168.74" style="stroke: #000000; stroke-width: 0.8"/>
      </g>
     </g>
     <g id="line2d_8">
      <g>
       <use xlink:href="#m9b6f869af0" x="195.150848" y="23.84" style="stroke: #000000; stroke-width: 0.8"/>
      </g>
     </g>
     <g id="text_4">
      <!-- 15 -->
      <g transform="translate(188.788348 179.838437) scale(0.1 -0.1)">
       <use xlink:href="#DejaVuSans-31"/>
       <use xlink:href="#DejaVuSans-35" transform="translate(63.623047 0)"/>
      </g>
     </g>
    </g>
    <g id="xtick_5">
     <g id="line2d_9">
      <g>
       <use xlink:href="#m8945982a0b" x="242.951339" y="168.74" style="stroke: #000000; stroke-width: 0.8"/>
      </g>
     </g>
     <g id="line2d_10">
      <g>
       <use xlink:href="#m9b6f869af0" x="242.951339" y="23.84" style="stroke: #000000; stroke-width: 0.8"/>
      </g>
     </g>
     <g id="text_5">
      <!-- 20 -->
      <g transform="translate(236.588839 179.838437) scale(0.1 -0.1)">
       <defs>
        <path id="DejaVuSans-32" d="M 1228 531 
L 3431 531 
L 3431 0 
L 469 0 
L 469 531 
Q 828 903 1448 1529 
Q 2069 2156 2228 2338 
Q 2531 2678 2651 2914 
Q 2772 3150 2772 3378 
Q 2772 3750 2511 3984 
Q 2250 4219 1831 4219 
Q 1534 4219 1204 4116 
Q 875 4013 500 3803 
L 500 4441 
Q 881 4594 1212 4672 
Q 1544 4750 1819 4750 
Q 2544 4750 2975 4387 
Q 3406 4025 3406 3419 
Q 3406 3131 3298 2873 
Q 3191 2616 2906 2266 
Q 2828 2175 2409 1742 
Q 1991 1309 1228 531 
z
" transform="scale(0.015625)"/>
       </defs>
       <use xlink:href="#DejaVuSans-32"/>
       <use xlink:href="#DejaVuSans-30" transform="translate(63.623047 0)"/>
      </g>
     </g>
    </g>
    <g id="xtick_6">
     <g id="line2d_11">
      <g>
       <use xlink:href="#m8945982a0b" x="290.75183" y="168.74" style="stroke: #000000; stroke-width: 0.8"/>
      </g>
     </g>
     <g id="line2d_12">
      <g>
       <use xlink:href="#m9b6f869af0" x="290.75183" y="23.84" style="stroke: #000000; stroke-width: 0.8"/>
      </g>
     </g>
     <g id="text_6">
      <!-- 25 -->
      <g transform="translate(284.38933 179.838437) scale(0.1 -0.1)">
       <use xlink:href="#DejaVuSans-32"/>
       <use xlink:href="#DejaVuSans-35" transform="translate(63.623047 0)"/>
      </g>
     </g>
    </g>
    <g id="xtick_7">
     <g id="line2d_13">
      <g>
       <use xlink:href="#m8945982a0b" x="338.552321" y="168.74" style="stroke: #000000; stroke-width: 0.8"/>
      </g>
     </g>
     <g id="line2d_14">
      <g>
       <use xlink:href="#m9b6f869af0" x="338.552321" y="23.84" style="stroke: #000000; stroke-width: 0.8"/>
      </g>
     </g>
     <g id="text_7">
      <!-- 30 -->
      <g transform="translate(332.189821 179.838437) scale(0.1 -0.1)">
       <defs>
        <path id="DejaVuSans-33" d="M 2597 2516 
Q 3050 2419 3304 2112 
Q 3559 1806 3559 1356 
Q 3559 666 3084 287 
Q 2609 -91 1734 -91 
Q 1441 -91 1130 -33 
Q 819 25 488 141 
L 488 750 
Q 750 597 1062 519 
Q 1375 441 1716 441 
Q 2309 441 2620 675 
Q 2931 909 2931 1356 
Q 2931 1769 2642 2001 
Q 2353 2234 1838 2234 
L 1294 2234 
L 1294 2753 
L 1863 2753 
Q 2328 2753 2575 2939 
Q 2822 3125 2822 3475 
Q 2822 3834 2567 4026 
Q 2313 4219 1838 4219 
Q 1578 4219 1281 4162 
Q 984 4106 628 3988 
L 628 4550 
Q 988 4650 1302 4700 
Q 1616 4750 1894 4750 
Q 2613 4750 3031 4423 
Q 3450 4097 3450 3541 
Q 3450 3153 3228 2886 
Q 3006 2619 2597 2516 
z
" transform="scale(0.015625)"/>
       </defs>
       <use xlink:href="#DejaVuSans-33"/>
       <use xlink:href="#DejaVuSans-30" transform="translate(63.623047 0)"/>
      </g>
     </g>
    </g>
    <g id="text_8">
     <!-- Time -->
     <g transform="translate(178.023817 196.555937) scale(0.14 -0.14)">
      <defs>
       <path id="DejaVuSans-54" d="M -19 4666 
L 3928 4666 
L 3928 4134 
L 2272 4134 
L 2272 0 
L 1638 0 
L 1638 4134 
L -19 4134 
L -19 4666 
z
" transform="scale(0.015625)"/>
       <path id="DejaVuSans-69" d="M 603 3500 
L 1178 3500 
L 1178 0 
L 603 0 
L 603 3500 
z
M 603 4863 
L 1178 4863 
L 1178 4134 
L 603 4134 
L 603 4863 
z
" transform="scale(0.015625)"/>
       <path id="DejaVuSans-6d" d="M 3328 2828 
Q 3544 3216 3844 3400 
Q 4144 3584 4550 3584 
Q 5097 3584 5394 3201 
Q 5691 2819 5691 2113 
L 5691 0 
L 5113 0 
L 5113 2094 
Q 5113 2597 4934 2840 
Q 4756 3084 4391 3084 
Q 3944 3084 3684 2787 
Q 3425 2491 3425 1978 
L 3425 0 
L 2847 0 
L 2847 2094 
Q 2847 2600 2669 2842 
Q 2491 3084 2119 3084 
Q 1678 3084 1418 2786 
Q 1159 2488 1159 1978 
L 1159 0 
L 581 0 
L 581 3500 
L 1159 3500 
L 1159 2956 
Q 1356 3278 1631 3431 
Q 1906 3584 2284 3584 
Q 2666 3584 2933 3390 
Q 3200 3197 3328 2828 
z
" transform="scale(0.015625)"/>
       <path id="DejaVuSans-65" d="M 3597 1894 
L 3597 1613 
L 953 1613 
Q 991 1019 1311 708 
Q 1631 397 2203 397 
Q 2534 397 2845 478 
Q 3156 559 3463 722 
L 3463 178 
Q 3153 47 2828 -22 
Q 2503 -91 2169 -91 
Q 1331 -91 842 396 
Q 353 884 353 1716 
Q 353 2575 817 3079 
Q 1281 3584 2069 3584 
Q 2775 3584 3186 3129 
Q 3597 2675 3597 1894 
z
M 3022 2063 
Q 3016 2534 2758 2815 
Q 2500 3097 2075 3097 
Q 1594 3097 1305 2825 
Q 1016 2553 972 2059 
L 3022 2063 
z
" transform="scale(0.015625)"/>
      </defs>
      <use xlink:href="#DejaVuSans-54"/>
      <use xlink:href="#DejaVuSans-69" transform="translate(57.958984 0)"/>
      <use xlink:href="#DejaVuSans-6d" transform="translate(85.742188 0)"/>
      <use xlink:href="#DejaVuSans-65" transform="translate(183.154297 0)"/>
     </g>
    </g>
   </g>
   <g id="matplotlib.axis_2">
    <g id="ytick_1">
     <g id="line2d_15">
      <defs>
       <path id="mc488cda412" d="M 0 0 
L 3.5 0 
" style="stroke: #000000; stroke-width: 0.8"/>
      </defs>
      <g>
       <use xlink:href="#mc488cda412" x="51.749375" y="168.74" style="stroke: #000000; stroke-width: 0.8"/>
      </g>
     </g>
     <g id="line2d_16">
      <defs>
       <path id="me6cc85bf10" d="M 0 0 
L -3.5 0 
" style="stroke: #000000; stroke-width: 0.8"/>
      </defs>
      <g>
       <use xlink:href="#me6cc85bf10" x="338.552321" y="168.74" style="stroke: #000000; stroke-width: 0.8"/>
      </g>
     </g>
     <g id="text_9">
      <!-- $\mathdefault{10^{-4}}$ -->
      <g transform="translate(24.749375 172.539219) scale(0.1 -0.1)">
       <defs>
        <path id="DejaVuSans-2212" d="M 678 2272 
L 4684 2272 
L 4684 1741 
L 678 1741 
L 678 2272 
z
" transform="scale(0.015625)"/>
        <path id="DejaVuSans-34" d="M 2419 4116 
L 825 1625 
L 2419 1625 
L 2419 4116 
z
M 2253 4666 
L 3047 4666 
L 3047 1625 
L 3713 1625 
L 3713 1100 
L 3047 1100 
L 3047 0 
L 2419 0 
L 2419 1100 
L 313 1100 
L 313 1709 
L 2253 4666 
z
" transform="scale(0.015625)"/>
       </defs>
       <use xlink:href="#DejaVuSans-31" transform="translate(0 0.684375)"/>
       <use xlink:href="#DejaVuSans-30" transform="translate(63.623047 0.684375)"/>
       <use xlink:href="#DejaVuSans-2212" transform="translate(128.203125 38.965625) scale(0.7)"/>
       <use xlink:href="#DejaVuSans-34" transform="translate(186.855469 38.965625) scale(0.7)"/>
      </g>
     </g>
    </g>
    <g id="ytick_2">
     <g id="line2d_17">
      <g>
       <use xlink:href="#mc488cda412" x="51.749375" y="132.886023" style="stroke: #000000; stroke-width: 0.8"/>
      </g>
     </g>
     <g id="line2d_18">
      <g>
       <use xlink:href="#me6cc85bf10" x="338.552321" y="132.886023" style="stroke: #000000; stroke-width: 0.8"/>
      </g>
     </g>
     <g id="text_10">
      <!-- $\mathdefault{10^{-3}}$ -->
      <g transform="translate(24.749375 136.685242) scale(0.1 -0.1)">
       <use xlink:href="#DejaVuSans-31" transform="translate(0 0.765625)"/>
       <use xlink:href="#DejaVuSans-30" transform="translate(63.623047 0.765625)"/>
       <use xlink:href="#DejaVuSans-2212" transform="translate(128.203125 39.046875) scale(0.7)"/>
       <use xlink:href="#DejaVuSans-33" transform="translate(186.855469 39.046875) scale(0.7)"/>
      </g>
     </g>
    </g>
    <g id="ytick_3">
     <g id="line2d_19">
      <g>
       <use xlink:href="#mc488cda412" x="51.749375" y="97.032046" style="stroke: #000000; stroke-width: 0.8"/>
      </g>
     </g>
     <g id="line2d_20">
      <g>
       <use xlink:href="#me6cc85bf10" x="338.552321" y="97.032046" style="stroke: #000000; stroke-width: 0.8"/>
      </g>
     </g>
     <g id="text_11">
      <!-- $\mathdefault{10^{-2}}$ -->
      <g transform="translate(24.749375 100.831265) scale(0.1 -0.1)">
       <use xlink:href="#DejaVuSans-31" transform="translate(0 0.765625)"/>
       <use xlink:href="#DejaVuSans-30" transform="translate(63.623047 0.765625)"/>
       <use xlink:href="#DejaVuSans-2212" transform="translate(128.203125 39.046875) scale(0.7)"/>
       <use xlink:href="#DejaVuSans-32" transform="translate(186.855469 39.046875) scale(0.7)"/>
      </g>
     </g>
    </g>
    <g id="ytick_4">
     <g id="line2d_21">
      <g>
       <use xlink:href="#mc488cda412" x="51.749375" y="61.178069" style="stroke: #000000; stroke-width: 0.8"/>
      </g>
     </g>
     <g id="line2d_22">
      <g>
       <use xlink:href="#me6cc85bf10" x="338.552321" y="61.178069" style="stroke: #000000; stroke-width: 0.8"/>
      </g>
     </g>
     <g id="text_12">
      <!-- $\mathdefault{10^{-1}}$ -->
      <g transform="translate(24.749375 64.977288) scale(0.1 -0.1)">
       <use xlink:href="#DejaVuSans-31" transform="translate(0 0.684375)"/>
       <use xlink:href="#DejaVuSans-30" transform="translate(63.623047 0.684375)"/>
       <use xlink:href="#DejaVuSans-2212" transform="translate(128.203125 38.965625) scale(0.7)"/>
       <use xlink:href="#DejaVuSans-31" transform="translate(186.855469 38.965625) scale(0.7)"/>
      </g>
     </g>
    </g>
    <g id="ytick_5">
     <g id="line2d_23">
      <g>
       <use xlink:href="#mc488cda412" x="51.749375" y="25.324092" style="stroke: #000000; stroke-width: 0.8"/>
      </g>
     </g>
     <g id="line2d_24">
      <g>
       <use xlink:href="#me6cc85bf10" x="338.552321" y="25.324092" style="stroke: #000000; stroke-width: 0.8"/>
      </g>
     </g>
     <g id="text_13">
      <!-- $\mathdefault{10^{0}}$ -->
      <g transform="translate(30.649375 29.123311) scale(0.1 -0.1)">
       <use xlink:href="#DejaVuSans-31" transform="translate(0 0.765625)"/>
       <use xlink:href="#DejaVuSans-30" transform="translate(63.623047 0.765625)"/>
       <use xlink:href="#DejaVuSans-30" transform="translate(128.203125 39.046875) scale(0.7)"/>
      </g>
     </g>
    </g>
    <g id="ytick_6">
     <g id="line2d_25">
      <defs>
       <path id="m0fa39af2fb" d="M 0 0 
L 2 0 
" style="stroke: #000000; stroke-width: 0.6"/>
      </defs>
      <g>
       <use xlink:href="#m0fa39af2fb" x="51.749375" y="157.946877" style="stroke: #000000; stroke-width: 0.6"/>
      </g>
     </g>
     <g id="line2d_26">
      <defs>
       <path id="m1debc3d243" d="M 0 0 
L -2 0 
" style="stroke: #000000; stroke-width: 0.6"/>
      </defs>
      <g>
       <use xlink:href="#m1debc3d243" x="338.552321" y="157.946877" style="stroke: #000000; stroke-width: 0.6"/>
      </g>
     </g>
    </g>
    <g id="ytick_7">
     <g id="line2d_27">
      <g>
       <use xlink:href="#m0fa39af2fb" x="51.749375" y="151.633306" style="stroke: #000000; stroke-width: 0.6"/>
      </g>
     </g>
     <g id="line2d_28">
      <g>
       <use xlink:href="#m1debc3d243" x="338.552321" y="151.633306" style="stroke: #000000; stroke-width: 0.6"/>
      </g>
     </g>
    </g>
    <g id="ytick_8">
     <g id="line2d_29">
      <g>
       <use xlink:href="#m0fa39af2fb" x="51.749375" y="147.153755" style="stroke: #000000; stroke-width: 0.6"/>
      </g>
     </g>
     <g id="line2d_30">
      <g>
       <use xlink:href="#m1debc3d243" x="338.552321" y="147.153755" style="stroke: #000000; stroke-width: 0.6"/>
      </g>
     </g>
    </g>
    <g id="ytick_9">
     <g id="line2d_31">
      <g>
       <use xlink:href="#m0fa39af2fb" x="51.749375" y="143.679146" style="stroke: #000000; stroke-width: 0.6"/>
      </g>
     </g>
     <g id="line2d_32">
      <g>
       <use xlink:href="#m1debc3d243" x="338.552321" y="143.679146" style="stroke: #000000; stroke-width: 0.6"/>
      </g>
     </g>
    </g>
    <g id="ytick_10">
     <g id="line2d_33">
      <g>
       <use xlink:href="#m0fa39af2fb" x="51.749375" y="140.840183" style="stroke: #000000; stroke-width: 0.6"/>
      </g>
     </g>
     <g id="line2d_34">
      <g>
       <use xlink:href="#m1debc3d243" x="338.552321" y="140.840183" style="stroke: #000000; stroke-width: 0.6"/>
      </g>
     </g>
    </g>
    <g id="ytick_11">
     <g id="line2d_35">
      <g>
       <use xlink:href="#m0fa39af2fb" x="51.749375" y="138.439874" style="stroke: #000000; stroke-width: 0.6"/>
      </g>
     </g>
     <g id="line2d_36">
      <g>
       <use xlink:href="#m1debc3d243" x="338.552321" y="138.439874" style="stroke: #000000; stroke-width: 0.6"/>
      </g>
     </g>
    </g>
    <g id="ytick_12">
     <g id="line2d_37">
      <g>
       <use xlink:href="#m0fa39af2fb" x="51.749375" y="136.360632" style="stroke: #000000; stroke-width: 0.6"/>
      </g>
     </g>
     <g id="line2d_38">
      <g>
       <use xlink:href="#m1debc3d243" x="338.552321" y="136.360632" style="stroke: #000000; stroke-width: 0.6"/>
      </g>
     </g>
    </g>
    <g id="ytick_13">
     <g id="line2d_39">
      <g>
       <use xlink:href="#m0fa39af2fb" x="51.749375" y="134.526611" style="stroke: #000000; stroke-width: 0.6"/>
      </g>
     </g>
     <g id="line2d_40">
      <g>
       <use xlink:href="#m1debc3d243" x="338.552321" y="134.526611" style="stroke: #000000; stroke-width: 0.6"/>
      </g>
     </g>
    </g>
    <g id="ytick_14">
     <g id="line2d_41">
      <g>
       <use xlink:href="#m0fa39af2fb" x="51.749375" y="122.092901" style="stroke: #000000; stroke-width: 0.6"/>
      </g>
     </g>
     <g id="line2d_42">
      <g>
       <use xlink:href="#m1debc3d243" x="338.552321" y="122.092901" style="stroke: #000000; stroke-width: 0.6"/>
      </g>
     </g>
    </g>
    <g id="ytick_15">
     <g id="line2d_43">
      <g>
       <use xlink:href="#m0fa39af2fb" x="51.749375" y="115.779329" style="stroke: #000000; stroke-width: 0.6"/>
      </g>
     </g>
     <g id="line2d_44">
      <g>
       <use xlink:href="#m1debc3d243" x="338.552321" y="115.779329" style="stroke: #000000; stroke-width: 0.6"/>
      </g>
     </g>
    </g>
    <g id="ytick_16">
     <g id="line2d_45">
      <g>
       <use xlink:href="#m0fa39af2fb" x="51.749375" y="111.299778" style="stroke: #000000; stroke-width: 0.6"/>
      </g>
     </g>
     <g id="line2d_46">
      <g>
       <use xlink:href="#m1debc3d243" x="338.552321" y="111.299778" style="stroke: #000000; stroke-width: 0.6"/>
      </g>
     </g>
    </g>
    <g id="ytick_17">
     <g id="line2d_47">
      <g>
       <use xlink:href="#m0fa39af2fb" x="51.749375" y="107.825169" style="stroke: #000000; stroke-width: 0.6"/>
      </g>
     </g>
     <g id="line2d_48">
      <g>
       <use xlink:href="#m1debc3d243" x="338.552321" y="107.825169" style="stroke: #000000; stroke-width: 0.6"/>
      </g>
     </g>
    </g>
    <g id="ytick_18">
     <g id="line2d_49">
      <g>
       <use xlink:href="#m0fa39af2fb" x="51.749375" y="104.986206" style="stroke: #000000; stroke-width: 0.6"/>
      </g>
     </g>
     <g id="line2d_50">
      <g>
       <use xlink:href="#m1debc3d243" x="338.552321" y="104.986206" style="stroke: #000000; stroke-width: 0.6"/>
      </g>
     </g>
    </g>
    <g id="ytick_19">
     <g id="line2d_51">
      <g>
       <use xlink:href="#m0fa39af2fb" x="51.749375" y="102.585897" style="stroke: #000000; stroke-width: 0.6"/>
      </g>
     </g>
     <g id="line2d_52">
      <g>
       <use xlink:href="#m1debc3d243" x="338.552321" y="102.585897" style="stroke: #000000; stroke-width: 0.6"/>
      </g>
     </g>
    </g>
    <g id="ytick_20">
     <g id="line2d_53">
      <g>
       <use xlink:href="#m0fa39af2fb" x="51.749375" y="100.506656" style="stroke: #000000; stroke-width: 0.6"/>
      </g>
     </g>
     <g id="line2d_54">
      <g>
       <use xlink:href="#m1debc3d243" x="338.552321" y="100.506656" style="stroke: #000000; stroke-width: 0.6"/>
      </g>
     </g>
    </g>
    <g id="ytick_21">
     <g id="line2d_55">
      <g>
       <use xlink:href="#m0fa39af2fb" x="51.749375" y="98.672634" style="stroke: #000000; stroke-width: 0.6"/>
      </g>
     </g>
     <g id="line2d_56">
      <g>
       <use xlink:href="#m1debc3d243" x="338.552321" y="98.672634" style="stroke: #000000; stroke-width: 0.6"/>
      </g>
     </g>
    </g>
    <g id="ytick_22">
     <g id="line2d_57">
      <g>
       <use xlink:href="#m0fa39af2fb" x="51.749375" y="86.238924" style="stroke: #000000; stroke-width: 0.6"/>
      </g>
     </g>
     <g id="line2d_58">
      <g>
       <use xlink:href="#m1debc3d243" x="338.552321" y="86.238924" style="stroke: #000000; stroke-width: 0.6"/>
      </g>
     </g>
    </g>
    <g id="ytick_23">
     <g id="line2d_59">
      <g>
       <use xlink:href="#m0fa39af2fb" x="51.749375" y="79.925352" style="stroke: #000000; stroke-width: 0.6"/>
      </g>
     </g>
     <g id="line2d_60">
      <g>
       <use xlink:href="#m1debc3d243" x="338.552321" y="79.925352" style="stroke: #000000; stroke-width: 0.6"/>
      </g>
     </g>
    </g>
    <g id="ytick_24">
     <g id="line2d_61">
      <g>
       <use xlink:href="#m0fa39af2fb" x="51.749375" y="75.445801" style="stroke: #000000; stroke-width: 0.6"/>
      </g>
     </g>
     <g id="line2d_62">
      <g>
       <use xlink:href="#m1debc3d243" x="338.552321" y="75.445801" style="stroke: #000000; stroke-width: 0.6"/>
      </g>
     </g>
    </g>
    <g id="ytick_25">
     <g id="line2d_63">
      <g>
       <use xlink:href="#m0fa39af2fb" x="51.749375" y="71.971192" style="stroke: #000000; stroke-width: 0.6"/>
      </g>
     </g>
     <g id="line2d_64">
      <g>
       <use xlink:href="#m1debc3d243" x="338.552321" y="71.971192" style="stroke: #000000; stroke-width: 0.6"/>
      </g>
     </g>
    </g>
    <g id="ytick_26">
     <g id="line2d_65">
      <g>
       <use xlink:href="#m0fa39af2fb" x="51.749375" y="69.132229" style="stroke: #000000; stroke-width: 0.6"/>
      </g>
     </g>
     <g id="line2d_66">
      <g>
       <use xlink:href="#m1debc3d243" x="338.552321" y="69.132229" style="stroke: #000000; stroke-width: 0.6"/>
      </g>
     </g>
    </g>
    <g id="ytick_27">
     <g id="line2d_67">
      <g>
       <use xlink:href="#m0fa39af2fb" x="51.749375" y="66.731921" style="stroke: #000000; stroke-width: 0.6"/>
      </g>
     </g>
     <g id="line2d_68">
      <g>
       <use xlink:href="#m1debc3d243" x="338.552321" y="66.731921" style="stroke: #000000; stroke-width: 0.6"/>
      </g>
     </g>
    </g>
    <g id="ytick_28">
     <g id="line2d_69">
      <g>
       <use xlink:href="#m0fa39af2fb" x="51.749375" y="64.652679" style="stroke: #000000; stroke-width: 0.6"/>
      </g>
     </g>
     <g id="line2d_70">
      <g>
       <use xlink:href="#m1debc3d243" x="338.552321" y="64.652679" style="stroke: #000000; stroke-width: 0.6"/>
      </g>
     </g>
    </g>
    <g id="ytick_29">
     <g id="line2d_71">
      <g>
       <use xlink:href="#m0fa39af2fb" x="51.749375" y="62.818657" style="stroke: #000000; stroke-width: 0.6"/>
      </g>
     </g>
     <g id="line2d_72">
      <g>
       <use xlink:href="#m1debc3d243" x="338.552321" y="62.818657" style="stroke: #000000; stroke-width: 0.6"/>
      </g>
     </g>
    </g>
    <g id="ytick_30">
     <g id="line2d_73">
      <g>
       <use xlink:href="#m0fa39af2fb" x="51.749375" y="50.384947" style="stroke: #000000; stroke-width: 0.6"/>
      </g>
     </g>
     <g id="line2d_74">
      <g>
       <use xlink:href="#m1debc3d243" x="338.552321" y="50.384947" style="stroke: #000000; stroke-width: 0.6"/>
      </g>
     </g>
    </g>
    <g id="ytick_31">
     <g id="line2d_75">
      <g>
       <use xlink:href="#m0fa39af2fb" x="51.749375" y="44.071375" style="stroke: #000000; stroke-width: 0.6"/>
      </g>
     </g>
     <g id="line2d_76">
      <g>
       <use xlink:href="#m1debc3d243" x="338.552321" y="44.071375" style="stroke: #000000; stroke-width: 0.6"/>
      </g>
     </g>
    </g>
    <g id="ytick_32">
     <g id="line2d_77">
      <g>
       <use xlink:href="#m0fa39af2fb" x="51.749375" y="39.591824" style="stroke: #000000; stroke-width: 0.6"/>
      </g>
     </g>
     <g id="line2d_78">
      <g>
       <use xlink:href="#m1debc3d243" x="338.552321" y="39.591824" style="stroke: #000000; stroke-width: 0.6"/>
      </g>
     </g>
    </g>
    <g id="ytick_33">
     <g id="line2d_79">
      <g>
       <use xlink:href="#m0fa39af2fb" x="51.749375" y="36.117215" style="stroke: #000000; stroke-width: 0.6"/>
      </g>
     </g>
     <g id="line2d_80">
      <g>
       <use xlink:href="#m1debc3d243" x="338.552321" y="36.117215" style="stroke: #000000; stroke-width: 0.6"/>
      </g>
     </g>
    </g>
    <g id="ytick_34">
     <g id="line2d_81">
      <g>
       <use xlink:href="#m0fa39af2fb" x="51.749375" y="33.278252" style="stroke: #000000; stroke-width: 0.6"/>
      </g>
     </g>
     <g id="line2d_82">
      <g>
       <use xlink:href="#m1debc3d243" x="338.552321" y="33.278252" style="stroke: #000000; stroke-width: 0.6"/>
      </g>
     </g>
    </g>
    <g id="ytick_35">
     <g id="line2d_83">
      <g>
       <use xlink:href="#m0fa39af2fb" x="51.749375" y="30.877944" style="stroke: #000000; stroke-width: 0.6"/>
      </g>
     </g>
     <g id="line2d_84">
      <g>
       <use xlink:href="#m1debc3d243" x="338.552321" y="30.877944" style="stroke: #000000; stroke-width: 0.6"/>
      </g>
     </g>
    </g>
    <g id="ytick_36">
     <g id="line2d_85">
      <g>
       <use xlink:href="#m0fa39af2fb" x="51.749375" y="28.798702" style="stroke: #000000; stroke-width: 0.6"/>
      </g>
     </g>
     <g id="line2d_86">
      <g>
       <use xlink:href="#m1debc3d243" x="338.552321" y="28.798702" style="stroke: #000000; stroke-width: 0.6"/>
      </g>
     </g>
    </g>
    <g id="ytick_37">
     <g id="line2d_87">
      <g>
       <use xlink:href="#m0fa39af2fb" x="51.749375" y="26.96468" style="stroke: #000000; stroke-width: 0.6"/>
      </g>
     </g>
     <g id="line2d_88">
      <g>
       <use xlink:href="#m1debc3d243" x="338.552321" y="26.96468" style="stroke: #000000; stroke-width: 0.6"/>
      </g>
     </g>
    </g>
    <g id="text_14">
     <!-- Fidelity -->
     <g transform="translate(17.837813 121.281094) rotate(-90) scale(0.14 -0.14)">
      <defs>
       <path id="DejaVuSans-46" d="M 628 4666 
L 3309 4666 
L 3309 4134 
L 1259 4134 
L 1259 2759 
L 3109 2759 
L 3109 2228 
L 1259 2228 
L 1259 0 
L 628 0 
L 628 4666 
z
" transform="scale(0.015625)"/>
       <path id="DejaVuSans-64" d="M 2906 2969 
L 2906 4863 
L 3481 4863 
L 3481 0 
L 2906 0 
L 2906 525 
Q 2725 213 2448 61 
Q 2172 -91 1784 -91 
Q 1150 -91 751 415 
Q 353 922 353 1747 
Q 353 2572 751 3078 
Q 1150 3584 1784 3584 
Q 2172 3584 2448 3432 
Q 2725 3281 2906 2969 
z
M 947 1747 
Q 947 1113 1208 752 
Q 1469 391 1925 391 
Q 2381 391 2643 752 
Q 2906 1113 2906 1747 
Q 2906 2381 2643 2742 
Q 2381 3103 1925 3103 
Q 1469 3103 1208 2742 
Q 947 2381 947 1747 
z
" transform="scale(0.015625)"/>
       <path id="DejaVuSans-6c" d="M 603 4863 
L 1178 4863 
L 1178 0 
L 603 0 
L 603 4863 
z
" transform="scale(0.015625)"/>
       <path id="DejaVuSans-74" d="M 1172 4494 
L 1172 3500 
L 2356 3500 
L 2356 3053 
L 1172 3053 
L 1172 1153 
Q 1172 725 1289 603 
Q 1406 481 1766 481 
L 2356 481 
L 2356 0 
L 1766 0 
Q 1100 0 847 248 
Q 594 497 594 1153 
L 594 3053 
L 172 3053 
L 172 3500 
L 594 3500 
L 594 4494 
L 1172 4494 
z
" transform="scale(0.015625)"/>
       <path id="DejaVuSans-79" d="M 2059 -325 
Q 1816 -950 1584 -1140 
Q 1353 -1331 966 -1331 
L 506 -1331 
L 506 -850 
L 844 -850 
Q 1081 -850 1212 -737 
Q 1344 -625 1503 -206 
L 1606 56 
L 191 3500 
L 800 3500 
L 1894 763 
L 2988 3500 
L 3597 3500 
L 2059 -325 
z
" transform="scale(0.015625)"/>
      </defs>
      <use xlink:href="#DejaVuSans-46"/>
      <use xlink:href="#DejaVuSans-69" transform="translate(50.269531 0)"/>
      <use xlink:href="#DejaVuSans-64" transform="translate(78.052734 0)"/>
      <use xlink:href="#DejaVuSans-65" transform="translate(141.529297 0)"/>
      <use xlink:href="#DejaVuSans-6c" transform="translate(203.052734 0)"/>
      <use xlink:href="#DejaVuSans-69" transform="translate(230.835938 0)"/>
      <use xlink:href="#DejaVuSans-74" transform="translate(258.619141 0)"/>
      <use xlink:href="#DejaVuSans-79" transform="translate(297.828125 0)"/>
     </g>
    </g>
   </g>
   <g id="line2d_89">
    <path d="M 51.749375 25.324092 
L 52.036178 25.421097 
L 52.418582 25.826153 
L 53.18339 27.144376 
L 53.756996 27.936905 
L 54.1394 28.136927 
L 54.521803 28.059059 
L 54.999808 27.68707 
L 56.338222 26.475669 
L 56.911828 26.288102 
L 57.485434 26.371786 
L 58.250242 26.787067 
L 59.206252 27.276558 
L 59.875458 27.343378 
L 62.265483 27.274515 
L 63.603897 27.281252 
L 65.515916 27.182286 
L 68.861951 27.515866 
L 70.391566 27.575809 
L 71.921182 27.620271 
L 73.833202 27.569337 
L 76.510029 27.836274 
L 81.098876 28.109711 
L 85.400921 28.403135 
L 87.31294 28.735865 
L 88.555753 28.445428 
L 89.416162 28.409665 
L 90.372172 28.613685 
L 92.666595 29.230135 
L 93.431403 29.088291 
L 95.05662 28.698472 
L 95.821428 28.769433 
L 96.586236 29.058011 
L 98.02025 29.694815 
L 98.593856 29.679435 
L 99.358664 29.395008 
L 100.410275 29.001816 
L 101.079482 29.005631 
L 101.748689 29.262146 
L 103.756309 30.305246 
L 104.329915 30.244265 
L 105.285925 29.863015 
L 106.146334 29.606196 
L 106.71994 29.648148 
L 107.389147 29.956444 
L 109.014363 30.922416 
L 109.68357 30.968617 
L 112.838403 30.759348 
L 113.507609 31.042762 
L 115.037225 31.799185 
L 115.706432 31.77206 
L 116.949245 31.623455 
L 117.714053 31.800771 
L 119.43487 32.295808 
L 120.486481 32.30327 
L 121.824895 32.299796 
L 122.494102 32.540818 
L 124.119318 33.275962 
L 124.788525 33.240241 
L 126.604944 32.967517 
L 127.465353 33.146088 
L 129.950978 33.926243 
L 131.671796 33.956733 
L 135.591436 34.843077 
L 136.834249 35.15808 
L 137.88586 35.163663 
L 138.84187 35.214575 
L 139.606677 35.489861 
L 140.753889 36.209573 
L 141.614298 36.667398 
L 142.187904 36.747159 
L 142.76151 36.601806 
L 144.099924 36.149295 
L 144.577929 36.268063 
L 145.151534 36.646544 
L 146.967953 38.027588 
L 147.732761 38.248661 
L 148.401968 38.198165 
L 149.357978 37.835737 
L 150.122786 37.660474 
L 150.696391 37.765873 
L 151.461199 38.18343 
L 153.564421 39.491268 
L 154.233628 39.627943 
L 154.998436 39.532203 
L 156.241248 39.336881 
L 157.006056 39.504415 
L 158.153268 40.047851 
L 159.969687 40.875161 
L 163.124519 41.816678 
L 165.227741 42.263496 
L 166.08815 42.912035 
L 167.13976 43.641833 
L 167.904568 43.901966 
L 170.9638 44.635243 
L 173.258223 45.878186 
L 174.023031 45.86309 
L 175.074642 45.812102 
L 175.648248 46.003837 
L 176.508657 46.573612 
L 177.560267 47.228659 
L 178.325075 47.458878 
L 179.089883 47.477745 
L 180.141494 47.240522 
L 180.906302 47.148069 
L 181.575509 47.300385 
L 182.627119 47.842781 
L 185.303947 49.300497 
L 185.877553 49.153571 
L 187.502769 48.472201 
L 187.980774 48.554686 
L 188.55438 48.912688 
L 189.223587 49.650622 
L 190.4664 51.088158 
L 190.944405 51.27293 
L 191.42241 51.204471 
L 193.047626 50.712938 
L 193.716833 50.860569 
L 194.481641 51.269342 
L 195.34205 52.012196 
L 196.776065 53.344676 
L 197.445272 53.625985 
L 198.210079 53.663005 
L 199.644094 53.629205 
L 200.2177 53.873451 
L 200.791306 54.361092 
L 202.607725 56.15505 
L 203.181331 56.278753 
L 204.806547 56.397945 
L 205.475754 56.776465 
L 207.865779 58.41039 
L 209.299793 58.99546 
L 210.160202 59.697598 
L 211.116212 60.415699 
L 211.785419 60.618591 
L 213.697439 60.927542 
L 214.175443 61.339997 
L 214.749049 62.130042 
L 216.087463 64.16382 
L 216.469867 64.362519 
L 216.852271 64.334032 
L 218.095084 63.967391 
L 218.477488 64.151724 
L 218.955493 64.662388 
L 219.624699 65.761704 
L 220.867512 67.882354 
L 221.345517 68.324012 
L 221.823522 68.475689 
L 223.066335 68.642954 
L 223.54434 69.110866 
L 224.309148 70.294432 
L 225.169556 71.478348 
L 227.177177 73.713194 
L 227.941985 74.544697 
L 228.611192 74.906209 
L 229.949606 75.493317 
L 230.714413 76.136359 
L 231.38362 76.993442 
L 232.052827 78.23069 
L 233.486842 81.123459 
L 233.869246 81.449683 
L 234.156049 81.481086 
L 234.538453 81.252479 
L 235.112059 80.509342 
L 235.876866 79.514733 
L 236.25927 79.352684 
L 236.546073 79.473646 
L 236.832876 79.832556 
L 237.21528 80.68916 
L 237.788886 82.660377 
L 238.936098 86.874339 
L 239.318502 87.49559 
L 239.605305 87.55476 
L 239.892108 87.291751 
L 240.274512 86.564613 
L 241.612925 83.638122 
L 241.995329 83.392135 
L 242.282132 83.479015 
L 242.568935 83.799216 
L 242.951339 84.555133 
L 243.620546 86.505105 
L 244.672157 89.614616 
L 245.245763 90.642291 
L 245.723768 91.068286 
L 246.201772 91.191915 
L 246.870979 91.070786 
L 248.209393 90.741938 
L 248.8786 90.83193 
L 249.452206 91.16243 
L 249.930211 91.702078 
L 250.503817 92.763617 
L 251.173024 94.608694 
L 253.276245 101.110691 
L 253.75425 101.783276 
L 254.136654 102.03211 
L 254.519058 102.052335 
L 254.997063 101.823183 
L 256.144275 101.128995 
L 256.431078 101.222728 
L 256.71788 101.526516 
L 257.100284 102.307651 
L 257.578289 103.89527 
L 258.343097 107.44021 
L 259.394708 112.213022 
L 260.159516 114.634475 
L 260.733122 115.84149 
L 261.115526 116.257643 
L 261.402329 116.33358 
L 261.784733 116.16935 
L 262.740742 115.5553 
L 263.027545 115.621514 
L 263.409949 115.985286 
L 263.887954 116.82841 
L 264.557161 118.511789 
L 265.226368 120.782543 
L 265.799974 123.491447 
L 267.42519 132.109528 
L 267.711993 132.613772 
L 267.998796 132.75816 
L 268.476801 132.626645 
L 268.954806 132.572953 
L 269.33721 132.794671 
L 269.719614 133.286364 
L 270.197619 134.313681 
L 270.675624 135.973106 
L 271.153629 138.611238 
L 271.631634 142.62277 
L 272.20524 149.564359 
L 273.161249 162.203547 
L 273.352451 163.127466 
L 273.448052 163.216233 
L 273.543653 163.062787 
L 273.734855 162.124116 
L 274.117259 158.671145 
L 275.16887 148.581906 
L 275.838077 144.265775 
L 276.316082 142.295896 
L 276.698486 141.510009 
L 276.889688 141.424866 
L 277.08089 141.568386 
L 277.367693 142.248799 
L 277.750097 144.091774 
L 278.228101 147.892978 
L 278.992909 154.742123 
L 279.184111 155.195135 
L 279.279712 155.016108 
L 279.470914 153.781996 
L 279.853318 148.479792 
L 281.191732 126.9573 
L 281.765338 121.737008 
L 282.147742 119.795145 
L 282.434545 119.107557 
L 282.625747 118.989172 
L 282.816949 119.116528 
L 283.103752 119.693935 
L 284.250963 122.79012 
L 284.442165 122.761286 
L 284.728968 122.287767 
L 285.206973 120.727827 
L 288.266205 109.296286 
L 288.648608 108.727751 
L 288.935411 108.581964 
L 289.317815 108.664194 
L 290.273825 109.098115 
L 290.656229 108.996789 
L 291.134234 108.619487 
L 291.899042 107.670645 
L 292.568249 106.463754 
L 294.289066 102.78637 
L 294.575869 102.67589 
L 294.862672 102.813272 
L 295.245076 103.336224 
L 296.296687 105.093249 
L 296.58349 105.081349 
L 296.870293 104.72337 
L 297.252697 103.797076 
L 298.591111 100.035308 
L 299.069116 99.44271 
L 299.451519 99.329063 
L 299.833923 99.499058 
L 300.311928 100.026171 
L 301.363539 101.348449 
L 301.650342 101.363538 
L 301.937145 101.098251 
L 302.319549 100.317016 
L 303.849165 96.437589 
L 304.135968 96.268106 
L 304.422771 96.339059 
L 304.805174 96.740729 
L 306.047987 98.407547 
L 306.33479 98.366458 
L 306.621593 98.049439 
L 307.003997 97.220577 
L 307.768805 94.761312 
L 308.438012 92.871494 
L 308.820416 92.308344 
L 309.107219 92.210353 
L 309.394022 92.398164 
L 309.776426 93.046299 
L 311.114839 95.928044 
L 311.306041 95.928721 
L 311.592844 95.602275 
L 311.975248 94.638639 
L 313.600465 89.619135 
L 313.982869 89.168123 
L 314.365273 89.041529 
L 314.843278 89.198035 
L 316.277292 89.902283 
L 316.946499 89.91358 
L 317.424504 89.737662 
L 317.902509 89.302361 
L 318.476115 88.381516 
L 319.91013 85.822357 
L 320.388135 85.432045 
L 320.96174 85.265945 
L 321.726548 85.313208 
L 323.447366 85.532168 
L 323.82977 85.251296 
L 324.307775 84.60411 
L 325.74179 82.367038 
L 326.219794 82.118234 
L 326.602198 82.14962 
L 327.175804 82.47721 
L 328.70542 83.562783 
L 329.183425 83.577545 
L 329.66143 83.323508 
L 330.139435 82.790434 
L 330.808642 81.657903 
L 332.147055 79.261895 
L 332.529459 78.936105 
L 332.911863 78.905796 
L 333.198666 79.099088 
L 333.58107 79.642906 
L 334.154676 80.941787 
L 335.015085 82.8585 
L 335.301888 83.067749 
L 335.49309 83.006382 
L 335.779893 82.59403 
L 336.162297 81.517063 
L 337.787513 76.13479 
L 338.169917 75.796057 
L 338.45672 75.855926 
L 338.647922 76.031747 
L 338.647922 76.031747 
" clip-path="url(#pa846050e68)" style="fill: none; stroke: #1f77b4; stroke-width: 1.5; stroke-linecap: square"/>
   </g>
   <g id="line2d_90">
    <path d="M 51.749375 25.324092 
L 52.036178 25.447762 
L 52.418582 25.93991 
L 53.374592 27.348511 
L 53.661395 27.420422 
L 53.948198 27.282397 
L 54.426202 26.744512 
L 55.19101 25.867361 
L 55.573414 25.715713 
L 55.955818 25.827235 
L 56.433823 26.25297 
L 57.198631 26.937819 
L 57.581035 27.001566 
L 58.05904 26.81127 
L 59.01505 26.340149 
L 59.588656 26.339765 
L 61.500675 26.576813 
L 62.647887 26.667055 
L 63.699498 26.737929 
L 65.89832 26.637513 
L 67.332335 26.788929 
L 71.443177 26.754864 
L 74.311207 26.866011 
L 75.649621 26.89439 
L 79.378059 27.067689 
L 81.672482 27.155847 
L 83.775704 27.267102 
L 100.314674 28.277391 
L 101.270684 28.313007 
L 103.182703 28.224203 
L 105.572728 28.564635 
L 107.197945 28.287978 
L 107.867151 28.496876 
L 109.109964 28.999437 
L 109.587969 28.942562 
L 110.352777 28.578313 
L 111.021984 28.339648 
L 111.499989 28.411073 
L 112.073595 28.78427 
L 112.934004 29.401395 
L 113.316407 29.446246 
L 113.794412 29.242743 
L 115.037225 28.512791 
L 115.419629 28.582883 
L 115.897634 28.923098 
L 117.044846 29.891562 
L 117.42725 29.869391 
L 117.905255 29.539369 
L 118.765663 28.853076 
L 119.148067 28.835134 
L 119.530471 29.054532 
L 120.964486 30.234171 
L 121.34689 30.173673 
L 121.920496 29.819724 
L 122.685304 29.397494 
L 123.067708 29.403845 
L 123.545713 29.657931 
L 124.692924 30.452562 
L 125.170929 30.423415 
L 126.604944 30.018842 
L 127.274151 30.251275 
L 128.13456 30.561834 
L 128.803767 30.518613 
L 129.664175 30.422827 
L 130.333382 30.622451 
L 131.289392 30.951814 
L 131.862998 30.906981 
L 133.297013 30.639897 
L 133.870619 30.863712 
L 134.922229 31.381463 
L 135.400234 31.365718 
L 137.025451 31.063551 
L 138.077062 31.402157 
L 138.937471 31.552216 
L 141.040692 31.733035 
L 141.996702 31.769203 
L 143.143914 31.777549 
L 143.908722 32.046264 
L 144.864731 32.358884 
L 145.533938 32.314909 
L 146.585549 32.215266 
L 147.350357 32.422267 
L 148.59317 32.81391 
L 153.277618 33.423242 
L 155.667642 33.991045 
L 156.910455 34.025716 
L 161.021297 34.848958 
L 162.168509 34.846511 
L 162.933317 35.0923 
L 164.367332 35.692293 
L 164.940938 35.612263 
L 166.08815 35.37124 
L 166.661755 35.517225 
L 168.669376 36.314652 
L 170.581396 36.119521 
L 171.441805 36.458626 
L 172.589016 36.960413 
L 173.162622 36.956678 
L 174.692238 36.753844 
L 175.361445 37.001262 
L 176.89106 37.799477 
L 177.464666 37.687617 
L 178.420676 37.417375 
L 178.898681 37.523932 
L 179.567888 37.949859 
L 180.523898 38.547543 
L 181.001903 38.600914 
L 181.862312 38.390658 
L 182.435917 38.356802 
L 183.009523 38.564927 
L 184.63474 39.366717 
L 186.642361 39.589404 
L 187.885173 40.03143 
L 190.275198 40.524773 
L 191.42241 40.973584 
L 192.187218 40.970289 
L 193.143227 40.985645 
L 193.812434 41.227524 
L 195.34205 41.901875 
L 196.106858 41.823027 
L 196.871666 41.792957 
L 197.540873 41.99973 
L 199.166089 42.600959 
L 200.122099 42.5853 
L 200.886907 42.654623 
L 203.276932 43.217028 
L 204.328542 43.354311 
L 207.100971 43.984484 
L 208.152582 44.185957 
L 212.359025 45.352874 
L 213.888641 45.790751 
L 215.80066 46.610709 
L 217.521478 46.933908 
L 218.66869 47.571562 
L 219.624699 47.992932 
L 220.485108 48.120141 
L 221.441118 48.257772 
L 222.110325 48.626054 
L 223.161936 49.240257 
L 224.022345 49.416541 
L 225.743162 49.683704 
L 226.50797 50.221509 
L 227.272778 50.676065 
L 227.846384 50.735727 
L 229.471601 50.713776 
L 230.045206 51.007758 
L 231.670423 52.062282 
L 232.244029 51.996085 
L 233.391241 51.791658 
L 233.964847 51.984321 
L 234.634054 52.494509 
L 235.590063 53.231931 
L 236.163669 53.361193 
L 236.928477 53.219235 
L 237.788886 53.100728 
L 238.362492 53.272863 
L 238.936098 53.698067 
L 240.178911 54.750406 
L 240.656915 54.860253 
L 241.326122 54.748961 
L 242.186531 54.60627 
L 242.664536 54.721035 
L 243.142541 55.042111 
L 244.098551 56.06609 
L 244.672157 56.507542 
L 245.150162 56.617872 
L 246.01057 56.496011 
L 246.679777 56.492536 
L 247.253383 56.724581 
L 247.826989 57.219517 
L 249.165403 58.503421 
L 249.739009 58.662545 
L 251.651028 58.89935 
L 252.224634 59.254564 
L 252.989442 60.045326 
L 253.849851 60.882132 
L 254.327856 61.062337 
L 254.901462 60.998672 
L 255.761871 60.851576 
L 256.239876 61.020043 
L 256.813481 61.516911 
L 258.247496 62.936581 
L 258.725501 63.020972 
L 260.350718 62.931958 
L 261.019925 63.359527 
L 262.358338 64.264655 
L 263.027545 64.447255 
L 264.365959 64.717906 
L 265.513171 65.010835 
L 266.37358 65.249563 
L 269.146008 66.395838 
L 270.197619 66.542189 
L 271.536033 67.116403 
L 272.300841 67.598447 
L 273.448052 68.356064 
L 274.308461 68.55346 
L 275.742476 68.908332 
L 276.220481 69.261003 
L 276.889688 70.109547 
L 277.654496 71.035757 
L 278.1325 71.285351 
L 278.801707 71.314084 
L 279.566515 71.365527 
L 280.04452 71.591717 
L 280.522525 72.057438 
L 281.096131 72.946142 
L 282.147742 74.627547 
L 282.530146 74.883296 
L 283.008151 74.901646 
L 283.96416 74.785283 
L 284.346564 74.976941 
L 284.824569 75.515627 
L 285.493776 76.745527 
L 286.449786 78.513705 
L 286.927791 78.909042 
L 287.310195 78.951889 
L 288.553007 78.833001 
L 288.935411 79.158378 
L 289.413416 79.926037 
L 290.943032 82.806977 
L 291.325436 83.034559 
L 291.803441 83.022298 
L 292.66385 82.866774 
L 293.046254 83.089517 
L 293.428658 83.61124 
L 294.097864 85.022126 
L 294.767071 86.258477 
L 295.245076 86.680419 
L 295.723081 86.780424 
L 296.870293 86.820993 
L 297.252697 87.153803 
L 297.730702 87.926002 
L 298.686712 89.562631 
L 299.164716 89.861335 
L 300.120726 90.221282 
L 301.841544 91.545075 
L 302.701953 92.42437 
L 303.466761 93.474741 
L 304.518371 95.051741 
L 304.900775 95.184148 
L 305.283179 95.0291 
L 305.856785 94.806735 
L 306.143588 94.942639 
L 306.430391 95.320123 
L 306.812795 96.187415 
L 307.482002 98.378249 
L 308.151209 100.47279 
L 308.438012 100.933681 
L 308.629214 101.011201 
L 308.820416 100.904549 
L 309.20282 100.294473 
L 309.776426 99.39977 
L 309.967627 99.367199 
L 310.158829 99.535219 
L 310.445632 100.185846 
L 310.828036 101.723418 
L 312.262051 108.315968 
L 312.548854 108.659318 
L 312.740056 108.640057 
L 313.026859 108.317411 
L 313.791667 107.13854 
L 313.982869 107.113109 
L 314.174071 107.289468 
L 314.460874 107.972836 
L 314.843278 109.637325 
L 316.468494 118.095902 
L 316.850898 118.674125 
L 317.233302 118.811514 
L 318.284913 118.77155 
L 318.571716 119.063769 
L 318.95412 119.893819 
L 319.336524 121.349851 
L 319.814529 124.110465 
L 320.96174 131.272755 
L 321.248543 131.699457 
L 321.439745 131.577429 
L 321.726548 130.977262 
L 322.586957 128.873426 
L 322.87376 128.728596 
L 323.064962 128.89057 
L 323.351765 129.57507 
L 323.734169 131.340621 
L 324.881381 137.785085 
L 325.072583 137.792063 
L 325.263785 137.383807 
L 325.74179 135.449001 
L 326.219794 133.778015 
L 326.602198 133.199423 
L 326.889001 133.163567 
L 327.271405 133.412691 
L 327.74941 133.710274 
L 328.036213 133.653663 
L 328.323016 133.342581 
L 328.896622 132.193881 
L 329.374627 131.430729 
L 329.66143 131.373322 
L 329.948233 131.679987 
L 330.904243 133.228879 
L 331.095444 132.980767 
L 331.382247 132.009375 
L 331.955853 128.730691 
L 332.529459 125.824047 
L 332.911863 124.931739 
L 333.103065 124.865578 
L 333.294267 125.05016 
L 333.58107 125.756746 
L 334.059075 127.749057 
L 334.632681 130.049968 
L 334.823883 130.364681 
L 335.015085 130.321082 
L 335.206287 129.906675 
L 335.588691 128.186328 
L 336.640301 122.824231 
L 337.022705 122.067763 
L 337.213907 121.986076 
L 337.405109 122.084221 
L 337.691912 122.524773 
L 338.169917 123.844962 
L 338.647922 125.501079 
L 338.647922 125.501079 
" clip-path="url(#pa846050e68)" style="fill: none; stroke: #ff7f0e; stroke-width: 1.5; stroke-linecap: square"/>
   </g>
   <g id="line2d_91">
    <path d="M 51.749375 25.324092 
L 52.036178 25.473607 
L 52.418582 26.03216 
L 52.992188 26.882855 
L 53.278991 26.988509 
L 53.565794 26.824794 
L 54.1394 26.052583 
L 54.617404 25.563108 
L 54.904207 25.531649 
L 55.19101 25.716892 
L 56.242621 26.757399 
L 56.529424 26.693297 
L 57.10303 26.214063 
L 57.581035 25.913381 
L 57.963439 25.905937 
L 58.537045 26.171827 
L 59.206252 26.417338 
L 59.779857 26.356298 
L 60.735867 26.233026 
L 64.84671 26.31151 
L 65.707118 26.27185 
L 67.619138 26.391161 
L 69.435557 26.398271 
L 71.060773 26.444714 
L 72.207985 26.467758 
L 73.642 26.430677 
L 75.362818 26.50907 
L 77.944044 26.536697 
L 85.30532 26.765932 
L 108.631959 27.869597 
L 109.970373 27.873815 
L 111.213186 27.91799 
L 112.742802 28.054996 
L 114.272417 27.990861 
L 115.897634 28.230925 
L 117.331649 28.029072 
L 118.096457 28.343641 
L 118.670062 28.502374 
L 119.148067 28.409842 
L 120.295279 28.025727 
L 120.773284 28.211108 
L 121.824895 28.798357 
L 122.207299 28.697441 
L 123.450112 28.067983 
L 123.832515 28.271798 
L 124.884126 29.096697 
L 125.26653 29.009856 
L 125.840136 28.499087 
L 126.318141 28.17006 
L 126.604944 28.181385 
L 126.987348 28.466797 
L 127.943358 29.369754 
L 128.230161 29.330534 
L 128.708166 28.941723 
L 129.281771 28.454051 
L 129.664175 28.414694 
L 130.046579 28.667759 
L 131.002589 29.561711 
L 131.289392 29.543966 
L 131.671796 29.278658 
L 132.341003 28.762705 
L 132.723407 28.758214 
L 133.201412 29.071574 
L 133.96622 29.615587 
L 134.348623 29.61886 
L 135.01783 29.290777 
L 135.495835 29.149123 
L 135.97384 29.261137 
L 137.025451 29.673228 
L 137.694658 29.574153 
L 138.363865 29.533212 
L 139.989081 29.729921 
L 140.84949 29.659602 
L 141.518697 29.894585 
L 142.187904 30.093711 
L 142.665909 30.007208 
L 143.621919 29.737855 
L 144.099924 29.895863 
L 145.055933 30.32094 
L 145.533938 30.264404 
L 146.68115 29.98411 
L 147.254756 30.177554 
L 148.019564 30.433338 
L 148.688771 30.381318 
L 149.54918 30.335996 
L 153.564421 30.729621 
L 154.42483 30.637088 
L 154.998436 30.833353 
L 155.858844 31.141733 
L 156.43245 31.0742 
L 157.292859 30.933723 
L 157.866465 31.082606 
L 158.918076 31.407736 
L 161.212499 31.573997 
L 164.462933 31.955469 
L 165.227741 31.9686 
L 166.18375 32.290646 
L 166.948558 32.416892 
L 168.573775 32.481248 
L 169.816588 32.74609 
L 171.633006 32.971672 
L 173.736228 33.281145 
L 174.501036 33.44781 
L 176.413056 33.557808 
L 177.464666 33.848001 
L 179.75909 34.052619 
L 180.906302 34.215826 
L 183.200725 34.469424 
L 187.885173 35.0853 
L 188.745582 35.044187 
L 189.414789 35.287423 
L 190.179597 35.577589 
L 190.657602 35.541598 
L 191.804814 35.317429 
L 192.282819 35.536723 
L 193.238828 36.055627 
L 193.716833 36.008576 
L 194.959646 35.650969 
L 195.437651 35.904285 
L 196.393661 36.514806 
L 196.776065 36.51245 
L 197.349671 36.246643 
L 197.923277 36.036132 
L 198.30568 36.112852 
L 198.879286 36.521627 
L 199.548493 36.971778 
L 199.930897 37.009551 
L 200.408902 36.815945 
L 201.078109 36.512727 
L 201.460513 36.577602 
L 201.938518 36.927327 
L 202.607725 37.426115 
L 202.990129 37.486586 
L 203.563734 37.297373 
L 204.232941 37.100234 
L 204.615345 37.196388 
L 205.284552 37.671953 
L 205.762557 37.925299 
L 206.240562 37.914685 
L 207.292173 37.738117 
L 207.865779 37.989717 
L 208.630587 38.33918 
L 209.204192 38.342117 
L 210.064601 38.31306 
L 210.733808 38.567915 
L 211.498616 38.815885 
L 212.263424 38.758359 
L 212.932631 38.809626 
L 214.653448 39.268105 
L 215.609458 39.205934 
L 216.374266 39.499743 
L 217.139074 39.723366 
L 217.808281 39.659455 
L 218.573089 39.629691 
L 219.242296 39.889991 
L 220.007103 40.126712 
L 220.771911 40.07172 
L 221.536719 40.065677 
L 222.301527 40.330967 
L 223.066335 40.542513 
L 225.265157 40.758102 
L 226.221167 40.981318 
L 228.037586 41.224907 
L 229.758404 41.535662 
L 239.222901 43.690617 
L 240.561315 43.949594 
L 241.517324 44.232542 
L 242.473334 44.489731 
L 243.716147 44.716373 
L 245.436965 45.219528 
L 246.870979 45.49576 
L 248.304994 45.914432 
L 251.268624 46.611831 
L 252.607038 46.913094 
L 253.849851 47.113285 
L 255.66627 47.690699 
L 256.909082 47.78972 
L 257.769491 48.228316 
L 258.438698 48.476986 
L 259.203506 48.489643 
L 260.063915 48.538414 
L 260.733122 48.869287 
L 261.593531 49.303936 
L 262.262737 49.362812 
L 263.409949 49.364236 
L 263.983555 49.66126 
L 264.939565 50.210713 
L 265.513171 50.2494 
L 266.755984 50.194824 
L 267.329589 50.559721 
L 268.094397 51.077984 
L 268.572402 51.139948 
L 270.006417 51.054938 
L 270.580023 51.443331 
L 271.344831 51.973322 
L 271.822836 52.017152 
L 273.065648 51.926513 
L 273.639254 52.253992 
L 274.595264 52.857466 
L 275.16887 52.91149 
L 276.12488 52.91145 
L 276.794087 53.225307 
L 277.941298 53.799668 
L 278.992909 54.000693 
L 279.948919 54.263237 
L 282.91255 55.346859 
L 283.772958 55.514173 
L 284.442165 55.910521 
L 285.398175 56.495445 
L 285.971781 56.536562 
L 286.83219 56.522521 
L 287.310195 56.753194 
L 288.83981 57.747204 
L 289.413416 57.647955 
L 289.987022 57.59302 
L 290.465027 57.798801 
L 292.090244 58.828671 
L 292.759451 58.723323 
L 293.333057 58.706514 
L 293.811062 58.920872 
L 295.245076 59.764187 
L 295.914283 59.779093 
L 296.679091 59.784531 
L 297.348298 60.051581 
L 298.782313 60.695117 
L 299.642721 60.813096 
L 300.598731 60.970295 
L 301.554741 61.3672 
L 302.797554 61.899405 
L 304.996376 62.475437 
L 306.430391 63.278693 
L 308.342411 63.822608 
L 310.25443 65.001337 
L 311.401642 65.304637 
L 312.070849 65.759164 
L 313.409263 66.747964 
L 314.365273 67.024596 
L 315.13008 67.340365 
L 316.08609 68.038906 
L 317.137701 68.783776 
L 317.806908 68.91965 
L 318.571716 69.082712 
L 319.240923 69.489249 
L 320.674937 70.573943 
L 321.248543 70.49534 
L 321.726548 70.481329 
L 322.204553 70.70441 
L 323.256164 71.590109 
L 323.734169 71.854781 
L 324.212174 71.860143 
L 324.976982 71.808545 
L 325.454987 72.049875 
L 326.7934 72.88194 
L 327.462607 72.978626 
L 328.131814 73.081045 
L 328.801021 73.453624 
L 329.66143 73.867382 
L 331.382247 74.470203 
L 333.007464 75.239311 
L 334.154676 75.695233 
L 338.647922 78.240975 
L 338.647922 78.240975 
" clip-path="url(#pa846050e68)" style="fill: none; stroke: #2ca02c; stroke-width: 1.5; stroke-linecap: square"/>
   </g>
   <g id="patch_3">
    <path d="M 51.749375 168.74 
L 51.749375 23.84 
" style="fill: none; stroke: #000000; stroke-width: 0.8; stroke-linejoin: miter; stroke-linecap: square"/>
   </g>
   <g id="patch_4">
    <path d="M 338.552321 168.74 
L 338.552321 23.84 
" style="fill: none; stroke: #000000; stroke-width: 0.8; stroke-linejoin: miter; stroke-linecap: square"/>
   </g>
   <g id="patch_5">
    <path d="M 51.749375 168.74 
L 338.552321 168.74 
" style="fill: none; stroke: #000000; stroke-width: 0.8; stroke-linejoin: miter; stroke-linecap: square"/>
   </g>
   <g id="patch_6">
    <path d="M 51.749375 23.84 
L 338.552321 23.84 
" style="fill: none; stroke: #000000; stroke-width: 0.8; stroke-linejoin: miter; stroke-linecap: square"/>
   </g>
   <g id="text_15">
    <!-- $J_{x}=0.5,\, J_z=1,\, \alpha=0$ (2) -->
    <g transform="translate(113.110848 17.84) scale(0.14 -0.14)">
     <defs>
      <path id="DejaVuSans-Oblique-4a" d="M 1069 4666 
L 1703 4666 
L 856 325 
Q 691 -522 298 -901 
Q -94 -1281 -800 -1281 
L -1050 -1281 
L -947 -750 
L -750 -750 
Q -328 -750 -109 -509 
Q 109 -269 225 325 
L 1069 4666 
z
" transform="scale(0.015625)"/>
      <path id="DejaVuSans-Oblique-78" d="M 3841 3500 
L 2234 1784 
L 3219 0 
L 2559 0 
L 1819 1388 
L 531 0 
L -166 0 
L 1556 1844 
L 641 3500 
L 1300 3500 
L 1972 2234 
L 3144 3500 
L 3841 3500 
z
" transform="scale(0.015625)"/>
      <path id="DejaVuSans-3d" d="M 678 2906 
L 4684 2906 
L 4684 2381 
L 678 2381 
L 678 2906 
z
M 678 1631 
L 4684 1631 
L 4684 1100 
L 678 1100 
L 678 1631 
z
" transform="scale(0.015625)"/>
      <path id="DejaVuSans-2e" d="M 684 794 
L 1344 794 
L 1344 0 
L 684 0 
L 684 794 
z
" transform="scale(0.015625)"/>
      <path id="DejaVuSans-2c" d="M 750 794 
L 1409 794 
L 1409 256 
L 897 -744 
L 494 -744 
L 750 256 
L 750 794 
z
" transform="scale(0.015625)"/>
      <path id="DejaVuSans-Oblique-7a" d="M 744 3500 
L 3475 3500 
L 3372 2975 
L 738 459 
L 2913 459 
L 2822 0 
L -19 0 
L 84 525 
L 2719 3041 
L 653 3041 
L 744 3500 
z
" transform="scale(0.015625)"/>
      <path id="DejaVuSans-Oblique-3b1" d="M 2619 1628 
L 2622 2350 
Q 2625 3088 2069 3091 
Q 1653 3094 1394 2747 
Q 1069 2319 959 1747 
Q 825 1059 994 731 
Q 1169 397 1547 397 
Q 1966 397 2319 1063 
L 2619 1628 
z
M 2166 3578 
Q 3141 3594 3128 2584 
Q 3128 2584 3616 3500 
L 4128 3500 
L 3119 1603 
L 3109 919 
Q 3109 766 3194 638 
Q 3291 488 3391 488 
L 3669 488 
L 3575 0 
L 3228 0 
Q 2934 0 2722 263 
Q 2622 394 2619 669 
Q 2416 334 2066 50 
Q 1900 -81 1453 -78 
Q 722 -72 456 397 
Q 184 884 353 1747 
Q 534 2675 1009 3097 
Q 1544 3569 2166 3578 
z
" transform="scale(0.015625)"/>
      <path id="DejaVuSans-20" transform="scale(0.015625)"/>
      <path id="DejaVuSans-28" d="M 1984 4856 
Q 1566 4138 1362 3434 
Q 1159 2731 1159 2009 
Q 1159 1288 1364 580 
Q 1569 -128 1984 -844 
L 1484 -844 
Q 1016 -109 783 600 
Q 550 1309 550 2009 
Q 550 2706 781 3412 
Q 1013 4119 1484 4856 
L 1984 4856 
z
" transform="scale(0.015625)"/>
      <path id="DejaVuSans-29" d="M 513 4856 
L 1013 4856 
Q 1481 4119 1714 3412 
Q 1947 2706 1947 2009 
Q 1947 1309 1714 600 
Q 1481 -109 1013 -844 
L 513 -844 
Q 928 -128 1133 580 
Q 1338 1288 1338 2009 
Q 1338 2731 1133 3434 
Q 928 4138 513 4856 
z
" transform="scale(0.015625)"/>
     </defs>
     <use xlink:href="#DejaVuSans-Oblique-4a" transform="translate(0 0.125)"/>
     <use xlink:href="#DejaVuSans-Oblique-78" transform="translate(29.492188 -16.28125) scale(0.7)"/>
     <use xlink:href="#DejaVuSans-3d" transform="translate(93.134766 0.125)"/>
     <use xlink:href="#DejaVuSans-30" transform="translate(196.40625 0.125)"/>
     <use xlink:href="#DejaVuSans-2e" transform="translate(260.029297 0.125)"/>
     <use xlink:href="#DejaVuSans-35" transform="translate(291.816406 0.125)"/>
     <use xlink:href="#DejaVuSans-2c" transform="translate(355.439453 0.125)"/>
     <use xlink:href="#DejaVuSans-Oblique-4a" transform="translate(422.944661 0.125)"/>
     <use xlink:href="#DejaVuSans-Oblique-7a" transform="translate(452.436848 -16.28125) scale(0.7)"/>
     <use xlink:href="#DejaVuSans-3d" transform="translate(511.396809 0.125)"/>
     <use xlink:href="#DejaVuSans-31" transform="translate(614.668293 0.125)"/>
     <use xlink:href="#DejaVuSans-2c" transform="translate(678.29134 0.125)"/>
     <use xlink:href="#DejaVuSans-Oblique-3b1" transform="translate(745.796548 0.125)"/>
     <use xlink:href="#DejaVuSans-3d" transform="translate(831.196938 0.125)"/>
     <use xlink:href="#DejaVuSans-30" transform="translate(934.468423 0.125)"/>
     <use xlink:href="#DejaVuSans-20" transform="translate(998.09147 0.125)"/>
     <use xlink:href="#DejaVuSans-28" transform="translate(1029.878579 0.125)"/>
     <use xlink:href="#DejaVuSans-32" transform="translate(1068.892251 0.125)"/>
     <use xlink:href="#DejaVuSans-29" transform="translate(1132.515298 0.125)"/>
    </g>
   </g>
   <g id="legend_1">
    <g id="patch_7">
     <path d="M 267.052321 163.74 
L 331.552321 163.74 
Q 333.552321 163.74 333.552321 161.74 
L 333.552321 118.705625 
Q 333.552321 116.705625 331.552321 116.705625 
L 267.052321 116.705625 
Q 265.052321 116.705625 265.052321 118.705625 
L 265.052321 161.74 
Q 265.052321 163.74 267.052321 163.74 
z
" style="fill: #ffffff; opacity: 0.8; stroke: #cccccc; stroke-linejoin: miter"/>
    </g>
    <g id="line2d_92">
     <path d="M 269.052321 124.804062 
L 279.052321 124.804062 
L 289.052321 124.804062 
" style="fill: none; stroke: #1f77b4; stroke-width: 1.5; stroke-linecap: square"/>
    </g>
    <g id="text_16">
     <!-- $N=10$ -->
     <g transform="translate(297.052321 128.304062) scale(0.1 -0.1)">
      <defs>
       <path id="DejaVuSans-Oblique-4e" d="M 1081 4666 
L 1931 4666 
L 3219 666 
L 4000 4666 
L 4616 4666 
L 3706 0 
L 2853 0 
L 1569 4025 
L 788 0 
L 172 0 
L 1081 4666 
z
" transform="scale(0.015625)"/>
      </defs>
      <use xlink:href="#DejaVuSans-Oblique-4e" transform="translate(0 0.78125)"/>
      <use xlink:href="#DejaVuSans-3d" transform="translate(94.287109 0.78125)"/>
      <use xlink:href="#DejaVuSans-31" transform="translate(197.558594 0.78125)"/>
      <use xlink:href="#DejaVuSans-30" transform="translate(261.181641 0.78125)"/>
     </g>
    </g>
    <g id="line2d_93">
     <path d="M 269.052321 139.482187 
L 279.052321 139.482187 
L 289.052321 139.482187 
" style="fill: none; stroke: #ff7f0e; stroke-width: 1.5; stroke-linecap: square"/>
    </g>
    <g id="text_17">
     <!-- $N=12$ -->
     <g transform="translate(297.052321 142.982187) scale(0.1 -0.1)">
      <use xlink:href="#DejaVuSans-Oblique-4e" transform="translate(0 0.78125)"/>
      <use xlink:href="#DejaVuSans-3d" transform="translate(94.287109 0.78125)"/>
      <use xlink:href="#DejaVuSans-31" transform="translate(197.558594 0.78125)"/>
      <use xlink:href="#DejaVuSans-32" transform="translate(261.181641 0.78125)"/>
     </g>
    </g>
    <g id="line2d_94">
     <path d="M 269.052321 154.160312 
L 279.052321 154.160312 
L 289.052321 154.160312 
" style="fill: none; stroke: #2ca02c; stroke-width: 1.5; stroke-linecap: square"/>
    </g>
    <g id="text_18">
     <!-- $N=14$ -->
     <g transform="translate(297.052321 157.660312) scale(0.1 -0.1)">
      <use xlink:href="#DejaVuSans-Oblique-4e" transform="translate(0 0.09375)"/>
      <use xlink:href="#DejaVuSans-3d" transform="translate(94.287109 0.09375)"/>
      <use xlink:href="#DejaVuSans-31" transform="translate(197.558594 0.09375)"/>
      <use xlink:href="#DejaVuSans-34" transform="translate(261.181641 0.09375)"/>
     </g>
    </g>
   </g>
  </g>
 </g>
 <defs>
  <clipPath id="pa846050e68">
   <rect x="51.749375" y="23.84" width="286.802946" height="144.9"/>
  </clipPath>
 </defs>
</svg>
