<?xml version="1.0" encoding="utf-8" standalone="no"?>
<!DOCTYPE svg PUBLIC "-//W3C//DTD SVG 1.1//EN"
  "http://www.w3.org/Graphics/SVG/1.1/DTD/svg11.dtd">
<svg xmlns:xlink="http://www.w3.org/1999/xlink" width="352.069821pt" height="206.6675pt" viewBox="0 0 352.069821 206.6675" xmlns="http://www.w3.org/2000/svg" version="1.1">
 <metadata>
  <rdf:RDF xmlns:dc="http://purl.org/dc/elements/1.1/" xmlns:cc="http://creativecommons.org/ns#" xmlns:rdf="http://www.w3.org/1999/02/22-rdf-syntax-ns#">
   <cc:Work>
    <dc:type rdf:resource="http://purl.org/dc/dcmitype/StillImage"/>
    <dc:date>2025-11-03T12:59:12.160996</dc:date>
    <dc:format>image/svg+xml</dc:format>
    <dc:creator>
     <cc:Agent>
      <dc:title>Matplotlib v3.10.3, https://matplotlib.org/</dc:title>
     </cc:Agent>
    </dc:creator>
   </cc:Work>
  </rdf:RDF>
 </metadata>
 <defs>
  <style type="text/css">*{stroke-linejoin: round; stroke-linecap: butt}</style>
 </defs>
 <g id="figure_1">
  <g id="patch_1">
   <path d="M 0 206.6675 
L 352.069821 206.6675 
L 352.069821 0 
L 0 0 
z
" style="fill: #ffffff"/>
  </g>
  <g id="axes_1">
   <g id="patch_2">
    <path d="M 51.749375 168.74 
L 338.507321 168.74 
L 338.507321 23.84 
L 51.749375 23.84 
z
" style="fill: #ffffff"/>
   </g>
   <g id="matplotlib.axis_1">
    <g id="xtick_1">
     <g id="line2d_1">
      <defs>
       <path id="mc778445327" d="M 0 0 
L 0 -3.5 
" style="stroke: #000000; stroke-width: 0.8"/>
      </defs>
      <g>
       <use xlink:href="#mc778445327" x="51.749375" y="168.74" style="stroke: #000000; stroke-width: 0.8"/>
      </g>
     </g>
     <g id="line2d_2">
      <defs>
       <path id="md00ad25843" d="M 0 0 
L 0 3.5 
" style="stroke: #000000; stroke-width: 0.8"/>
      </defs>
      <g>
       <use xlink:href="#md00ad25843" x="51.749375" y="23.84" style="stroke: #000000; stroke-width: 0.8"/>
      </g>
     </g>
     <g id="text_1">
      <!-- 0 -->
      <g transform="translate(48.568125 179.838437) scale(0.1 -0.1)">
       <defs>
        <path id="DejaVuSans-30" d="M 2034 4250 
Q 1547 4250 1301 3770 
Q 1056 3291 1056 2328 
Q 1056 1369 1301 889 
Q 1547 409 2034 409 
Q 2525 409 2770 889 
Q 3016 1369 3016 2328 
Q 3016 3291 2770 3770 
Q 2525 4250 2034 4250 
z
M 2034 4750 
Q 2819 4750 3233 4129 
Q 3647 3509 3647 2328 
Q 3647 1150 3233 529 
Q 2819 -91 2034 -91 
Q 1250 -91 836 529 
Q 422 1150 422 2328 
Q 422 3509 836 4129 
Q 1250 4750 2034 4750 
z
" transform="scale(0.015625)"/>
       </defs>
       <use xlink:href="#DejaVuSans-30"/>
      </g>
     </g>
    </g>
    <g id="xtick_2">
     <g id="line2d_3">
      <g>
       <use xlink:href="#mc778445327" x="109.100964" y="168.74" style="stroke: #000000; stroke-width: 0.8"/>
      </g>
     </g>
     <g id="line2d_4">
      <g>
       <use xlink:href="#md00ad25843" x="109.100964" y="23.84" style="stroke: #000000; stroke-width: 0.8"/>
      </g>
     </g>
     <g id="text_2">
      <!-- 2 -->
      <g transform="translate(105.919714 179.838437) scale(0.1 -0.1)">
       <defs>
        <path id="DejaVuSans-32" d="M 1228 531 
L 3431 531 
L 3431 0 
L 469 0 
L 469 531 
Q 828 903 1448 1529 
Q 2069 2156 2228 2338 
Q 2531 2678 2651 2914 
Q 2772 3150 2772 3378 
Q 2772 3750 2511 3984 
Q 2250 4219 1831 4219 
Q 1534 4219 1204 4116 
Q 875 4013 500 3803 
L 500 4441 
Q 881 4594 1212 4672 
Q 1544 4750 1819 4750 
Q 2544 4750 2975 4387 
Q 3406 4025 3406 3419 
Q 3406 3131 3298 2873 
Q 3191 2616 2906 2266 
Q 2828 2175 2409 1742 
Q 1991 1309 1228 531 
z
" transform="scale(0.015625)"/>
       </defs>
       <use xlink:href="#DejaVuSans-32"/>
      </g>
     </g>
    </g>
    <g id="xtick_3">
     <g id="line2d_5">
      <g>
       <use xlink:href="#mc778445327" x="166.452553" y="168.74" style="stroke: #000000; stroke-width: 0.8"/>
      </g>
     </g>
     <g id="line2d_6">
      <g>
       <use xlink:href="#md00ad25843" x="166.452553" y="23.84" style="stroke: #000000; stroke-width: 0.8"/>
      </g>
     </g>
     <g id="text_3">
      <!-- 4 -->
      <g transform="translate(163.271303 179.838437) scale(0.1 -0.1)">
       <defs>
        <path id="DejaVuSans-34" d="M 2419 4116 
L 825 1625 
L 2419 1625 
L 2419 4116 
z
M 2253 4666 
L 3047 4666 
L 3047 1625 
L 3713 1625 
L 3713 1100 
L 3047 1100 
L 3047 0 
L 2419 0 
L 2419 1100 
L 313 1100 
L 313 1709 
L 2253 4666 
z
" transform="scale(0.015625)"/>
       </defs>
       <use xlink:href="#DejaVuSans-34"/>
      </g>
     </g>
    </g>
    <g id="xtick_4">
     <g id="line2d_7">
      <g>
       <use xlink:href="#mc778445327" x="223.804143" y="168.74" style="stroke: #000000; stroke-width: 0.8"/>
      </g>
     </g>
     <g id="line2d_8">
      <g>
       <use xlink:href="#md00ad25843" x="223.804143" y="23.84" style="stroke: #000000; stroke-width: 0.8"/>
      </g>
     </g>
     <g id="text_4">
      <!-- 6 -->
      <g transform="translate(220.622893 179.838437) scale(0.1 -0.1)">
       <defs>
        <path id="DejaVuSans-36" d="M 2113 2584 
Q 1688 2584 1439 2293 
Q 1191 2003 1191 1497 
Q 1191 994 1439 701 
Q 1688 409 2113 409 
Q 2538 409 2786 701 
Q 3034 994 3034 1497 
Q 3034 2003 2786 2293 
Q 2538 2584 2113 2584 
z
M 3366 4563 
L 3366 3988 
Q 3128 4100 2886 4159 
Q 2644 4219 2406 4219 
Q 1781 4219 1451 3797 
Q 1122 3375 1075 2522 
Q 1259 2794 1537 2939 
Q 1816 3084 2150 3084 
Q 2853 3084 3261 2657 
Q 3669 2231 3669 1497 
Q 3669 778 3244 343 
Q 2819 -91 2113 -91 
Q 1303 -91 875 529 
Q 447 1150 447 2328 
Q 447 3434 972 4092 
Q 1497 4750 2381 4750 
Q 2619 4750 2861 4703 
Q 3103 4656 3366 4563 
z
" transform="scale(0.015625)"/>
       </defs>
       <use xlink:href="#DejaVuSans-36"/>
      </g>
     </g>
    </g>
    <g id="xtick_5">
     <g id="line2d_9">
      <g>
       <use xlink:href="#mc778445327" x="281.155732" y="168.74" style="stroke: #000000; stroke-width: 0.8"/>
      </g>
     </g>
     <g id="line2d_10">
      <g>
       <use xlink:href="#md00ad25843" x="281.155732" y="23.84" style="stroke: #000000; stroke-width: 0.8"/>
      </g>
     </g>
     <g id="text_5">
      <!-- 8 -->
      <g transform="translate(277.974482 179.838437) scale(0.1 -0.1)">
       <defs>
        <path id="DejaVuSans-38" d="M 2034 2216 
Q 1584 2216 1326 1975 
Q 1069 1734 1069 1313 
Q 1069 891 1326 650 
Q 1584 409 2034 409 
Q 2484 409 2743 651 
Q 3003 894 3003 1313 
Q 3003 1734 2745 1975 
Q 2488 2216 2034 2216 
z
M 1403 2484 
Q 997 2584 770 2862 
Q 544 3141 544 3541 
Q 544 4100 942 4425 
Q 1341 4750 2034 4750 
Q 2731 4750 3128 4425 
Q 3525 4100 3525 3541 
Q 3525 3141 3298 2862 
Q 3072 2584 2669 2484 
Q 3125 2378 3379 2068 
Q 3634 1759 3634 1313 
Q 3634 634 3220 271 
Q 2806 -91 2034 -91 
Q 1263 -91 848 271 
Q 434 634 434 1313 
Q 434 1759 690 2068 
Q 947 2378 1403 2484 
z
M 1172 3481 
Q 1172 3119 1398 2916 
Q 1625 2713 2034 2713 
Q 2441 2713 2670 2916 
Q 2900 3119 2900 3481 
Q 2900 3844 2670 4047 
Q 2441 4250 2034 4250 
Q 1625 4250 1398 4047 
Q 1172 3844 1172 3481 
z
" transform="scale(0.015625)"/>
       </defs>
       <use xlink:href="#DejaVuSans-38"/>
      </g>
     </g>
    </g>
    <g id="xtick_6">
     <g id="line2d_11">
      <g>
       <use xlink:href="#mc778445327" x="338.507321" y="168.74" style="stroke: #000000; stroke-width: 0.8"/>
      </g>
     </g>
     <g id="line2d_12">
      <g>
       <use xlink:href="#md00ad25843" x="338.507321" y="23.84" style="stroke: #000000; stroke-width: 0.8"/>
      </g>
     </g>
     <g id="text_6">
      <!-- 10 -->
      <g transform="translate(332.144821 179.838437) scale(0.1 -0.1)">
       <defs>
        <path id="DejaVuSans-31" d="M 794 531 
L 1825 531 
L 1825 4091 
L 703 3866 
L 703 4441 
L 1819 4666 
L 2450 4666 
L 2450 531 
L 3481 531 
L 3481 0 
L 794 0 
L 794 531 
z
" transform="scale(0.015625)"/>
       </defs>
       <use xlink:href="#DejaVuSans-31"/>
       <use xlink:href="#DejaVuSans-30" transform="translate(63.623047 0)"/>
      </g>
     </g>
    </g>
    <g id="text_7">
     <!-- Time -->
     <g transform="translate(178.001317 196.555937) scale(0.14 -0.14)">
      <defs>
       <path id="DejaVuSans-54" d="M -19 4666 
L 3928 4666 
L 3928 4134 
L 2272 4134 
L 2272 0 
L 1638 0 
L 1638 4134 
L -19 4134 
L -19 4666 
z
" transform="scale(0.015625)"/>
       <path id="DejaVuSans-69" d="M 603 3500 
L 1178 3500 
L 1178 0 
L 603 0 
L 603 3500 
z
M 603 4863 
L 1178 4863 
L 1178 4134 
L 603 4134 
L 603 4863 
z
" transform="scale(0.015625)"/>
       <path id="DejaVuSans-6d" d="M 3328 2828 
Q 3544 3216 3844 3400 
Q 4144 3584 4550 3584 
Q 5097 3584 5394 3201 
Q 5691 2819 5691 2113 
L 5691 0 
L 5113 0 
L 5113 2094 
Q 5113 2597 4934 2840 
Q 4756 3084 4391 3084 
Q 3944 3084 3684 2787 
Q 3425 2491 3425 1978 
L 3425 0 
L 2847 0 
L 2847 2094 
Q 2847 2600 2669 2842 
Q 2491 3084 2119 3084 
Q 1678 3084 1418 2786 
Q 1159 2488 1159 1978 
L 1159 0 
L 581 0 
L 581 3500 
L 1159 3500 
L 1159 2956 
Q 1356 3278 1631 3431 
Q 1906 3584 2284 3584 
Q 2666 3584 2933 3390 
Q 3200 3197 3328 2828 
z
" transform="scale(0.015625)"/>
       <path id="DejaVuSans-65" d="M 3597 1894 
L 3597 1613 
L 953 1613 
Q 991 1019 1311 708 
Q 1631 397 2203 397 
Q 2534 397 2845 478 
Q 3156 559 3463 722 
L 3463 178 
Q 3153 47 2828 -22 
Q 2503 -91 2169 -91 
Q 1331 -91 842 396 
Q 353 884 353 1716 
Q 353 2575 817 3079 
Q 1281 3584 2069 3584 
Q 2775 3584 3186 3129 
Q 3597 2675 3597 1894 
z
M 3022 2063 
Q 3016 2534 2758 2815 
Q 2500 3097 2075 3097 
Q 1594 3097 1305 2825 
Q 1016 2553 972 2059 
L 3022 2063 
z
" transform="scale(0.015625)"/>
      </defs>
      <use xlink:href="#DejaVuSans-54"/>
      <use xlink:href="#DejaVuSans-69" transform="translate(57.958984 0)"/>
      <use xlink:href="#DejaVuSans-6d" transform="translate(85.742188 0)"/>
      <use xlink:href="#DejaVuSans-65" transform="translate(183.154297 0)"/>
     </g>
    </g>
   </g>
   <g id="matplotlib.axis_2">
    <g id="ytick_1">
     <g id="line2d_13">
      <defs>
       <path id="mf804383f00" d="M 0 0 
L 3.5 0 
" style="stroke: #000000; stroke-width: 0.8"/>
      </defs>
      <g>
       <use xlink:href="#mf804383f00" x="51.749375" y="168.74" style="stroke: #000000; stroke-width: 0.8"/>
      </g>
     </g>
     <g id="line2d_14">
      <defs>
       <path id="md5c7eb1a18" d="M 0 0 
L -3.5 0 
" style="stroke: #000000; stroke-width: 0.8"/>
      </defs>
      <g>
       <use xlink:href="#md5c7eb1a18" x="338.507321" y="168.74" style="stroke: #000000; stroke-width: 0.8"/>
      </g>
     </g>
     <g id="text_8">
      <!-- $\mathdefault{10^{-4}}$ -->
      <g transform="translate(24.749375 172.539219) scale(0.1 -0.1)">
       <defs>
        <path id="DejaVuSans-2212" d="M 678 2272 
L 4684 2272 
L 4684 1741 
L 678 1741 
L 678 2272 
z
" transform="scale(0.015625)"/>
       </defs>
       <use xlink:href="#DejaVuSans-31" transform="translate(0 0.684375)"/>
       <use xlink:href="#DejaVuSans-30" transform="translate(63.623047 0.684375)"/>
       <use xlink:href="#DejaVuSans-2212" transform="translate(128.203125 38.965625) scale(0.7)"/>
       <use xlink:href="#DejaVuSans-34" transform="translate(186.855469 38.965625) scale(0.7)"/>
      </g>
     </g>
    </g>
    <g id="ytick_2">
     <g id="line2d_15">
      <g>
       <use xlink:href="#mf804383f00" x="51.749375" y="132.515" style="stroke: #000000; stroke-width: 0.8"/>
      </g>
     </g>
     <g id="line2d_16">
      <g>
       <use xlink:href="#md5c7eb1a18" x="338.507321" y="132.515" style="stroke: #000000; stroke-width: 0.8"/>
      </g>
     </g>
     <g id="text_9">
      <!-- $\mathdefault{10^{-3}}$ -->
      <g transform="translate(24.749375 136.314219) scale(0.1 -0.1)">
       <defs>
        <path id="DejaVuSans-33" d="M 2597 2516 
Q 3050 2419 3304 2112 
Q 3559 1806 3559 1356 
Q 3559 666 3084 287 
Q 2609 -91 1734 -91 
Q 1441 -91 1130 -33 
Q 819 25 488 141 
L 488 750 
Q 750 597 1062 519 
Q 1375 441 1716 441 
Q 2309 441 2620 675 
Q 2931 909 2931 1356 
Q 2931 1769 2642 2001 
Q 2353 2234 1838 2234 
L 1294 2234 
L 1294 2753 
L 1863 2753 
Q 2328 2753 2575 2939 
Q 2822 3125 2822 3475 
Q 2822 3834 2567 4026 
Q 2313 4219 1838 4219 
Q 1578 4219 1281 4162 
Q 984 4106 628 3988 
L 628 4550 
Q 988 4650 1302 4700 
Q 1616 4750 1894 4750 
Q 2613 4750 3031 4423 
Q 3450 4097 3450 3541 
Q 3450 3153 3228 2886 
Q 3006 2619 2597 2516 
z
" transform="scale(0.015625)"/>
       </defs>
       <use xlink:href="#DejaVuSans-31" transform="translate(0 0.765625)"/>
       <use xlink:href="#DejaVuSans-30" transform="translate(63.623047 0.765625)"/>
       <use xlink:href="#DejaVuSans-2212" transform="translate(128.203125 39.046875) scale(0.7)"/>
       <use xlink:href="#DejaVuSans-33" transform="translate(186.855469 39.046875) scale(0.7)"/>
      </g>
     </g>
    </g>
    <g id="ytick_3">
     <g id="line2d_17">
      <g>
       <use xlink:href="#mf804383f00" x="51.749375" y="96.29" style="stroke: #000000; stroke-width: 0.8"/>
      </g>
     </g>
     <g id="line2d_18">
      <g>
       <use xlink:href="#md5c7eb1a18" x="338.507321" y="96.29" style="stroke: #000000; stroke-width: 0.8"/>
      </g>
     </g>
     <g id="text_10">
      <!-- $\mathdefault{10^{-2}}$ -->
      <g transform="translate(24.749375 100.089219) scale(0.1 -0.1)">
       <use xlink:href="#DejaVuSans-31" transform="translate(0 0.765625)"/>
       <use xlink:href="#DejaVuSans-30" transform="translate(63.623047 0.765625)"/>
       <use xlink:href="#DejaVuSans-2212" transform="translate(128.203125 39.046875) scale(0.7)"/>
       <use xlink:href="#DejaVuSans-32" transform="translate(186.855469 39.046875) scale(0.7)"/>
      </g>
     </g>
    </g>
    <g id="ytick_4">
     <g id="line2d_19">
      <g>
       <use xlink:href="#mf804383f00" x="51.749375" y="60.065" style="stroke: #000000; stroke-width: 0.8"/>
      </g>
     </g>
     <g id="line2d_20">
      <g>
       <use xlink:href="#md5c7eb1a18" x="338.507321" y="60.065" style="stroke: #000000; stroke-width: 0.8"/>
      </g>
     </g>
     <g id="text_11">
      <!-- $\mathdefault{10^{-1}}$ -->
      <g transform="translate(24.749375 63.864219) scale(0.1 -0.1)">
       <use xlink:href="#DejaVuSans-31" transform="translate(0 0.684375)"/>
       <use xlink:href="#DejaVuSans-30" transform="translate(63.623047 0.684375)"/>
       <use xlink:href="#DejaVuSans-2212" transform="translate(128.203125 38.965625) scale(0.7)"/>
       <use xlink:href="#DejaVuSans-31" transform="translate(186.855469 38.965625) scale(0.7)"/>
      </g>
     </g>
    </g>
    <g id="ytick_5">
     <g id="line2d_21">
      <g>
       <use xlink:href="#mf804383f00" x="51.749375" y="23.84" style="stroke: #000000; stroke-width: 0.8"/>
      </g>
     </g>
     <g id="line2d_22">
      <g>
       <use xlink:href="#md5c7eb1a18" x="338.507321" y="23.84" style="stroke: #000000; stroke-width: 0.8"/>
      </g>
     </g>
     <g id="text_12">
      <!-- $\mathdefault{10^{0}}$ -->
      <g transform="translate(30.649375 27.639219) scale(0.1 -0.1)">
       <use xlink:href="#DejaVuSans-31" transform="translate(0 0.765625)"/>
       <use xlink:href="#DejaVuSans-30" transform="translate(63.623047 0.765625)"/>
       <use xlink:href="#DejaVuSans-30" transform="translate(128.203125 39.046875) scale(0.7)"/>
      </g>
     </g>
    </g>
    <g id="ytick_6">
     <g id="line2d_23">
      <defs>
       <path id="md3202ea012" d="M 0 0 
L 2 0 
" style="stroke: #000000; stroke-width: 0.6"/>
      </defs>
      <g>
       <use xlink:href="#md3202ea012" x="51.749375" y="157.835188" style="stroke: #000000; stroke-width: 0.6"/>
      </g>
     </g>
     <g id="line2d_24">
      <defs>
       <path id="m7ad1fa1ac5" d="M 0 0 
L -2 0 
" style="stroke: #000000; stroke-width: 0.6"/>
      </defs>
      <g>
       <use xlink:href="#m7ad1fa1ac5" x="338.507321" y="157.835188" style="stroke: #000000; stroke-width: 0.6"/>
      </g>
     </g>
    </g>
    <g id="ytick_7">
     <g id="line2d_25">
      <g>
       <use xlink:href="#md3202ea012" x="51.749375" y="151.456283" style="stroke: #000000; stroke-width: 0.6"/>
      </g>
     </g>
     <g id="line2d_26">
      <g>
       <use xlink:href="#m7ad1fa1ac5" x="338.507321" y="151.456283" style="stroke: #000000; stroke-width: 0.6"/>
      </g>
     </g>
    </g>
    <g id="ytick_8">
     <g id="line2d_27">
      <g>
       <use xlink:href="#md3202ea012" x="51.749375" y="146.930377" style="stroke: #000000; stroke-width: 0.6"/>
      </g>
     </g>
     <g id="line2d_28">
      <g>
       <use xlink:href="#m7ad1fa1ac5" x="338.507321" y="146.930377" style="stroke: #000000; stroke-width: 0.6"/>
      </g>
     </g>
    </g>
    <g id="ytick_9">
     <g id="line2d_29">
      <g>
       <use xlink:href="#md3202ea012" x="51.749375" y="143.419812" style="stroke: #000000; stroke-width: 0.6"/>
      </g>
     </g>
     <g id="line2d_30">
      <g>
       <use xlink:href="#m7ad1fa1ac5" x="338.507321" y="143.419812" style="stroke: #000000; stroke-width: 0.6"/>
      </g>
     </g>
    </g>
    <g id="ytick_10">
     <g id="line2d_31">
      <g>
       <use xlink:href="#md3202ea012" x="51.749375" y="140.551471" style="stroke: #000000; stroke-width: 0.6"/>
      </g>
     </g>
     <g id="line2d_32">
      <g>
       <use xlink:href="#m7ad1fa1ac5" x="338.507321" y="140.551471" style="stroke: #000000; stroke-width: 0.6"/>
      </g>
     </g>
    </g>
    <g id="ytick_11">
     <g id="line2d_33">
      <g>
       <use xlink:href="#md3202ea012" x="51.749375" y="138.126324" style="stroke: #000000; stroke-width: 0.6"/>
      </g>
     </g>
     <g id="line2d_34">
      <g>
       <use xlink:href="#m7ad1fa1ac5" x="338.507321" y="138.126324" style="stroke: #000000; stroke-width: 0.6"/>
      </g>
     </g>
    </g>
    <g id="ytick_12">
     <g id="line2d_35">
      <g>
       <use xlink:href="#md3202ea012" x="51.749375" y="136.025565" style="stroke: #000000; stroke-width: 0.6"/>
      </g>
     </g>
     <g id="line2d_36">
      <g>
       <use xlink:href="#m7ad1fa1ac5" x="338.507321" y="136.025565" style="stroke: #000000; stroke-width: 0.6"/>
      </g>
     </g>
    </g>
    <g id="ytick_13">
     <g id="line2d_37">
      <g>
       <use xlink:href="#md3202ea012" x="51.749375" y="134.172565" style="stroke: #000000; stroke-width: 0.6"/>
      </g>
     </g>
     <g id="line2d_38">
      <g>
       <use xlink:href="#m7ad1fa1ac5" x="338.507321" y="134.172565" style="stroke: #000000; stroke-width: 0.6"/>
      </g>
     </g>
    </g>
    <g id="ytick_14">
     <g id="line2d_39">
      <g>
       <use xlink:href="#md3202ea012" x="51.749375" y="121.610188" style="stroke: #000000; stroke-width: 0.6"/>
      </g>
     </g>
     <g id="line2d_40">
      <g>
       <use xlink:href="#m7ad1fa1ac5" x="338.507321" y="121.610188" style="stroke: #000000; stroke-width: 0.6"/>
      </g>
     </g>
    </g>
    <g id="ytick_15">
     <g id="line2d_41">
      <g>
       <use xlink:href="#md3202ea012" x="51.749375" y="115.231283" style="stroke: #000000; stroke-width: 0.6"/>
      </g>
     </g>
     <g id="line2d_42">
      <g>
       <use xlink:href="#m7ad1fa1ac5" x="338.507321" y="115.231283" style="stroke: #000000; stroke-width: 0.6"/>
      </g>
     </g>
    </g>
    <g id="ytick_16">
     <g id="line2d_43">
      <g>
       <use xlink:href="#md3202ea012" x="51.749375" y="110.705377" style="stroke: #000000; stroke-width: 0.6"/>
      </g>
     </g>
     <g id="line2d_44">
      <g>
       <use xlink:href="#m7ad1fa1ac5" x="338.507321" y="110.705377" style="stroke: #000000; stroke-width: 0.6"/>
      </g>
     </g>
    </g>
    <g id="ytick_17">
     <g id="line2d_45">
      <g>
       <use xlink:href="#md3202ea012" x="51.749375" y="107.194812" style="stroke: #000000; stroke-width: 0.6"/>
      </g>
     </g>
     <g id="line2d_46">
      <g>
       <use xlink:href="#m7ad1fa1ac5" x="338.507321" y="107.194812" style="stroke: #000000; stroke-width: 0.6"/>
      </g>
     </g>
    </g>
    <g id="ytick_18">
     <g id="line2d_47">
      <g>
       <use xlink:href="#md3202ea012" x="51.749375" y="104.326471" style="stroke: #000000; stroke-width: 0.6"/>
      </g>
     </g>
     <g id="line2d_48">
      <g>
       <use xlink:href="#m7ad1fa1ac5" x="338.507321" y="104.326471" style="stroke: #000000; stroke-width: 0.6"/>
      </g>
     </g>
    </g>
    <g id="ytick_19">
     <g id="line2d_49">
      <g>
       <use xlink:href="#md3202ea012" x="51.749375" y="101.901324" style="stroke: #000000; stroke-width: 0.6"/>
      </g>
     </g>
     <g id="line2d_50">
      <g>
       <use xlink:href="#m7ad1fa1ac5" x="338.507321" y="101.901324" style="stroke: #000000; stroke-width: 0.6"/>
      </g>
     </g>
    </g>
    <g id="ytick_20">
     <g id="line2d_51">
      <g>
       <use xlink:href="#md3202ea012" x="51.749375" y="99.800565" style="stroke: #000000; stroke-width: 0.6"/>
      </g>
     </g>
     <g id="line2d_52">
      <g>
       <use xlink:href="#m7ad1fa1ac5" x="338.507321" y="99.800565" style="stroke: #000000; stroke-width: 0.6"/>
      </g>
     </g>
    </g>
    <g id="ytick_21">
     <g id="line2d_53">
      <g>
       <use xlink:href="#md3202ea012" x="51.749375" y="97.947565" style="stroke: #000000; stroke-width: 0.6"/>
      </g>
     </g>
     <g id="line2d_54">
      <g>
       <use xlink:href="#m7ad1fa1ac5" x="338.507321" y="97.947565" style="stroke: #000000; stroke-width: 0.6"/>
      </g>
     </g>
    </g>
    <g id="ytick_22">
     <g id="line2d_55">
      <g>
       <use xlink:href="#md3202ea012" x="51.749375" y="85.385188" style="stroke: #000000; stroke-width: 0.6"/>
      </g>
     </g>
     <g id="line2d_56">
      <g>
       <use xlink:href="#m7ad1fa1ac5" x="338.507321" y="85.385188" style="stroke: #000000; stroke-width: 0.6"/>
      </g>
     </g>
    </g>
    <g id="ytick_23">
     <g id="line2d_57">
      <g>
       <use xlink:href="#md3202ea012" x="51.749375" y="79.006283" style="stroke: #000000; stroke-width: 0.6"/>
      </g>
     </g>
     <g id="line2d_58">
      <g>
       <use xlink:href="#m7ad1fa1ac5" x="338.507321" y="79.006283" style="stroke: #000000; stroke-width: 0.6"/>
      </g>
     </g>
    </g>
    <g id="ytick_24">
     <g id="line2d_59">
      <g>
       <use xlink:href="#md3202ea012" x="51.749375" y="74.480377" style="stroke: #000000; stroke-width: 0.6"/>
      </g>
     </g>
     <g id="line2d_60">
      <g>
       <use xlink:href="#m7ad1fa1ac5" x="338.507321" y="74.480377" style="stroke: #000000; stroke-width: 0.6"/>
      </g>
     </g>
    </g>
    <g id="ytick_25">
     <g id="line2d_61">
      <g>
       <use xlink:href="#md3202ea012" x="51.749375" y="70.969812" style="stroke: #000000; stroke-width: 0.6"/>
      </g>
     </g>
     <g id="line2d_62">
      <g>
       <use xlink:href="#m7ad1fa1ac5" x="338.507321" y="70.969812" style="stroke: #000000; stroke-width: 0.6"/>
      </g>
     </g>
    </g>
    <g id="ytick_26">
     <g id="line2d_63">
      <g>
       <use xlink:href="#md3202ea012" x="51.749375" y="68.101471" style="stroke: #000000; stroke-width: 0.6"/>
      </g>
     </g>
     <g id="line2d_64">
      <g>
       <use xlink:href="#m7ad1fa1ac5" x="338.507321" y="68.101471" style="stroke: #000000; stroke-width: 0.6"/>
      </g>
     </g>
    </g>
    <g id="ytick_27">
     <g id="line2d_65">
      <g>
       <use xlink:href="#md3202ea012" x="51.749375" y="65.676324" style="stroke: #000000; stroke-width: 0.6"/>
      </g>
     </g>
     <g id="line2d_66">
      <g>
       <use xlink:href="#m7ad1fa1ac5" x="338.507321" y="65.676324" style="stroke: #000000; stroke-width: 0.6"/>
      </g>
     </g>
    </g>
    <g id="ytick_28">
     <g id="line2d_67">
      <g>
       <use xlink:href="#md3202ea012" x="51.749375" y="63.575565" style="stroke: #000000; stroke-width: 0.6"/>
      </g>
     </g>
     <g id="line2d_68">
      <g>
       <use xlink:href="#m7ad1fa1ac5" x="338.507321" y="63.575565" style="stroke: #000000; stroke-width: 0.6"/>
      </g>
     </g>
    </g>
    <g id="ytick_29">
     <g id="line2d_69">
      <g>
       <use xlink:href="#md3202ea012" x="51.749375" y="61.722565" style="stroke: #000000; stroke-width: 0.6"/>
      </g>
     </g>
     <g id="line2d_70">
      <g>
       <use xlink:href="#m7ad1fa1ac5" x="338.507321" y="61.722565" style="stroke: #000000; stroke-width: 0.6"/>
      </g>
     </g>
    </g>
    <g id="ytick_30">
     <g id="line2d_71">
      <g>
       <use xlink:href="#md3202ea012" x="51.749375" y="49.160188" style="stroke: #000000; stroke-width: 0.6"/>
      </g>
     </g>
     <g id="line2d_72">
      <g>
       <use xlink:href="#m7ad1fa1ac5" x="338.507321" y="49.160188" style="stroke: #000000; stroke-width: 0.6"/>
      </g>
     </g>
    </g>
    <g id="ytick_31">
     <g id="line2d_73">
      <g>
       <use xlink:href="#md3202ea012" x="51.749375" y="42.781283" style="stroke: #000000; stroke-width: 0.6"/>
      </g>
     </g>
     <g id="line2d_74">
      <g>
       <use xlink:href="#m7ad1fa1ac5" x="338.507321" y="42.781283" style="stroke: #000000; stroke-width: 0.6"/>
      </g>
     </g>
    </g>
    <g id="ytick_32">
     <g id="line2d_75">
      <g>
       <use xlink:href="#md3202ea012" x="51.749375" y="38.255377" style="stroke: #000000; stroke-width: 0.6"/>
      </g>
     </g>
     <g id="line2d_76">
      <g>
       <use xlink:href="#m7ad1fa1ac5" x="338.507321" y="38.255377" style="stroke: #000000; stroke-width: 0.6"/>
      </g>
     </g>
    </g>
    <g id="ytick_33">
     <g id="line2d_77">
      <g>
       <use xlink:href="#md3202ea012" x="51.749375" y="34.744812" style="stroke: #000000; stroke-width: 0.6"/>
      </g>
     </g>
     <g id="line2d_78">
      <g>
       <use xlink:href="#m7ad1fa1ac5" x="338.507321" y="34.744812" style="stroke: #000000; stroke-width: 0.6"/>
      </g>
     </g>
    </g>
    <g id="ytick_34">
     <g id="line2d_79">
      <g>
       <use xlink:href="#md3202ea012" x="51.749375" y="31.876471" style="stroke: #000000; stroke-width: 0.6"/>
      </g>
     </g>
     <g id="line2d_80">
      <g>
       <use xlink:href="#m7ad1fa1ac5" x="338.507321" y="31.876471" style="stroke: #000000; stroke-width: 0.6"/>
      </g>
     </g>
    </g>
    <g id="ytick_35">
     <g id="line2d_81">
      <g>
       <use xlink:href="#md3202ea012" x="51.749375" y="29.451324" style="stroke: #000000; stroke-width: 0.6"/>
      </g>
     </g>
     <g id="line2d_82">
      <g>
       <use xlink:href="#m7ad1fa1ac5" x="338.507321" y="29.451324" style="stroke: #000000; stroke-width: 0.6"/>
      </g>
     </g>
    </g>
    <g id="ytick_36">
     <g id="line2d_83">
      <g>
       <use xlink:href="#md3202ea012" x="51.749375" y="27.350565" style="stroke: #000000; stroke-width: 0.6"/>
      </g>
     </g>
     <g id="line2d_84">
      <g>
       <use xlink:href="#m7ad1fa1ac5" x="338.507321" y="27.350565" style="stroke: #000000; stroke-width: 0.6"/>
      </g>
     </g>
    </g>
    <g id="ytick_37">
     <g id="line2d_85">
      <g>
       <use xlink:href="#md3202ea012" x="51.749375" y="25.497565" style="stroke: #000000; stroke-width: 0.6"/>
      </g>
     </g>
     <g id="line2d_86">
      <g>
       <use xlink:href="#m7ad1fa1ac5" x="338.507321" y="25.497565" style="stroke: #000000; stroke-width: 0.6"/>
      </g>
     </g>
    </g>
    <g id="text_13">
     <!-- Fidelity -->
     <g transform="translate(17.837813 121.281094) rotate(-90) scale(0.14 -0.14)">
      <defs>
       <path id="DejaVuSans-46" d="M 628 4666 
L 3309 4666 
L 3309 4134 
L 1259 4134 
L 1259 2759 
L 3109 2759 
L 3109 2228 
L 1259 2228 
L 1259 0 
L 628 0 
L 628 4666 
z
" transform="scale(0.015625)"/>
       <path id="DejaVuSans-64" d="M 2906 2969 
L 2906 4863 
L 3481 4863 
L 3481 0 
L 2906 0 
L 2906 525 
Q 2725 213 2448 61 
Q 2172 -91 1784 -91 
Q 1150 -91 751 415 
Q 353 922 353 1747 
Q 353 2572 751 3078 
Q 1150 3584 1784 3584 
Q 2172 3584 2448 3432 
Q 2725 3281 2906 2969 
z
M 947 1747 
Q 947 1113 1208 752 
Q 1469 391 1925 391 
Q 2381 391 2643 752 
Q 2906 1113 2906 1747 
Q 2906 2381 2643 2742 
Q 2381 3103 1925 3103 
Q 1469 3103 1208 2742 
Q 947 2381 947 1747 
z
" transform="scale(0.015625)"/>
       <path id="DejaVuSans-6c" d="M 603 4863 
L 1178 4863 
L 1178 0 
L 603 0 
L 603 4863 
z
" transform="scale(0.015625)"/>
       <path id="DejaVuSans-74" d="M 1172 4494 
L 1172 3500 
L 2356 3500 
L 2356 3053 
L 1172 3053 
L 1172 1153 
Q 1172 725 1289 603 
Q 1406 481 1766 481 
L 2356 481 
L 2356 0 
L 1766 0 
Q 1100 0 847 248 
Q 594 497 594 1153 
L 594 3053 
L 172 3053 
L 172 3500 
L 594 3500 
L 594 4494 
L 1172 4494 
z
" transform="scale(0.015625)"/>
       <path id="DejaVuSans-79" d="M 2059 -325 
Q 1816 -950 1584 -1140 
Q 1353 -1331 966 -1331 
L 506 -1331 
L 506 -850 
L 844 -850 
Q 1081 -850 1212 -737 
Q 1344 -625 1503 -206 
L 1606 56 
L 191 3500 
L 800 3500 
L 1894 763 
L 2988 3500 
L 3597 3500 
L 2059 -325 
z
" transform="scale(0.015625)"/>
      </defs>
      <use xlink:href="#DejaVuSans-46"/>
      <use xlink:href="#DejaVuSans-69" transform="translate(50.269531 0)"/>
      <use xlink:href="#DejaVuSans-64" transform="translate(78.052734 0)"/>
      <use xlink:href="#DejaVuSans-65" transform="translate(141.529297 0)"/>
      <use xlink:href="#DejaVuSans-6c" transform="translate(203.052734 0)"/>
      <use xlink:href="#DejaVuSans-69" transform="translate(230.835938 0)"/>
      <use xlink:href="#DejaVuSans-74" transform="translate(258.619141 0)"/>
      <use xlink:href="#DejaVuSans-79" transform="translate(297.828125 0)"/>
     </g>
    </g>
   </g>
   <g id="line2d_87">
    <path d="M 51.749375 23.84 
L 54.616954 23.927055 
L 55.763986 24.154181 
L 56.911018 24.627524 
L 58.05805 25.41144 
L 59.205082 26.51066 
L 60.638871 28.222324 
L 63.506451 31.788427 
L 64.653483 32.905791 
L 65.800514 33.71955 
L 66.660788 34.106317 
L 67.521062 34.294194 
L 68.381336 34.291005 
L 69.528368 34.040835 
L 73.542979 32.820661 
L 74.690011 32.797635 
L 76.1238 32.997942 
L 78.131106 33.539546 
L 81.858959 34.804182 
L 83.579507 35.583213 
L 85.586813 36.745793 
L 89.888182 39.349357 
L 95.910099 42.455701 
L 97.917404 43.25843 
L 100.211468 43.916773 
L 108.527448 45.862121 
L 110.534754 46.161822 
L 115.983155 46.759215 
L 118.277218 47.362122 
L 120.284524 48.089861 
L 123.152104 49.412823 
L 128.313747 51.98027 
L 130.321052 53.348044 
L 133.762148 55.760409 
L 136.342969 57.229944 
L 141.79137 60.257757 
L 143.798676 61.648129 
L 150.394108 66.498455 
L 154.982236 69.340009 
L 158.136573 71.142925 
L 160.143879 72.046119 
L 163.584974 73.484508 
L 165.305522 74.530858 
L 167.599585 76.226413 
L 173.90826 81.066479 
L 175.915566 82.135378 
L 177.636113 82.841392 
L 179.069903 83.212695 
L 180.503693 83.373336 
L 182.510998 83.34106 
L 184.805062 83.326994 
L 188.532915 83.493803 
L 193.694558 83.092955 
L 195.128348 83.370522 
L 197.135654 83.822427 
L 198.282685 83.80193 
L 199.429717 83.529221 
L 202.297297 82.4711 
L 205.164876 81.508703 
L 206.311908 81.307757 
L 207.45894 81.33698 
L 208.605972 81.640141 
L 210.039761 82.329307 
L 211.760309 83.184041 
L 212.907341 83.472696 
L 214.054372 83.473733 
L 217.495468 83.159204 
L 219.502773 83.373943 
L 222.083595 83.632059 
L 223.804143 83.578421 
L 225.237932 83.329691 
L 229.539302 82.329516 
L 230.399575 82.409733 
L 231.259849 82.688096 
L 232.120123 83.193188 
L 232.980397 83.937143 
L 234.127429 85.284701 
L 235.561218 87.428487 
L 239.002314 92.957683 
L 239.862588 93.941651 
L 240.722861 94.598812 
L 241.583135 94.897004 
L 242.443409 94.852277 
L 243.303683 94.521622 
L 244.450715 93.778825 
L 247.318294 91.687939 
L 248.465326 91.186485 
L 249.612358 90.989114 
L 250.75939 91.057306 
L 254.774001 91.626465 
L 256.207791 91.371183 
L 257.64158 91.136362 
L 258.501854 91.199862 
L 259.362128 91.494912 
L 260.222402 92.024727 
L 261.369434 93.019334 
L 265.384045 96.917029 
L 266.244319 97.437616 
L 267.104593 97.725571 
L 267.964866 97.734244 
L 268.82514 97.42615 
L 269.685414 96.786466 
L 270.545688 95.844489 
L 271.979478 93.846261 
L 274.273541 90.647748 
L 275.994089 88.703613 
L 277.714637 87.107016 
L 279.148426 86.079402 
L 281.155732 84.993324 
L 283.449795 83.677971 
L 286.030617 82.133674 
L 287.464407 81.545681 
L 288.898196 81.199955 
L 292.62605 80.663669 
L 294.920113 80.54298 
L 296.640661 80.404007 
L 298.074451 80.036056 
L 302.662578 78.582067 
L 304.669883 78.207808 
L 305.816915 78.192552 
L 306.963947 78.421086 
L 308.110979 78.928615 
L 309.258011 79.696903 
L 310.978558 81.16087 
L 312.985864 82.83774 
L 314.419654 83.771189 
L 316.140201 84.619289 
L 318.721023 85.591555 
L 320.154813 86.201815 
L 321.301844 86.939681 
L 322.448876 88.021422 
L 323.595908 89.456993 
L 325.889971 92.875205 
L 327.323761 94.772175 
L 328.470793 95.884192 
L 329.617825 96.661956 
L 335.352984 100.03001 
L 337.647047 101.299991 
L 338.794079 101.722752 
L 338.794079 101.722752 
" clip-path="url(#pf087593fac)" style="fill: none; stroke: #1f77b4; stroke-width: 1.5; stroke-linecap: square"/>
   </g>
   <g id="line2d_88">
    <path d="M 51.749375 23.84 
L 54.330197 23.917659 
L 55.477228 24.157702 
L 56.337502 24.522976 
L 57.197776 25.090141 
L 58.344808 26.175535 
L 59.778597 27.955524 
L 62.646177 31.665762 
L 63.793209 32.722355 
L 64.653483 33.253668 
L 65.513756 33.546628 
L 66.37403 33.604931 
L 67.234304 33.445066 
L 68.381336 32.949271 
L 70.388641 31.690787 
L 71.822431 30.886253 
L 72.969463 30.446172 
L 74.403253 30.146899 
L 76.1238 30.038008 
L 78.131106 30.131938 
L 80.42517 30.485222 
L 82.719233 31.064711 
L 88.167634 32.571939 
L 109.67448 37.075057 
L 113.402333 38.173309 
L 118.277218 39.932768 
L 124.012377 42.178196 
L 128.887262 44.114507 
L 135.482695 46.58755 
L 138.923791 47.827335 
L 144.65895 49.854407 
L 152.114656 52.41096 
L 155.842509 53.688918 
L 158.710089 54.954889 
L 167.312827 58.932374 
L 172.47447 60.841807 
L 174.481776 61.94859 
L 179.356661 64.804493 
L 184.231546 67.163738 
L 189.106431 69.70259 
L 192.834284 71.804639 
L 195.128348 73.430253 
L 197.422412 75.005605 
L 198.856201 75.743949 
L 200.576749 76.352806 
L 208.032456 78.516236 
L 210.326519 79.632793 
L 213.480857 81.163611 
L 216.921952 82.626899 
L 221.223321 84.929114 
L 222.370353 85.17363 
L 223.804143 85.221411 
L 226.95848 85.221047 
L 228.679028 85.447613 
L 231.546607 86.132244 
L 233.553913 86.491421 
L 235.561218 86.583881 
L 237.281766 86.473553 
L 238.715556 86.143521 
L 241.869893 85.207932 
L 243.590441 85.082419 
L 245.310989 84.94138 
L 246.45802 84.665692 
L 247.605052 84.184946 
L 249.038842 83.305168 
L 252.766695 80.737306 
L 253.913727 80.363983 
L 255.060759 80.277424 
L 256.494549 80.420548 
L 259.648886 80.811374 
L 261.369434 80.771728 
L 265.384045 80.557812 
L 266.531077 80.817368 
L 267.678108 81.337083 
L 271.405962 83.365212 
L 272.552993 83.642327 
L 273.700025 83.701827 
L 275.707331 83.527836 
L 277.427879 83.441471 
L 278.57491 83.587822 
L 279.721942 83.944927 
L 283.736553 85.49195 
L 285.457101 85.76322 
L 287.751165 86.106896 
L 288.898196 86.514528 
L 290.045228 87.139047 
L 291.765776 88.367775 
L 294.059839 90.274463 
L 295.780387 91.984859 
L 296.927419 93.425233 
L 298.074451 95.285806 
L 298.934725 97.065416 
L 300.081756 100.051978 
L 301.228788 103.75177 
L 302.662578 109.218753 
L 304.956641 119.068716 
L 308.397737 133.7998 
L 309.544769 137.818223 
L 310.405042 140.017965 
L 310.978558 140.979855 
L 311.552074 141.512518 
L 312.12559 141.637835 
L 312.699106 141.411717 
L 313.272622 140.911429 
L 314.132896 139.828691 
L 317.000475 135.876637 
L 317.860749 135.083507 
L 318.721023 134.585796 
L 319.581297 134.388387 
L 320.44157 134.463758 
L 321.588602 134.880225 
L 323.595908 135.714372 
L 324.456182 135.8102 
L 325.316456 135.675935 
L 326.176729 135.295539 
L 327.037003 134.628531 
L 327.897277 133.625198 
L 328.757551 132.270334 
L 329.904583 129.992381 
L 332.198646 124.678835 
L 333.632436 121.592337 
L 334.779468 119.552286 
L 335.9265 117.976061 
L 337.073531 116.846855 
L 338.220563 116.063204 
L 338.794079 115.763023 
L 338.794079 115.763023 
" clip-path="url(#pf087593fac)" style="fill: none; stroke: #ff7f0e; stroke-width: 1.5; stroke-linecap: square"/>
   </g>
   <g id="line2d_89">
    <path d="M 51.749375 23.84 
L 54.330197 23.930673 
L 55.477228 24.207377 
L 56.337502 24.62047 
L 57.197776 25.245305 
L 58.344808 26.389218 
L 62.072661 30.601416 
L 62.932935 31.189939 
L 63.793209 31.533655 
L 64.653483 31.633069 
L 65.513756 31.509276 
L 66.660788 31.05996 
L 68.094578 30.206046 
L 70.388641 28.80999 
L 71.822431 28.219207 
L 73.542979 27.789436 
L 76.410558 27.351835 
L 78.704622 27.177621 
L 80.711928 27.236505 
L 83.579507 27.574714 
L 87.880876 28.2841 
L 91.035214 29.068249 
L 94.476309 29.869133 
L 97.343888 30.280137 
L 111.10827 31.89637 
L 115.122881 32.723872 
L 118.563976 33.679122 
L 130.034294 37.131312 
L 136.056211 38.821987 
L 144.65895 41.030759 
L 147.813287 42.190227 
L 155.555751 45.147796 
L 160.143879 46.895998 
L 165.879038 49.413584 
L 169.606891 50.926695 
L 174.195018 52.792127 
L 177.636113 54.436239 
L 181.077209 56.340419 
L 183.944788 58.17499 
L 193.694558 64.712143 
L 197.422412 67.145111 
L 202.870813 70.774684 
L 212.907341 76.851025 
L 215.77492 78.888954 
L 218.929258 81.460234 
L 224.664416 86.18196 
L 226.384964 87.238835 
L 227.818754 87.858146 
L 229.539302 88.32734 
L 231.833365 88.668539 
L 234.414187 88.846035 
L 235.847976 88.779606 
L 237.281766 88.485639 
L 239.002314 87.855003 
L 242.443409 86.508034 
L 244.737473 85.892795 
L 248.178568 84.992875 
L 250.185874 84.219971 
L 255.060759 82.150929 
L 256.494549 81.919283 
L 257.928338 81.957052 
L 262.229707 82.399833 
L 263.663497 82.166565 
L 265.097287 81.701516 
L 270.25893 79.750494 
L 271.69272 79.624169 
L 275.707331 79.474669 
L 277.141121 79.093979 
L 280.868974 77.904758 
L 282.016006 77.868999 
L 283.163037 78.065573 
L 284.883585 78.640918 
L 286.890891 79.281244 
L 288.037923 79.405353 
L 289.184954 79.254177 
L 290.331986 78.81544 
L 291.765776 77.95341 
L 294.346597 76.313663 
L 295.493629 75.900642 
L 296.640661 75.764835 
L 298.361209 75.874147 
L 300.081756 75.914599 
L 301.228788 75.734048 
L 302.662578 75.25936 
L 306.390431 73.817073 
L 307.824221 73.610169 
L 309.831526 73.608246 
L 312.12559 73.58253 
L 314.706412 73.276285 
L 317.860749 72.967268 
L 319.868055 72.704523 
L 321.301844 72.298436 
L 323.022392 71.559934 
L 325.316456 70.555894 
L 326.750245 70.203182 
L 328.184035 70.116005 
L 331.911888 70.099165 
L 333.632436 69.761321 
L 338.220563 68.624584 
L 338.794079 68.556858 
L 338.794079 68.556858 
" clip-path="url(#pf087593fac)" style="fill: none; stroke: #2ca02c; stroke-width: 1.5; stroke-linecap: square"/>
   </g>
   <g id="patch_3">
    <path d="M 51.749375 168.74 
L 51.749375 23.84 
" style="fill: none; stroke: #000000; stroke-width: 0.8; stroke-linejoin: miter; stroke-linecap: square"/>
   </g>
   <g id="patch_4">
    <path d="M 338.507321 168.74 
L 338.507321 23.84 
" style="fill: none; stroke: #000000; stroke-width: 0.8; stroke-linejoin: miter; stroke-linecap: square"/>
   </g>
   <g id="patch_5">
    <path d="M 51.749375 168.74 
L 338.507321 168.74 
" style="fill: none; stroke: #000000; stroke-width: 0.8; stroke-linejoin: miter; stroke-linecap: square"/>
   </g>
   <g id="patch_6">
    <path d="M 51.749375 23.84 
L 338.507321 23.84 
" style="fill: none; stroke: #000000; stroke-width: 0.8; stroke-linejoin: miter; stroke-linecap: square"/>
   </g>
   <g id="text_14">
    <!-- $J_{x}=0.5,\, J_z=1,\, \alpha=0.5$ (2,9) -->
    <g transform="translate(99.718348 17.84) scale(0.14 -0.14)">
     <defs>
      <path id="DejaVuSans-Oblique-4a" d="M 1069 4666 
L 1703 4666 
L 856 325 
Q 691 -522 298 -901 
Q -94 -1281 -800 -1281 
L -1050 -1281 
L -947 -750 
L -750 -750 
Q -328 -750 -109 -509 
Q 109 -269 225 325 
L 1069 4666 
z
" transform="scale(0.015625)"/>
      <path id="DejaVuSans-Oblique-78" d="M 3841 3500 
L 2234 1784 
L 3219 0 
L 2559 0 
L 1819 1388 
L 531 0 
L -166 0 
L 1556 1844 
L 641 3500 
L 1300 3500 
L 1972 2234 
L 3144 3500 
L 3841 3500 
z
" transform="scale(0.015625)"/>
      <path id="DejaVuSans-3d" d="M 678 2906 
L 4684 2906 
L 4684 2381 
L 678 2381 
L 678 2906 
z
M 678 1631 
L 4684 1631 
L 4684 1100 
L 678 1100 
L 678 1631 
z
" transform="scale(0.015625)"/>
      <path id="DejaVuSans-2e" d="M 684 794 
L 1344 794 
L 1344 0 
L 684 0 
L 684 794 
z
" transform="scale(0.015625)"/>
      <path id="DejaVuSans-35" d="M 691 4666 
L 3169 4666 
L 3169 4134 
L 1269 4134 
L 1269 2991 
Q 1406 3038 1543 3061 
Q 1681 3084 1819 3084 
Q 2600 3084 3056 2656 
Q 3513 2228 3513 1497 
Q 3513 744 3044 326 
Q 2575 -91 1722 -91 
Q 1428 -91 1123 -41 
Q 819 9 494 109 
L 494 744 
Q 775 591 1075 516 
Q 1375 441 1709 441 
Q 2250 441 2565 725 
Q 2881 1009 2881 1497 
Q 2881 1984 2565 2268 
Q 2250 2553 1709 2553 
Q 1456 2553 1204 2497 
Q 953 2441 691 2322 
L 691 4666 
z
" transform="scale(0.015625)"/>
      <path id="DejaVuSans-2c" d="M 750 794 
L 1409 794 
L 1409 256 
L 897 -744 
L 494 -744 
L 750 256 
L 750 794 
z
" transform="scale(0.015625)"/>
      <path id="DejaVuSans-Oblique-7a" d="M 744 3500 
L 3475 3500 
L 3372 2975 
L 738 459 
L 2913 459 
L 2822 0 
L -19 0 
L 84 525 
L 2719 3041 
L 653 3041 
L 744 3500 
z
" transform="scale(0.015625)"/>
      <path id="DejaVuSans-Oblique-3b1" d="M 2619 1628 
L 2622 2350 
Q 2625 3088 2069 3091 
Q 1653 3094 1394 2747 
Q 1069 2319 959 1747 
Q 825 1059 994 731 
Q 1169 397 1547 397 
Q 1966 397 2319 1063 
L 2619 1628 
z
M 2166 3578 
Q 3141 3594 3128 2584 
Q 3128 2584 3616 3500 
L 4128 3500 
L 3119 1603 
L 3109 919 
Q 3109 766 3194 638 
Q 3291 488 3391 488 
L 3669 488 
L 3575 0 
L 3228 0 
Q 2934 0 2722 263 
Q 2622 394 2619 669 
Q 2416 334 2066 50 
Q 1900 -81 1453 -78 
Q 722 -72 456 397 
Q 184 884 353 1747 
Q 534 2675 1009 3097 
Q 1544 3569 2166 3578 
z
" transform="scale(0.015625)"/>
      <path id="DejaVuSans-20" transform="scale(0.015625)"/>
      <path id="DejaVuSans-28" d="M 1984 4856 
Q 1566 4138 1362 3434 
Q 1159 2731 1159 2009 
Q 1159 1288 1364 580 
Q 1569 -128 1984 -844 
L 1484 -844 
Q 1016 -109 783 600 
Q 550 1309 550 2009 
Q 550 2706 781 3412 
Q 1013 4119 1484 4856 
L 1984 4856 
z
" transform="scale(0.015625)"/>
      <path id="DejaVuSans-39" d="M 703 97 
L 703 672 
Q 941 559 1184 500 
Q 1428 441 1663 441 
Q 2288 441 2617 861 
Q 2947 1281 2994 2138 
Q 2813 1869 2534 1725 
Q 2256 1581 1919 1581 
Q 1219 1581 811 2004 
Q 403 2428 403 3163 
Q 403 3881 828 4315 
Q 1253 4750 1959 4750 
Q 2769 4750 3195 4129 
Q 3622 3509 3622 2328 
Q 3622 1225 3098 567 
Q 2575 -91 1691 -91 
Q 1453 -91 1209 -44 
Q 966 3 703 97 
z
M 1959 2075 
Q 2384 2075 2632 2365 
Q 2881 2656 2881 3163 
Q 2881 3666 2632 3958 
Q 2384 4250 1959 4250 
Q 1534 4250 1286 3958 
Q 1038 3666 1038 3163 
Q 1038 2656 1286 2365 
Q 1534 2075 1959 2075 
z
" transform="scale(0.015625)"/>
      <path id="DejaVuSans-29" d="M 513 4856 
L 1013 4856 
Q 1481 4119 1714 3412 
Q 1947 2706 1947 2009 
Q 1947 1309 1714 600 
Q 1481 -109 1013 -844 
L 513 -844 
Q 928 -128 1133 580 
Q 1338 1288 1338 2009 
Q 1338 2731 1133 3434 
Q 928 4138 513 4856 
z
" transform="scale(0.015625)"/>
     </defs>
     <use xlink:href="#DejaVuSans-Oblique-4a" transform="translate(0 0.125)"/>
     <use xlink:href="#DejaVuSans-Oblique-78" transform="translate(29.492188 -16.28125) scale(0.7)"/>
     <use xlink:href="#DejaVuSans-3d" transform="translate(93.134766 0.125)"/>
     <use xlink:href="#DejaVuSans-30" transform="translate(196.40625 0.125)"/>
     <use xlink:href="#DejaVuSans-2e" transform="translate(260.029297 0.125)"/>
     <use xlink:href="#DejaVuSans-35" transform="translate(291.816406 0.125)"/>
     <use xlink:href="#DejaVuSans-2c" transform="translate(355.439453 0.125)"/>
     <use xlink:href="#DejaVuSans-Oblique-4a" transform="translate(422.944661 0.125)"/>
     <use xlink:href="#DejaVuSans-Oblique-7a" transform="translate(452.436848 -16.28125) scale(0.7)"/>
     <use xlink:href="#DejaVuSans-3d" transform="translate(511.396809 0.125)"/>
     <use xlink:href="#DejaVuSans-31" transform="translate(614.668293 0.125)"/>
     <use xlink:href="#DejaVuSans-2c" transform="translate(678.29134 0.125)"/>
     <use xlink:href="#DejaVuSans-Oblique-3b1" transform="translate(745.796548 0.125)"/>
     <use xlink:href="#DejaVuSans-3d" transform="translate(831.196938 0.125)"/>
     <use xlink:href="#DejaVuSans-30" transform="translate(934.468423 0.125)"/>
     <use xlink:href="#DejaVuSans-2e" transform="translate(998.09147 0.125)"/>
     <use xlink:href="#DejaVuSans-35" transform="translate(1029.878579 0.125)"/>
     <use xlink:href="#DejaVuSans-20" transform="translate(1093.501626 0.125)"/>
     <use xlink:href="#DejaVuSans-28" transform="translate(1125.288735 0.125)"/>
     <use xlink:href="#DejaVuSans-32" transform="translate(1164.302407 0.125)"/>
     <use xlink:href="#DejaVuSans-2c" transform="translate(1227.925454 0.125)"/>
     <use xlink:href="#DejaVuSans-39" transform="translate(1259.712563 0.125)"/>
     <use xlink:href="#DejaVuSans-29" transform="translate(1323.33561 0.125)"/>
    </g>
   </g>
   <g id="legend_1">
    <g id="patch_7">
     <path d="M 58.749375 163.74 
L 123.249375 163.74 
Q 125.249375 163.74 125.249375 161.74 
L 125.249375 118.705625 
Q 125.249375 116.705625 123.249375 116.705625 
L 58.749375 116.705625 
Q 56.749375 116.705625 56.749375 118.705625 
L 56.749375 161.74 
Q 56.749375 163.74 58.749375 163.74 
z
" style="fill: #ffffff; opacity: 0.8; stroke: #cccccc; stroke-linejoin: miter"/>
    </g>
    <g id="line2d_90">
     <path d="M 60.749375 124.804062 
L 70.749375 124.804062 
L 80.749375 124.804062 
" style="fill: none; stroke: #1f77b4; stroke-width: 1.5; stroke-linecap: square"/>
    </g>
    <g id="text_15">
     <!-- $N=10$ -->
     <g transform="translate(88.749375 128.304062) scale(0.1 -0.1)">
      <defs>
       <path id="DejaVuSans-Oblique-4e" d="M 1081 4666 
L 1931 4666 
L 3219 666 
L 4000 4666 
L 4616 4666 
L 3706 0 
L 2853 0 
L 1569 4025 
L 788 0 
L 172 0 
L 1081 4666 
z
" transform="scale(0.015625)"/>
      </defs>
      <use xlink:href="#DejaVuSans-Oblique-4e" transform="translate(0 0.78125)"/>
      <use xlink:href="#DejaVuSans-3d" transform="translate(94.287109 0.78125)"/>
      <use xlink:href="#DejaVuSans-31" transform="translate(197.558594 0.78125)"/>
      <use xlink:href="#DejaVuSans-30" transform="translate(261.181641 0.78125)"/>
     </g>
    </g>
    <g id="line2d_91">
     <path d="M 60.749375 139.482187 
L 70.749375 139.482187 
L 80.749375 139.482187 
" style="fill: none; stroke: #ff7f0e; stroke-width: 1.5; stroke-linecap: square"/>
    </g>
    <g id="text_16">
     <!-- $N=12$ -->
     <g transform="translate(88.749375 142.982187) scale(0.1 -0.1)">
      <use xlink:href="#DejaVuSans-Oblique-4e" transform="translate(0 0.78125)"/>
      <use xlink:href="#DejaVuSans-3d" transform="translate(94.287109 0.78125)"/>
      <use xlink:href="#DejaVuSans-31" transform="translate(197.558594 0.78125)"/>
      <use xlink:href="#DejaVuSans-32" transform="translate(261.181641 0.78125)"/>
     </g>
    </g>
    <g id="line2d_92">
     <path d="M 60.749375 154.160312 
L 70.749375 154.160312 
L 80.749375 154.160312 
" style="fill: none; stroke: #2ca02c; stroke-width: 1.5; stroke-linecap: square"/>
    </g>
    <g id="text_17">
     <!-- $N=14$ -->
     <g transform="translate(88.749375 157.660312) scale(0.1 -0.1)">
      <use xlink:href="#DejaVuSans-Oblique-4e" transform="translate(0 0.09375)"/>
      <use xlink:href="#DejaVuSans-3d" transform="translate(94.287109 0.09375)"/>
      <use xlink:href="#DejaVuSans-31" transform="translate(197.558594 0.09375)"/>
      <use xlink:href="#DejaVuSans-34" transform="translate(261.181641 0.09375)"/>
     </g>
    </g>
   </g>
  </g>
 </g>
 <defs>
  <clipPath id="pf087593fac">
   <rect x="51.749375" y="23.84" width="286.757946" height="144.9"/>
  </clipPath>
 </defs>
</svg>
