<?xml version="1.0" encoding="utf-8" standalone="no"?>
<!DOCTYPE svg PUBLIC "-//W3C//DTD SVG 1.1//EN"
  "http://www.w3.org/Graphics/SVG/1.1/DTD/svg11.dtd">
<svg xmlns:xlink="http://www.w3.org/1999/xlink" width="352.114821pt" height="206.5235pt" viewBox="0 0 352.114821 206.5235" xmlns="http://www.w3.org/2000/svg" version="1.1">
 <metadata>
  <rdf:RDF xmlns:dc="http://purl.org/dc/elements/1.1/" xmlns:cc="http://creativecommons.org/ns#" xmlns:rdf="http://www.w3.org/1999/02/22-rdf-syntax-ns#">
   <cc:Work>
    <dc:type rdf:resource="http://purl.org/dc/dcmitype/StillImage"/>
    <dc:date>2025-09-30T19:47:27.507946</dc:date>
    <dc:format>image/svg+xml</dc:format>
    <dc:creator>
     <cc:Agent>
      <dc:title>Matplotlib v3.10.3, https://matplotlib.org/</dc:title>
     </cc:Agent>
    </dc:creator>
   </cc:Work>
  </rdf:RDF>
 </metadata>
 <defs>
  <style type="text/css">*{stroke-linejoin: round; stroke-linecap: butt}</style>
 </defs>
 <g id="figure_1">
  <g id="patch_1">
   <path d="M 0 206.5235 
L 352.114821 206.5235 
L 352.114821 0 
L 0 0 
z
" style="fill: #ffffff"/>
  </g>
  <g id="axes_1">
   <g id="patch_2">
    <path d="M 51.749375 168.596 
L 338.552321 168.596 
L 338.552321 23.84 
L 51.749375 23.84 
z
" style="fill: #ffffff"/>
   </g>
   <g id="matplotlib.axis_1">
    <g id="xtick_1">
     <g id="line2d_1">
      <defs>
       <path id="mf1d3b7936b" d="M 0 0 
L 0 -3.5 
" style="stroke: #000000; stroke-width: 0.8"/>
      </defs>
      <g>
       <use xlink:href="#mf1d3b7936b" x="51.749375" y="168.596" style="stroke: #000000; stroke-width: 0.8"/>
      </g>
     </g>
     <g id="line2d_2">
      <defs>
       <path id="ma4f06b3b0a" d="M 0 0 
L 0 3.5 
" style="stroke: #000000; stroke-width: 0.8"/>
      </defs>
      <g>
       <use xlink:href="#ma4f06b3b0a" x="51.749375" y="23.84" style="stroke: #000000; stroke-width: 0.8"/>
      </g>
     </g>
     <g id="text_1">
      <!-- 0 -->
      <g transform="translate(48.568125 179.694438) scale(0.1 -0.1)">
       <defs>
        <path id="DejaVuSans-30" d="M 2034 4250 
Q 1547 4250 1301 3770 
Q 1056 3291 1056 2328 
Q 1056 1369 1301 889 
Q 1547 409 2034 409 
Q 2525 409 2770 889 
Q 3016 1369 3016 2328 
Q 3016 3291 2770 3770 
Q 2525 4250 2034 4250 
z
M 2034 4750 
Q 2819 4750 3233 4129 
Q 3647 3509 3647 2328 
Q 3647 1150 3233 529 
Q 2819 -91 2034 -91 
Q 1250 -91 836 529 
Q 422 1150 422 2328 
Q 422 3509 836 4129 
Q 1250 4750 2034 4750 
z
" transform="scale(0.015625)"/>
       </defs>
       <use xlink:href="#DejaVuSans-30"/>
      </g>
     </g>
    </g>
    <g id="xtick_2">
     <g id="line2d_3">
      <g>
       <use xlink:href="#mf1d3b7936b" x="99.549866" y="168.596" style="stroke: #000000; stroke-width: 0.8"/>
      </g>
     </g>
     <g id="line2d_4">
      <g>
       <use xlink:href="#ma4f06b3b0a" x="99.549866" y="23.84" style="stroke: #000000; stroke-width: 0.8"/>
      </g>
     </g>
     <g id="text_2">
      <!-- 5 -->
      <g transform="translate(96.368616 179.694438) scale(0.1 -0.1)">
       <defs>
        <path id="DejaVuSans-35" d="M 691 4666 
L 3169 4666 
L 3169 4134 
L 1269 4134 
L 1269 2991 
Q 1406 3038 1543 3061 
Q 1681 3084 1819 3084 
Q 2600 3084 3056 2656 
Q 3513 2228 3513 1497 
Q 3513 744 3044 326 
Q 2575 -91 1722 -91 
Q 1428 -91 1123 -41 
Q 819 9 494 109 
L 494 744 
Q 775 591 1075 516 
Q 1375 441 1709 441 
Q 2250 441 2565 725 
Q 2881 1009 2881 1497 
Q 2881 1984 2565 2268 
Q 2250 2553 1709 2553 
Q 1456 2553 1204 2497 
Q 953 2441 691 2322 
L 691 4666 
z
" transform="scale(0.015625)"/>
       </defs>
       <use xlink:href="#DejaVuSans-35"/>
      </g>
     </g>
    </g>
    <g id="xtick_3">
     <g id="line2d_5">
      <g>
       <use xlink:href="#mf1d3b7936b" x="147.350357" y="168.596" style="stroke: #000000; stroke-width: 0.8"/>
      </g>
     </g>
     <g id="line2d_6">
      <g>
       <use xlink:href="#ma4f06b3b0a" x="147.350357" y="23.84" style="stroke: #000000; stroke-width: 0.8"/>
      </g>
     </g>
     <g id="text_3">
      <!-- 10 -->
      <g transform="translate(140.987857 179.694438) scale(0.1 -0.1)">
       <defs>
        <path id="DejaVuSans-31" d="M 794 531 
L 1825 531 
L 1825 4091 
L 703 3866 
L 703 4441 
L 1819 4666 
L 2450 4666 
L 2450 531 
L 3481 531 
L 3481 0 
L 794 0 
L 794 531 
z
" transform="scale(0.015625)"/>
       </defs>
       <use xlink:href="#DejaVuSans-31"/>
       <use xlink:href="#DejaVuSans-30" transform="translate(63.623047 0)"/>
      </g>
     </g>
    </g>
    <g id="xtick_4">
     <g id="line2d_7">
      <g>
       <use xlink:href="#mf1d3b7936b" x="195.150848" y="168.596" style="stroke: #000000; stroke-width: 0.8"/>
      </g>
     </g>
     <g id="line2d_8">
      <g>
       <use xlink:href="#ma4f06b3b0a" x="195.150848" y="23.84" style="stroke: #000000; stroke-width: 0.8"/>
      </g>
     </g>
     <g id="text_4">
      <!-- 15 -->
      <g transform="translate(188.788348 179.694438) scale(0.1 -0.1)">
       <use xlink:href="#DejaVuSans-31"/>
       <use xlink:href="#DejaVuSans-35" transform="translate(63.623047 0)"/>
      </g>
     </g>
    </g>
    <g id="xtick_5">
     <g id="line2d_9">
      <g>
       <use xlink:href="#mf1d3b7936b" x="242.951339" y="168.596" style="stroke: #000000; stroke-width: 0.8"/>
      </g>
     </g>
     <g id="line2d_10">
      <g>
       <use xlink:href="#ma4f06b3b0a" x="242.951339" y="23.84" style="stroke: #000000; stroke-width: 0.8"/>
      </g>
     </g>
     <g id="text_5">
      <!-- 20 -->
      <g transform="translate(236.588839 179.694438) scale(0.1 -0.1)">
       <defs>
        <path id="DejaVuSans-32" d="M 1228 531 
L 3431 531 
L 3431 0 
L 469 0 
L 469 531 
Q 828 903 1448 1529 
Q 2069 2156 2228 2338 
Q 2531 2678 2651 2914 
Q 2772 3150 2772 3378 
Q 2772 3750 2511 3984 
Q 2250 4219 1831 4219 
Q 1534 4219 1204 4116 
Q 875 4013 500 3803 
L 500 4441 
Q 881 4594 1212 4672 
Q 1544 4750 1819 4750 
Q 2544 4750 2975 4387 
Q 3406 4025 3406 3419 
Q 3406 3131 3298 2873 
Q 3191 2616 2906 2266 
Q 2828 2175 2409 1742 
Q 1991 1309 1228 531 
z
" transform="scale(0.015625)"/>
       </defs>
       <use xlink:href="#DejaVuSans-32"/>
       <use xlink:href="#DejaVuSans-30" transform="translate(63.623047 0)"/>
      </g>
     </g>
    </g>
    <g id="xtick_6">
     <g id="line2d_11">
      <g>
       <use xlink:href="#mf1d3b7936b" x="290.75183" y="168.596" style="stroke: #000000; stroke-width: 0.8"/>
      </g>
     </g>
     <g id="line2d_12">
      <g>
       <use xlink:href="#ma4f06b3b0a" x="290.75183" y="23.84" style="stroke: #000000; stroke-width: 0.8"/>
      </g>
     </g>
     <g id="text_6">
      <!-- 25 -->
      <g transform="translate(284.38933 179.694438) scale(0.1 -0.1)">
       <use xlink:href="#DejaVuSans-32"/>
       <use xlink:href="#DejaVuSans-35" transform="translate(63.623047 0)"/>
      </g>
     </g>
    </g>
    <g id="xtick_7">
     <g id="line2d_13">
      <g>
       <use xlink:href="#mf1d3b7936b" x="338.552321" y="168.596" style="stroke: #000000; stroke-width: 0.8"/>
      </g>
     </g>
     <g id="line2d_14">
      <g>
       <use xlink:href="#ma4f06b3b0a" x="338.552321" y="23.84" style="stroke: #000000; stroke-width: 0.8"/>
      </g>
     </g>
     <g id="text_7">
      <!-- 30 -->
      <g transform="translate(332.189821 179.694438) scale(0.1 -0.1)">
       <defs>
        <path id="DejaVuSans-33" d="M 2597 2516 
Q 3050 2419 3304 2112 
Q 3559 1806 3559 1356 
Q 3559 666 3084 287 
Q 2609 -91 1734 -91 
Q 1441 -91 1130 -33 
Q 819 25 488 141 
L 488 750 
Q 750 597 1062 519 
Q 1375 441 1716 441 
Q 2309 441 2620 675 
Q 2931 909 2931 1356 
Q 2931 1769 2642 2001 
Q 2353 2234 1838 2234 
L 1294 2234 
L 1294 2753 
L 1863 2753 
Q 2328 2753 2575 2939 
Q 2822 3125 2822 3475 
Q 2822 3834 2567 4026 
Q 2313 4219 1838 4219 
Q 1578 4219 1281 4162 
Q 984 4106 628 3988 
L 628 4550 
Q 988 4650 1302 4700 
Q 1616 4750 1894 4750 
Q 2613 4750 3031 4423 
Q 3450 4097 3450 3541 
Q 3450 3153 3228 2886 
Q 3006 2619 2597 2516 
z
" transform="scale(0.015625)"/>
       </defs>
       <use xlink:href="#DejaVuSans-33"/>
       <use xlink:href="#DejaVuSans-30" transform="translate(63.623047 0)"/>
      </g>
     </g>
    </g>
    <g id="text_8">
     <!-- Time -->
     <g transform="translate(178.023817 196.411938) scale(0.14 -0.14)">
      <defs>
       <path id="DejaVuSans-54" d="M -19 4666 
L 3928 4666 
L 3928 4134 
L 2272 4134 
L 2272 0 
L 1638 0 
L 1638 4134 
L -19 4134 
L -19 4666 
z
" transform="scale(0.015625)"/>
       <path id="DejaVuSans-69" d="M 603 3500 
L 1178 3500 
L 1178 0 
L 603 0 
L 603 3500 
z
M 603 4863 
L 1178 4863 
L 1178 4134 
L 603 4134 
L 603 4863 
z
" transform="scale(0.015625)"/>
       <path id="DejaVuSans-6d" d="M 3328 2828 
Q 3544 3216 3844 3400 
Q 4144 3584 4550 3584 
Q 5097 3584 5394 3201 
Q 5691 2819 5691 2113 
L 5691 0 
L 5113 0 
L 5113 2094 
Q 5113 2597 4934 2840 
Q 4756 3084 4391 3084 
Q 3944 3084 3684 2787 
Q 3425 2491 3425 1978 
L 3425 0 
L 2847 0 
L 2847 2094 
Q 2847 2600 2669 2842 
Q 2491 3084 2119 3084 
Q 1678 3084 1418 2786 
Q 1159 2488 1159 1978 
L 1159 0 
L 581 0 
L 581 3500 
L 1159 3500 
L 1159 2956 
Q 1356 3278 1631 3431 
Q 1906 3584 2284 3584 
Q 2666 3584 2933 3390 
Q 3200 3197 3328 2828 
z
" transform="scale(0.015625)"/>
       <path id="DejaVuSans-65" d="M 3597 1894 
L 3597 1613 
L 953 1613 
Q 991 1019 1311 708 
Q 1631 397 2203 397 
Q 2534 397 2845 478 
Q 3156 559 3463 722 
L 3463 178 
Q 3153 47 2828 -22 
Q 2503 -91 2169 -91 
Q 1331 -91 842 396 
Q 353 884 353 1716 
Q 353 2575 817 3079 
Q 1281 3584 2069 3584 
Q 2775 3584 3186 3129 
Q 3597 2675 3597 1894 
z
M 3022 2063 
Q 3016 2534 2758 2815 
Q 2500 3097 2075 3097 
Q 1594 3097 1305 2825 
Q 1016 2553 972 2059 
L 3022 2063 
z
" transform="scale(0.015625)"/>
      </defs>
      <use xlink:href="#DejaVuSans-54"/>
      <use xlink:href="#DejaVuSans-69" transform="translate(57.958984 0)"/>
      <use xlink:href="#DejaVuSans-6d" transform="translate(85.742188 0)"/>
      <use xlink:href="#DejaVuSans-65" transform="translate(183.154297 0)"/>
     </g>
    </g>
   </g>
   <g id="matplotlib.axis_2">
    <g id="ytick_1">
     <g id="line2d_15">
      <defs>
       <path id="meea57ee652" d="M 0 0 
L 3.5 0 
" style="stroke: #000000; stroke-width: 0.8"/>
      </defs>
      <g>
       <use xlink:href="#meea57ee652" x="51.749375" y="168.596" style="stroke: #000000; stroke-width: 0.8"/>
      </g>
     </g>
     <g id="line2d_16">
      <defs>
       <path id="mbb8ac9cedc" d="M 0 0 
L -3.5 0 
" style="stroke: #000000; stroke-width: 0.8"/>
      </defs>
      <g>
       <use xlink:href="#mbb8ac9cedc" x="338.552321" y="168.596" style="stroke: #000000; stroke-width: 0.8"/>
      </g>
     </g>
     <g id="text_9">
      <!-- $\mathdefault{10^{-4}}$ -->
      <g transform="translate(24.749375 172.395219) scale(0.1 -0.1)">
       <defs>
        <path id="DejaVuSans-2212" d="M 678 2272 
L 4684 2272 
L 4684 1741 
L 678 1741 
L 678 2272 
z
" transform="scale(0.015625)"/>
        <path id="DejaVuSans-34" d="M 2419 4116 
L 825 1625 
L 2419 1625 
L 2419 4116 
z
M 2253 4666 
L 3047 4666 
L 3047 1625 
L 3713 1625 
L 3713 1100 
L 3047 1100 
L 3047 0 
L 2419 0 
L 2419 1100 
L 313 1100 
L 313 1709 
L 2253 4666 
z
" transform="scale(0.015625)"/>
       </defs>
       <use xlink:href="#DejaVuSans-31" transform="translate(0 0.684375)"/>
       <use xlink:href="#DejaVuSans-30" transform="translate(63.623047 0.684375)"/>
       <use xlink:href="#DejaVuSans-2212" transform="translate(128.203125 38.965625) scale(0.7)"/>
       <use xlink:href="#DejaVuSans-34" transform="translate(186.855469 38.965625) scale(0.7)"/>
      </g>
     </g>
    </g>
    <g id="ytick_2">
     <g id="line2d_17">
      <g>
       <use xlink:href="#meea57ee652" x="51.749375" y="132.407" style="stroke: #000000; stroke-width: 0.8"/>
      </g>
     </g>
     <g id="line2d_18">
      <g>
       <use xlink:href="#mbb8ac9cedc" x="338.552321" y="132.407" style="stroke: #000000; stroke-width: 0.8"/>
      </g>
     </g>
     <g id="text_10">
      <!-- $\mathdefault{10^{-3}}$ -->
      <g transform="translate(24.749375 136.206219) scale(0.1 -0.1)">
       <use xlink:href="#DejaVuSans-31" transform="translate(0 0.765625)"/>
       <use xlink:href="#DejaVuSans-30" transform="translate(63.623047 0.765625)"/>
       <use xlink:href="#DejaVuSans-2212" transform="translate(128.203125 39.046875) scale(0.7)"/>
       <use xlink:href="#DejaVuSans-33" transform="translate(186.855469 39.046875) scale(0.7)"/>
      </g>
     </g>
    </g>
    <g id="ytick_3">
     <g id="line2d_19">
      <g>
       <use xlink:href="#meea57ee652" x="51.749375" y="96.218" style="stroke: #000000; stroke-width: 0.8"/>
      </g>
     </g>
     <g id="line2d_20">
      <g>
       <use xlink:href="#mbb8ac9cedc" x="338.552321" y="96.218" style="stroke: #000000; stroke-width: 0.8"/>
      </g>
     </g>
     <g id="text_11">
      <!-- $\mathdefault{10^{-2}}$ -->
      <g transform="translate(24.749375 100.017219) scale(0.1 -0.1)">
       <use xlink:href="#DejaVuSans-31" transform="translate(0 0.765625)"/>
       <use xlink:href="#DejaVuSans-30" transform="translate(63.623047 0.765625)"/>
       <use xlink:href="#DejaVuSans-2212" transform="translate(128.203125 39.046875) scale(0.7)"/>
       <use xlink:href="#DejaVuSans-32" transform="translate(186.855469 39.046875) scale(0.7)"/>
      </g>
     </g>
    </g>
    <g id="ytick_4">
     <g id="line2d_21">
      <g>
       <use xlink:href="#meea57ee652" x="51.749375" y="60.029" style="stroke: #000000; stroke-width: 0.8"/>
      </g>
     </g>
     <g id="line2d_22">
      <g>
       <use xlink:href="#mbb8ac9cedc" x="338.552321" y="60.029" style="stroke: #000000; stroke-width: 0.8"/>
      </g>
     </g>
     <g id="text_12">
      <!-- $\mathdefault{10^{-1}}$ -->
      <g transform="translate(24.749375 63.828219) scale(0.1 -0.1)">
       <use xlink:href="#DejaVuSans-31" transform="translate(0 0.684375)"/>
       <use xlink:href="#DejaVuSans-30" transform="translate(63.623047 0.684375)"/>
       <use xlink:href="#DejaVuSans-2212" transform="translate(128.203125 38.965625) scale(0.7)"/>
       <use xlink:href="#DejaVuSans-31" transform="translate(186.855469 38.965625) scale(0.7)"/>
      </g>
     </g>
    </g>
    <g id="ytick_5">
     <g id="line2d_23">
      <g>
       <use xlink:href="#meea57ee652" x="51.749375" y="23.84" style="stroke: #000000; stroke-width: 0.8"/>
      </g>
     </g>
     <g id="line2d_24">
      <g>
       <use xlink:href="#mbb8ac9cedc" x="338.552321" y="23.84" style="stroke: #000000; stroke-width: 0.8"/>
      </g>
     </g>
     <g id="text_13">
      <!-- $\mathdefault{10^{0}}$ -->
      <g transform="translate(30.649375 27.639219) scale(0.1 -0.1)">
       <use xlink:href="#DejaVuSans-31" transform="translate(0 0.765625)"/>
       <use xlink:href="#DejaVuSans-30" transform="translate(63.623047 0.765625)"/>
       <use xlink:href="#DejaVuSans-30" transform="translate(128.203125 39.046875) scale(0.7)"/>
      </g>
     </g>
    </g>
    <g id="ytick_6">
     <g id="line2d_25">
      <defs>
       <path id="m375707b482" d="M 0 0 
L 2 0 
" style="stroke: #000000; stroke-width: 0.6"/>
      </defs>
      <g>
       <use xlink:href="#m375707b482" x="51.749375" y="157.702025" style="stroke: #000000; stroke-width: 0.6"/>
      </g>
     </g>
     <g id="line2d_26">
      <defs>
       <path id="m7e97341847" d="M 0 0 
L -2 0 
" style="stroke: #000000; stroke-width: 0.6"/>
      </defs>
      <g>
       <use xlink:href="#m7e97341847" x="338.552321" y="157.702025" style="stroke: #000000; stroke-width: 0.6"/>
      </g>
     </g>
    </g>
    <g id="ytick_7">
     <g id="line2d_27">
      <g>
       <use xlink:href="#m375707b482" x="51.749375" y="151.329459" style="stroke: #000000; stroke-width: 0.6"/>
      </g>
     </g>
     <g id="line2d_28">
      <g>
       <use xlink:href="#m7e97341847" x="338.552321" y="151.329459" style="stroke: #000000; stroke-width: 0.6"/>
      </g>
     </g>
    </g>
    <g id="ytick_8">
     <g id="line2d_29">
      <g>
       <use xlink:href="#m375707b482" x="51.749375" y="146.808051" style="stroke: #000000; stroke-width: 0.6"/>
      </g>
     </g>
     <g id="line2d_30">
      <g>
       <use xlink:href="#m7e97341847" x="338.552321" y="146.808051" style="stroke: #000000; stroke-width: 0.6"/>
      </g>
     </g>
    </g>
    <g id="ytick_9">
     <g id="line2d_31">
      <g>
       <use xlink:href="#m375707b482" x="51.749375" y="143.300975" style="stroke: #000000; stroke-width: 0.6"/>
      </g>
     </g>
     <g id="line2d_32">
      <g>
       <use xlink:href="#m7e97341847" x="338.552321" y="143.300975" style="stroke: #000000; stroke-width: 0.6"/>
      </g>
     </g>
    </g>
    <g id="ytick_10">
     <g id="line2d_33">
      <g>
       <use xlink:href="#m375707b482" x="51.749375" y="140.435484" style="stroke: #000000; stroke-width: 0.6"/>
      </g>
     </g>
     <g id="line2d_34">
      <g>
       <use xlink:href="#m7e97341847" x="338.552321" y="140.435484" style="stroke: #000000; stroke-width: 0.6"/>
      </g>
     </g>
    </g>
    <g id="ytick_11">
     <g id="line2d_35">
      <g>
       <use xlink:href="#m375707b482" x="51.749375" y="138.012747" style="stroke: #000000; stroke-width: 0.6"/>
      </g>
     </g>
     <g id="line2d_36">
      <g>
       <use xlink:href="#m7e97341847" x="338.552321" y="138.012747" style="stroke: #000000; stroke-width: 0.6"/>
      </g>
     </g>
    </g>
    <g id="ytick_12">
     <g id="line2d_37">
      <g>
       <use xlink:href="#m375707b482" x="51.749375" y="135.914076" style="stroke: #000000; stroke-width: 0.6"/>
      </g>
     </g>
     <g id="line2d_38">
      <g>
       <use xlink:href="#m7e97341847" x="338.552321" y="135.914076" style="stroke: #000000; stroke-width: 0.6"/>
      </g>
     </g>
    </g>
    <g id="ytick_13">
     <g id="line2d_39">
      <g>
       <use xlink:href="#m375707b482" x="51.749375" y="134.062918" style="stroke: #000000; stroke-width: 0.6"/>
      </g>
     </g>
     <g id="line2d_40">
      <g>
       <use xlink:href="#m7e97341847" x="338.552321" y="134.062918" style="stroke: #000000; stroke-width: 0.6"/>
      </g>
     </g>
    </g>
    <g id="ytick_14">
     <g id="line2d_41">
      <g>
       <use xlink:href="#m375707b482" x="51.749375" y="121.513025" style="stroke: #000000; stroke-width: 0.6"/>
      </g>
     </g>
     <g id="line2d_42">
      <g>
       <use xlink:href="#m7e97341847" x="338.552321" y="121.513025" style="stroke: #000000; stroke-width: 0.6"/>
      </g>
     </g>
    </g>
    <g id="ytick_15">
     <g id="line2d_43">
      <g>
       <use xlink:href="#m375707b482" x="51.749375" y="115.140459" style="stroke: #000000; stroke-width: 0.6"/>
      </g>
     </g>
     <g id="line2d_44">
      <g>
       <use xlink:href="#m7e97341847" x="338.552321" y="115.140459" style="stroke: #000000; stroke-width: 0.6"/>
      </g>
     </g>
    </g>
    <g id="ytick_16">
     <g id="line2d_45">
      <g>
       <use xlink:href="#m375707b482" x="51.749375" y="110.619051" style="stroke: #000000; stroke-width: 0.6"/>
      </g>
     </g>
     <g id="line2d_46">
      <g>
       <use xlink:href="#m7e97341847" x="338.552321" y="110.619051" style="stroke: #000000; stroke-width: 0.6"/>
      </g>
     </g>
    </g>
    <g id="ytick_17">
     <g id="line2d_47">
      <g>
       <use xlink:href="#m375707b482" x="51.749375" y="107.111975" style="stroke: #000000; stroke-width: 0.6"/>
      </g>
     </g>
     <g id="line2d_48">
      <g>
       <use xlink:href="#m7e97341847" x="338.552321" y="107.111975" style="stroke: #000000; stroke-width: 0.6"/>
      </g>
     </g>
    </g>
    <g id="ytick_18">
     <g id="line2d_49">
      <g>
       <use xlink:href="#m375707b482" x="51.749375" y="104.246484" style="stroke: #000000; stroke-width: 0.6"/>
      </g>
     </g>
     <g id="line2d_50">
      <g>
       <use xlink:href="#m7e97341847" x="338.552321" y="104.246484" style="stroke: #000000; stroke-width: 0.6"/>
      </g>
     </g>
    </g>
    <g id="ytick_19">
     <g id="line2d_51">
      <g>
       <use xlink:href="#m375707b482" x="51.749375" y="101.823747" style="stroke: #000000; stroke-width: 0.6"/>
      </g>
     </g>
     <g id="line2d_52">
      <g>
       <use xlink:href="#m7e97341847" x="338.552321" y="101.823747" style="stroke: #000000; stroke-width: 0.6"/>
      </g>
     </g>
    </g>
    <g id="ytick_20">
     <g id="line2d_53">
      <g>
       <use xlink:href="#m375707b482" x="51.749375" y="99.725076" style="stroke: #000000; stroke-width: 0.6"/>
      </g>
     </g>
     <g id="line2d_54">
      <g>
       <use xlink:href="#m7e97341847" x="338.552321" y="99.725076" style="stroke: #000000; stroke-width: 0.6"/>
      </g>
     </g>
    </g>
    <g id="ytick_21">
     <g id="line2d_55">
      <g>
       <use xlink:href="#m375707b482" x="51.749375" y="97.873918" style="stroke: #000000; stroke-width: 0.6"/>
      </g>
     </g>
     <g id="line2d_56">
      <g>
       <use xlink:href="#m7e97341847" x="338.552321" y="97.873918" style="stroke: #000000; stroke-width: 0.6"/>
      </g>
     </g>
    </g>
    <g id="ytick_22">
     <g id="line2d_57">
      <g>
       <use xlink:href="#m375707b482" x="51.749375" y="85.324025" style="stroke: #000000; stroke-width: 0.6"/>
      </g>
     </g>
     <g id="line2d_58">
      <g>
       <use xlink:href="#m7e97341847" x="338.552321" y="85.324025" style="stroke: #000000; stroke-width: 0.6"/>
      </g>
     </g>
    </g>
    <g id="ytick_23">
     <g id="line2d_59">
      <g>
       <use xlink:href="#m375707b482" x="51.749375" y="78.951459" style="stroke: #000000; stroke-width: 0.6"/>
      </g>
     </g>
     <g id="line2d_60">
      <g>
       <use xlink:href="#m7e97341847" x="338.552321" y="78.951459" style="stroke: #000000; stroke-width: 0.6"/>
      </g>
     </g>
    </g>
    <g id="ytick_24">
     <g id="line2d_61">
      <g>
       <use xlink:href="#m375707b482" x="51.749375" y="74.430051" style="stroke: #000000; stroke-width: 0.6"/>
      </g>
     </g>
     <g id="line2d_62">
      <g>
       <use xlink:href="#m7e97341847" x="338.552321" y="74.430051" style="stroke: #000000; stroke-width: 0.6"/>
      </g>
     </g>
    </g>
    <g id="ytick_25">
     <g id="line2d_63">
      <g>
       <use xlink:href="#m375707b482" x="51.749375" y="70.922975" style="stroke: #000000; stroke-width: 0.6"/>
      </g>
     </g>
     <g id="line2d_64">
      <g>
       <use xlink:href="#m7e97341847" x="338.552321" y="70.922975" style="stroke: #000000; stroke-width: 0.6"/>
      </g>
     </g>
    </g>
    <g id="ytick_26">
     <g id="line2d_65">
      <g>
       <use xlink:href="#m375707b482" x="51.749375" y="68.057484" style="stroke: #000000; stroke-width: 0.6"/>
      </g>
     </g>
     <g id="line2d_66">
      <g>
       <use xlink:href="#m7e97341847" x="338.552321" y="68.057484" style="stroke: #000000; stroke-width: 0.6"/>
      </g>
     </g>
    </g>
    <g id="ytick_27">
     <g id="line2d_67">
      <g>
       <use xlink:href="#m375707b482" x="51.749375" y="65.634747" style="stroke: #000000; stroke-width: 0.6"/>
      </g>
     </g>
     <g id="line2d_68">
      <g>
       <use xlink:href="#m7e97341847" x="338.552321" y="65.634747" style="stroke: #000000; stroke-width: 0.6"/>
      </g>
     </g>
    </g>
    <g id="ytick_28">
     <g id="line2d_69">
      <g>
       <use xlink:href="#m375707b482" x="51.749375" y="63.536076" style="stroke: #000000; stroke-width: 0.6"/>
      </g>
     </g>
     <g id="line2d_70">
      <g>
       <use xlink:href="#m7e97341847" x="338.552321" y="63.536076" style="stroke: #000000; stroke-width: 0.6"/>
      </g>
     </g>
    </g>
    <g id="ytick_29">
     <g id="line2d_71">
      <g>
       <use xlink:href="#m375707b482" x="51.749375" y="61.684918" style="stroke: #000000; stroke-width: 0.6"/>
      </g>
     </g>
     <g id="line2d_72">
      <g>
       <use xlink:href="#m7e97341847" x="338.552321" y="61.684918" style="stroke: #000000; stroke-width: 0.6"/>
      </g>
     </g>
    </g>
    <g id="ytick_30">
     <g id="line2d_73">
      <g>
       <use xlink:href="#m375707b482" x="51.749375" y="49.135025" style="stroke: #000000; stroke-width: 0.6"/>
      </g>
     </g>
     <g id="line2d_74">
      <g>
       <use xlink:href="#m7e97341847" x="338.552321" y="49.135025" style="stroke: #000000; stroke-width: 0.6"/>
      </g>
     </g>
    </g>
    <g id="ytick_31">
     <g id="line2d_75">
      <g>
       <use xlink:href="#m375707b482" x="51.749375" y="42.762459" style="stroke: #000000; stroke-width: 0.6"/>
      </g>
     </g>
     <g id="line2d_76">
      <g>
       <use xlink:href="#m7e97341847" x="338.552321" y="42.762459" style="stroke: #000000; stroke-width: 0.6"/>
      </g>
     </g>
    </g>
    <g id="ytick_32">
     <g id="line2d_77">
      <g>
       <use xlink:href="#m375707b482" x="51.749375" y="38.241051" style="stroke: #000000; stroke-width: 0.6"/>
      </g>
     </g>
     <g id="line2d_78">
      <g>
       <use xlink:href="#m7e97341847" x="338.552321" y="38.241051" style="stroke: #000000; stroke-width: 0.6"/>
      </g>
     </g>
    </g>
    <g id="ytick_33">
     <g id="line2d_79">
      <g>
       <use xlink:href="#m375707b482" x="51.749375" y="34.733975" style="stroke: #000000; stroke-width: 0.6"/>
      </g>
     </g>
     <g id="line2d_80">
      <g>
       <use xlink:href="#m7e97341847" x="338.552321" y="34.733975" style="stroke: #000000; stroke-width: 0.6"/>
      </g>
     </g>
    </g>
    <g id="ytick_34">
     <g id="line2d_81">
      <g>
       <use xlink:href="#m375707b482" x="51.749375" y="31.868484" style="stroke: #000000; stroke-width: 0.6"/>
      </g>
     </g>
     <g id="line2d_82">
      <g>
       <use xlink:href="#m7e97341847" x="338.552321" y="31.868484" style="stroke: #000000; stroke-width: 0.6"/>
      </g>
     </g>
    </g>
    <g id="ytick_35">
     <g id="line2d_83">
      <g>
       <use xlink:href="#m375707b482" x="51.749375" y="29.445747" style="stroke: #000000; stroke-width: 0.6"/>
      </g>
     </g>
     <g id="line2d_84">
      <g>
       <use xlink:href="#m7e97341847" x="338.552321" y="29.445747" style="stroke: #000000; stroke-width: 0.6"/>
      </g>
     </g>
    </g>
    <g id="ytick_36">
     <g id="line2d_85">
      <g>
       <use xlink:href="#m375707b482" x="51.749375" y="27.347076" style="stroke: #000000; stroke-width: 0.6"/>
      </g>
     </g>
     <g id="line2d_86">
      <g>
       <use xlink:href="#m7e97341847" x="338.552321" y="27.347076" style="stroke: #000000; stroke-width: 0.6"/>
      </g>
     </g>
    </g>
    <g id="ytick_37">
     <g id="line2d_87">
      <g>
       <use xlink:href="#m375707b482" x="51.749375" y="25.495918" style="stroke: #000000; stroke-width: 0.6"/>
      </g>
     </g>
     <g id="line2d_88">
      <g>
       <use xlink:href="#m7e97341847" x="338.552321" y="25.495918" style="stroke: #000000; stroke-width: 0.6"/>
      </g>
     </g>
    </g>
    <g id="text_14">
     <!-- Fidelity -->
     <g transform="translate(17.837813 121.209094) rotate(-90) scale(0.14 -0.14)">
      <defs>
       <path id="DejaVuSans-46" d="M 628 4666 
L 3309 4666 
L 3309 4134 
L 1259 4134 
L 1259 2759 
L 3109 2759 
L 3109 2228 
L 1259 2228 
L 1259 0 
L 628 0 
L 628 4666 
z
" transform="scale(0.015625)"/>
       <path id="DejaVuSans-64" d="M 2906 2969 
L 2906 4863 
L 3481 4863 
L 3481 0 
L 2906 0 
L 2906 525 
Q 2725 213 2448 61 
Q 2172 -91 1784 -91 
Q 1150 -91 751 415 
Q 353 922 353 1747 
Q 353 2572 751 3078 
Q 1150 3584 1784 3584 
Q 2172 3584 2448 3432 
Q 2725 3281 2906 2969 
z
M 947 1747 
Q 947 1113 1208 752 
Q 1469 391 1925 391 
Q 2381 391 2643 752 
Q 2906 1113 2906 1747 
Q 2906 2381 2643 2742 
Q 2381 3103 1925 3103 
Q 1469 3103 1208 2742 
Q 947 2381 947 1747 
z
" transform="scale(0.015625)"/>
       <path id="DejaVuSans-6c" d="M 603 4863 
L 1178 4863 
L 1178 0 
L 603 0 
L 603 4863 
z
" transform="scale(0.015625)"/>
       <path id="DejaVuSans-74" d="M 1172 4494 
L 1172 3500 
L 2356 3500 
L 2356 3053 
L 1172 3053 
L 1172 1153 
Q 1172 725 1289 603 
Q 1406 481 1766 481 
L 2356 481 
L 2356 0 
L 1766 0 
Q 1100 0 847 248 
Q 594 497 594 1153 
L 594 3053 
L 172 3053 
L 172 3500 
L 594 3500 
L 594 4494 
L 1172 4494 
z
" transform="scale(0.015625)"/>
       <path id="DejaVuSans-79" d="M 2059 -325 
Q 1816 -950 1584 -1140 
Q 1353 -1331 966 -1331 
L 506 -1331 
L 506 -850 
L 844 -850 
Q 1081 -850 1212 -737 
Q 1344 -625 1503 -206 
L 1606 56 
L 191 3500 
L 800 3500 
L 1894 763 
L 2988 3500 
L 3597 3500 
L 2059 -325 
z
" transform="scale(0.015625)"/>
      </defs>
      <use xlink:href="#DejaVuSans-46"/>
      <use xlink:href="#DejaVuSans-69" transform="translate(50.269531 0)"/>
      <use xlink:href="#DejaVuSans-64" transform="translate(78.052734 0)"/>
      <use xlink:href="#DejaVuSans-65" transform="translate(141.529297 0)"/>
      <use xlink:href="#DejaVuSans-6c" transform="translate(203.052734 0)"/>
      <use xlink:href="#DejaVuSans-69" transform="translate(230.835938 0)"/>
      <use xlink:href="#DejaVuSans-74" transform="translate(258.619141 0)"/>
      <use xlink:href="#DejaVuSans-79" transform="translate(297.828125 0)"/>
     </g>
    </g>
   </g>
   <g id="line2d_89">
    <path d="M 51.749375 23.84 
L 52.036178 23.93814 
L 52.418582 24.353337 
L 52.992188 25.401814 
L 53.852597 26.971469 
L 54.235001 27.324406 
L 54.617404 27.395745 
L 54.999808 27.231687 
L 55.669015 26.630936 
L 56.816227 25.594527 
L 57.485434 25.306316 
L 58.05904 25.31797 
L 58.728247 25.586214 
L 60.06666 26.212617 
L 60.927069 26.296784 
L 62.552286 26.378044 
L 64.559907 26.610283 
L 65.89832 26.432667 
L 67.045532 26.368502 
L 68.479547 26.585355 
L 69.817961 26.69211 
L 72.016783 26.796086 
L 73.928803 27.029017 
L 76.60563 26.98176 
L 80.907675 27.363307 
L 82.341689 27.4337 
L 85.018517 27.864211 
L 86.930536 27.897653 
L 88.555753 27.684844 
L 89.22496 27.887844 
L 91.232581 28.700163 
L 92.092989 28.733437 
L 92.953398 28.551256 
L 94.674216 28.089947 
L 95.343423 28.193197 
L 96.299433 28.602177 
L 98.02025 29.378275 
L 98.689457 29.394807 
L 99.358664 29.156795 
L 100.88828 28.492556 
L 101.461886 28.530735 
L 102.131093 28.83005 
L 103.087102 29.559888 
L 104.043112 30.222631 
L 104.616718 30.375422 
L 105.190324 30.297242 
L 106.146334 29.866339 
L 107.102344 29.520053 
L 107.77155 29.526655 
L 108.345156 29.746153 
L 109.109964 30.311285 
L 110.257176 31.191993 
L 110.830782 31.344943 
L 111.499989 31.268038 
L 112.647201 31.103621 
L 113.698811 31.263891 
L 116.184437 31.862279 
L 117.42725 32.295448 
L 118.765663 32.417339 
L 119.721673 32.65637 
L 121.729294 33.289621 
L 123.067708 33.409024 
L 125.362131 33.434804 
L 126.22254 33.856997 
L 127.465353 34.447001 
L 128.421363 34.603355 
L 129.855377 34.571919 
L 131.002589 34.586723 
L 131.767397 34.824478 
L 133.96622 35.702387 
L 136.260643 36.008941 
L 138.077062 36.250752 
L 138.84187 36.620479 
L 139.702278 37.334164 
L 140.84949 38.304959 
L 141.423096 38.471965 
L 141.996702 38.35904 
L 143.908722 37.659033 
L 144.482328 37.761596 
L 145.055933 38.078302 
L 145.72514 38.731712 
L 147.445958 40.674058 
L 147.923963 40.800189 
L 148.497569 40.672624 
L 150.027185 40.158168 
L 150.887593 40.193017 
L 151.748002 40.434872 
L 152.704012 40.948977 
L 154.329229 41.864714 
L 157.292859 43.023697 
L 158.535672 43.014976 
L 159.396081 43.140739 
L 160.352091 43.545757 
L 161.690504 44.387253 
L 163.984928 45.957395 
L 165.036539 46.257083 
L 166.470553 46.710299 
L 167.617765 47.299378 
L 168.573775 48.043147 
L 169.912189 49.127061 
L 170.581396 49.373583 
L 171.633006 49.445265 
L 172.493415 49.608588 
L 173.258223 49.995886 
L 174.596637 51.006992 
L 176.126253 52.056352 
L 177.082262 52.504826 
L 177.655868 52.529788 
L 178.229474 52.287723 
L 179.75909 51.425152 
L 180.237095 51.540489 
L 180.7151 51.904311 
L 181.479908 52.822912 
L 182.818321 54.447103 
L 183.391927 54.834175 
L 183.869932 54.910175 
L 184.347937 54.757401 
L 186.355558 53.766208 
L 187.024765 53.897902 
L 187.885173 54.319284 
L 188.649981 54.946431 
L 189.605991 56.083788 
L 190.562001 57.147127 
L 191.231208 57.582765 
L 191.900415 57.769758 
L 192.569622 57.747007 
L 193.43003 57.463297 
L 194.194838 57.264974 
L 194.672843 57.378234 
L 195.150848 57.762585 
L 195.724454 58.558025 
L 197.445272 61.208405 
L 198.018878 61.577805 
L 198.592483 61.660492 
L 200.408902 61.655095 
L 200.982508 62.054893 
L 201.747316 62.929357 
L 203.276932 64.758905 
L 204.328542 65.621502 
L 205.666956 66.433285 
L 207.00537 67.272185 
L 208.343784 68.51908 
L 209.204192 69.132199 
L 211.116212 70.202838 
L 211.785419 71.032456 
L 212.741429 72.650533 
L 213.888641 74.527133 
L 214.366645 74.947613 
L 214.84465 75.059044 
L 215.513857 74.881594 
L 216.087463 74.796581 
L 216.469867 74.951276 
L 216.852271 75.338485 
L 217.330276 76.148636 
L 218.095084 77.977313 
L 219.529098 81.495285 
L 220.102704 82.394084 
L 220.580709 82.752931 
L 221.058714 82.781931 
L 222.014724 82.637087 
L 222.397128 82.861828 
L 222.779532 83.381112 
L 223.257537 84.464769 
L 223.926744 86.642755 
L 226.125566 94.421615 
L 226.412369 94.757587 
L 226.699172 94.7589 
L 226.985975 94.451892 
L 227.559581 93.295049 
L 228.133187 92.258254 
L 228.41999 92.04933 
L 228.706793 92.125623 
L 228.993596 92.504382 
L 229.376 93.453354 
L 229.949606 95.595367 
L 233.104438 108.591443 
L 233.582443 109.917441 
L 233.869246 110.236422 
L 234.060448 110.215194 
L 234.347251 109.840928 
L 234.729655 108.812611 
L 236.450472 103.325881 
L 236.737275 103.141353 
L 236.928477 103.216354 
L 237.21528 103.649345 
L 237.597684 104.858033 
L 238.075689 107.414296 
L 238.649295 111.968767 
L 239.414103 120.070752 
L 240.274512 129.103387 
L 240.561315 130.665624 
L 240.752516 130.944614 
L 240.943718 130.570895 
L 241.230521 128.943706 
L 241.804127 123.665888 
L 242.568935 117.162029 
L 243.04694 114.740088 
L 243.429344 113.856367 
L 243.620546 113.760542 
L 243.811748 113.887624 
L 244.098551 114.478869 
L 244.480955 115.964855 
L 244.95896 118.813434 
L 245.723768 125.09366 
L 247.062181 136.424397 
L 247.540186 138.532578 
L 247.92259 139.220838 
L 248.209393 139.327003 
L 248.687398 139.170626 
L 249.165403 139.067362 
L 249.547807 139.20737 
L 250.025812 139.671374 
L 251.173024 141.009644 
L 251.459826 141.070637 
L 251.746629 140.898562 
L 252.033432 140.436189 
L 252.415836 139.289524 
L 252.893841 136.944877 
L 253.563048 132.240389 
L 255.092664 120.871741 
L 255.66627 118.334142 
L 256.048674 117.506475 
L 256.335477 117.394223 
L 256.526679 117.574461 
L 256.813481 118.2364 
L 257.195885 119.837183 
L 257.769491 123.478446 
L 258.438698 127.586766 
L 258.725501 128.158785 
L 258.916703 127.897537 
L 259.203506 126.576432 
L 259.681511 122.775339 
L 260.733122 114.291957 
L 261.306728 111.379527 
L 261.784733 109.969275 
L 262.167136 109.480606 
L 262.453939 109.479083 
L 262.740742 109.779512 
L 263.123146 110.60164 
L 264.365959 113.943994 
L 264.557161 113.983675 
L 264.748363 113.786059 
L 265.035166 113.068693 
L 265.608772 110.671686 
L 266.37358 107.570111 
L 266.851585 106.459016 
L 267.233988 106.063973 
L 267.616392 105.999433 
L 268.094397 106.184255 
L 269.33721 107.010213 
L 270.771225 107.994993 
L 271.24923 107.975475 
L 271.727235 107.706121 
L 272.396442 107.02767 
L 272.970047 106.120134 
L 273.448052 104.936736 
L 274.021658 102.86662 
L 275.551274 96.777773 
L 276.029279 95.869601 
L 276.316082 95.689127 
L 276.602885 95.7917 
L 276.889688 96.171882 
L 277.272092 97.076418 
L 277.941298 99.430919 
L 278.610505 101.635088 
L 278.897308 102.0334 
L 279.08851 102.003488 
L 279.279712 101.713071 
L 279.566515 100.805792 
L 280.04452 98.340614 
L 281.382934 90.780008 
L 281.860939 89.180444 
L 282.243343 88.481597 
L 282.530146 88.296017 
L 282.816949 88.385155 
L 283.199352 88.87797 
L 283.772958 90.137845 
L 284.442165 91.488448 
L 284.728968 91.713231 
L 285.015771 91.639002 
L 285.302574 91.287416 
L 285.87618 90.09413 
L 286.640988 88.627808 
L 287.118993 88.152693 
L 288.83981 87.002463 
L 289.79582 86.09514 
L 290.273825 85.926391 
L 292.281446 85.599586 
L 292.950653 85.423979 
L 293.61986 85.511974 
L 294.480268 85.666417 
L 294.958273 85.541064 
L 296.487889 84.877029 
L 296.965894 85.040249 
L 298.304308 85.729976 
L 298.686712 85.599827 
L 299.260317 85.083233 
L 300.216327 84.189104 
L 300.694332 84.07742 
L 301.172337 84.226837 
L 302.988756 85.128292 
L 303.466761 85.030904 
L 304.040367 84.670101 
L 304.805174 83.857187 
L 305.665583 82.971097 
L 306.143588 82.792455 
L 306.525992 82.888126 
L 307.003997 83.272653 
L 308.151209 84.383204 
L 308.533613 84.45828 
L 308.916017 84.31414 
L 309.394022 83.875149 
L 310.158829 82.801255 
L 311.784046 80.384419 
L 312.262051 80.095235 
L 312.644455 80.124868 
L 313.026859 80.38863 
L 313.600465 81.114059 
L 314.460874 82.234116 
L 314.843278 82.414166 
L 315.13008 82.338825 
L 315.512484 81.948553 
L 315.990489 81.084445 
L 317.424504 78.247069 
L 317.902509 77.868989 
L 318.284913 77.849001 
L 318.667317 78.044607 
L 319.336524 78.711226 
L 320.388135 79.760695 
L 320.866139 79.969613 
L 321.344144 79.930058 
L 321.822149 79.637264 
L 322.491356 78.905704 
L 323.925371 77.23203 
L 324.881381 76.498253 
L 325.550588 76.218863 
L 325.932991 76.256124 
L 326.315395 76.522809 
L 326.697799 77.067683 
L 327.175804 78.137706 
L 328.514218 81.549623 
L 328.801021 81.783281 
L 329.087824 81.70037 
L 329.374627 81.311942 
L 329.852632 80.141103 
L 331.477848 75.575827 
L 331.955853 74.99185 
L 332.242656 74.893719 
L 332.529459 74.988703 
L 332.911863 75.402871 
L 333.389868 76.318103 
L 335.301888 80.567637 
L 335.684292 80.714203 
L 335.971095 80.599514 
L 336.353499 80.193537 
L 337.022705 79.037922 
L 338.647922 76.056571 
L 338.647922 76.056571 
" clip-path="url(#p951145d291)" style="fill: none; stroke: #1f77b4; stroke-width: 1.5; stroke-linecap: square"/>
   </g>
   <g id="line2d_90">
    <path d="M 51.749375 23.84 
L 52.036178 23.965983 
L 52.418582 24.494321 
L 53.087789 26.020575 
L 53.756996 27.380027 
L 54.1394 27.734047 
L 54.426202 27.760925 
L 54.808606 27.52619 
L 55.382212 26.805634 
L 56.433823 25.396752 
L 56.911828 25.097905 
L 57.294232 25.094234 
L 57.772237 25.352417 
L 59.301853 26.485482 
L 59.875458 26.527023 
L 61.787478 26.4319 
L 63.221493 26.559042 
L 64.273104 26.329259 
L 65.133512 26.224183 
L 65.993921 26.370603 
L 67.523537 26.686754 
L 71.825581 26.810432 
L 73.642 26.699459 
L 75.267217 26.942964 
L 76.796832 27.057788 
L 81.290078 27.260121 
L 88.746955 28.018044 
L 89.702965 28.10297 
L 91.806186 28.470891 
L 94.865418 28.681803 
L 98.307053 29.191751 
L 99.741068 29.010123 
L 100.601477 29.048295 
L 101.557487 29.335811 
L 103.469506 30.002317 
L 104.138713 29.927756 
L 106.528738 29.338473 
L 107.197945 29.554385 
L 108.058353 30.120849 
L 109.014363 30.712016 
L 109.587969 30.827583 
L 110.161575 30.715108 
L 110.926383 30.293143 
L 111.882393 29.75598 
L 112.360398 29.701732 
L 112.838403 29.867959 
L 113.412008 30.331281 
L 115.037225 31.862038 
L 115.51523 31.952866 
L 115.993235 31.785298 
L 116.662442 31.225497 
L 117.522851 30.497581 
L 118.000856 30.379916 
L 118.383259 30.512031 
L 118.861264 30.956322 
L 119.817274 32.328481 
L 120.39088 32.945882 
L 120.773284 33.102142 
L 121.155688 33.044229 
L 121.729294 32.678187 
L 122.876506 31.877862 
L 123.354511 31.790025 
L 123.832515 31.916937 
L 124.406121 32.337842 
L 125.840136 33.598327 
L 126.318141 33.680775 
L 126.987348 33.524277 
L 127.943358 33.313619 
L 128.612565 33.430326 
L 129.472973 33.872241 
L 130.333382 34.288736 
L 130.906988 34.301314 
L 131.576195 34.044471 
L 132.341003 33.799117 
L 132.819008 33.874175 
L 133.392614 34.216834 
L 134.922229 35.321991 
L 135.495835 35.441544 
L 136.165042 35.335908 
L 137.694658 34.921008 
L 138.268264 35.041057 
L 140.562687 35.834635 
L 141.8055 36.028193 
L 142.76151 36.44433 
L 143.813121 36.862552 
L 144.482328 36.893235 
L 146.298746 36.812222 
L 147.063554 37.132249 
L 149.071175 38.167859 
L 150.696391 38.638476 
L 152.226007 39.303678 
L 153.373219 39.400172 
L 154.711633 39.59645 
L 155.38084 39.890529 
L 156.050046 40.449064 
L 157.292859 41.614636 
L 157.770864 41.774106 
L 158.440071 41.717085 
L 159.491682 41.586397 
L 160.447692 41.739848 
L 161.499302 42.125545 
L 162.26411 42.650722 
L 163.889327 43.874585 
L 164.558534 44.033798 
L 165.323342 43.98812 
L 167.13976 43.713438 
L 167.617765 43.934068 
L 168.286972 44.532798 
L 169.529785 45.697636 
L 170.198992 45.997625 
L 170.868199 46.032928 
L 171.633006 45.797266 
L 172.493415 45.567811 
L 172.97142 45.667765 
L 173.545026 46.026169 
L 176.413056 48.181429 
L 177.082262 48.364222 
L 178.133873 48.305713 
L 178.898681 48.387047 
L 179.75909 48.71126 
L 180.619499 49.260297 
L 181.766711 50.320042 
L 182.72272 51.05811 
L 183.583129 51.417588 
L 185.017144 51.980597 
L 186.737962 52.821561 
L 188.171976 53.263958 
L 188.841183 53.795604 
L 191.231208 55.990274 
L 191.900415 56.226604 
L 192.665223 56.202893 
L 193.43003 56.208101 
L 194.003636 56.436844 
L 195.150848 57.247718 
L 197.158469 58.518084 
L 198.018878 58.819011 
L 198.974887 59.145154 
L 200.026498 59.850308 
L 200.695705 60.177488 
L 201.460513 60.280557 
L 203.181331 60.41404 
L 203.946138 60.715462 
L 204.710946 61.297869 
L 206.240562 62.557356 
L 207.196572 62.984753 
L 208.439385 63.294711 
L 209.969 63.618072 
L 210.638207 64.085119 
L 211.594217 65.116589 
L 212.83703 66.379551 
L 213.888641 67.12347 
L 214.84465 67.514354 
L 215.609458 67.89868 
L 216.183064 68.478261 
L 216.947872 69.650026 
L 218.095084 71.381197 
L 218.66869 71.83493 
L 219.146695 71.937246 
L 220.580709 71.931165 
L 220.963113 72.264667 
L 221.441118 72.985863 
L 222.205926 74.652803 
L 223.831143 78.415404 
L 224.213547 78.799559 
L 224.50035 78.842756 
L 224.882753 78.618734 
L 226.125566 77.582923 
L 226.50797 77.60769 
L 226.985975 77.880392 
L 227.559581 78.508448 
L 228.037586 79.355805 
L 228.611192 80.893439 
L 230.045206 85.20125 
L 230.42761 85.652836 
L 230.810014 85.78023 
L 231.288019 85.655138 
L 231.766024 85.30931 
L 232.33963 84.616301 
L 233.200039 83.56175 
L 233.486842 83.464136 
L 233.773645 83.581632 
L 234.156049 84.092732 
L 234.634054 85.221522 
L 235.685664 88.552963 
L 236.737275 91.600085 
L 237.21528 92.449861 
L 237.597684 92.694916 
L 237.884487 92.62472 
L 238.362492 92.190887 
L 239.1273 91.454419 
L 239.605305 91.291504 
L 240.08331 91.366874 
L 240.656915 91.718779 
L 241.13492 92.292 
L 241.612925 93.24488 
L 242.186531 94.970308 
L 244.385354 102.535963 
L 244.863359 103.30191 
L 245.341364 103.668212 
L 245.723768 103.707088 
L 246.297373 103.505561 
L 246.870979 103.357309 
L 247.157782 103.45898 
L 247.444585 103.759964 
L 247.826989 104.560895 
L 248.209393 105.898009 
L 248.687398 108.360511 
L 249.547807 114.355255 
L 250.312615 119.168426 
L 250.79062 121.018001 
L 251.364225 122.390312 
L 252.989442 125.923645 
L 253.75425 127.956171 
L 254.423457 130.370109 
L 255.953073 136.24954 
L 257.195885 140.390466 
L 257.960693 143.990665 
L 259.872713 153.663706 
L 260.063915 153.837521 
L 260.255117 153.651198 
L 260.54192 152.690988 
L 261.019925 149.717612 
L 262.836343 137.034254 
L 263.983555 130.398533 
L 264.46156 128.783144 
L 264.748363 128.331602 
L 264.939565 128.256593 
L 265.130767 128.359904 
L 265.41757 128.837759 
L 265.799974 130.051297 
L 266.277979 132.488818 
L 266.851585 136.816924 
L 267.616392 142.96335 
L 267.807594 143.426519 
L 267.903195 143.331459 
L 268.094397 142.444062 
L 268.3812 139.630701 
L 269.719614 124.069068 
L 270.197619 121.350086 
L 270.580023 120.183813 
L 270.866826 119.782582 
L 271.153629 119.732863 
L 271.440432 120.017114 
L 271.727235 120.642402 
L 272.109639 122.032984 
L 272.683244 125.215889 
L 273.448052 129.636401 
L 273.734855 130.395065 
L 273.926057 130.476966 
L 274.117259 130.248725 
L 274.499663 129.153288 
L 275.646875 124.619811 
L 276.220481 121.493287 
L 277.654496 112.872439 
L 278.1325 111.46205 
L 278.514904 110.914673 
L 278.897308 110.716959 
L 279.375313 110.758465 
L 279.853318 111.025118 
L 281.096131 112.009591 
L 281.287333 111.86885 
L 281.574136 111.311413 
L 281.95654 109.903124 
L 282.721348 105.777262 
L 283.486155 102.046466 
L 284.059761 100.269252 
L 284.537766 99.498233 
L 284.92017 99.285778 
L 285.302574 99.340018 
L 286.258584 99.676121 
L 286.545387 99.540145 
L 286.927791 99.051978 
L 287.405796 97.982112 
L 289.222214 93.265874 
L 289.700219 92.760487 
L 290.082623 92.637688 
L 290.560628 92.72395 
L 291.612239 92.996263 
L 292.090244 92.884642 
L 292.66385 92.49649 
L 293.333057 91.715332 
L 294.958273 89.569927 
L 295.723081 89.030853 
L 297.348298 88.216745 
L 298.017505 88.116211 
L 298.591111 88.22026 
L 299.164716 88.551378 
L 300.50313 89.566442 
L 300.789933 89.46834 
L 301.172337 89.020809 
L 301.745943 87.859365 
L 302.606352 86.113537 
L 303.179958 85.41899 
L 303.753564 85.097102 
L 304.231569 85.081642 
L 304.709573 85.310905 
L 305.37878 85.953123 
L 306.047987 86.489973 
L 306.430391 86.521611 
L 306.812795 86.333911 
L 307.768805 85.478708 
L 309.20282 84.064934 
L 310.25443 82.974458 
L 311.401642 81.913784 
L 312.453253 80.764024 
L 312.835657 80.674543 
L 313.218061 80.840395 
L 314.365273 81.636139 
L 314.747677 81.534645 
L 315.321282 81.058343 
L 317.520105 78.816091 
L 318.571716 77.381441 
L 319.145322 76.960406 
L 319.718928 76.793439 
L 320.292534 76.843968 
L 320.770538 77.084504 
L 321.439745 77.71974 
L 322.300154 78.550239 
L 322.682558 78.679092 
L 323.064962 78.583056 
L 323.447366 78.26295 
L 324.020972 77.437086 
L 325.454987 75.109649 
L 325.83739 74.912529 
L 326.124193 74.961724 
L 326.506597 75.279384 
L 327.080203 76.162393 
L 328.514218 78.60471 
L 328.992223 78.982166 
L 329.374627 79.012421 
L 329.757031 78.798079 
L 330.330637 78.15151 
L 331.286646 77.038174 
L 331.860252 76.724608 
L 332.338257 76.72462 
L 332.816262 76.985747 
L 333.294267 77.549146 
L 333.867873 78.630451 
L 335.110686 81.217002 
L 335.49309 81.514898 
L 335.779893 81.491504 
L 336.162297 81.171466 
L 336.831503 80.162023 
L 337.596311 79.096077 
L 338.074316 78.800647 
L 338.45672 78.846613 
L 338.647922 78.968342 
L 338.647922 78.968342 
" clip-path="url(#p951145d291)" style="fill: none; stroke: #ff7f0e; stroke-width: 1.5; stroke-linecap: square"/>
   </g>
   <g id="line2d_91">
    <path d="M 51.749375 23.84 
L 52.036178 23.993801 
L 52.418582 24.634592 
L 53.18339 26.695657 
L 53.756996 27.901507 
L 54.1394 28.189562 
L 54.426202 28.116491 
L 54.808606 27.702639 
L 55.477813 26.494613 
L 56.14702 25.375131 
L 56.529424 25.047742 
L 56.911828 25.025354 
L 57.294232 25.279655 
L 58.919449 26.811231 
L 59.397454 26.81904 
L 61.309473 26.537696 
L 62.552286 26.619476 
L 64.84671 26.376931 
L 67.045532 26.868229 
L 69.244355 26.836854 
L 70.487167 26.853309 
L 72.494788 26.757528 
L 75.171616 27.098134 
L 77.179236 27.112256 
L 81.385679 27.438187 
L 82.819694 27.537547 
L 85.018517 27.694383 
L 88.26895 27.992504 
L 91.232581 28.300391 
L 95.534625 28.813608 
L 102.800299 29.769647 
L 104.712319 30.06854 
L 107.102344 30.151188 
L 108.631959 30.573737 
L 109.587969 30.758314 
L 110.63958 30.708808 
L 112.5516 30.576399 
L 113.316407 30.809163 
L 115.324028 31.602716 
L 115.897634 31.545097 
L 116.662442 31.208154 
L 117.618452 30.807064 
L 118.192058 30.8276 
L 118.765663 31.109369 
L 119.530471 31.803935 
L 120.39088 32.570121 
L 120.868885 32.717883 
L 121.251289 32.625354 
L 121.729294 32.279627 
L 123.067708 31.136973 
L 123.450112 31.102333 
L 123.832515 31.276359 
L 124.31052 31.764156 
L 126.031338 33.94632 
L 126.413742 33.9648 
L 126.796146 33.704928 
L 127.369752 32.947809 
L 128.13456 31.981786 
L 128.516964 31.813279 
L 128.899367 31.937241 
L 129.281771 32.333628 
L 129.950978 33.432576 
L 130.715786 34.611123 
L 131.09819 34.909953 
L 131.480594 34.941532 
L 131.862998 34.724941 
L 132.627806 33.898841 
L 133.201412 33.398128 
L 133.583816 33.294231 
L 133.96622 33.41129 
L 134.444224 33.826024 
L 135.878239 35.326103 
L 136.356244 35.415667 
L 136.92985 35.226418 
L 137.88586 34.849084 
L 138.363865 34.914666 
L 138.937471 35.250131 
L 139.89348 35.841803 
L 140.371485 35.879802 
L 141.040692 35.674093 
L 141.901101 35.435749 
L 142.474707 35.514783 
L 143.048313 35.845018 
L 144.769131 37.124629 
L 145.247135 36.994986 
L 146.872352 36.202781 
L 147.445958 36.355522 
L 148.210766 36.845966 
L 149.166776 37.429986 
L 149.835983 37.56067 
L 151.461199 37.686804 
L 153.277618 38.10903 
L 155.189638 38.106693 
L 155.858844 38.569232 
L 157.101657 39.495642 
L 157.675263 39.635308 
L 158.440071 39.571977 
L 159.30048 39.516919 
L 159.874086 39.689536 
L 162.26411 40.750431 
L 163.315721 41.118639 
L 164.558534 41.843015 
L 165.610145 42.409286 
L 166.279351 42.502083 
L 167.522164 42.557802 
L 168.09577 42.877627 
L 169.720987 43.978395 
L 172.780218 45.08886 
L 174.501036 45.875952 
L 175.935051 46.221554 
L 177.751469 47.079449 
L 178.80308 47.501719 
L 180.428297 48.495314 
L 181.288706 48.95882 
L 181.862312 49.015639 
L 183.391927 48.91596 
L 183.965533 49.215162 
L 184.825942 49.951515 
L 186.451159 51.468908 
L 186.929164 51.577181 
L 187.59837 51.460424 
L 188.745582 51.248806 
L 189.51039 51.311762 
L 190.083996 51.562693 
L 190.657602 52.080247 
L 192.569622 54.173723 
L 193.047626 54.299886 
L 193.525631 54.219164 
L 194.194838 53.848351 
L 194.959646 53.476904 
L 195.34205 53.508226 
L 195.724454 53.738585 
L 196.29806 54.39437 
L 197.923277 56.469275 
L 198.401281 56.726902 
L 198.879286 56.745329 
L 200.313301 56.57072 
L 200.982508 56.924038 
L 202.225321 57.917362 
L 203.850537 59.309331 
L 205.188951 60.084698 
L 206.718567 61.310996 
L 207.770178 61.711137 
L 209.01299 62.212148 
L 209.682197 62.779284 
L 210.733808 64.077273 
L 211.689818 65.105971 
L 212.263424 65.457496 
L 212.83703 65.549201 
L 214.366645 65.545651 
L 214.940251 65.915623 
L 215.80066 66.809696 
L 216.75667 67.724887 
L 217.330276 67.973122 
L 219.337897 68.461365 
L 221.441118 69.603474 
L 223.639941 70.180251 
L 224.595951 70.928608 
L 226.125566 72.227537 
L 226.794773 72.410227 
L 227.750783 72.623908 
L 229.376 73.398792 
L 229.949606 73.844244 
L 230.714413 74.76437 
L 231.670423 75.863189 
L 233.104438 77.031937 
L 236.068068 79.374991 
L 237.21528 80.704223 
L 239.1273 83.240926 
L 240.656915 85.960539 
L 241.326122 86.461638 
L 242.377733 87.242061 
L 243.333743 87.835058 
L 243.811748 88.279028 
L 244.194152 88.964567 
L 244.672157 90.347524 
L 246.297373 95.76621 
L 246.775378 96.423288 
L 247.253383 96.723219 
L 247.731388 96.766271 
L 249.069802 96.621514 
L 249.356605 96.946207 
L 249.739009 97.746531 
L 250.312615 99.642407 
L 252.511437 107.798334 
L 252.989442 108.977969 
L 253.276245 109.325256 
L 253.563048 109.361985 
L 253.849851 109.146481 
L 254.805861 108.212126 
L 255.092664 108.271978 
L 255.379467 108.573001 
L 255.761871 109.352067 
L 256.239876 110.918823 
L 256.813481 113.68825 
L 257.578289 118.757179 
L 258.343097 123.59617 
L 258.725501 124.757099 
L 258.916703 124.910667 
L 259.107905 124.819949 
L 259.394708 124.368473 
L 260.159516 122.968931 
L 260.446319 122.838847 
L 260.733122 123.038501 
L 261.019925 123.574495 
L 261.402329 124.778283 
L 261.975934 127.495123 
L 262.645141 131.869362 
L 264.46156 144.91392 
L 265.799974 151.112858 
L 266.277979 153.314294 
L 266.564782 153.839587 
L 266.755984 153.744749 
L 267.042787 153.03234 
L 268.572402 147.934473 
L 269.33721 145.940102 
L 270.102018 143.795572 
L 270.388821 143.530919 
L 270.580023 143.672991 
L 270.771225 144.124193 
L 271.058028 145.452055 
L 271.440432 148.484837 
L 272.492043 158.238972 
L 272.587643 158.285351 
L 272.778845 157.618001 
L 273.065648 155.015848 
L 273.734855 145.542556 
L 274.786466 131.13862 
L 275.360072 125.871379 
L 275.838077 123.138218 
L 276.316082 121.612466 
L 276.698486 121.04285 
L 276.985289 120.954457 
L 277.272092 121.184767 
L 277.558895 121.776853 
L 277.941298 123.137039 
L 278.801707 126.612125 
L 278.992909 126.757594 
L 279.184111 126.483427 
L 279.470914 125.326271 
L 279.948919 122.103629 
L 282.052141 106.457726 
L 282.434545 105.160434 
L 282.721348 104.808265 
L 282.91255 104.858314 
L 283.199352 105.303563 
L 283.677357 106.707451 
L 284.442165 108.964547 
L 284.728968 109.34723 
L 284.92017 109.39122 
L 285.111372 109.249441 
L 285.398175 108.671287 
L 285.780579 107.241779 
L 286.545387 103.056051 
L 287.214594 99.864642 
L 287.692599 98.552782 
L 288.075003 98.047005 
L 288.553007 97.825229 
L 289.987022 97.459874 
L 291.134234 96.864798 
L 291.899042 96.546747 
L 292.472648 96.572676 
L 293.141855 96.638846 
L 293.524259 96.408271 
L 293.906662 95.839263 
L 294.480268 94.455669 
L 295.340677 92.393582 
L 295.723081 91.911051 
L 296.009884 91.788481 
L 296.296687 91.866639 
L 296.679091 92.245963 
L 297.252697 93.237252 
L 298.304308 95.132726 
L 298.686712 95.387804 
L 298.973515 95.34719 
L 299.355918 95.028191 
L 300.216327 93.831106 
L 301.363539 92.415612 
L 302.032746 91.859528 
L 302.510751 91.746848 
L 302.988756 91.908362 
L 305.761184 93.50328 
L 306.143588 93.349779 
L 306.525992 92.884792 
L 307.195199 91.584138 
L 307.960007 90.273513 
L 308.533613 89.757928 
L 309.20282 89.49006 
L 310.445632 89.282214 
L 311.592844 89.062077 
L 312.453253 88.60697 
L 315.13008 86.749441 
L 317.0421 84.906632 
L 317.520105 84.785937 
L 317.99811 84.887631 
L 318.571716 85.283023 
L 319.623327 86.415789 
L 320.196933 86.850674 
L 320.579336 86.845288 
L 320.866139 86.622814 
L 321.248543 86.036109 
L 322.778159 83.201949 
L 323.160563 83.047736 
L 323.542967 83.167538 
L 323.925371 83.529628 
L 324.403376 84.303112 
L 325.168184 86.110955 
L 325.74179 87.253573 
L 326.028592 87.459758 
L 326.315395 87.356602 
L 326.697799 86.829586 
L 328.609819 83.522522 
L 329.183425 82.874803 
L 329.470228 82.775619 
L 329.757031 82.885112 
L 330.139435 83.341623 
L 331.573449 85.507719 
L 332.147055 85.814188 
L 332.62506 85.845285 
L 332.911863 85.677505 
L 333.294267 85.148058 
L 333.963474 83.618329 
L 334.632681 82.300692 
L 335.110686 81.858515 
L 335.588691 81.744171 
L 336.162297 81.867004 
L 336.640301 82.186974 
L 337.978715 83.344546 
L 338.361119 83.239154 
L 338.647922 83.028142 
L 338.647922 83.028142 
" clip-path="url(#p951145d291)" style="fill: none; stroke: #2ca02c; stroke-width: 1.5; stroke-linecap: square"/>
   </g>
   <g id="patch_3">
    <path d="M 51.749375 168.596 
L 51.749375 23.84 
" style="fill: none; stroke: #000000; stroke-width: 0.8; stroke-linejoin: miter; stroke-linecap: square"/>
   </g>
   <g id="patch_4">
    <path d="M 338.552321 168.596 
L 338.552321 23.84 
" style="fill: none; stroke: #000000; stroke-width: 0.8; stroke-linejoin: miter; stroke-linecap: square"/>
   </g>
   <g id="patch_5">
    <path d="M 51.749375 168.596 
L 338.552321 168.596 
" style="fill: none; stroke: #000000; stroke-width: 0.8; stroke-linejoin: miter; stroke-linecap: square"/>
   </g>
   <g id="patch_6">
    <path d="M 51.749375 23.84 
L 338.552321 23.84 
" style="fill: none; stroke: #000000; stroke-width: 0.8; stroke-linejoin: miter; stroke-linecap: square"/>
   </g>
   <g id="text_15">
    <!-- $J_{long}=2,\, J_z=1,\, \alpha=0$ (2) -->
    <g transform="translate(112.130848 17.84) scale(0.14 -0.14)">
     <defs>
      <path id="DejaVuSans-Oblique-4a" d="M 1069 4666 
L 1703 4666 
L 856 325 
Q 691 -522 298 -901 
Q -94 -1281 -800 -1281 
L -1050 -1281 
L -947 -750 
L -750 -750 
Q -328 -750 -109 -509 
Q 109 -269 225 325 
L 1069 4666 
z
" transform="scale(0.015625)"/>
      <path id="DejaVuSans-Oblique-6c" d="M 1172 4863 
L 1747 4863 
L 800 0 
L 225 0 
L 1172 4863 
z
" transform="scale(0.015625)"/>
      <path id="DejaVuSans-Oblique-6f" d="M 1625 -91 
Q 1009 -91 651 289 
Q 294 669 294 1325 
Q 294 1706 417 2101 
Q 541 2497 738 2766 
Q 1047 3184 1428 3384 
Q 1809 3584 2291 3584 
Q 2888 3584 3255 3212 
Q 3622 2841 3622 2241 
Q 3622 1825 3500 1412 
Q 3378 1000 3181 728 
Q 2875 309 2494 109 
Q 2113 -91 1625 -91 
z
M 891 1344 
Q 891 869 1089 633 
Q 1288 397 1691 397 
Q 2269 397 2648 901 
Q 3028 1406 3028 2181 
Q 3028 2634 2825 2865 
Q 2622 3097 2228 3097 
Q 1903 3097 1650 2945 
Q 1397 2794 1197 2484 
Q 1050 2253 970 1956 
Q 891 1659 891 1344 
z
" transform="scale(0.015625)"/>
      <path id="DejaVuSans-Oblique-6e" d="M 3566 2113 
L 3156 0 
L 2578 0 
L 2988 2091 
Q 3016 2238 3031 2350 
Q 3047 2463 3047 2528 
Q 3047 2791 2881 2937 
Q 2716 3084 2419 3084 
Q 1956 3084 1622 2776 
Q 1288 2469 1184 1941 
L 800 0 
L 225 0 
L 903 3500 
L 1478 3500 
L 1363 2950 
Q 1603 3253 1940 3418 
Q 2278 3584 2650 3584 
Q 3113 3584 3367 3334 
Q 3622 3084 3622 2631 
Q 3622 2519 3608 2391 
Q 3594 2263 3566 2113 
z
" transform="scale(0.015625)"/>
      <path id="DejaVuSans-Oblique-67" d="M 3816 3500 
L 3219 434 
Q 3047 -456 2561 -893 
Q 2075 -1331 1253 -1331 
Q 950 -1331 690 -1286 
Q 431 -1241 206 -1147 
L 313 -588 
Q 525 -725 762 -790 
Q 1000 -856 1269 -856 
Q 1816 -856 2167 -557 
Q 2519 -259 2631 300 
L 2681 563 
Q 2441 288 2122 144 
Q 1803 0 1434 0 
Q 903 0 598 351 
Q 294 703 294 1319 
Q 294 1803 478 2267 
Q 663 2731 997 3091 
Q 1219 3328 1514 3456 
Q 1809 3584 2131 3584 
Q 2484 3584 2746 3420 
Q 3009 3256 3138 2956 
L 3238 3500 
L 3816 3500 
z
M 2950 2216 
Q 2950 2641 2750 2872 
Q 2550 3103 2181 3103 
Q 1953 3103 1747 3012 
Q 1541 2922 1394 2759 
Q 1156 2491 1023 2127 
Q 891 1763 891 1375 
Q 891 944 1092 712 
Q 1294 481 1672 481 
Q 2219 481 2584 976 
Q 2950 1472 2950 2216 
z
" transform="scale(0.015625)"/>
      <path id="DejaVuSans-3d" d="M 678 2906 
L 4684 2906 
L 4684 2381 
L 678 2381 
L 678 2906 
z
M 678 1631 
L 4684 1631 
L 4684 1100 
L 678 1100 
L 678 1631 
z
" transform="scale(0.015625)"/>
      <path id="DejaVuSans-2c" d="M 750 794 
L 1409 794 
L 1409 256 
L 897 -744 
L 494 -744 
L 750 256 
L 750 794 
z
" transform="scale(0.015625)"/>
      <path id="DejaVuSans-Oblique-7a" d="M 744 3500 
L 3475 3500 
L 3372 2975 
L 738 459 
L 2913 459 
L 2822 0 
L -19 0 
L 84 525 
L 2719 3041 
L 653 3041 
L 744 3500 
z
" transform="scale(0.015625)"/>
      <path id="DejaVuSans-Oblique-3b1" d="M 2619 1628 
L 2622 2350 
Q 2625 3088 2069 3091 
Q 1653 3094 1394 2747 
Q 1069 2319 959 1747 
Q 825 1059 994 731 
Q 1169 397 1547 397 
Q 1966 397 2319 1063 
L 2619 1628 
z
M 2166 3578 
Q 3141 3594 3128 2584 
Q 3128 2584 3616 3500 
L 4128 3500 
L 3119 1603 
L 3109 919 
Q 3109 766 3194 638 
Q 3291 488 3391 488 
L 3669 488 
L 3575 0 
L 3228 0 
Q 2934 0 2722 263 
Q 2622 394 2619 669 
Q 2416 334 2066 50 
Q 1900 -81 1453 -78 
Q 722 -72 456 397 
Q 184 884 353 1747 
Q 534 2675 1009 3097 
Q 1544 3569 2166 3578 
z
" transform="scale(0.015625)"/>
      <path id="DejaVuSans-20" transform="scale(0.015625)"/>
      <path id="DejaVuSans-28" d="M 1984 4856 
Q 1566 4138 1362 3434 
Q 1159 2731 1159 2009 
Q 1159 1288 1364 580 
Q 1569 -128 1984 -844 
L 1484 -844 
Q 1016 -109 783 600 
Q 550 1309 550 2009 
Q 550 2706 781 3412 
Q 1013 4119 1484 4856 
L 1984 4856 
z
" transform="scale(0.015625)"/>
      <path id="DejaVuSans-29" d="M 513 4856 
L 1013 4856 
Q 1481 4119 1714 3412 
Q 1947 2706 1947 2009 
Q 1947 1309 1714 600 
Q 1481 -109 1013 -844 
L 513 -844 
Q 928 -128 1133 580 
Q 1338 1288 1338 2009 
Q 1338 2731 1133 3434 
Q 928 4138 513 4856 
z
" transform="scale(0.015625)"/>
     </defs>
     <use xlink:href="#DejaVuSans-Oblique-4a" transform="translate(0 0.125)"/>
     <use xlink:href="#DejaVuSans-Oblique-6c" transform="translate(29.492188 -16.28125) scale(0.7)"/>
     <use xlink:href="#DejaVuSans-Oblique-6f" transform="translate(48.94043 -16.28125) scale(0.7)"/>
     <use xlink:href="#DejaVuSans-Oblique-6e" transform="translate(91.767578 -16.28125) scale(0.7)"/>
     <use xlink:href="#DejaVuSans-Oblique-67" transform="translate(136.132812 -16.28125) scale(0.7)"/>
     <use xlink:href="#DejaVuSans-3d" transform="translate(202.783203 0.125)"/>
     <use xlink:href="#DejaVuSans-32" transform="translate(306.054688 0.125)"/>
     <use xlink:href="#DejaVuSans-2c" transform="translate(369.677734 0.125)"/>
     <use xlink:href="#DejaVuSans-Oblique-4a" transform="translate(437.182942 0.125)"/>
     <use xlink:href="#DejaVuSans-Oblique-7a" transform="translate(466.675129 -16.28125) scale(0.7)"/>
     <use xlink:href="#DejaVuSans-3d" transform="translate(525.63509 0.125)"/>
     <use xlink:href="#DejaVuSans-31" transform="translate(628.906575 0.125)"/>
     <use xlink:href="#DejaVuSans-2c" transform="translate(692.529622 0.125)"/>
     <use xlink:href="#DejaVuSans-Oblique-3b1" transform="translate(760.034829 0.125)"/>
     <use xlink:href="#DejaVuSans-3d" transform="translate(845.43522 0.125)"/>
     <use xlink:href="#DejaVuSans-30" transform="translate(948.706704 0.125)"/>
     <use xlink:href="#DejaVuSans-20" transform="translate(1012.329751 0.125)"/>
     <use xlink:href="#DejaVuSans-28" transform="translate(1044.11686 0.125)"/>
     <use xlink:href="#DejaVuSans-32" transform="translate(1083.130532 0.125)"/>
     <use xlink:href="#DejaVuSans-29" transform="translate(1146.753579 0.125)"/>
    </g>
   </g>
   <g id="legend_1">
    <g id="patch_7">
     <path d="M 267.052321 163.596 
L 331.552321 163.596 
Q 333.552321 163.596 333.552321 161.596 
L 333.552321 118.561625 
Q 333.552321 116.561625 331.552321 116.561625 
L 267.052321 116.561625 
Q 265.052321 116.561625 265.052321 118.561625 
L 265.052321 161.596 
Q 265.052321 163.596 267.052321 163.596 
z
" style="fill: #ffffff; opacity: 0.8; stroke: #cccccc; stroke-linejoin: miter"/>
    </g>
    <g id="line2d_92">
     <path d="M 269.052321 124.660063 
L 279.052321 124.660063 
L 289.052321 124.660063 
" style="fill: none; stroke: #1f77b4; stroke-width: 1.5; stroke-linecap: square"/>
    </g>
    <g id="text_16">
     <!-- $N=10$ -->
     <g transform="translate(297.052321 128.160063) scale(0.1 -0.1)">
      <defs>
       <path id="DejaVuSans-Oblique-4e" d="M 1081 4666 
L 1931 4666 
L 3219 666 
L 4000 4666 
L 4616 4666 
L 3706 0 
L 2853 0 
L 1569 4025 
L 788 0 
L 172 0 
L 1081 4666 
z
" transform="scale(0.015625)"/>
      </defs>
      <use xlink:href="#DejaVuSans-Oblique-4e" transform="translate(0 0.78125)"/>
      <use xlink:href="#DejaVuSans-3d" transform="translate(94.287109 0.78125)"/>
      <use xlink:href="#DejaVuSans-31" transform="translate(197.558594 0.78125)"/>
      <use xlink:href="#DejaVuSans-30" transform="translate(261.181641 0.78125)"/>
     </g>
    </g>
    <g id="line2d_93">
     <path d="M 269.052321 139.338188 
L 279.052321 139.338188 
L 289.052321 139.338188 
" style="fill: none; stroke: #ff7f0e; stroke-width: 1.5; stroke-linecap: square"/>
    </g>
    <g id="text_17">
     <!-- $N=12$ -->
     <g transform="translate(297.052321 142.838188) scale(0.1 -0.1)">
      <use xlink:href="#DejaVuSans-Oblique-4e" transform="translate(0 0.78125)"/>
      <use xlink:href="#DejaVuSans-3d" transform="translate(94.287109 0.78125)"/>
      <use xlink:href="#DejaVuSans-31" transform="translate(197.558594 0.78125)"/>
      <use xlink:href="#DejaVuSans-32" transform="translate(261.181641 0.78125)"/>
     </g>
    </g>
    <g id="line2d_94">
     <path d="M 269.052321 154.016313 
L 279.052321 154.016313 
L 289.052321 154.016313 
" style="fill: none; stroke: #2ca02c; stroke-width: 1.5; stroke-linecap: square"/>
    </g>
    <g id="text_18">
     <!-- $N=14$ -->
     <g transform="translate(297.052321 157.516313) scale(0.1 -0.1)">
      <use xlink:href="#DejaVuSans-Oblique-4e" transform="translate(0 0.09375)"/>
      <use xlink:href="#DejaVuSans-3d" transform="translate(94.287109 0.09375)"/>
      <use xlink:href="#DejaVuSans-31" transform="translate(197.558594 0.09375)"/>
      <use xlink:href="#DejaVuSans-34" transform="translate(261.181641 0.09375)"/>
     </g>
    </g>
   </g>
  </g>
 </g>
 <defs>
  <clipPath id="p951145d291">
   <rect x="51.749375" y="23.84" width="286.802946" height="144.756"/>
  </clipPath>
 </defs>
</svg>
