<?xml version="1.0" encoding="utf-8" standalone="no"?>
<!DOCTYPE svg PUBLIC "-//W3C//DTD SVG 1.1//EN"
  "http://www.w3.org/Graphics/SVG/1.1/DTD/svg11.dtd">
<svg xmlns:xlink="http://www.w3.org/1999/xlink" width="352.289826pt" height="206.6675pt" viewBox="0 0 352.289826 206.6675" xmlns="http://www.w3.org/2000/svg" version="1.1">
 <metadata>
  <rdf:RDF xmlns:dc="http://purl.org/dc/elements/1.1/" xmlns:cc="http://creativecommons.org/ns#" xmlns:rdf="http://www.w3.org/1999/02/22-rdf-syntax-ns#">
   <cc:Work>
    <dc:type rdf:resource="http://purl.org/dc/dcmitype/StillImage"/>
    <dc:date>2025-09-24T08:21:10.629135</dc:date>
    <dc:format>image/svg+xml</dc:format>
    <dc:creator>
     <cc:Agent>
      <dc:title>Matplotlib v3.9.1, https://matplotlib.org/</dc:title>
     </cc:Agent>
    </dc:creator>
   </cc:Work>
  </rdf:RDF>
 </metadata>
 <defs>
  <style type="text/css">*{stroke-linejoin: round; stroke-linecap: butt}</style>
 </defs>
 <g id="figure_1">
  <g id="patch_1">
   <path d="M 0 206.6675 
L 352.289826 206.6675 
L 352.289826 0 
L 0 0 
z
" style="fill: #ffffff"/>
  </g>
  <g id="axes_1">
   <g id="patch_2">
    <path d="M 70.249375 168.74 
L 337.138263 168.74 
L 337.138263 23.84 
L 70.249375 23.84 
z
" style="fill: #ffffff"/>
   </g>
   <g id="matplotlib.axis_1">
    <g id="xtick_1">
     <g id="line2d_1">
      <defs>
       <path id="m1c6463c04a" d="M 0 0 
L 0 -3.5 
" style="stroke: #000000; stroke-width: 0.8"/>
      </defs>
      <g>
       <use xlink:href="#m1c6463c04a" x="70.249375" y="168.74" style="stroke: #000000; stroke-width: 0.8"/>
      </g>
     </g>
     <g id="line2d_2">
      <defs>
       <path id="mdc2324e194" d="M 0 0 
L 0 3.5 
" style="stroke: #000000; stroke-width: 0.8"/>
      </defs>
      <g>
       <use xlink:href="#mdc2324e194" x="70.249375" y="23.84" style="stroke: #000000; stroke-width: 0.8"/>
      </g>
     </g>
     <g id="text_1">
      <!-- 0.0 -->
      <g transform="translate(62.297813 179.838437) scale(0.1 -0.1)">
       <defs>
        <path id="DejaVuSans-30" d="M 2034 4250 
Q 1547 4250 1301 3770 
Q 1056 3291 1056 2328 
Q 1056 1369 1301 889 
Q 1547 409 2034 409 
Q 2525 409 2770 889 
Q 3016 1369 3016 2328 
Q 3016 3291 2770 3770 
Q 2525 4250 2034 4250 
z
M 2034 4750 
Q 2819 4750 3233 4129 
Q 3647 3509 3647 2328 
Q 3647 1150 3233 529 
Q 2819 -91 2034 -91 
Q 1250 -91 836 529 
Q 422 1150 422 2328 
Q 422 3509 836 4129 
Q 1250 4750 2034 4750 
z
" transform="scale(0.015625)"/>
        <path id="DejaVuSans-2e" d="M 684 794 
L 1344 794 
L 1344 0 
L 684 0 
L 684 794 
z
" transform="scale(0.015625)"/>
       </defs>
       <use xlink:href="#DejaVuSans-30"/>
       <use xlink:href="#DejaVuSans-2e" x="63.623047"/>
       <use xlink:href="#DejaVuSans-30" x="95.410156"/>
      </g>
     </g>
    </g>
    <g id="xtick_2">
     <g id="line2d_3">
      <g>
       <use xlink:href="#m1c6463c04a" x="123.627153" y="168.74" style="stroke: #000000; stroke-width: 0.8"/>
      </g>
     </g>
     <g id="line2d_4">
      <g>
       <use xlink:href="#mdc2324e194" x="123.627153" y="23.84" style="stroke: #000000; stroke-width: 0.8"/>
      </g>
     </g>
     <g id="text_2">
      <!-- 0.2 -->
      <g transform="translate(115.67559 179.838437) scale(0.1 -0.1)">
       <defs>
        <path id="DejaVuSans-32" d="M 1228 531 
L 3431 531 
L 3431 0 
L 469 0 
L 469 531 
Q 828 903 1448 1529 
Q 2069 2156 2228 2338 
Q 2531 2678 2651 2914 
Q 2772 3150 2772 3378 
Q 2772 3750 2511 3984 
Q 2250 4219 1831 4219 
Q 1534 4219 1204 4116 
Q 875 4013 500 3803 
L 500 4441 
Q 881 4594 1212 4672 
Q 1544 4750 1819 4750 
Q 2544 4750 2975 4387 
Q 3406 4025 3406 3419 
Q 3406 3131 3298 2873 
Q 3191 2616 2906 2266 
Q 2828 2175 2409 1742 
Q 1991 1309 1228 531 
z
" transform="scale(0.015625)"/>
       </defs>
       <use xlink:href="#DejaVuSans-30"/>
       <use xlink:href="#DejaVuSans-2e" x="63.623047"/>
       <use xlink:href="#DejaVuSans-32" x="95.410156"/>
      </g>
     </g>
    </g>
    <g id="xtick_3">
     <g id="line2d_5">
      <g>
       <use xlink:href="#m1c6463c04a" x="177.00493" y="168.74" style="stroke: #000000; stroke-width: 0.8"/>
      </g>
     </g>
     <g id="line2d_6">
      <g>
       <use xlink:href="#mdc2324e194" x="177.00493" y="23.84" style="stroke: #000000; stroke-width: 0.8"/>
      </g>
     </g>
     <g id="text_3">
      <!-- 0.4 -->
      <g transform="translate(169.053368 179.838437) scale(0.1 -0.1)">
       <defs>
        <path id="DejaVuSans-34" d="M 2419 4116 
L 825 1625 
L 2419 1625 
L 2419 4116 
z
M 2253 4666 
L 3047 4666 
L 3047 1625 
L 3713 1625 
L 3713 1100 
L 3047 1100 
L 3047 0 
L 2419 0 
L 2419 1100 
L 313 1100 
L 313 1709 
L 2253 4666 
z
" transform="scale(0.015625)"/>
       </defs>
       <use xlink:href="#DejaVuSans-30"/>
       <use xlink:href="#DejaVuSans-2e" x="63.623047"/>
       <use xlink:href="#DejaVuSans-34" x="95.410156"/>
      </g>
     </g>
    </g>
    <g id="xtick_4">
     <g id="line2d_7">
      <g>
       <use xlink:href="#m1c6463c04a" x="230.382708" y="168.74" style="stroke: #000000; stroke-width: 0.8"/>
      </g>
     </g>
     <g id="line2d_8">
      <g>
       <use xlink:href="#mdc2324e194" x="230.382708" y="23.84" style="stroke: #000000; stroke-width: 0.8"/>
      </g>
     </g>
     <g id="text_4">
      <!-- 0.6 -->
      <g transform="translate(222.431146 179.838437) scale(0.1 -0.1)">
       <defs>
        <path id="DejaVuSans-36" d="M 2113 2584 
Q 1688 2584 1439 2293 
Q 1191 2003 1191 1497 
Q 1191 994 1439 701 
Q 1688 409 2113 409 
Q 2538 409 2786 701 
Q 3034 994 3034 1497 
Q 3034 2003 2786 2293 
Q 2538 2584 2113 2584 
z
M 3366 4563 
L 3366 3988 
Q 3128 4100 2886 4159 
Q 2644 4219 2406 4219 
Q 1781 4219 1451 3797 
Q 1122 3375 1075 2522 
Q 1259 2794 1537 2939 
Q 1816 3084 2150 3084 
Q 2853 3084 3261 2657 
Q 3669 2231 3669 1497 
Q 3669 778 3244 343 
Q 2819 -91 2113 -91 
Q 1303 -91 875 529 
Q 447 1150 447 2328 
Q 447 3434 972 4092 
Q 1497 4750 2381 4750 
Q 2619 4750 2861 4703 
Q 3103 4656 3366 4563 
z
" transform="scale(0.015625)"/>
       </defs>
       <use xlink:href="#DejaVuSans-30"/>
       <use xlink:href="#DejaVuSans-2e" x="63.623047"/>
       <use xlink:href="#DejaVuSans-36" x="95.410156"/>
      </g>
     </g>
    </g>
    <g id="xtick_5">
     <g id="line2d_9">
      <g>
       <use xlink:href="#m1c6463c04a" x="283.760486" y="168.74" style="stroke: #000000; stroke-width: 0.8"/>
      </g>
     </g>
     <g id="line2d_10">
      <g>
       <use xlink:href="#mdc2324e194" x="283.760486" y="23.84" style="stroke: #000000; stroke-width: 0.8"/>
      </g>
     </g>
     <g id="text_5">
      <!-- 0.8 -->
      <g transform="translate(275.808923 179.838437) scale(0.1 -0.1)">
       <defs>
        <path id="DejaVuSans-38" d="M 2034 2216 
Q 1584 2216 1326 1975 
Q 1069 1734 1069 1313 
Q 1069 891 1326 650 
Q 1584 409 2034 409 
Q 2484 409 2743 651 
Q 3003 894 3003 1313 
Q 3003 1734 2745 1975 
Q 2488 2216 2034 2216 
z
M 1403 2484 
Q 997 2584 770 2862 
Q 544 3141 544 3541 
Q 544 4100 942 4425 
Q 1341 4750 2034 4750 
Q 2731 4750 3128 4425 
Q 3525 4100 3525 3541 
Q 3525 3141 3298 2862 
Q 3072 2584 2669 2484 
Q 3125 2378 3379 2068 
Q 3634 1759 3634 1313 
Q 3634 634 3220 271 
Q 2806 -91 2034 -91 
Q 1263 -91 848 271 
Q 434 634 434 1313 
Q 434 1759 690 2068 
Q 947 2378 1403 2484 
z
M 1172 3481 
Q 1172 3119 1398 2916 
Q 1625 2713 2034 2713 
Q 2441 2713 2670 2916 
Q 2900 3119 2900 3481 
Q 2900 3844 2670 4047 
Q 2441 4250 2034 4250 
Q 1625 4250 1398 4047 
Q 1172 3844 1172 3481 
z
" transform="scale(0.015625)"/>
       </defs>
       <use xlink:href="#DejaVuSans-30"/>
       <use xlink:href="#DejaVuSans-2e" x="63.623047"/>
       <use xlink:href="#DejaVuSans-38" x="95.410156"/>
      </g>
     </g>
    </g>
    <g id="xtick_6">
     <g id="line2d_11">
      <g>
       <use xlink:href="#m1c6463c04a" x="337.138263" y="168.74" style="stroke: #000000; stroke-width: 0.8"/>
      </g>
     </g>
     <g id="line2d_12">
      <g>
       <use xlink:href="#mdc2324e194" x="337.138263" y="23.84" style="stroke: #000000; stroke-width: 0.8"/>
      </g>
     </g>
     <g id="text_6">
      <!-- 1.0 -->
      <g transform="translate(329.186701 179.838437) scale(0.1 -0.1)">
       <defs>
        <path id="DejaVuSans-31" d="M 794 531 
L 1825 531 
L 1825 4091 
L 703 3866 
L 703 4441 
L 1819 4666 
L 2450 4666 
L 2450 531 
L 3481 531 
L 3481 0 
L 794 0 
L 794 531 
z
" transform="scale(0.015625)"/>
       </defs>
       <use xlink:href="#DejaVuSans-31"/>
       <use xlink:href="#DejaVuSans-2e" x="63.623047"/>
       <use xlink:href="#DejaVuSans-30" x="95.410156"/>
      </g>
     </g>
    </g>
    <g id="text_7">
     <!-- Time -->
     <g transform="translate(186.566788 196.555937) scale(0.14 -0.14)">
      <defs>
       <path id="DejaVuSans-54" d="M -19 4666 
L 3928 4666 
L 3928 4134 
L 2272 4134 
L 2272 0 
L 1638 0 
L 1638 4134 
L -19 4134 
L -19 4666 
z
" transform="scale(0.015625)"/>
       <path id="DejaVuSans-69" d="M 603 3500 
L 1178 3500 
L 1178 0 
L 603 0 
L 603 3500 
z
M 603 4863 
L 1178 4863 
L 1178 4134 
L 603 4134 
L 603 4863 
z
" transform="scale(0.015625)"/>
       <path id="DejaVuSans-6d" d="M 3328 2828 
Q 3544 3216 3844 3400 
Q 4144 3584 4550 3584 
Q 5097 3584 5394 3201 
Q 5691 2819 5691 2113 
L 5691 0 
L 5113 0 
L 5113 2094 
Q 5113 2597 4934 2840 
Q 4756 3084 4391 3084 
Q 3944 3084 3684 2787 
Q 3425 2491 3425 1978 
L 3425 0 
L 2847 0 
L 2847 2094 
Q 2847 2600 2669 2842 
Q 2491 3084 2119 3084 
Q 1678 3084 1418 2786 
Q 1159 2488 1159 1978 
L 1159 0 
L 581 0 
L 581 3500 
L 1159 3500 
L 1159 2956 
Q 1356 3278 1631 3431 
Q 1906 3584 2284 3584 
Q 2666 3584 2933 3390 
Q 3200 3197 3328 2828 
z
" transform="scale(0.015625)"/>
       <path id="DejaVuSans-65" d="M 3597 1894 
L 3597 1613 
L 953 1613 
Q 991 1019 1311 708 
Q 1631 397 2203 397 
Q 2534 397 2845 478 
Q 3156 559 3463 722 
L 3463 178 
Q 3153 47 2828 -22 
Q 2503 -91 2169 -91 
Q 1331 -91 842 396 
Q 353 884 353 1716 
Q 353 2575 817 3079 
Q 1281 3584 2069 3584 
Q 2775 3584 3186 3129 
Q 3597 2675 3597 1894 
z
M 3022 2063 
Q 3016 2534 2758 2815 
Q 2500 3097 2075 3097 
Q 1594 3097 1305 2825 
Q 1016 2553 972 2059 
L 3022 2063 
z
" transform="scale(0.015625)"/>
      </defs>
      <use xlink:href="#DejaVuSans-54"/>
      <use xlink:href="#DejaVuSans-69" x="57.958984"/>
      <use xlink:href="#DejaVuSans-6d" x="85.742188"/>
      <use xlink:href="#DejaVuSans-65" x="183.154297"/>
     </g>
    </g>
   </g>
   <g id="matplotlib.axis_2">
    <g id="ytick_1">
     <g id="line2d_13">
      <defs>
       <path id="m52b8a9ef9b" d="M 0 0 
L 3.5 0 
" style="stroke: #000000; stroke-width: 0.8"/>
      </defs>
      <g>
       <use xlink:href="#m52b8a9ef9b" x="70.249375" y="41.355779" style="stroke: #000000; stroke-width: 0.8"/>
      </g>
     </g>
     <g id="line2d_14">
      <defs>
       <path id="mc784962277" d="M 0 0 
L -3.5 0 
" style="stroke: #000000; stroke-width: 0.8"/>
      </defs>
      <g>
       <use xlink:href="#mc784962277" x="337.138263" y="41.355779" style="stroke: #000000; stroke-width: 0.8"/>
      </g>
     </g>
     <g id="text_8">
      <!-- $\mathdefault{10^{0}}$ -->
      <g transform="translate(49.149375 45.154998) scale(0.1 -0.1)">
       <use xlink:href="#DejaVuSans-31" transform="translate(0 0.765625)"/>
       <use xlink:href="#DejaVuSans-30" transform="translate(63.623047 0.765625)"/>
       <use xlink:href="#DejaVuSans-30" transform="translate(128.203125 39.046875) scale(0.7)"/>
      </g>
     </g>
    </g>
    <g id="ytick_2">
     <g id="line2d_15">
      <defs>
       <path id="m43906c580a" d="M 0 0 
L 2 0 
" style="stroke: #000000; stroke-width: 0.6"/>
      </defs>
      <g>
       <use xlink:href="#m43906c580a" x="70.249375" y="168.74" style="stroke: #000000; stroke-width: 0.6"/>
      </g>
     </g>
     <g id="line2d_16">
      <defs>
       <path id="mdb93dd3601" d="M 0 0 
L -2 0 
" style="stroke: #000000; stroke-width: 0.6"/>
      </defs>
      <g>
       <use xlink:href="#mdb93dd3601" x="337.138263" y="168.74" style="stroke: #000000; stroke-width: 0.6"/>
      </g>
     </g>
     <g id="text_9">
      <!-- $\mathdefault{5\times10^{-1}}$ -->
      <g transform="translate(24.749375 172.539219) scale(0.1 -0.1)">
       <defs>
        <path id="DejaVuSans-35" d="M 691 4666 
L 3169 4666 
L 3169 4134 
L 1269 4134 
L 1269 2991 
Q 1406 3038 1543 3061 
Q 1681 3084 1819 3084 
Q 2600 3084 3056 2656 
Q 3513 2228 3513 1497 
Q 3513 744 3044 326 
Q 2575 -91 1722 -91 
Q 1428 -91 1123 -41 
Q 819 9 494 109 
L 494 744 
Q 775 591 1075 516 
Q 1375 441 1709 441 
Q 2250 441 2565 725 
Q 2881 1009 2881 1497 
Q 2881 1984 2565 2268 
Q 2250 2553 1709 2553 
Q 1456 2553 1204 2497 
Q 953 2441 691 2322 
L 691 4666 
z
" transform="scale(0.015625)"/>
        <path id="DejaVuSans-d7" d="M 4488 3438 
L 3059 2003 
L 4488 575 
L 4116 197 
L 2681 1631 
L 1247 197 
L 878 575 
L 2303 2003 
L 878 3438 
L 1247 3816 
L 2681 2381 
L 4116 3816 
L 4488 3438 
z
" transform="scale(0.015625)"/>
        <path id="DejaVuSans-2212" d="M 678 2272 
L 4684 2272 
L 4684 1741 
L 678 1741 
L 678 2272 
z
" transform="scale(0.015625)"/>
       </defs>
       <use xlink:href="#DejaVuSans-35" transform="translate(0 0.684375)"/>
       <use xlink:href="#DejaVuSans-d7" transform="translate(83.105469 0.684375)"/>
       <use xlink:href="#DejaVuSans-31" transform="translate(186.376953 0.684375)"/>
       <use xlink:href="#DejaVuSans-30" transform="translate(250 0.684375)"/>
       <use xlink:href="#DejaVuSans-2212" transform="translate(314.580078 38.965625) scale(0.7)"/>
       <use xlink:href="#DejaVuSans-31" transform="translate(373.232422 38.965625) scale(0.7)"/>
      </g>
     </g>
    </g>
    <g id="ytick_3">
     <g id="line2d_17">
      <g>
       <use xlink:href="#m43906c580a" x="70.249375" y="135.233567" style="stroke: #000000; stroke-width: 0.6"/>
      </g>
     </g>
     <g id="line2d_18">
      <g>
       <use xlink:href="#mdb93dd3601" x="337.138263" y="135.233567" style="stroke: #000000; stroke-width: 0.6"/>
      </g>
     </g>
     <g id="text_10">
      <!-- $\mathdefault{6\times10^{-1}}$ -->
      <g transform="translate(24.749375 139.032786) scale(0.1 -0.1)">
       <use xlink:href="#DejaVuSans-36" transform="translate(0 0.684375)"/>
       <use xlink:href="#DejaVuSans-d7" transform="translate(83.105469 0.684375)"/>
       <use xlink:href="#DejaVuSans-31" transform="translate(186.376953 0.684375)"/>
       <use xlink:href="#DejaVuSans-30" transform="translate(250 0.684375)"/>
       <use xlink:href="#DejaVuSans-2212" transform="translate(314.580078 38.965625) scale(0.7)"/>
       <use xlink:href="#DejaVuSans-31" transform="translate(373.232422 38.965625) scale(0.7)"/>
      </g>
     </g>
    </g>
    <g id="ytick_4">
     <g id="line2d_19">
      <g>
       <use xlink:href="#m43906c580a" x="70.249375" y="106.904282" style="stroke: #000000; stroke-width: 0.6"/>
      </g>
     </g>
     <g id="line2d_20">
      <g>
       <use xlink:href="#mdb93dd3601" x="337.138263" y="106.904282" style="stroke: #000000; stroke-width: 0.6"/>
      </g>
     </g>
     <g id="text_11">
      <!-- $\mathdefault{7\times10^{-1}}$ -->
      <g transform="translate(24.749375 110.703501) scale(0.1 -0.1)">
       <defs>
        <path id="DejaVuSans-37" d="M 525 4666 
L 3525 4666 
L 3525 4397 
L 1831 0 
L 1172 0 
L 2766 4134 
L 525 4134 
L 525 4666 
z
" transform="scale(0.015625)"/>
       </defs>
       <use xlink:href="#DejaVuSans-37" transform="translate(0 0.684375)"/>
       <use xlink:href="#DejaVuSans-d7" transform="translate(83.105469 0.684375)"/>
       <use xlink:href="#DejaVuSans-31" transform="translate(186.376953 0.684375)"/>
       <use xlink:href="#DejaVuSans-30" transform="translate(250 0.684375)"/>
       <use xlink:href="#DejaVuSans-2212" transform="translate(314.580078 38.965625) scale(0.7)"/>
       <use xlink:href="#DejaVuSans-31" transform="translate(373.232422 38.965625) scale(0.7)"/>
      </g>
     </g>
    </g>
    <g id="ytick_5">
     <g id="line2d_21">
      <g>
       <use xlink:href="#m43906c580a" x="70.249375" y="82.364339" style="stroke: #000000; stroke-width: 0.6"/>
      </g>
     </g>
     <g id="line2d_22">
      <g>
       <use xlink:href="#mdb93dd3601" x="337.138263" y="82.364339" style="stroke: #000000; stroke-width: 0.6"/>
      </g>
     </g>
     <g id="text_12">
      <!-- $\mathdefault{8\times10^{-1}}$ -->
      <g transform="translate(24.749375 86.163557) scale(0.1 -0.1)">
       <use xlink:href="#DejaVuSans-38" transform="translate(0 0.684375)"/>
       <use xlink:href="#DejaVuSans-d7" transform="translate(83.105469 0.684375)"/>
       <use xlink:href="#DejaVuSans-31" transform="translate(186.376953 0.684375)"/>
       <use xlink:href="#DejaVuSans-30" transform="translate(250 0.684375)"/>
       <use xlink:href="#DejaVuSans-2212" transform="translate(314.580078 38.965625) scale(0.7)"/>
       <use xlink:href="#DejaVuSans-31" transform="translate(373.232422 38.965625) scale(0.7)"/>
      </g>
     </g>
    </g>
    <g id="ytick_6">
     <g id="line2d_23">
      <g>
       <use xlink:href="#m43906c580a" x="70.249375" y="60.718575" style="stroke: #000000; stroke-width: 0.6"/>
      </g>
     </g>
     <g id="line2d_24">
      <g>
       <use xlink:href="#mdb93dd3601" x="337.138263" y="60.718575" style="stroke: #000000; stroke-width: 0.6"/>
      </g>
     </g>
     <g id="text_13">
      <!-- $\mathdefault{9\times10^{-1}}$ -->
      <g transform="translate(24.749375 64.517794) scale(0.1 -0.1)">
       <defs>
        <path id="DejaVuSans-39" d="M 703 97 
L 703 672 
Q 941 559 1184 500 
Q 1428 441 1663 441 
Q 2288 441 2617 861 
Q 2947 1281 2994 2138 
Q 2813 1869 2534 1725 
Q 2256 1581 1919 1581 
Q 1219 1581 811 2004 
Q 403 2428 403 3163 
Q 403 3881 828 4315 
Q 1253 4750 1959 4750 
Q 2769 4750 3195 4129 
Q 3622 3509 3622 2328 
Q 3622 1225 3098 567 
Q 2575 -91 1691 -91 
Q 1453 -91 1209 -44 
Q 966 3 703 97 
z
M 1959 2075 
Q 2384 2075 2632 2365 
Q 2881 2656 2881 3163 
Q 2881 3666 2632 3958 
Q 2384 4250 1959 4250 
Q 1534 4250 1286 3958 
Q 1038 3666 1038 3163 
Q 1038 2656 1286 2365 
Q 1534 2075 1959 2075 
z
" transform="scale(0.015625)"/>
       </defs>
       <use xlink:href="#DejaVuSans-39" transform="translate(0 0.684375)"/>
       <use xlink:href="#DejaVuSans-d7" transform="translate(83.105469 0.684375)"/>
       <use xlink:href="#DejaVuSans-31" transform="translate(186.376953 0.684375)"/>
       <use xlink:href="#DejaVuSans-30" transform="translate(250 0.684375)"/>
       <use xlink:href="#DejaVuSans-2212" transform="translate(314.580078 38.965625) scale(0.7)"/>
       <use xlink:href="#DejaVuSans-31" transform="translate(373.232422 38.965625) scale(0.7)"/>
      </g>
     </g>
    </g>
    <g id="text_14">
     <!-- Fidelity -->
     <g transform="translate(17.837813 121.281094) rotate(-90) scale(0.14 -0.14)">
      <defs>
       <path id="DejaVuSans-46" d="M 628 4666 
L 3309 4666 
L 3309 4134 
L 1259 4134 
L 1259 2759 
L 3109 2759 
L 3109 2228 
L 1259 2228 
L 1259 0 
L 628 0 
L 628 4666 
z
" transform="scale(0.015625)"/>
       <path id="DejaVuSans-64" d="M 2906 2969 
L 2906 4863 
L 3481 4863 
L 3481 0 
L 2906 0 
L 2906 525 
Q 2725 213 2448 61 
Q 2172 -91 1784 -91 
Q 1150 -91 751 415 
Q 353 922 353 1747 
Q 353 2572 751 3078 
Q 1150 3584 1784 3584 
Q 2172 3584 2448 3432 
Q 2725 3281 2906 2969 
z
M 947 1747 
Q 947 1113 1208 752 
Q 1469 391 1925 391 
Q 2381 391 2643 752 
Q 2906 1113 2906 1747 
Q 2906 2381 2643 2742 
Q 2381 3103 1925 3103 
Q 1469 3103 1208 2742 
Q 947 2381 947 1747 
z
" transform="scale(0.015625)"/>
       <path id="DejaVuSans-6c" d="M 603 4863 
L 1178 4863 
L 1178 0 
L 603 0 
L 603 4863 
z
" transform="scale(0.015625)"/>
       <path id="DejaVuSans-74" d="M 1172 4494 
L 1172 3500 
L 2356 3500 
L 2356 3053 
L 1172 3053 
L 1172 1153 
Q 1172 725 1289 603 
Q 1406 481 1766 481 
L 2356 481 
L 2356 0 
L 1766 0 
Q 1100 0 847 248 
Q 594 497 594 1153 
L 594 3053 
L 172 3053 
L 172 3500 
L 594 3500 
L 594 4494 
L 1172 4494 
z
" transform="scale(0.015625)"/>
       <path id="DejaVuSans-79" d="M 2059 -325 
Q 1816 -950 1584 -1140 
Q 1353 -1331 966 -1331 
L 506 -1331 
L 506 -850 
L 844 -850 
Q 1081 -850 1212 -737 
Q 1344 -625 1503 -206 
L 1606 56 
L 191 3500 
L 800 3500 
L 1894 763 
L 2988 3500 
L 3597 3500 
L 2059 -325 
z
" transform="scale(0.015625)"/>
      </defs>
      <use xlink:href="#DejaVuSans-46"/>
      <use xlink:href="#DejaVuSans-69" x="50.269531"/>
      <use xlink:href="#DejaVuSans-64" x="78.052734"/>
      <use xlink:href="#DejaVuSans-65" x="141.529297"/>
      <use xlink:href="#DejaVuSans-6c" x="203.052734"/>
      <use xlink:href="#DejaVuSans-69" x="230.835938"/>
      <use xlink:href="#DejaVuSans-74" x="258.619141"/>
      <use xlink:href="#DejaVuSans-79" x="297.828125"/>
     </g>
    </g>
   </g>
   <g id="line2d_25">
    <path d="M 70.249375 41.355779 
L 72.918264 41.355839 
L 75.587153 41.356733 
L 78.256042 41.3606 
L 80.924931 41.370992 
L 83.593819 41.392841 
L 86.262708 41.432419 
L 88.931597 41.497276 
L 91.600486 41.596152 
L 94.269375 41.73886 
L 96.938264 41.936137 
L 99.607153 42.199465 
L 102.276042 42.540844 
L 104.944931 42.972543 
L 107.613819 43.506816 
L 110.282708 44.155585 
L 112.951597 44.930121 
L 115.620486 45.840704 
L 118.289375 46.89629 
L 120.958264 48.104201 
L 123.627153 49.469832 
L 126.296042 50.996405 
L 128.96493 52.684767 
L 131.633819 54.533252 
L 134.302708 56.537602 
L 136.971597 58.690964 
L 139.640486 60.983949 
L 142.309375 63.404771 
L 144.978264 65.939444 
L 147.647153 68.572037 
L 150.316042 71.28499 
L 152.98493 74.059451 
L 155.653819 76.875659 
L 158.322708 79.713328 
L 160.991597 82.552032 
L 163.660486 85.371587 
L 166.329375 88.1524 
L 168.998264 90.875785 
L 171.667153 93.524246 
L 174.336042 96.081706 
L 177.00493 98.533693 
L 179.673819 100.867478 
L 182.342708 103.072169 
L 185.011597 105.138767 
L 187.680486 107.060183 
L 190.349375 108.831235 
L 193.018264 110.44861 
L 195.687153 111.910812 
L 198.356041 113.218087 
L 201.02493 114.372331 
L 203.693819 115.376969 
L 206.362708 116.23682 
L 209.031597 116.957921 
L 211.700486 117.547339 
L 214.369375 118.012947 
L 217.038264 118.363185 
L 219.707153 118.606809 
L 222.376041 118.752641 
L 225.04493 118.809339 
L 227.713819 118.785193 
L 230.382708 118.687966 
L 233.051597 118.524797 
L 235.720486 118.302157 
L 238.389375 118.025874 
L 241.058264 117.70121 
L 243.727153 117.332979 
L 246.396041 116.925699 
L 249.06493 116.48374 
L 251.733819 116.01147 
L 254.402708 115.513359 
L 257.071597 114.994049 
L 259.740486 114.458368 
L 262.409375 113.911286 
L 265.078264 113.35783 
L 267.747152 112.80296 
L 270.416041 112.251418 
L 273.08493 111.707564 
L 275.753819 111.17523 
L 278.422708 110.657574 
L 281.091597 110.156967 
L 283.760486 109.67492 
L 286.429375 109.21203 
L 289.098264 108.76797 
L 291.767152 108.341516 
L 294.436041 107.930597 
L 297.10493 107.532388 
L 299.773819 107.143422 
L 302.442708 106.759745 
L 305.111597 106.377084 
L 307.780486 105.991044 
L 310.449375 105.597325 
L 313.118264 105.191941 
L 315.787152 104.771434 
L 318.456041 104.333068 
L 321.12493 103.874992 
L 323.793819 103.396353 
L 326.462708 102.897351 
L 329.131597 102.379228 
L 331.800486 101.844195 
L 334.469375 101.295304 
L 337.138263 100.736266 
L 339.807152 100.171246 
" clip-path="url(#p14c3e3a515)" style="fill: none; stroke: #1f77b4; stroke-width: 1.5; stroke-linecap: square"/>
   </g>
   <g id="line2d_26">
    <path d="M 70.249375 41.355779 
L 72.918264 41.355849 
L 75.587153 41.3569 
L 78.256042 41.36145 
L 80.924931 41.373677 
L 83.593819 41.39939 
L 86.262708 41.445978 
L 88.931597 41.522323 
L 91.600486 41.638683 
L 94.269375 41.806522 
L 96.938264 42.038284 
L 99.607153 42.347118 
L 102.276042 42.746536 
L 104.944931 43.250025 
L 107.613819 43.870606 
L 110.282708 44.620377 
L 112.951597 45.510029 
L 115.620486 46.54838 
L 118.289375 47.741937 
L 120.958264 49.094515 
L 123.627153 50.606923 
L 126.296042 52.276754 
L 128.96493 54.098271 
L 131.633819 56.062415 
L 134.302708 58.156926 
L 136.971597 60.366586 
L 139.640486 62.67355 
L 142.309375 65.057784 
L 144.978264 67.497561 
L 147.647153 69.970005 
L 150.316042 72.451661 
L 152.98493 74.919062 
L 155.653819 77.349267 
L 158.322708 79.720361 
L 160.991597 82.011885 
L 163.660486 84.205201 
L 166.329375 86.28377 
L 168.998264 88.233352 
L 171.667153 90.042125 
L 174.336042 91.700728 
L 177.00493 93.202249 
L 179.673819 94.542149 
L 182.342708 95.718156 
L 185.011597 96.730133 
L 187.680486 97.579918 
L 190.349375 98.271174 
L 193.018264 98.809223 
L 195.687153 99.200887 
L 198.356041 99.454325 
L 201.02493 99.578867 
L 203.693819 99.584835 
L 206.362708 99.483352 
L 209.031597 99.286127 
L 211.700486 99.005235 
L 214.369375 98.652874 
L 217.038264 98.241131 
L 219.707153 97.781755 
L 222.376041 97.285956 
L 225.04493 96.764238 
L 227.713819 96.226283 
L 230.382708 95.680875 
L 233.051597 95.135869 
L 235.720486 94.598198 
L 238.389375 94.073899 
L 241.058264 93.568148 
L 243.727153 93.085298 
L 246.396041 92.628893 
L 249.06493 92.201682 
L 251.733819 91.805607 
L 254.402708 91.441785 
L 257.071597 91.110498 
L 259.740486 90.811183 
L 262.409375 90.542449 
L 265.078264 90.302125 
L 267.747152 90.087335 
L 270.416041 89.894611 
L 273.08493 89.720034 
L 275.753819 89.559392 
L 278.422708 89.408355 
L 281.091597 89.262638 
L 283.760486 89.118156 
L 286.429375 88.971149 
L 289.098264 88.818269 
L 291.767152 88.656644 
L 294.436041 88.483896 
L 297.10493 88.298141 
L 299.773819 88.097976 
L 302.442708 87.882455 
L 305.111597 87.651074 
L 307.780486 87.403764 
L 310.449375 87.140892 
L 313.118264 86.863269 
L 315.787152 86.572158 
L 318.456041 86.269263 
L 321.12493 85.956707 
L 323.793819 85.63698 
L 326.462708 85.312857 
L 329.131597 84.987297 
L 331.800486 84.663322 
L 334.469375 84.34389 
L 337.138263 84.031762 
L 339.807152 83.729397 
" clip-path="url(#p14c3e3a515)" style="fill: none; stroke: #ff7f0e; stroke-width: 1.5; stroke-linecap: square"/>
   </g>
   <g id="line2d_27">
    <path d="M 70.249375 41.355779 
L 72.918264 41.355859 
L 75.587153 41.357055 
L 78.256042 41.36223 
L 80.924931 41.376141 
L 83.593819 41.405395 
L 86.262708 41.458389 
L 88.931597 41.545192 
L 91.600486 41.677377 
L 94.269375 41.867778 
L 96.938264 42.130165 
L 99.607153 42.478835 
L 102.276042 42.928129 
L 104.944931 43.491871 
L 107.613819 44.182766 
L 110.282708 45.011781 
L 112.951597 45.987528 
L 115.620486 47.115712 
L 118.289375 48.398655 
L 120.958264 49.834939 
L 123.627153 51.419203 
L 126.296042 53.142093 
L 128.96493 54.990397 
L 131.633819 56.947336 
L 134.302708 58.993019 
L 136.971597 61.10502 
L 139.640486 63.25906 
L 142.309375 65.429739 
L 144.978264 67.591304 
L 147.647153 69.718384 
L 150.316042 71.78668 
L 152.98493 73.773579 
L 155.653819 75.658652 
L 158.322708 77.424056 
L 160.991597 79.054803 
L 163.660486 80.538924 
L 166.329375 81.867527 
L 168.998264 83.034761 
L 171.667153 84.037712 
L 174.336042 84.876242 
L 177.00493 85.552792 
L 179.673819 86.072158 
L 182.342708 86.441267 
L 185.011597 86.668943 
L 187.680486 86.765683 
L 190.349375 86.74344 
L 193.018264 86.615403 
L 195.687153 86.39578 
L 198.356041 86.099562 
L 201.02493 85.742279 
L 203.693819 85.339723 
L 206.362708 84.907656 
L 209.031597 84.461498 
L 211.700486 84.016008 
L 214.369375 83.584977 
L 217.038264 83.180944 
L 219.707153 82.814951 
L 222.376041 82.496354 
L 225.04493 82.232689 
L 227.713819 82.029607 
L 230.382708 81.89086 
L 233.051597 81.818342 
L 235.720486 81.812177 
L 238.389375 81.870835 
L 241.058264 81.991287 
L 243.727153 82.16918 
L 246.396041 82.399027 
L 249.06493 82.674415 
L 251.733819 82.988224 
L 254.402708 83.332843 
L 257.071597 83.700387 
L 259.740486 84.082904 
L 262.409375 84.472569 
L 265.078264 84.861854 
L 267.747152 85.243681 
L 270.416041 85.611556 
L 273.08493 85.959676 
L 275.753819 86.283019 
L 278.422708 86.577406 
L 281.091597 86.839546 
L 283.760486 87.067049 
L 286.429375 87.258409 
L 289.098264 87.412968 
L 291.767152 87.530843 
L 294.436041 87.612837 
L 297.10493 87.660342 
L 299.773819 87.675226 
L 302.442708 87.659723 
L 305.111597 87.616335 
L 307.780486 87.547731 
L 310.449375 87.456656 
L 313.118264 87.345848 
L 315.787152 87.217954 
L 318.456041 87.07545 
L 321.12493 86.92057 
L 323.793819 86.75523 
L 326.462708 86.580975 
L 329.131597 86.398927 
L 331.800486 86.209761 
L 334.469375 86.013692 
L 337.138263 85.810489 
L 339.807152 85.599503 
" clip-path="url(#p14c3e3a515)" style="fill: none; stroke: #2ca02c; stroke-width: 1.5; stroke-linecap: square"/>
   </g>
   <g id="patch_3">
    <path d="M 70.249375 168.74 
L 70.249375 23.84 
" style="fill: none; stroke: #000000; stroke-width: 0.8; stroke-linejoin: miter; stroke-linecap: square"/>
   </g>
   <g id="patch_4">
    <path d="M 337.138263 168.74 
L 337.138263 23.84 
" style="fill: none; stroke: #000000; stroke-width: 0.8; stroke-linejoin: miter; stroke-linecap: square"/>
   </g>
   <g id="patch_5">
    <path d="M 70.249375 168.74 
L 337.138263 168.74 
" style="fill: none; stroke: #000000; stroke-width: 0.8; stroke-linejoin: miter; stroke-linecap: square"/>
   </g>
   <g id="patch_6">
    <path d="M 70.249375 23.84 
L 337.138263 23.84 
" style="fill: none; stroke: #000000; stroke-width: 0.8; stroke-linejoin: miter; stroke-linecap: square"/>
   </g>
   <g id="text_15">
    <!-- $J_{x}=0.5,\, J_z=1,\, \alpha=0.5$ (2) -->
    <g transform="translate(115.003819 17.84) scale(0.14 -0.14)">
     <defs>
      <path id="DejaVuSans-Oblique-4a" d="M 1069 4666 
L 1703 4666 
L 856 325 
Q 691 -522 298 -901 
Q -94 -1281 -800 -1281 
L -1050 -1281 
L -947 -750 
L -750 -750 
Q -328 -750 -109 -509 
Q 109 -269 225 325 
L 1069 4666 
z
" transform="scale(0.015625)"/>
      <path id="DejaVuSans-Oblique-78" d="M 3841 3500 
L 2234 1784 
L 3219 0 
L 2559 0 
L 1819 1388 
L 531 0 
L -166 0 
L 1556 1844 
L 641 3500 
L 1300 3500 
L 1972 2234 
L 3144 3500 
L 3841 3500 
z
" transform="scale(0.015625)"/>
      <path id="DejaVuSans-3d" d="M 678 2906 
L 4684 2906 
L 4684 2381 
L 678 2381 
L 678 2906 
z
M 678 1631 
L 4684 1631 
L 4684 1100 
L 678 1100 
L 678 1631 
z
" transform="scale(0.015625)"/>
      <path id="DejaVuSans-2c" d="M 750 794 
L 1409 794 
L 1409 256 
L 897 -744 
L 494 -744 
L 750 256 
L 750 794 
z
" transform="scale(0.015625)"/>
      <path id="DejaVuSans-Oblique-7a" d="M 744 3500 
L 3475 3500 
L 3372 2975 
L 738 459 
L 2913 459 
L 2822 0 
L -19 0 
L 84 525 
L 2719 3041 
L 653 3041 
L 744 3500 
z
" transform="scale(0.015625)"/>
      <path id="DejaVuSans-Oblique-3b1" d="M 2619 1628 
L 2622 2350 
Q 2625 3088 2069 3091 
Q 1653 3094 1394 2747 
Q 1069 2319 959 1747 
Q 825 1059 994 731 
Q 1169 397 1547 397 
Q 1966 397 2319 1063 
L 2619 1628 
z
M 2166 3578 
Q 3141 3594 3128 2584 
Q 3128 2584 3616 3500 
L 4128 3500 
L 3119 1603 
L 3109 919 
Q 3109 766 3194 638 
Q 3291 488 3391 488 
L 3669 488 
L 3575 0 
L 3228 0 
Q 2934 0 2722 263 
Q 2622 394 2619 669 
Q 2416 334 2066 50 
Q 1900 -81 1453 -78 
Q 722 -72 456 397 
Q 184 884 353 1747 
Q 534 2675 1009 3097 
Q 1544 3569 2166 3578 
z
" transform="scale(0.015625)"/>
      <path id="DejaVuSans-20" transform="scale(0.015625)"/>
      <path id="DejaVuSans-28" d="M 1984 4856 
Q 1566 4138 1362 3434 
Q 1159 2731 1159 2009 
Q 1159 1288 1364 580 
Q 1569 -128 1984 -844 
L 1484 -844 
Q 1016 -109 783 600 
Q 550 1309 550 2009 
Q 550 2706 781 3412 
Q 1013 4119 1484 4856 
L 1984 4856 
z
" transform="scale(0.015625)"/>
      <path id="DejaVuSans-29" d="M 513 4856 
L 1013 4856 
Q 1481 4119 1714 3412 
Q 1947 2706 1947 2009 
Q 1947 1309 1714 600 
Q 1481 -109 1013 -844 
L 513 -844 
Q 928 -128 1133 580 
Q 1338 1288 1338 2009 
Q 1338 2731 1133 3434 
Q 928 4138 513 4856 
z
" transform="scale(0.015625)"/>
     </defs>
     <use xlink:href="#DejaVuSans-Oblique-4a" transform="translate(0 0.125)"/>
     <use xlink:href="#DejaVuSans-Oblique-78" transform="translate(29.492188 -16.28125) scale(0.7)"/>
     <use xlink:href="#DejaVuSans-3d" transform="translate(93.134766 0.125)"/>
     <use xlink:href="#DejaVuSans-30" transform="translate(196.40625 0.125)"/>
     <use xlink:href="#DejaVuSans-2e" transform="translate(260.029297 0.125)"/>
     <use xlink:href="#DejaVuSans-35" transform="translate(291.816406 0.125)"/>
     <use xlink:href="#DejaVuSans-2c" transform="translate(355.439453 0.125)"/>
     <use xlink:href="#DejaVuSans-Oblique-4a" transform="translate(422.944661 0.125)"/>
     <use xlink:href="#DejaVuSans-Oblique-7a" transform="translate(452.436848 -16.28125) scale(0.7)"/>
     <use xlink:href="#DejaVuSans-3d" transform="translate(511.396809 0.125)"/>
     <use xlink:href="#DejaVuSans-31" transform="translate(614.668293 0.125)"/>
     <use xlink:href="#DejaVuSans-2c" transform="translate(678.29134 0.125)"/>
     <use xlink:href="#DejaVuSans-Oblique-3b1" transform="translate(745.796548 0.125)"/>
     <use xlink:href="#DejaVuSans-3d" transform="translate(831.196938 0.125)"/>
     <use xlink:href="#DejaVuSans-30" transform="translate(934.468423 0.125)"/>
     <use xlink:href="#DejaVuSans-2e" transform="translate(998.09147 0.125)"/>
     <use xlink:href="#DejaVuSans-35" transform="translate(1029.878579 0.125)"/>
     <use xlink:href="#DejaVuSans-20" transform="translate(1093.501626 0.125)"/>
     <use xlink:href="#DejaVuSans-28" transform="translate(1125.288735 0.125)"/>
     <use xlink:href="#DejaVuSans-32" transform="translate(1164.302407 0.125)"/>
     <use xlink:href="#DejaVuSans-29" transform="translate(1227.925454 0.125)"/>
    </g>
   </g>
   <g id="legend_1">
    <g id="patch_7">
     <path d="M 77.249375 163.74 
L 141.749375 163.74 
Q 143.749375 163.74 143.749375 161.74 
L 143.749375 118.705625 
Q 143.749375 116.705625 141.749375 116.705625 
L 77.249375 116.705625 
Q 75.249375 116.705625 75.249375 118.705625 
L 75.249375 161.74 
Q 75.249375 163.74 77.249375 163.74 
z
" style="fill: #ffffff; opacity: 0.8; stroke: #cccccc; stroke-linejoin: miter"/>
    </g>
    <g id="line2d_28">
     <path d="M 79.249375 124.804062 
L 89.249375 124.804062 
L 99.249375 124.804062 
" style="fill: none; stroke: #1f77b4; stroke-width: 1.5; stroke-linecap: square"/>
    </g>
    <g id="text_16">
     <!-- $N=10$ -->
     <g transform="translate(107.249375 128.304062) scale(0.1 -0.1)">
      <defs>
       <path id="DejaVuSans-Oblique-4e" d="M 1081 4666 
L 1931 4666 
L 3219 666 
L 4000 4666 
L 4616 4666 
L 3706 0 
L 2853 0 
L 1569 4025 
L 788 0 
L 172 0 
L 1081 4666 
z
" transform="scale(0.015625)"/>
      </defs>
      <use xlink:href="#DejaVuSans-Oblique-4e" transform="translate(0 0.78125)"/>
      <use xlink:href="#DejaVuSans-3d" transform="translate(94.287109 0.78125)"/>
      <use xlink:href="#DejaVuSans-31" transform="translate(197.558594 0.78125)"/>
      <use xlink:href="#DejaVuSans-30" transform="translate(261.181641 0.78125)"/>
     </g>
    </g>
    <g id="line2d_29">
     <path d="M 79.249375 139.482187 
L 89.249375 139.482187 
L 99.249375 139.482187 
" style="fill: none; stroke: #ff7f0e; stroke-width: 1.5; stroke-linecap: square"/>
    </g>
    <g id="text_17">
     <!-- $N=12$ -->
     <g transform="translate(107.249375 142.982187) scale(0.1 -0.1)">
      <use xlink:href="#DejaVuSans-Oblique-4e" transform="translate(0 0.78125)"/>
      <use xlink:href="#DejaVuSans-3d" transform="translate(94.287109 0.78125)"/>
      <use xlink:href="#DejaVuSans-31" transform="translate(197.558594 0.78125)"/>
      <use xlink:href="#DejaVuSans-32" transform="translate(261.181641 0.78125)"/>
     </g>
    </g>
    <g id="line2d_30">
     <path d="M 79.249375 154.160312 
L 89.249375 154.160312 
L 99.249375 154.160312 
" style="fill: none; stroke: #2ca02c; stroke-width: 1.5; stroke-linecap: square"/>
    </g>
    <g id="text_18">
     <!-- $N=14$ -->
     <g transform="translate(107.249375 157.660312) scale(0.1 -0.1)">
      <use xlink:href="#DejaVuSans-Oblique-4e" transform="translate(0 0.09375)"/>
      <use xlink:href="#DejaVuSans-3d" transform="translate(94.287109 0.09375)"/>
      <use xlink:href="#DejaVuSans-31" transform="translate(197.558594 0.09375)"/>
      <use xlink:href="#DejaVuSans-34" transform="translate(261.181641 0.09375)"/>
     </g>
    </g>
   </g>
  </g>
 </g>
 <defs>
  <clipPath id="p14c3e3a515">
   <rect x="70.249375" y="23.84" width="266.888888" height="144.9"/>
  </clipPath>
 </defs>
</svg>
