<?xml version="1.0" encoding="utf-8" standalone="no"?>
<!DOCTYPE svg PUBLIC "-//W3C//DTD SVG 1.1//EN"
  "http://www.w3.org/Graphics/SVG/1.1/DTD/svg11.dtd">
<svg xmlns:xlink="http://www.w3.org/1999/xlink" width="324pt" height="216pt" viewBox="0 0 324 216" xmlns="http://www.w3.org/2000/svg" version="1.1">
 <metadata>
  <rdf:RDF xmlns:dc="http://purl.org/dc/elements/1.1/" xmlns:cc="http://creativecommons.org/ns#" xmlns:rdf="http://www.w3.org/1999/02/22-rdf-syntax-ns#">
   <cc:Work>
    <dc:type rdf:resource="http://purl.org/dc/dcmitype/StillImage"/>
    <dc:date>2025-11-10T17:06:24.239741</dc:date>
    <dc:format>image/svg+xml</dc:format>
    <dc:creator>
     <cc:Agent>
      <dc:title>Matplotlib v3.10.3, https://matplotlib.org/</dc:title>
     </cc:Agent>
    </dc:creator>
   </cc:Work>
  </rdf:RDF>
 </metadata>
 <defs>
  <style type="text/css">*{stroke-linejoin: round; stroke-linecap: butt}</style>
 </defs>
 <g id="figure_1">
  <g id="patch_1">
   <path d="M 0 216 
L 324 216 
L 324 0 
L 0 0 
z
" style="fill: #ffffff"/>
  </g>
  <g id="axes_1">
   <g id="patch_2">
    <path d="M 63.281214 171.16 
L 306.9 171.16 
L 306.9 26.88 
L 63.281214 26.88 
z
" style="fill: #ffffff"/>
   </g>
   <g id="matplotlib.axis_1">
    <g id="xtick_1">
     <g id="line2d_1">
      <path d="M 63.281214 171.16 
L 63.281214 26.88 
" clip-path="url(#p04282fa609)" style="fill: none; stroke-dasharray: 2.22,0.96; stroke-dashoffset: 0; stroke: #b0b0b0; stroke-opacity: 0.7; stroke-width: 0.6"/>
     </g>
     <g id="line2d_2">
      <defs>
       <path id="md603016085" d="M 0 0 
L 0 3.5 
" style="stroke: #000000; stroke-width: 0.8"/>
      </defs>
      <g>
       <use xlink:href="#md603016085" x="63.281214" y="171.16" style="stroke: #000000; stroke-width: 0.8"/>
      </g>
     </g>
     <g id="text_1">
      <!-- 0 -->
      <g transform="translate(60.099964 185.758437) scale(0.1 -0.1)">
       <defs>
        <path id="DejaVuSans-30" d="M 2034 4250 
Q 1547 4250 1301 3770 
Q 1056 3291 1056 2328 
Q 1056 1369 1301 889 
Q 1547 409 2034 409 
Q 2525 409 2770 889 
Q 3016 1369 3016 2328 
Q 3016 3291 2770 3770 
Q 2525 4250 2034 4250 
z
M 2034 4750 
Q 2819 4750 3233 4129 
Q 3647 3509 3647 2328 
Q 3647 1150 3233 529 
Q 2819 -91 2034 -91 
Q 1250 -91 836 529 
Q 422 1150 422 2328 
Q 422 3509 836 4129 
Q 1250 4750 2034 4750 
z
" transform="scale(0.015625)"/>
       </defs>
       <use xlink:href="#DejaVuSans-30"/>
      </g>
     </g>
    </g>
    <g id="xtick_2">
     <g id="line2d_3">
      <path d="M 112.004971 171.16 
L 112.004971 26.88 
" clip-path="url(#p04282fa609)" style="fill: none; stroke-dasharray: 2.22,0.96; stroke-dashoffset: 0; stroke: #b0b0b0; stroke-opacity: 0.7; stroke-width: 0.6"/>
     </g>
     <g id="line2d_4">
      <g>
       <use xlink:href="#md603016085" x="112.004971" y="171.16" style="stroke: #000000; stroke-width: 0.8"/>
      </g>
     </g>
     <g id="text_2">
      <!-- 10 -->
      <g transform="translate(105.642471 185.758437) scale(0.1 -0.1)">
       <defs>
        <path id="DejaVuSans-31" d="M 794 531 
L 1825 531 
L 1825 4091 
L 703 3866 
L 703 4441 
L 1819 4666 
L 2450 4666 
L 2450 531 
L 3481 531 
L 3481 0 
L 794 0 
L 794 531 
z
" transform="scale(0.015625)"/>
       </defs>
       <use xlink:href="#DejaVuSans-31"/>
       <use xlink:href="#DejaVuSans-30" transform="translate(63.623047 0)"/>
      </g>
     </g>
    </g>
    <g id="xtick_3">
     <g id="line2d_5">
      <path d="M 160.728728 171.16 
L 160.728728 26.88 
" clip-path="url(#p04282fa609)" style="fill: none; stroke-dasharray: 2.22,0.96; stroke-dashoffset: 0; stroke: #b0b0b0; stroke-opacity: 0.7; stroke-width: 0.6"/>
     </g>
     <g id="line2d_6">
      <g>
       <use xlink:href="#md603016085" x="160.728728" y="171.16" style="stroke: #000000; stroke-width: 0.8"/>
      </g>
     </g>
     <g id="text_3">
      <!-- 20 -->
      <g transform="translate(154.366228 185.758437) scale(0.1 -0.1)">
       <defs>
        <path id="DejaVuSans-32" d="M 1228 531 
L 3431 531 
L 3431 0 
L 469 0 
L 469 531 
Q 828 903 1448 1529 
Q 2069 2156 2228 2338 
Q 2531 2678 2651 2914 
Q 2772 3150 2772 3378 
Q 2772 3750 2511 3984 
Q 2250 4219 1831 4219 
Q 1534 4219 1204 4116 
Q 875 4013 500 3803 
L 500 4441 
Q 881 4594 1212 4672 
Q 1544 4750 1819 4750 
Q 2544 4750 2975 4387 
Q 3406 4025 3406 3419 
Q 3406 3131 3298 2873 
Q 3191 2616 2906 2266 
Q 2828 2175 2409 1742 
Q 1991 1309 1228 531 
z
" transform="scale(0.015625)"/>
       </defs>
       <use xlink:href="#DejaVuSans-32"/>
       <use xlink:href="#DejaVuSans-30" transform="translate(63.623047 0)"/>
      </g>
     </g>
    </g>
    <g id="xtick_4">
     <g id="line2d_7">
      <path d="M 209.452485 171.16 
L 209.452485 26.88 
" clip-path="url(#p04282fa609)" style="fill: none; stroke-dasharray: 2.22,0.96; stroke-dashoffset: 0; stroke: #b0b0b0; stroke-opacity: 0.7; stroke-width: 0.6"/>
     </g>
     <g id="line2d_8">
      <g>
       <use xlink:href="#md603016085" x="209.452485" y="171.16" style="stroke: #000000; stroke-width: 0.8"/>
      </g>
     </g>
     <g id="text_4">
      <!-- 30 -->
      <g transform="translate(203.089985 185.758437) scale(0.1 -0.1)">
       <defs>
        <path id="DejaVuSans-33" d="M 2597 2516 
Q 3050 2419 3304 2112 
Q 3559 1806 3559 1356 
Q 3559 666 3084 287 
Q 2609 -91 1734 -91 
Q 1441 -91 1130 -33 
Q 819 25 488 141 
L 488 750 
Q 750 597 1062 519 
Q 1375 441 1716 441 
Q 2309 441 2620 675 
Q 2931 909 2931 1356 
Q 2931 1769 2642 2001 
Q 2353 2234 1838 2234 
L 1294 2234 
L 1294 2753 
L 1863 2753 
Q 2328 2753 2575 2939 
Q 2822 3125 2822 3475 
Q 2822 3834 2567 4026 
Q 2313 4219 1838 4219 
Q 1578 4219 1281 4162 
Q 984 4106 628 3988 
L 628 4550 
Q 988 4650 1302 4700 
Q 1616 4750 1894 4750 
Q 2613 4750 3031 4423 
Q 3450 4097 3450 3541 
Q 3450 3153 3228 2886 
Q 3006 2619 2597 2516 
z
" transform="scale(0.015625)"/>
       </defs>
       <use xlink:href="#DejaVuSans-33"/>
       <use xlink:href="#DejaVuSans-30" transform="translate(63.623047 0)"/>
      </g>
     </g>
    </g>
    <g id="xtick_5">
     <g id="line2d_9">
      <path d="M 258.176243 171.16 
L 258.176243 26.88 
" clip-path="url(#p04282fa609)" style="fill: none; stroke-dasharray: 2.22,0.96; stroke-dashoffset: 0; stroke: #b0b0b0; stroke-opacity: 0.7; stroke-width: 0.6"/>
     </g>
     <g id="line2d_10">
      <g>
       <use xlink:href="#md603016085" x="258.176243" y="171.16" style="stroke: #000000; stroke-width: 0.8"/>
      </g>
     </g>
     <g id="text_5">
      <!-- 40 -->
      <g transform="translate(251.813743 185.758437) scale(0.1 -0.1)">
       <defs>
        <path id="DejaVuSans-34" d="M 2419 4116 
L 825 1625 
L 2419 1625 
L 2419 4116 
z
M 2253 4666 
L 3047 4666 
L 3047 1625 
L 3713 1625 
L 3713 1100 
L 3047 1100 
L 3047 0 
L 2419 0 
L 2419 1100 
L 313 1100 
L 313 1709 
L 2253 4666 
z
" transform="scale(0.015625)"/>
       </defs>
       <use xlink:href="#DejaVuSans-34"/>
       <use xlink:href="#DejaVuSans-30" transform="translate(63.623047 0)"/>
      </g>
     </g>
    </g>
    <g id="xtick_6">
     <g id="line2d_11">
      <path d="M 306.9 171.16 
L 306.9 26.88 
" clip-path="url(#p04282fa609)" style="fill: none; stroke-dasharray: 2.22,0.96; stroke-dashoffset: 0; stroke: #b0b0b0; stroke-opacity: 0.7; stroke-width: 0.6"/>
     </g>
     <g id="line2d_12">
      <g>
       <use xlink:href="#md603016085" x="306.9" y="171.16" style="stroke: #000000; stroke-width: 0.8"/>
      </g>
     </g>
     <g id="text_6">
      <!-- 50 -->
      <g transform="translate(300.5375 185.758437) scale(0.1 -0.1)">
       <defs>
        <path id="DejaVuSans-35" d="M 691 4666 
L 3169 4666 
L 3169 4134 
L 1269 4134 
L 1269 2991 
Q 1406 3038 1543 3061 
Q 1681 3084 1819 3084 
Q 2600 3084 3056 2656 
Q 3513 2228 3513 1497 
Q 3513 744 3044 326 
Q 2575 -91 1722 -91 
Q 1428 -91 1123 -41 
Q 819 9 494 109 
L 494 744 
Q 775 591 1075 516 
Q 1375 441 1709 441 
Q 2250 441 2565 725 
Q 2881 1009 2881 1497 
Q 2881 1984 2565 2268 
Q 2250 2553 1709 2553 
Q 1456 2553 1204 2497 
Q 953 2441 691 2322 
L 691 4666 
z
" transform="scale(0.015625)"/>
       </defs>
       <use xlink:href="#DejaVuSans-35"/>
       <use xlink:href="#DejaVuSans-30" transform="translate(63.623047 0)"/>
      </g>
     </g>
    </g>
    <g id="text_7">
     <!-- Site from crest -->
     <g transform="translate(140.997169 200.95625) scale(0.12 -0.12)">
      <defs>
       <path id="DejaVuSans-53" d="M 3425 4513 
L 3425 3897 
Q 3066 4069 2747 4153 
Q 2428 4238 2131 4238 
Q 1616 4238 1336 4038 
Q 1056 3838 1056 3469 
Q 1056 3159 1242 3001 
Q 1428 2844 1947 2747 
L 2328 2669 
Q 3034 2534 3370 2195 
Q 3706 1856 3706 1288 
Q 3706 609 3251 259 
Q 2797 -91 1919 -91 
Q 1588 -91 1214 -16 
Q 841 59 441 206 
L 441 856 
Q 825 641 1194 531 
Q 1563 422 1919 422 
Q 2459 422 2753 634 
Q 3047 847 3047 1241 
Q 3047 1584 2836 1778 
Q 2625 1972 2144 2069 
L 1759 2144 
Q 1053 2284 737 2584 
Q 422 2884 422 3419 
Q 422 4038 858 4394 
Q 1294 4750 2059 4750 
Q 2388 4750 2728 4690 
Q 3069 4631 3425 4513 
z
" transform="scale(0.015625)"/>
       <path id="DejaVuSans-69" d="M 603 3500 
L 1178 3500 
L 1178 0 
L 603 0 
L 603 3500 
z
M 603 4863 
L 1178 4863 
L 1178 4134 
L 603 4134 
L 603 4863 
z
" transform="scale(0.015625)"/>
       <path id="DejaVuSans-74" d="M 1172 4494 
L 1172 3500 
L 2356 3500 
L 2356 3053 
L 1172 3053 
L 1172 1153 
Q 1172 725 1289 603 
Q 1406 481 1766 481 
L 2356 481 
L 2356 0 
L 1766 0 
Q 1100 0 847 248 
Q 594 497 594 1153 
L 594 3053 
L 172 3053 
L 172 3500 
L 594 3500 
L 594 4494 
L 1172 4494 
z
" transform="scale(0.015625)"/>
       <path id="DejaVuSans-65" d="M 3597 1894 
L 3597 1613 
L 953 1613 
Q 991 1019 1311 708 
Q 1631 397 2203 397 
Q 2534 397 2845 478 
Q 3156 559 3463 722 
L 3463 178 
Q 3153 47 2828 -22 
Q 2503 -91 2169 -91 
Q 1331 -91 842 396 
Q 353 884 353 1716 
Q 353 2575 817 3079 
Q 1281 3584 2069 3584 
Q 2775 3584 3186 3129 
Q 3597 2675 3597 1894 
z
M 3022 2063 
Q 3016 2534 2758 2815 
Q 2500 3097 2075 3097 
Q 1594 3097 1305 2825 
Q 1016 2553 972 2059 
L 3022 2063 
z
" transform="scale(0.015625)"/>
       <path id="DejaVuSans-20" transform="scale(0.015625)"/>
       <path id="DejaVuSans-66" d="M 2375 4863 
L 2375 4384 
L 1825 4384 
Q 1516 4384 1395 4259 
Q 1275 4134 1275 3809 
L 1275 3500 
L 2222 3500 
L 2222 3053 
L 1275 3053 
L 1275 0 
L 697 0 
L 697 3053 
L 147 3053 
L 147 3500 
L 697 3500 
L 697 3744 
Q 697 4328 969 4595 
Q 1241 4863 1831 4863 
L 2375 4863 
z
" transform="scale(0.015625)"/>
       <path id="DejaVuSans-72" d="M 2631 2963 
Q 2534 3019 2420 3045 
Q 2306 3072 2169 3072 
Q 1681 3072 1420 2755 
Q 1159 2438 1159 1844 
L 1159 0 
L 581 0 
L 581 3500 
L 1159 3500 
L 1159 2956 
Q 1341 3275 1631 3429 
Q 1922 3584 2338 3584 
Q 2397 3584 2469 3576 
Q 2541 3569 2628 3553 
L 2631 2963 
z
" transform="scale(0.015625)"/>
       <path id="DejaVuSans-6f" d="M 1959 3097 
Q 1497 3097 1228 2736 
Q 959 2375 959 1747 
Q 959 1119 1226 758 
Q 1494 397 1959 397 
Q 2419 397 2687 759 
Q 2956 1122 2956 1747 
Q 2956 2369 2687 2733 
Q 2419 3097 1959 3097 
z
M 1959 3584 
Q 2709 3584 3137 3096 
Q 3566 2609 3566 1747 
Q 3566 888 3137 398 
Q 2709 -91 1959 -91 
Q 1206 -91 779 398 
Q 353 888 353 1747 
Q 353 2609 779 3096 
Q 1206 3584 1959 3584 
z
" transform="scale(0.015625)"/>
       <path id="DejaVuSans-6d" d="M 3328 2828 
Q 3544 3216 3844 3400 
Q 4144 3584 4550 3584 
Q 5097 3584 5394 3201 
Q 5691 2819 5691 2113 
L 5691 0 
L 5113 0 
L 5113 2094 
Q 5113 2597 4934 2840 
Q 4756 3084 4391 3084 
Q 3944 3084 3684 2787 
Q 3425 2491 3425 1978 
L 3425 0 
L 2847 0 
L 2847 2094 
Q 2847 2600 2669 2842 
Q 2491 3084 2119 3084 
Q 1678 3084 1418 2786 
Q 1159 2488 1159 1978 
L 1159 0 
L 581 0 
L 581 3500 
L 1159 3500 
L 1159 2956 
Q 1356 3278 1631 3431 
Q 1906 3584 2284 3584 
Q 2666 3584 2933 3390 
Q 3200 3197 3328 2828 
z
" transform="scale(0.015625)"/>
       <path id="DejaVuSans-63" d="M 3122 3366 
L 3122 2828 
Q 2878 2963 2633 3030 
Q 2388 3097 2138 3097 
Q 1578 3097 1268 2742 
Q 959 2388 959 1747 
Q 959 1106 1268 751 
Q 1578 397 2138 397 
Q 2388 397 2633 464 
Q 2878 531 3122 666 
L 3122 134 
Q 2881 22 2623 -34 
Q 2366 -91 2075 -91 
Q 1284 -91 818 406 
Q 353 903 353 1747 
Q 353 2603 823 3093 
Q 1294 3584 2113 3584 
Q 2378 3584 2631 3529 
Q 2884 3475 3122 3366 
z
" transform="scale(0.015625)"/>
       <path id="DejaVuSans-73" d="M 2834 3397 
L 2834 2853 
Q 2591 2978 2328 3040 
Q 2066 3103 1784 3103 
Q 1356 3103 1142 2972 
Q 928 2841 928 2578 
Q 928 2378 1081 2264 
Q 1234 2150 1697 2047 
L 1894 2003 
Q 2506 1872 2764 1633 
Q 3022 1394 3022 966 
Q 3022 478 2636 193 
Q 2250 -91 1575 -91 
Q 1294 -91 989 -36 
Q 684 19 347 128 
L 347 722 
Q 666 556 975 473 
Q 1284 391 1588 391 
Q 1994 391 2212 530 
Q 2431 669 2431 922 
Q 2431 1156 2273 1281 
Q 2116 1406 1581 1522 
L 1381 1569 
Q 847 1681 609 1914 
Q 372 2147 372 2553 
Q 372 3047 722 3315 
Q 1072 3584 1716 3584 
Q 2034 3584 2315 3537 
Q 2597 3491 2834 3397 
z
" transform="scale(0.015625)"/>
      </defs>
      <use xlink:href="#DejaVuSans-53"/>
      <use xlink:href="#DejaVuSans-69" transform="translate(63.476562 0)"/>
      <use xlink:href="#DejaVuSans-74" transform="translate(91.259766 0)"/>
      <use xlink:href="#DejaVuSans-65" transform="translate(130.46875 0)"/>
      <use xlink:href="#DejaVuSans-20" transform="translate(191.992188 0)"/>
      <use xlink:href="#DejaVuSans-66" transform="translate(223.779297 0)"/>
      <use xlink:href="#DejaVuSans-72" transform="translate(258.984375 0)"/>
      <use xlink:href="#DejaVuSans-6f" transform="translate(297.847656 0)"/>
      <use xlink:href="#DejaVuSans-6d" transform="translate(359.029297 0)"/>
      <use xlink:href="#DejaVuSans-20" transform="translate(456.441406 0)"/>
      <use xlink:href="#DejaVuSans-63" transform="translate(488.228516 0)"/>
      <use xlink:href="#DejaVuSans-72" transform="translate(543.208984 0)"/>
      <use xlink:href="#DejaVuSans-65" transform="translate(582.072266 0)"/>
      <use xlink:href="#DejaVuSans-73" transform="translate(643.595703 0)"/>
      <use xlink:href="#DejaVuSans-74" transform="translate(695.695312 0)"/>
     </g>
    </g>
   </g>
   <g id="matplotlib.axis_2">
    <g id="ytick_1">
     <g id="line2d_13">
      <path d="M 63.281214 171.16 
L 306.9 171.16 
" clip-path="url(#p04282fa609)" style="fill: none; stroke-dasharray: 2.22,0.96; stroke-dashoffset: 0; stroke: #b0b0b0; stroke-opacity: 0.7; stroke-width: 0.6"/>
     </g>
     <g id="line2d_14">
      <defs>
       <path id="m3460906c48" d="M 0 0 
L -3.5 0 
" style="stroke: #000000; stroke-width: 0.8"/>
      </defs>
      <g>
       <use xlink:href="#m3460906c48" x="63.281214" y="171.16" style="stroke: #000000; stroke-width: 0.8"/>
      </g>
     </g>
     <g id="text_8">
      <!-- $\mathdefault{10^{-10}}$ -->
      <g transform="translate(28.381214 174.959219) scale(0.1 -0.1)">
       <defs>
        <path id="DejaVuSans-2212" d="M 678 2272 
L 4684 2272 
L 4684 1741 
L 678 1741 
L 678 2272 
z
" transform="scale(0.015625)"/>
       </defs>
       <use xlink:href="#DejaVuSans-31" transform="translate(0 0.765625)"/>
       <use xlink:href="#DejaVuSans-30" transform="translate(63.623047 0.765625)"/>
       <use xlink:href="#DejaVuSans-2212" transform="translate(128.203125 39.046875) scale(0.7)"/>
       <use xlink:href="#DejaVuSans-31" transform="translate(186.855469 39.046875) scale(0.7)"/>
       <use xlink:href="#DejaVuSans-30" transform="translate(231.391602 39.046875) scale(0.7)"/>
      </g>
     </g>
    </g>
    <g id="ytick_2">
     <g id="line2d_15">
      <path d="M 63.281214 142.304 
L 306.9 142.304 
" clip-path="url(#p04282fa609)" style="fill: none; stroke-dasharray: 2.22,0.96; stroke-dashoffset: 0; stroke: #b0b0b0; stroke-opacity: 0.7; stroke-width: 0.6"/>
     </g>
     <g id="line2d_16">
      <g>
       <use xlink:href="#m3460906c48" x="63.281214" y="142.304" style="stroke: #000000; stroke-width: 0.8"/>
      </g>
     </g>
     <g id="text_9">
      <!-- $\mathdefault{10^{-8}}$ -->
      <g transform="translate(32.781214 146.103219) scale(0.1 -0.1)">
       <defs>
        <path id="DejaVuSans-38" d="M 2034 2216 
Q 1584 2216 1326 1975 
Q 1069 1734 1069 1313 
Q 1069 891 1326 650 
Q 1584 409 2034 409 
Q 2484 409 2743 651 
Q 3003 894 3003 1313 
Q 3003 1734 2745 1975 
Q 2488 2216 2034 2216 
z
M 1403 2484 
Q 997 2584 770 2862 
Q 544 3141 544 3541 
Q 544 4100 942 4425 
Q 1341 4750 2034 4750 
Q 2731 4750 3128 4425 
Q 3525 4100 3525 3541 
Q 3525 3141 3298 2862 
Q 3072 2584 2669 2484 
Q 3125 2378 3379 2068 
Q 3634 1759 3634 1313 
Q 3634 634 3220 271 
Q 2806 -91 2034 -91 
Q 1263 -91 848 271 
Q 434 634 434 1313 
Q 434 1759 690 2068 
Q 947 2378 1403 2484 
z
M 1172 3481 
Q 1172 3119 1398 2916 
Q 1625 2713 2034 2713 
Q 2441 2713 2670 2916 
Q 2900 3119 2900 3481 
Q 2900 3844 2670 4047 
Q 2441 4250 2034 4250 
Q 1625 4250 1398 4047 
Q 1172 3844 1172 3481 
z
" transform="scale(0.015625)"/>
       </defs>
       <use xlink:href="#DejaVuSans-31" transform="translate(0 0.765625)"/>
       <use xlink:href="#DejaVuSans-30" transform="translate(63.623047 0.765625)"/>
       <use xlink:href="#DejaVuSans-2212" transform="translate(128.203125 39.046875) scale(0.7)"/>
       <use xlink:href="#DejaVuSans-38" transform="translate(186.855469 39.046875) scale(0.7)"/>
      </g>
     </g>
    </g>
    <g id="ytick_3">
     <g id="line2d_17">
      <path d="M 63.281214 113.448 
L 306.9 113.448 
" clip-path="url(#p04282fa609)" style="fill: none; stroke-dasharray: 2.22,0.96; stroke-dashoffset: 0; stroke: #b0b0b0; stroke-opacity: 0.7; stroke-width: 0.6"/>
     </g>
     <g id="line2d_18">
      <g>
       <use xlink:href="#m3460906c48" x="63.281214" y="113.448" style="stroke: #000000; stroke-width: 0.8"/>
      </g>
     </g>
     <g id="text_10">
      <!-- $\mathdefault{10^{-6}}$ -->
      <g transform="translate(32.781214 117.247219) scale(0.1 -0.1)">
       <defs>
        <path id="DejaVuSans-36" d="M 2113 2584 
Q 1688 2584 1439 2293 
Q 1191 2003 1191 1497 
Q 1191 994 1439 701 
Q 1688 409 2113 409 
Q 2538 409 2786 701 
Q 3034 994 3034 1497 
Q 3034 2003 2786 2293 
Q 2538 2584 2113 2584 
z
M 3366 4563 
L 3366 3988 
Q 3128 4100 2886 4159 
Q 2644 4219 2406 4219 
Q 1781 4219 1451 3797 
Q 1122 3375 1075 2522 
Q 1259 2794 1537 2939 
Q 1816 3084 2150 3084 
Q 2853 3084 3261 2657 
Q 3669 2231 3669 1497 
Q 3669 778 3244 343 
Q 2819 -91 2113 -91 
Q 1303 -91 875 529 
Q 447 1150 447 2328 
Q 447 3434 972 4092 
Q 1497 4750 2381 4750 
Q 2619 4750 2861 4703 
Q 3103 4656 3366 4563 
z
" transform="scale(0.015625)"/>
       </defs>
       <use xlink:href="#DejaVuSans-31" transform="translate(0 0.765625)"/>
       <use xlink:href="#DejaVuSans-30" transform="translate(63.623047 0.765625)"/>
       <use xlink:href="#DejaVuSans-2212" transform="translate(128.203125 39.046875) scale(0.7)"/>
       <use xlink:href="#DejaVuSans-36" transform="translate(186.855469 39.046875) scale(0.7)"/>
      </g>
     </g>
    </g>
    <g id="ytick_4">
     <g id="line2d_19">
      <path d="M 63.281214 84.592 
L 306.9 84.592 
" clip-path="url(#p04282fa609)" style="fill: none; stroke-dasharray: 2.22,0.96; stroke-dashoffset: 0; stroke: #b0b0b0; stroke-opacity: 0.7; stroke-width: 0.6"/>
     </g>
     <g id="line2d_20">
      <g>
       <use xlink:href="#m3460906c48" x="63.281214" y="84.592" style="stroke: #000000; stroke-width: 0.8"/>
      </g>
     </g>
     <g id="text_11">
      <!-- $\mathdefault{10^{-4}}$ -->
      <g transform="translate(32.781214 88.391219) scale(0.1 -0.1)">
       <use xlink:href="#DejaVuSans-31" transform="translate(0 0.684375)"/>
       <use xlink:href="#DejaVuSans-30" transform="translate(63.623047 0.684375)"/>
       <use xlink:href="#DejaVuSans-2212" transform="translate(128.203125 38.965625) scale(0.7)"/>
       <use xlink:href="#DejaVuSans-34" transform="translate(186.855469 38.965625) scale(0.7)"/>
      </g>
     </g>
    </g>
    <g id="ytick_5">
     <g id="line2d_21">
      <path d="M 63.281214 55.736 
L 306.9 55.736 
" clip-path="url(#p04282fa609)" style="fill: none; stroke-dasharray: 2.22,0.96; stroke-dashoffset: 0; stroke: #b0b0b0; stroke-opacity: 0.7; stroke-width: 0.6"/>
     </g>
     <g id="line2d_22">
      <g>
       <use xlink:href="#m3460906c48" x="63.281214" y="55.736" style="stroke: #000000; stroke-width: 0.8"/>
      </g>
     </g>
     <g id="text_12">
      <!-- $\mathdefault{10^{-2}}$ -->
      <g transform="translate(32.781214 59.535219) scale(0.1 -0.1)">
       <use xlink:href="#DejaVuSans-31" transform="translate(0 0.765625)"/>
       <use xlink:href="#DejaVuSans-30" transform="translate(63.623047 0.765625)"/>
       <use xlink:href="#DejaVuSans-2212" transform="translate(128.203125 39.046875) scale(0.7)"/>
       <use xlink:href="#DejaVuSans-32" transform="translate(186.855469 39.046875) scale(0.7)"/>
      </g>
     </g>
    </g>
    <g id="ytick_6">
     <g id="line2d_23">
      <path d="M 63.281214 26.88 
L 306.9 26.88 
" clip-path="url(#p04282fa609)" style="fill: none; stroke-dasharray: 2.22,0.96; stroke-dashoffset: 0; stroke: #b0b0b0; stroke-opacity: 0.7; stroke-width: 0.6"/>
     </g>
     <g id="line2d_24">
      <g>
       <use xlink:href="#m3460906c48" x="63.281214" y="26.88" style="stroke: #000000; stroke-width: 0.8"/>
      </g>
     </g>
     <g id="text_13">
      <!-- $\mathdefault{10^{0}}$ -->
      <g transform="translate(38.681214 30.679219) scale(0.1 -0.1)">
       <use xlink:href="#DejaVuSans-31" transform="translate(0 0.765625)"/>
       <use xlink:href="#DejaVuSans-30" transform="translate(63.623047 0.765625)"/>
       <use xlink:href="#DejaVuSans-30" transform="translate(128.203125 39.046875) scale(0.7)"/>
      </g>
     </g>
    </g>
    <g id="text_14">
     <!-- Abs[Magnetization] -->
     <g transform="translate(21.885589 157.235937) rotate(-90) scale(0.12 -0.12)">
      <defs>
       <path id="DejaVuSans-41" d="M 2188 4044 
L 1331 1722 
L 3047 1722 
L 2188 4044 
z
M 1831 4666 
L 2547 4666 
L 4325 0 
L 3669 0 
L 3244 1197 
L 1141 1197 
L 716 0 
L 50 0 
L 1831 4666 
z
" transform="scale(0.015625)"/>
       <path id="DejaVuSans-62" d="M 3116 1747 
Q 3116 2381 2855 2742 
Q 2594 3103 2138 3103 
Q 1681 3103 1420 2742 
Q 1159 2381 1159 1747 
Q 1159 1113 1420 752 
Q 1681 391 2138 391 
Q 2594 391 2855 752 
Q 3116 1113 3116 1747 
z
M 1159 2969 
Q 1341 3281 1617 3432 
Q 1894 3584 2278 3584 
Q 2916 3584 3314 3078 
Q 3713 2572 3713 1747 
Q 3713 922 3314 415 
Q 2916 -91 2278 -91 
Q 1894 -91 1617 61 
Q 1341 213 1159 525 
L 1159 0 
L 581 0 
L 581 4863 
L 1159 4863 
L 1159 2969 
z
" transform="scale(0.015625)"/>
       <path id="DejaVuSans-5b" d="M 550 4863 
L 1875 4863 
L 1875 4416 
L 1125 4416 
L 1125 -397 
L 1875 -397 
L 1875 -844 
L 550 -844 
L 550 4863 
z
" transform="scale(0.015625)"/>
       <path id="DejaVuSans-4d" d="M 628 4666 
L 1569 4666 
L 2759 1491 
L 3956 4666 
L 4897 4666 
L 4897 0 
L 4281 0 
L 4281 4097 
L 3078 897 
L 2444 897 
L 1241 4097 
L 1241 0 
L 628 0 
L 628 4666 
z
" transform="scale(0.015625)"/>
       <path id="DejaVuSans-61" d="M 2194 1759 
Q 1497 1759 1228 1600 
Q 959 1441 959 1056 
Q 959 750 1161 570 
Q 1363 391 1709 391 
Q 2188 391 2477 730 
Q 2766 1069 2766 1631 
L 2766 1759 
L 2194 1759 
z
M 3341 1997 
L 3341 0 
L 2766 0 
L 2766 531 
Q 2569 213 2275 61 
Q 1981 -91 1556 -91 
Q 1019 -91 701 211 
Q 384 513 384 1019 
Q 384 1609 779 1909 
Q 1175 2209 1959 2209 
L 2766 2209 
L 2766 2266 
Q 2766 2663 2505 2880 
Q 2244 3097 1772 3097 
Q 1472 3097 1187 3025 
Q 903 2953 641 2809 
L 641 3341 
Q 956 3463 1253 3523 
Q 1550 3584 1831 3584 
Q 2591 3584 2966 3190 
Q 3341 2797 3341 1997 
z
" transform="scale(0.015625)"/>
       <path id="DejaVuSans-67" d="M 2906 1791 
Q 2906 2416 2648 2759 
Q 2391 3103 1925 3103 
Q 1463 3103 1205 2759 
Q 947 2416 947 1791 
Q 947 1169 1205 825 
Q 1463 481 1925 481 
Q 2391 481 2648 825 
Q 2906 1169 2906 1791 
z
M 3481 434 
Q 3481 -459 3084 -895 
Q 2688 -1331 1869 -1331 
Q 1566 -1331 1297 -1286 
Q 1028 -1241 775 -1147 
L 775 -588 
Q 1028 -725 1275 -790 
Q 1522 -856 1778 -856 
Q 2344 -856 2625 -561 
Q 2906 -266 2906 331 
L 2906 616 
Q 2728 306 2450 153 
Q 2172 0 1784 0 
Q 1141 0 747 490 
Q 353 981 353 1791 
Q 353 2603 747 3093 
Q 1141 3584 1784 3584 
Q 2172 3584 2450 3431 
Q 2728 3278 2906 2969 
L 2906 3500 
L 3481 3500 
L 3481 434 
z
" transform="scale(0.015625)"/>
       <path id="DejaVuSans-6e" d="M 3513 2113 
L 3513 0 
L 2938 0 
L 2938 2094 
Q 2938 2591 2744 2837 
Q 2550 3084 2163 3084 
Q 1697 3084 1428 2787 
Q 1159 2491 1159 1978 
L 1159 0 
L 581 0 
L 581 3500 
L 1159 3500 
L 1159 2956 
Q 1366 3272 1645 3428 
Q 1925 3584 2291 3584 
Q 2894 3584 3203 3211 
Q 3513 2838 3513 2113 
z
" transform="scale(0.015625)"/>
       <path id="DejaVuSans-7a" d="M 353 3500 
L 3084 3500 
L 3084 2975 
L 922 459 
L 3084 459 
L 3084 0 
L 275 0 
L 275 525 
L 2438 3041 
L 353 3041 
L 353 3500 
z
" transform="scale(0.015625)"/>
       <path id="DejaVuSans-5d" d="M 1947 4863 
L 1947 -844 
L 622 -844 
L 622 -397 
L 1369 -397 
L 1369 4416 
L 622 4416 
L 622 4863 
L 1947 4863 
z
" transform="scale(0.015625)"/>
      </defs>
      <use xlink:href="#DejaVuSans-41"/>
      <use xlink:href="#DejaVuSans-62" transform="translate(68.408203 0)"/>
      <use xlink:href="#DejaVuSans-73" transform="translate(131.884766 0)"/>
      <use xlink:href="#DejaVuSans-5b" transform="translate(183.984375 0)"/>
      <use xlink:href="#DejaVuSans-4d" transform="translate(222.998047 0)"/>
      <use xlink:href="#DejaVuSans-61" transform="translate(309.277344 0)"/>
      <use xlink:href="#DejaVuSans-67" transform="translate(370.556641 0)"/>
      <use xlink:href="#DejaVuSans-6e" transform="translate(434.033203 0)"/>
      <use xlink:href="#DejaVuSans-65" transform="translate(497.412109 0)"/>
      <use xlink:href="#DejaVuSans-74" transform="translate(558.935547 0)"/>
      <use xlink:href="#DejaVuSans-69" transform="translate(598.144531 0)"/>
      <use xlink:href="#DejaVuSans-7a" transform="translate(625.927734 0)"/>
      <use xlink:href="#DejaVuSans-61" transform="translate(678.417969 0)"/>
      <use xlink:href="#DejaVuSans-74" transform="translate(739.697266 0)"/>
      <use xlink:href="#DejaVuSans-69" transform="translate(778.90625 0)"/>
      <use xlink:href="#DejaVuSans-6f" transform="translate(806.689453 0)"/>
      <use xlink:href="#DejaVuSans-6e" transform="translate(867.871094 0)"/>
      <use xlink:href="#DejaVuSans-5d" transform="translate(931.25 0)"/>
     </g>
    </g>
   </g>
   <g id="line2d_25">
    <defs>
     <path id="mfd8e0397e1" d="M -3 3 
L 3 -3 
M -3 -3 
L 3 3 
" style="stroke: #1a78e0"/>
    </defs>
    <g clip-path="url(#p04282fa609)">
     <use xlink:href="#mfd8e0397e1" x="68.153589" y="36.663225" style="fill-opacity: 0; stroke: #1a78e0"/>
     <use xlink:href="#mfd8e0397e1" x="73.025965" y="40.83778" style="fill-opacity: 0; stroke: #1a78e0"/>
     <use xlink:href="#mfd8e0397e1" x="77.898341" y="53.020022" style="fill-opacity: 0; stroke: #1a78e0"/>
     <use xlink:href="#mfd8e0397e1" x="82.770716" y="69.557484" style="fill-opacity: 0; stroke: #1a78e0"/>
     <use xlink:href="#mfd8e0397e1" x="87.643092" y="89.20696" style="fill-opacity: 0; stroke: #1a78e0"/>
     <use xlink:href="#mfd8e0397e1" x="92.515468" y="111.305463" style="fill-opacity: 0; stroke: #1a78e0"/>
     <use xlink:href="#mfd8e0397e1" x="97.387844" y="135.439673" style="fill-opacity: 0; stroke: #1a78e0"/>
     <use xlink:href="#mfd8e0397e1" x="102.260219" y="161.794222" style="fill-opacity: 0; stroke: #1a78e0"/>
     <use xlink:href="#mfd8e0397e1" x="107.132595" y="178.499154" style="fill-opacity: 0; stroke: #1a78e0"/>
     <use xlink:href="#mfd8e0397e1" x="112.004971" y="177.158654" style="fill-opacity: 0; stroke: #1a78e0"/>
     <use xlink:href="#mfd8e0397e1" x="116.877347" y="172.134401" style="fill-opacity: 0; stroke: #1a78e0"/>
     <use xlink:href="#mfd8e0397e1" x="121.749722" y="155.510787" style="fill-opacity: 0; stroke: #1a78e0"/>
     <use xlink:href="#mfd8e0397e1" x="126.622098" y="138.429902" style="fill-opacity: 0; stroke: #1a78e0"/>
     <use xlink:href="#mfd8e0397e1" x="131.494474" y="124.851941" style="fill-opacity: 0; stroke: #1a78e0"/>
     <use xlink:href="#mfd8e0397e1" x="136.36685" y="117.189519" style="fill-opacity: 0; stroke: #1a78e0"/>
     <use xlink:href="#mfd8e0397e1" x="141.239225" y="122.08813" style="fill-opacity: 0; stroke: #1a78e0"/>
     <use xlink:href="#mfd8e0397e1" x="146.111601" y="115.348271" style="fill-opacity: 0; stroke: #1a78e0"/>
     <use xlink:href="#mfd8e0397e1" x="150.983977" y="123.411286" style="fill-opacity: 0; stroke: #1a78e0"/>
     <use xlink:href="#mfd8e0397e1" x="155.856352" y="119.742754" style="fill-opacity: 0; stroke: #1a78e0"/>
     <use xlink:href="#mfd8e0397e1" x="160.728728" y="128.712206" style="fill-opacity: 0; stroke: #1a78e0"/>
     <use xlink:href="#mfd8e0397e1" x="165.601104" y="143.603381" style="fill-opacity: 0; stroke: #1a78e0"/>
     <use xlink:href="#mfd8e0397e1" x="170.47348" y="161.713289" style="fill-opacity: 0; stroke: #1a78e0"/>
     <use xlink:href="#mfd8e0397e1" x="175.345855" y="175.403329" style="fill-opacity: 0; stroke: #1a78e0"/>
     <use xlink:href="#mfd8e0397e1" x="180.218231" y="177.323897" style="fill-opacity: 0; stroke: #1a78e0"/>
     <use xlink:href="#mfd8e0397e1" x="185.090607" y="177.357475" style="fill-opacity: 0; stroke: #1a78e0"/>
     <use xlink:href="#mfd8e0397e1" x="189.962983" y="177.357475" style="fill-opacity: 0; stroke: #1a78e0"/>
     <use xlink:href="#mfd8e0397e1" x="194.835358" y="177.391234" style="fill-opacity: 0; stroke: #1a78e0"/>
     <use xlink:href="#mfd8e0397e1" x="199.707734" y="177.353735" style="fill-opacity: 0; stroke: #1a78e0"/>
     <use xlink:href="#mfd8e0397e1" x="204.58011" y="177.387474" style="fill-opacity: 0; stroke: #1a78e0"/>
     <use xlink:href="#mfd8e0397e1" x="209.452485" y="177.387474" style="fill-opacity: 0; stroke: #1a78e0"/>
     <use xlink:href="#mfd8e0397e1" x="214.324861" y="177.387474" style="fill-opacity: 0; stroke: #1a78e0"/>
     <use xlink:href="#mfd8e0397e1" x="219.197237" y="177.387474" style="fill-opacity: 0; stroke: #1a78e0"/>
     <use xlink:href="#mfd8e0397e1" x="224.069613" y="177.387474" style="fill-opacity: 0; stroke: #1a78e0"/>
     <use xlink:href="#mfd8e0397e1" x="228.941988" y="177.387474" style="fill-opacity: 0; stroke: #1a78e0"/>
     <use xlink:href="#mfd8e0397e1" x="233.814364" y="177.387474" style="fill-opacity: 0; stroke: #1a78e0"/>
     <use xlink:href="#mfd8e0397e1" x="238.68674" y="177.387474" style="fill-opacity: 0; stroke: #1a78e0"/>
     <use xlink:href="#mfd8e0397e1" x="243.559116" y="177.387474" style="fill-opacity: 0; stroke: #1a78e0"/>
     <use xlink:href="#mfd8e0397e1" x="248.431491" y="177.387474" style="fill-opacity: 0; stroke: #1a78e0"/>
     <use xlink:href="#mfd8e0397e1" x="253.303867" y="177.387474" style="fill-opacity: 0; stroke: #1a78e0"/>
     <use xlink:href="#mfd8e0397e1" x="258.176243" y="177.387474" style="fill-opacity: 0; stroke: #1a78e0"/>
     <use xlink:href="#mfd8e0397e1" x="263.048618" y="177.387474" style="fill-opacity: 0; stroke: #1a78e0"/>
     <use xlink:href="#mfd8e0397e1" x="267.920994" y="177.387474" style="fill-opacity: 0; stroke: #1a78e0"/>
     <use xlink:href="#mfd8e0397e1" x="272.79337" y="177.387474" style="fill-opacity: 0; stroke: #1a78e0"/>
     <use xlink:href="#mfd8e0397e1" x="277.665746" y="177.387474" style="fill-opacity: 0; stroke: #1a78e0"/>
     <use xlink:href="#mfd8e0397e1" x="282.538121" y="177.387474" style="fill-opacity: 0; stroke: #1a78e0"/>
     <use xlink:href="#mfd8e0397e1" x="287.410497" y="177.387474" style="fill-opacity: 0; stroke: #1a78e0"/>
     <use xlink:href="#mfd8e0397e1" x="292.282873" y="177.387474" style="fill-opacity: 0; stroke: #1a78e0"/>
     <use xlink:href="#mfd8e0397e1" x="297.155249" y="177.387474" style="fill-opacity: 0; stroke: #1a78e0"/>
     <use xlink:href="#mfd8e0397e1" x="302.027624" y="177.387474" style="fill-opacity: 0; stroke: #1a78e0"/>
     <use xlink:href="#mfd8e0397e1" x="306.9" y="177.387474" style="fill-opacity: 0; stroke: #1a78e0"/>
     <use xlink:href="#mfd8e0397e1" x="311.772376" y="177.387474" style="fill-opacity: 0; stroke: #1a78e0"/>
     <use xlink:href="#mfd8e0397e1" x="316.644751" y="177.387474" style="fill-opacity: 0; stroke: #1a78e0"/>
     <use xlink:href="#mfd8e0397e1" x="321.517127" y="177.387474" style="fill-opacity: 0; stroke: #1a78e0"/>
     <use xlink:href="#mfd8e0397e1" x="326.389503" y="177.387474" style="fill-opacity: 0; stroke: #1a78e0"/>
     <use xlink:href="#mfd8e0397e1" x="331.261879" y="177.387474" style="fill-opacity: 0; stroke: #1a78e0"/>
     <use xlink:href="#mfd8e0397e1" x="336.134254" y="177.387474" style="fill-opacity: 0; stroke: #1a78e0"/>
     <use xlink:href="#mfd8e0397e1" x="341.00663" y="177.387474" style="fill-opacity: 0; stroke: #1a78e0"/>
     <use xlink:href="#mfd8e0397e1" x="345.879006" y="177.387474" style="fill-opacity: 0; stroke: #1a78e0"/>
     <use xlink:href="#mfd8e0397e1" x="350.751382" y="177.387474" style="fill-opacity: 0; stroke: #1a78e0"/>
     <use xlink:href="#mfd8e0397e1" x="355.623757" y="177.387474" style="fill-opacity: 0; stroke: #1a78e0"/>
     <use xlink:href="#mfd8e0397e1" x="360.496133" y="177.387474" style="fill-opacity: 0; stroke: #1a78e0"/>
     <use xlink:href="#mfd8e0397e1" x="365.368509" y="177.387474" style="fill-opacity: 0; stroke: #1a78e0"/>
     <use xlink:href="#mfd8e0397e1" x="370.240884" y="177.387474" style="fill-opacity: 0; stroke: #1a78e0"/>
     <use xlink:href="#mfd8e0397e1" x="375.11326" y="177.387474" style="fill-opacity: 0; stroke: #1a78e0"/>
     <use xlink:href="#mfd8e0397e1" x="379.985636" y="177.387474" style="fill-opacity: 0; stroke: #1a78e0"/>
     <use xlink:href="#mfd8e0397e1" x="384.858012" y="177.387474" style="fill-opacity: 0; stroke: #1a78e0"/>
     <use xlink:href="#mfd8e0397e1" x="389.730387" y="177.387474" style="fill-opacity: 0; stroke: #1a78e0"/>
     <use xlink:href="#mfd8e0397e1" x="394.602763" y="177.387474" style="fill-opacity: 0; stroke: #1a78e0"/>
     <use xlink:href="#mfd8e0397e1" x="399.475139" y="177.387474" style="fill-opacity: 0; stroke: #1a78e0"/>
     <use xlink:href="#mfd8e0397e1" x="404.347515" y="177.387474" style="fill-opacity: 0; stroke: #1a78e0"/>
     <use xlink:href="#mfd8e0397e1" x="409.21989" y="177.387474" style="fill-opacity: 0; stroke: #1a78e0"/>
     <use xlink:href="#mfd8e0397e1" x="414.092266" y="177.387474" style="fill-opacity: 0; stroke: #1a78e0"/>
     <use xlink:href="#mfd8e0397e1" x="418.964642" y="177.387474" style="fill-opacity: 0; stroke: #1a78e0"/>
     <use xlink:href="#mfd8e0397e1" x="423.837017" y="177.387474" style="fill-opacity: 0; stroke: #1a78e0"/>
     <use xlink:href="#mfd8e0397e1" x="428.709393" y="177.387474" style="fill-opacity: 0; stroke: #1a78e0"/>
     <use xlink:href="#mfd8e0397e1" x="433.581769" y="177.387474" style="fill-opacity: 0; stroke: #1a78e0"/>
     <use xlink:href="#mfd8e0397e1" x="438.454145" y="177.387474" style="fill-opacity: 0; stroke: #1a78e0"/>
     <use xlink:href="#mfd8e0397e1" x="443.32652" y="177.387474" style="fill-opacity: 0; stroke: #1a78e0"/>
     <use xlink:href="#mfd8e0397e1" x="448.198896" y="177.387474" style="fill-opacity: 0; stroke: #1a78e0"/>
     <use xlink:href="#mfd8e0397e1" x="453.071272" y="177.387474" style="fill-opacity: 0; stroke: #1a78e0"/>
     <use xlink:href="#mfd8e0397e1" x="457.943648" y="177.387474" style="fill-opacity: 0; stroke: #1a78e0"/>
     <use xlink:href="#mfd8e0397e1" x="462.816023" y="177.387474" style="fill-opacity: 0; stroke: #1a78e0"/>
     <use xlink:href="#mfd8e0397e1" x="467.688399" y="177.387474" style="fill-opacity: 0; stroke: #1a78e0"/>
     <use xlink:href="#mfd8e0397e1" x="472.560775" y="177.387474" style="fill-opacity: 0; stroke: #1a78e0"/>
     <use xlink:href="#mfd8e0397e1" x="477.43315" y="177.387474" style="fill-opacity: 0; stroke: #1a78e0"/>
     <use xlink:href="#mfd8e0397e1" x="482.305526" y="177.387474" style="fill-opacity: 0; stroke: #1a78e0"/>
     <use xlink:href="#mfd8e0397e1" x="487.177902" y="177.387474" style="fill-opacity: 0; stroke: #1a78e0"/>
     <use xlink:href="#mfd8e0397e1" x="492.050278" y="177.387474" style="fill-opacity: 0; stroke: #1a78e0"/>
     <use xlink:href="#mfd8e0397e1" x="496.922653" y="177.387474" style="fill-opacity: 0; stroke: #1a78e0"/>
     <use xlink:href="#mfd8e0397e1" x="501.795029" y="177.387474" style="fill-opacity: 0; stroke: #1a78e0"/>
     <use xlink:href="#mfd8e0397e1" x="506.667405" y="177.387474" style="fill-opacity: 0; stroke: #1a78e0"/>
     <use xlink:href="#mfd8e0397e1" x="511.539781" y="177.387474" style="fill-opacity: 0; stroke: #1a78e0"/>
     <use xlink:href="#mfd8e0397e1" x="516.412156" y="177.387474" style="fill-opacity: 0; stroke: #1a78e0"/>
     <use xlink:href="#mfd8e0397e1" x="521.284532" y="177.387474" style="fill-opacity: 0; stroke: #1a78e0"/>
     <use xlink:href="#mfd8e0397e1" x="526.156908" y="177.387474" style="fill-opacity: 0; stroke: #1a78e0"/>
     <use xlink:href="#mfd8e0397e1" x="531.029284" y="177.387474" style="fill-opacity: 0; stroke: #1a78e0"/>
     <use xlink:href="#mfd8e0397e1" x="535.901659" y="177.387474" style="fill-opacity: 0; stroke: #1a78e0"/>
    </g>
   </g>
   <g id="line2d_26">
    <defs>
     <path id="m3a9f1bc986" d="M 0 3 
C 0.795609 3 1.55874 2.683901 2.12132 2.12132 
C 2.683901 1.55874 3 0.795609 3 0 
C 3 -0.795609 2.683901 -1.55874 2.12132 -2.12132 
C 1.55874 -2.683901 0.795609 -3 0 -3 
C -0.795609 -3 -1.55874 -2.683901 -2.12132 -2.12132 
C -2.683901 -1.55874 -3 -0.795609 -3 0 
C -3 0.795609 -2.683901 1.55874 -2.12132 2.12132 
C -1.55874 2.683901 -0.795609 3 0 3 
z
" style="stroke: #e62b4f"/>
    </defs>
    <g clip-path="url(#p04282fa609)">
     <use xlink:href="#m3a9f1bc986" x="68.153589" y="36.663545" style="fill-opacity: 0; stroke: #e62b4f"/>
     <use xlink:href="#m3a9f1bc986" x="73.025965" y="40.837561" style="fill-opacity: 0; stroke: #e62b4f"/>
     <use xlink:href="#m3a9f1bc986" x="77.898341" y="53.019527" style="fill-opacity: 0; stroke: #e62b4f"/>
     <use xlink:href="#m3a9f1bc986" x="82.770716" y="69.556775" style="fill-opacity: 0; stroke: #e62b4f"/>
     <use xlink:href="#m3a9f1bc986" x="87.643092" y="89.206065" style="fill-opacity: 0; stroke: #e62b4f"/>
     <use xlink:href="#m3a9f1bc986" x="92.515468" y="111.304373" style="fill-opacity: 0; stroke: #e62b4f"/>
     <use xlink:href="#m3a9f1bc986" x="97.387844" y="135.436994" style="fill-opacity: 0; stroke: #e62b4f"/>
     <use xlink:href="#m3a9f1bc986" x="102.260219" y="161.691146" style="fill-opacity: 0; stroke: #e62b4f"/>
     <use xlink:href="#m3a9f1bc986" x="107.132595" y="180.15391" style="fill-opacity: 0; stroke: #e62b4f"/>
     <use xlink:href="#m3a9f1bc986" x="112.004971" y="178.458886" style="fill-opacity: 0; stroke: #e62b4f"/>
     <use xlink:href="#m3a9f1bc986" x="116.877347" y="172.895634" style="fill-opacity: 0; stroke: #e62b4f"/>
     <use xlink:href="#m3a9f1bc986" x="121.749722" y="155.937399" style="fill-opacity: 0; stroke: #e62b4f"/>
     <use xlink:href="#m3a9f1bc986" x="126.622098" y="138.86144" style="fill-opacity: 0; stroke: #e62b4f"/>
     <use xlink:href="#m3a9f1bc986" x="131.494474" y="125.314411" style="fill-opacity: 0; stroke: #e62b4f"/>
     <use xlink:href="#m3a9f1bc986" x="136.36685" y="117.68754" style="fill-opacity: 0; stroke: #e62b4f"/>
     <use xlink:href="#m3a9f1bc986" x="141.239225" y="122.599785" style="fill-opacity: 0; stroke: #e62b4f"/>
     <use xlink:href="#m3a9f1bc986" x="146.111601" y="115.91352" style="fill-opacity: 0; stroke: #e62b4f"/>
     <use xlink:href="#m3a9f1bc986" x="150.983977" y="124.003145" style="fill-opacity: 0; stroke: #e62b4f"/>
     <use xlink:href="#m3a9f1bc986" x="155.856352" y="120.403428" style="fill-opacity: 0; stroke: #e62b4f"/>
     <use xlink:href="#m3a9f1bc986" x="160.728728" y="129.420869" style="fill-opacity: 0; stroke: #e62b4f"/>
     <use xlink:href="#m3a9f1bc986" x="165.601104" y="144.368152" style="fill-opacity: 0; stroke: #e62b4f"/>
     <use xlink:href="#m3a9f1bc986" x="170.47348" y="162.577787" style="fill-opacity: 0; stroke: #e62b4f"/>
     <use xlink:href="#m3a9f1bc986" x="175.345855" y="176.62402" style="fill-opacity: 0; stroke: #e62b4f"/>
     <use xlink:href="#m3a9f1bc986" x="180.218231" y="178.662861" style="fill-opacity: 0; stroke: #e62b4f"/>
     <use xlink:href="#m3a9f1bc986" x="185.090607" y="178.746347" style="fill-opacity: 0; stroke: #e62b4f"/>
     <use xlink:href="#m3a9f1bc986" x="189.962983" y="178.746347" style="fill-opacity: 0; stroke: #e62b4f"/>
     <use xlink:href="#m3a9f1bc986" x="194.835358" y="178.74168" style="fill-opacity: 0; stroke: #e62b4f"/>
     <use xlink:href="#m3a9f1bc986" x="199.707734" y="178.746347" style="fill-opacity: 0; stroke: #e62b4f"/>
     <use xlink:href="#m3a9f1bc986" x="204.58011" y="178.704465" style="fill-opacity: 0; stroke: #e62b4f"/>
     <use xlink:href="#m3a9f1bc986" x="209.452485" y="178.704465" style="fill-opacity: 0; stroke: #e62b4f"/>
     <use xlink:href="#m3a9f1bc986" x="214.324861" y="178.339615" style="fill-opacity: 0; stroke: #e62b4f"/>
     <use xlink:href="#m3a9f1bc986" x="219.197237" y="172.464793" style="fill-opacity: 0; stroke: #e62b4f"/>
     <use xlink:href="#m3a9f1bc986" x="224.069613" y="157.538647" style="fill-opacity: 0; stroke: #e62b4f"/>
     <use xlink:href="#m3a9f1bc986" x="228.941988" y="143.856522" style="fill-opacity: 0; stroke: #e62b4f"/>
     <use xlink:href="#m3a9f1bc986" x="233.814364" y="135.94711" style="fill-opacity: 0; stroke: #e62b4f"/>
     <use xlink:href="#m3a9f1bc986" x="238.68674" y="140.987623" style="fill-opacity: 0; stroke: #e62b4f"/>
     <use xlink:href="#m3a9f1bc986" x="243.559116" y="133.81218" style="fill-opacity: 0; stroke: #e62b4f"/>
     <use xlink:href="#m3a9f1bc986" x="248.431491" y="141.949772" style="fill-opacity: 0; stroke: #e62b4f"/>
     <use xlink:href="#m3a9f1bc986" x="253.303867" y="137.896284" style="fill-opacity: 0; stroke: #e62b4f"/>
     <use xlink:href="#m3a9f1bc986" x="258.176243" y="146.772329" style="fill-opacity: 0; stroke: #e62b4f"/>
     <use xlink:href="#m3a9f1bc986" x="263.048618" y="161.273713" style="fill-opacity: 0; stroke: #e62b4f"/>
     <use xlink:href="#m3a9f1bc986" x="267.920994" y="175.114325" style="fill-opacity: 0; stroke: #e62b4f"/>
     <use xlink:href="#m3a9f1bc986" x="272.79337" y="178.575927" style="fill-opacity: 0; stroke: #e62b4f"/>
     <use xlink:href="#m3a9f1bc986" x="277.665746" y="178.788511" style="fill-opacity: 0; stroke: #e62b4f"/>
     <use xlink:href="#m3a9f1bc986" x="282.538121" y="178.746347" style="fill-opacity: 0; stroke: #e62b4f"/>
     <use xlink:href="#m3a9f1bc986" x="287.410497" y="178.704465" style="fill-opacity: 0; stroke: #e62b4f"/>
     <use xlink:href="#m3a9f1bc986" x="292.282873" y="178.704465" style="fill-opacity: 0; stroke: #e62b4f"/>
     <use xlink:href="#m3a9f1bc986" x="297.155249" y="178.704465" style="fill-opacity: 0; stroke: #e62b4f"/>
     <use xlink:href="#m3a9f1bc986" x="302.027624" y="178.704465" style="fill-opacity: 0; stroke: #e62b4f"/>
     <use xlink:href="#m3a9f1bc986" x="306.9" y="178.704465" style="fill-opacity: 0; stroke: #e62b4f"/>
     <use xlink:href="#m3a9f1bc986" x="311.772376" y="178.704465" style="fill-opacity: 0; stroke: #e62b4f"/>
     <use xlink:href="#m3a9f1bc986" x="316.644751" y="178.704465" style="fill-opacity: 0; stroke: #e62b4f"/>
     <use xlink:href="#m3a9f1bc986" x="321.517127" y="178.704465" style="fill-opacity: 0; stroke: #e62b4f"/>
     <use xlink:href="#m3a9f1bc986" x="326.389503" y="178.704465" style="fill-opacity: 0; stroke: #e62b4f"/>
     <use xlink:href="#m3a9f1bc986" x="331.261879" y="178.704465" style="fill-opacity: 0; stroke: #e62b4f"/>
     <use xlink:href="#m3a9f1bc986" x="336.134254" y="178.704465" style="fill-opacity: 0; stroke: #e62b4f"/>
     <use xlink:href="#m3a9f1bc986" x="341.00663" y="178.704465" style="fill-opacity: 0; stroke: #e62b4f"/>
     <use xlink:href="#m3a9f1bc986" x="345.879006" y="178.704465" style="fill-opacity: 0; stroke: #e62b4f"/>
     <use xlink:href="#m3a9f1bc986" x="350.751382" y="178.704465" style="fill-opacity: 0; stroke: #e62b4f"/>
     <use xlink:href="#m3a9f1bc986" x="355.623757" y="178.704465" style="fill-opacity: 0; stroke: #e62b4f"/>
     <use xlink:href="#m3a9f1bc986" x="360.496133" y="178.704465" style="fill-opacity: 0; stroke: #e62b4f"/>
     <use xlink:href="#m3a9f1bc986" x="365.368509" y="178.704465" style="fill-opacity: 0; stroke: #e62b4f"/>
     <use xlink:href="#m3a9f1bc986" x="370.240884" y="178.704465" style="fill-opacity: 0; stroke: #e62b4f"/>
     <use xlink:href="#m3a9f1bc986" x="375.11326" y="178.704465" style="fill-opacity: 0; stroke: #e62b4f"/>
     <use xlink:href="#m3a9f1bc986" x="379.985636" y="178.704465" style="fill-opacity: 0; stroke: #e62b4f"/>
     <use xlink:href="#m3a9f1bc986" x="384.858012" y="178.704465" style="fill-opacity: 0; stroke: #e62b4f"/>
     <use xlink:href="#m3a9f1bc986" x="389.730387" y="178.704465" style="fill-opacity: 0; stroke: #e62b4f"/>
     <use xlink:href="#m3a9f1bc986" x="394.602763" y="178.704465" style="fill-opacity: 0; stroke: #e62b4f"/>
     <use xlink:href="#m3a9f1bc986" x="399.475139" y="178.704465" style="fill-opacity: 0; stroke: #e62b4f"/>
     <use xlink:href="#m3a9f1bc986" x="404.347515" y="178.704465" style="fill-opacity: 0; stroke: #e62b4f"/>
     <use xlink:href="#m3a9f1bc986" x="409.21989" y="178.704465" style="fill-opacity: 0; stroke: #e62b4f"/>
     <use xlink:href="#m3a9f1bc986" x="414.092266" y="178.704465" style="fill-opacity: 0; stroke: #e62b4f"/>
     <use xlink:href="#m3a9f1bc986" x="418.964642" y="178.704465" style="fill-opacity: 0; stroke: #e62b4f"/>
     <use xlink:href="#m3a9f1bc986" x="423.837017" y="178.704465" style="fill-opacity: 0; stroke: #e62b4f"/>
     <use xlink:href="#m3a9f1bc986" x="428.709393" y="178.704465" style="fill-opacity: 0; stroke: #e62b4f"/>
     <use xlink:href="#m3a9f1bc986" x="433.581769" y="178.704465" style="fill-opacity: 0; stroke: #e62b4f"/>
     <use xlink:href="#m3a9f1bc986" x="438.454145" y="178.704465" style="fill-opacity: 0; stroke: #e62b4f"/>
     <use xlink:href="#m3a9f1bc986" x="443.32652" y="178.704465" style="fill-opacity: 0; stroke: #e62b4f"/>
     <use xlink:href="#m3a9f1bc986" x="448.198896" y="178.704465" style="fill-opacity: 0; stroke: #e62b4f"/>
     <use xlink:href="#m3a9f1bc986" x="453.071272" y="178.704465" style="fill-opacity: 0; stroke: #e62b4f"/>
     <use xlink:href="#m3a9f1bc986" x="457.943648" y="178.704465" style="fill-opacity: 0; stroke: #e62b4f"/>
     <use xlink:href="#m3a9f1bc986" x="462.816023" y="178.704465" style="fill-opacity: 0; stroke: #e62b4f"/>
     <use xlink:href="#m3a9f1bc986" x="467.688399" y="178.704465" style="fill-opacity: 0; stroke: #e62b4f"/>
     <use xlink:href="#m3a9f1bc986" x="472.560775" y="178.704465" style="fill-opacity: 0; stroke: #e62b4f"/>
     <use xlink:href="#m3a9f1bc986" x="477.43315" y="178.704465" style="fill-opacity: 0; stroke: #e62b4f"/>
     <use xlink:href="#m3a9f1bc986" x="482.305526" y="178.704465" style="fill-opacity: 0; stroke: #e62b4f"/>
     <use xlink:href="#m3a9f1bc986" x="487.177902" y="178.704465" style="fill-opacity: 0; stroke: #e62b4f"/>
     <use xlink:href="#m3a9f1bc986" x="492.050278" y="178.704465" style="fill-opacity: 0; stroke: #e62b4f"/>
     <use xlink:href="#m3a9f1bc986" x="496.922653" y="178.704465" style="fill-opacity: 0; stroke: #e62b4f"/>
     <use xlink:href="#m3a9f1bc986" x="501.795029" y="178.704465" style="fill-opacity: 0; stroke: #e62b4f"/>
     <use xlink:href="#m3a9f1bc986" x="506.667405" y="178.704465" style="fill-opacity: 0; stroke: #e62b4f"/>
     <use xlink:href="#m3a9f1bc986" x="511.539781" y="178.704465" style="fill-opacity: 0; stroke: #e62b4f"/>
     <use xlink:href="#m3a9f1bc986" x="516.412156" y="178.704465" style="fill-opacity: 0; stroke: #e62b4f"/>
     <use xlink:href="#m3a9f1bc986" x="521.284532" y="178.704465" style="fill-opacity: 0; stroke: #e62b4f"/>
     <use xlink:href="#m3a9f1bc986" x="526.156908" y="178.704465" style="fill-opacity: 0; stroke: #e62b4f"/>
     <use xlink:href="#m3a9f1bc986" x="531.029284" y="178.704465" style="fill-opacity: 0; stroke: #e62b4f"/>
     <use xlink:href="#m3a9f1bc986" x="535.901659" y="178.704465" style="fill-opacity: 0; stroke: #e62b4f"/>
    </g>
   </g>
   <g id="line2d_27">
    <defs>
     <path id="mb73373a8d4" d="M 0 -3 
L -3 3 
L 3 3 
z
" style="stroke: #00994c; stroke-linejoin: miter"/>
    </defs>
    <g clip-path="url(#p04282fa609)">
     <use xlink:href="#mb73373a8d4" x="68.153589" y="37.122797" style="fill-opacity: 0; stroke: #00994c; stroke-linejoin: miter"/>
     <use xlink:href="#mb73373a8d4" x="73.025965" y="40.880227" style="fill-opacity: 0; stroke: #00994c; stroke-linejoin: miter"/>
     <use xlink:href="#mb73373a8d4" x="77.898341" y="53.013843" style="fill-opacity: 0; stroke: #00994c; stroke-linejoin: miter"/>
     <use xlink:href="#mb73373a8d4" x="82.770716" y="69.536153" style="fill-opacity: 0; stroke: #00994c; stroke-linejoin: miter"/>
     <use xlink:href="#mb73373a8d4" x="87.643092" y="89.17852" style="fill-opacity: 0; stroke: #00994c; stroke-linejoin: miter"/>
     <use xlink:href="#mb73373a8d4" x="92.515468" y="111.272813" style="fill-opacity: 0; stroke: #00994c; stroke-linejoin: miter"/>
     <use xlink:href="#mb73373a8d4" x="97.387844" y="135.396578" style="fill-opacity: 0; stroke: #00994c; stroke-linejoin: miter"/>
     <use xlink:href="#mb73373a8d4" x="102.260219" y="161.229922" style="fill-opacity: 0; stroke: #00994c; stroke-linejoin: miter"/>
     <use xlink:href="#mb73373a8d4" x="107.132595" y="186.668954" style="fill-opacity: 0; stroke: #00994c; stroke-linejoin: miter"/>
     <use xlink:href="#mb73373a8d4" x="112.004971" y="194.535322" style="fill-opacity: 0; stroke: #00994c; stroke-linejoin: miter"/>
     <use xlink:href="#mb73373a8d4" x="116.877347" y="195.080536" style="fill-opacity: 0; stroke: #00994c; stroke-linejoin: miter"/>
     <use xlink:href="#mb73373a8d4" x="121.749722" y="195.01756" style="fill-opacity: 0; stroke: #00994c; stroke-linejoin: miter"/>
     <use xlink:href="#mb73373a8d4" x="126.622098" y="195.080536" style="fill-opacity: 0; stroke: #00994c; stroke-linejoin: miter"/>
     <use xlink:href="#mb73373a8d4" x="131.494474" y="194.535322" style="fill-opacity: 0; stroke: #00994c; stroke-linejoin: miter"/>
     <use xlink:href="#mb73373a8d4" x="136.36685" y="195.608511" style="fill-opacity: 0; stroke: #00994c; stroke-linejoin: miter"/>
     <use xlink:href="#mb73373a8d4" x="141.239225" y="197.912675" style="fill-opacity: 0; stroke: #00994c; stroke-linejoin: miter"/>
     <use xlink:href="#mb73373a8d4" x="146.111601" y="196.337939" style="fill-opacity: 0; stroke: #00994c; stroke-linejoin: miter"/>
     <use xlink:href="#mb73373a8d4" x="150.983977" y="197.075967" style="fill-opacity: 0; stroke: #00994c; stroke-linejoin: miter"/>
     <use xlink:href="#mb73373a8d4" x="155.856352" y="196.337939" style="fill-opacity: 0; stroke: #00994c; stroke-linejoin: miter"/>
     <use xlink:href="#mb73373a8d4" x="160.728728" y="195.67775" style="fill-opacity: 0; stroke: #00994c; stroke-linejoin: miter"/>
     <use xlink:href="#mb73373a8d4" x="165.601104" y="195.080536" style="fill-opacity: 0; stroke: #00994c; stroke-linejoin: miter"/>
     <use xlink:href="#mb73373a8d4" x="170.47348" y="195.01756" style="fill-opacity: 0; stroke: #00994c; stroke-linejoin: miter"/>
     <use xlink:href="#mb73373a8d4" x="175.345855" y="195.080536" style="fill-opacity: 0; stroke: #00994c; stroke-linejoin: miter"/>
     <use xlink:href="#mb73373a8d4" x="180.218231" y="195.01756" style="fill-opacity: 0; stroke: #00994c; stroke-linejoin: miter"/>
     <use xlink:href="#mb73373a8d4" x="185.090607" y="194.535322" style="fill-opacity: 0; stroke: #00994c; stroke-linejoin: miter"/>
     <use xlink:href="#mb73373a8d4" x="189.962983" y="195.080536" style="fill-opacity: 0; stroke: #00994c; stroke-linejoin: miter"/>
     <use xlink:href="#mb73373a8d4" x="194.835358" y="194.535322" style="fill-opacity: 0; stroke: #00994c; stroke-linejoin: miter"/>
     <use xlink:href="#mb73373a8d4" x="199.707734" y="195.080536" style="fill-opacity: 0; stroke: #00994c; stroke-linejoin: miter"/>
     <use xlink:href="#mb73373a8d4" x="204.58011" y="194.535322" style="fill-opacity: 0; stroke: #00994c; stroke-linejoin: miter"/>
     <use xlink:href="#mb73373a8d4" x="209.452485" y="195.01756" style="fill-opacity: 0; stroke: #00994c; stroke-linejoin: miter"/>
     <use xlink:href="#mb73373a8d4" x="214.324861" y="194.535322" style="fill-opacity: 0; stroke: #00994c; stroke-linejoin: miter"/>
     <use xlink:href="#mb73373a8d4" x="219.197237" y="195.01756" style="fill-opacity: 0; stroke: #00994c; stroke-linejoin: miter"/>
     <use xlink:href="#mb73373a8d4" x="224.069613" y="194.535322" style="fill-opacity: 0; stroke: #00994c; stroke-linejoin: miter"/>
     <use xlink:href="#mb73373a8d4" x="228.941988" y="195.080536" style="fill-opacity: 0; stroke: #00994c; stroke-linejoin: miter"/>
     <use xlink:href="#mb73373a8d4" x="233.814364" y="195.01756" style="fill-opacity: 0; stroke: #00994c; stroke-linejoin: miter"/>
     <use xlink:href="#mb73373a8d4" x="238.68674" y="197.075967" style="fill-opacity: 0; stroke: #00994c; stroke-linejoin: miter"/>
     <use xlink:href="#mb73373a8d4" x="243.559116" y="195.67775" style="fill-opacity: 0; stroke: #00994c; stroke-linejoin: miter"/>
     <use xlink:href="#mb73373a8d4" x="248.431491" y="196.989538" style="fill-opacity: 0; stroke: #00994c; stroke-linejoin: miter"/>
     <use xlink:href="#mb73373a8d4" x="253.303867" y="195.01756" style="fill-opacity: 0; stroke: #00994c; stroke-linejoin: miter"/>
     <use xlink:href="#mb73373a8d4" x="258.176243" y="195.080536" style="fill-opacity: 0; stroke: #00994c; stroke-linejoin: miter"/>
     <use xlink:href="#mb73373a8d4" x="263.048618" y="195.080536" style="fill-opacity: 0; stroke: #00994c; stroke-linejoin: miter"/>
     <use xlink:href="#mb73373a8d4" x="267.920994" y="195.01756" style="fill-opacity: 0; stroke: #00994c; stroke-linejoin: miter"/>
     <use xlink:href="#mb73373a8d4" x="272.79337" y="194.535322" style="fill-opacity: 0; stroke: #00994c; stroke-linejoin: miter"/>
     <use xlink:href="#mb73373a8d4" x="277.665746" y="195.01756" style="fill-opacity: 0; stroke: #00994c; stroke-linejoin: miter"/>
     <use xlink:href="#mb73373a8d4" x="282.538121" y="195.080536" style="fill-opacity: 0; stroke: #00994c; stroke-linejoin: miter"/>
     <use xlink:href="#mb73373a8d4" x="287.410497" y="195.080536" style="fill-opacity: 0; stroke: #00994c; stroke-linejoin: miter"/>
     <use xlink:href="#mb73373a8d4" x="292.282873" y="195.080536" style="fill-opacity: 0; stroke: #00994c; stroke-linejoin: miter"/>
    </g>
   </g>
   <g id="line2d_28">
    <path d="M 68.153589 34.728263 
L 69.522417 36.537448 
L 71.005314 38.87635 
L 72.60228 41.815122 
L 74.313315 45.426936 
L 76.138419 49.78783 
L 78.191661 55.299237 
L 80.358972 61.789763 
L 82.640352 69.345921 
L 85.035801 78.056713 
L 87.545319 88.013557 
L 90.282975 99.821632 
L 93.1347 113.146713 
L 96.100494 128.089357 
L 99.180356 144.752306 
L 102.260219 162.559245 
L 102.260219 162.559245 
" clip-path="url(#p04282fa609)" style="fill: none; stroke-dasharray: 7.4,3.2; stroke-dashoffset: 0; stroke: #00bfbf; stroke-width: 2"/>
   </g>
   <g id="patch_3">
    <path d="M 63.281214 171.16 
L 63.281214 26.88 
" style="fill: none; stroke: #000000; stroke-width: 0.8; stroke-linejoin: miter; stroke-linecap: square"/>
   </g>
   <g id="patch_4">
    <path d="M 306.9 171.16 
L 306.9 26.88 
" style="fill: none; stroke: #000000; stroke-width: 0.8; stroke-linejoin: miter; stroke-linecap: square"/>
   </g>
   <g id="patch_5">
    <path d="M 63.281214 171.16 
L 306.9 171.16 
" style="fill: none; stroke: #000000; stroke-width: 0.8; stroke-linejoin: miter; stroke-linecap: square"/>
   </g>
   <g id="patch_6">
    <path d="M 63.281214 26.88 
L 306.9 26.88 
" style="fill: none; stroke: #000000; stroke-width: 0.8; stroke-linejoin: miter; stroke-linecap: square"/>
   </g>
   <g id="text_15">
    <!-- Outside Light Cone Profiles at t=1 -->
    <g transform="translate(83.050294 20.88) scale(0.12 -0.12)">
     <defs>
      <path id="DejaVuSans-4f" d="M 2522 4238 
Q 1834 4238 1429 3725 
Q 1025 3213 1025 2328 
Q 1025 1447 1429 934 
Q 1834 422 2522 422 
Q 3209 422 3611 934 
Q 4013 1447 4013 2328 
Q 4013 3213 3611 3725 
Q 3209 4238 2522 4238 
z
M 2522 4750 
Q 3503 4750 4090 4092 
Q 4678 3434 4678 2328 
Q 4678 1225 4090 567 
Q 3503 -91 2522 -91 
Q 1538 -91 948 565 
Q 359 1222 359 2328 
Q 359 3434 948 4092 
Q 1538 4750 2522 4750 
z
" transform="scale(0.015625)"/>
      <path id="DejaVuSans-75" d="M 544 1381 
L 544 3500 
L 1119 3500 
L 1119 1403 
Q 1119 906 1312 657 
Q 1506 409 1894 409 
Q 2359 409 2629 706 
Q 2900 1003 2900 1516 
L 2900 3500 
L 3475 3500 
L 3475 0 
L 2900 0 
L 2900 538 
Q 2691 219 2414 64 
Q 2138 -91 1772 -91 
Q 1169 -91 856 284 
Q 544 659 544 1381 
z
M 1991 3584 
L 1991 3584 
z
" transform="scale(0.015625)"/>
      <path id="DejaVuSans-64" d="M 2906 2969 
L 2906 4863 
L 3481 4863 
L 3481 0 
L 2906 0 
L 2906 525 
Q 2725 213 2448 61 
Q 2172 -91 1784 -91 
Q 1150 -91 751 415 
Q 353 922 353 1747 
Q 353 2572 751 3078 
Q 1150 3584 1784 3584 
Q 2172 3584 2448 3432 
Q 2725 3281 2906 2969 
z
M 947 1747 
Q 947 1113 1208 752 
Q 1469 391 1925 391 
Q 2381 391 2643 752 
Q 2906 1113 2906 1747 
Q 2906 2381 2643 2742 
Q 2381 3103 1925 3103 
Q 1469 3103 1208 2742 
Q 947 2381 947 1747 
z
" transform="scale(0.015625)"/>
      <path id="DejaVuSans-4c" d="M 628 4666 
L 1259 4666 
L 1259 531 
L 3531 531 
L 3531 0 
L 628 0 
L 628 4666 
z
" transform="scale(0.015625)"/>
      <path id="DejaVuSans-68" d="M 3513 2113 
L 3513 0 
L 2938 0 
L 2938 2094 
Q 2938 2591 2744 2837 
Q 2550 3084 2163 3084 
Q 1697 3084 1428 2787 
Q 1159 2491 1159 1978 
L 1159 0 
L 581 0 
L 581 4863 
L 1159 4863 
L 1159 2956 
Q 1366 3272 1645 3428 
Q 1925 3584 2291 3584 
Q 2894 3584 3203 3211 
Q 3513 2838 3513 2113 
z
" transform="scale(0.015625)"/>
      <path id="DejaVuSans-43" d="M 4122 4306 
L 4122 3641 
Q 3803 3938 3442 4084 
Q 3081 4231 2675 4231 
Q 1875 4231 1450 3742 
Q 1025 3253 1025 2328 
Q 1025 1406 1450 917 
Q 1875 428 2675 428 
Q 3081 428 3442 575 
Q 3803 722 4122 1019 
L 4122 359 
Q 3791 134 3420 21 
Q 3050 -91 2638 -91 
Q 1578 -91 968 557 
Q 359 1206 359 2328 
Q 359 3453 968 4101 
Q 1578 4750 2638 4750 
Q 3056 4750 3426 4639 
Q 3797 4528 4122 4306 
z
" transform="scale(0.015625)"/>
      <path id="DejaVuSans-50" d="M 1259 4147 
L 1259 2394 
L 2053 2394 
Q 2494 2394 2734 2622 
Q 2975 2850 2975 3272 
Q 2975 3691 2734 3919 
Q 2494 4147 2053 4147 
L 1259 4147 
z
M 628 4666 
L 2053 4666 
Q 2838 4666 3239 4311 
Q 3641 3956 3641 3272 
Q 3641 2581 3239 2228 
Q 2838 1875 2053 1875 
L 1259 1875 
L 1259 0 
L 628 0 
L 628 4666 
z
" transform="scale(0.015625)"/>
      <path id="DejaVuSans-6c" d="M 603 4863 
L 1178 4863 
L 1178 0 
L 603 0 
L 603 4863 
z
" transform="scale(0.015625)"/>
      <path id="DejaVuSans-3d" d="M 678 2906 
L 4684 2906 
L 4684 2381 
L 678 2381 
L 678 2906 
z
M 678 1631 
L 4684 1631 
L 4684 1100 
L 678 1100 
L 678 1631 
z
" transform="scale(0.015625)"/>
     </defs>
     <use xlink:href="#DejaVuSans-4f"/>
     <use xlink:href="#DejaVuSans-75" transform="translate(78.710938 0)"/>
     <use xlink:href="#DejaVuSans-74" transform="translate(142.089844 0)"/>
     <use xlink:href="#DejaVuSans-73" transform="translate(181.298828 0)"/>
     <use xlink:href="#DejaVuSans-69" transform="translate(233.398438 0)"/>
     <use xlink:href="#DejaVuSans-64" transform="translate(261.181641 0)"/>
     <use xlink:href="#DejaVuSans-65" transform="translate(324.658203 0)"/>
     <use xlink:href="#DejaVuSans-20" transform="translate(386.181641 0)"/>
     <use xlink:href="#DejaVuSans-4c" transform="translate(417.96875 0)"/>
     <use xlink:href="#DejaVuSans-69" transform="translate(473.681641 0)"/>
     <use xlink:href="#DejaVuSans-67" transform="translate(501.464844 0)"/>
     <use xlink:href="#DejaVuSans-68" transform="translate(564.941406 0)"/>
     <use xlink:href="#DejaVuSans-74" transform="translate(628.320312 0)"/>
     <use xlink:href="#DejaVuSans-20" transform="translate(667.529297 0)"/>
     <use xlink:href="#DejaVuSans-43" transform="translate(699.316406 0)"/>
     <use xlink:href="#DejaVuSans-6f" transform="translate(769.140625 0)"/>
     <use xlink:href="#DejaVuSans-6e" transform="translate(830.322266 0)"/>
     <use xlink:href="#DejaVuSans-65" transform="translate(893.701172 0)"/>
     <use xlink:href="#DejaVuSans-20" transform="translate(955.224609 0)"/>
     <use xlink:href="#DejaVuSans-50" transform="translate(987.011719 0)"/>
     <use xlink:href="#DejaVuSans-72" transform="translate(1045.564453 0)"/>
     <use xlink:href="#DejaVuSans-6f" transform="translate(1084.427734 0)"/>
     <use xlink:href="#DejaVuSans-66" transform="translate(1145.609375 0)"/>
     <use xlink:href="#DejaVuSans-69" transform="translate(1180.814453 0)"/>
     <use xlink:href="#DejaVuSans-6c" transform="translate(1208.597656 0)"/>
     <use xlink:href="#DejaVuSans-65" transform="translate(1236.380859 0)"/>
     <use xlink:href="#DejaVuSans-73" transform="translate(1297.904297 0)"/>
     <use xlink:href="#DejaVuSans-20" transform="translate(1350.003906 0)"/>
     <use xlink:href="#DejaVuSans-61" transform="translate(1381.791016 0)"/>
     <use xlink:href="#DejaVuSans-74" transform="translate(1443.070312 0)"/>
     <use xlink:href="#DejaVuSans-20" transform="translate(1482.279297 0)"/>
     <use xlink:href="#DejaVuSans-74" transform="translate(1514.066406 0)"/>
     <use xlink:href="#DejaVuSans-3d" transform="translate(1553.275391 0)"/>
     <use xlink:href="#DejaVuSans-31" transform="translate(1637.064453 0)"/>
    </g>
   </g>
   <g id="legend_1">
    <g id="patch_7">
     <path d="M 207.72 87.570938 
L 300.6 87.570938 
Q 302.4 87.570938 302.4 85.770938 
L 302.4 33.18 
Q 302.4 31.38 300.6 31.38 
L 207.72 31.38 
Q 205.92 31.38 205.92 33.18 
L 205.92 85.770938 
Q 205.92 87.570938 207.72 87.570938 
z
" style="fill: #ffffff; opacity: 0.8; stroke: #cccccc; stroke-linejoin: miter"/>
    </g>
    <g id="line2d_29">
     <g>
      <use xlink:href="#mfd8e0397e1" x="218.52" y="38.668594" style="fill-opacity: 0; stroke: #1a78e0"/>
     </g>
    </g>
    <g id="text_16">
     <!-- $b$=2, $\alpha=0.5$ -->
     <g transform="translate(234.72 41.818594) scale(0.09 -0.09)">
      <defs>
       <path id="DejaVuSans-Oblique-62" d="M 3169 2138 
Q 3169 2591 2961 2847 
Q 2753 3103 2388 3103 
Q 2122 3103 1889 2973 
Q 1656 2844 1484 2597 
Q 1303 2338 1198 1995 
Q 1094 1653 1094 1313 
Q 1094 881 1298 636 
Q 1503 391 1863 391 
Q 2134 391 2365 517 
Q 2597 644 2772 891 
Q 2950 1147 3059 1487 
Q 3169 1828 3169 2138 
z
M 1381 2969 
Q 1594 3256 1914 3420 
Q 2234 3584 2584 3584 
Q 3122 3584 3439 3221 
Q 3756 2859 3756 2241 
Q 3756 1734 3570 1259 
Q 3384 784 3041 416 
Q 2816 172 2522 40 
Q 2228 -91 1906 -91 
Q 1566 -91 1316 65 
Q 1066 222 909 531 
L 806 0 
L 231 0 
L 1178 4863 
L 1753 4863 
L 1381 2969 
z
" transform="scale(0.015625)"/>
       <path id="DejaVuSans-2c" d="M 750 794 
L 1409 794 
L 1409 256 
L 897 -744 
L 494 -744 
L 750 256 
L 750 794 
z
" transform="scale(0.015625)"/>
       <path id="DejaVuSans-Oblique-3b1" d="M 2619 1628 
L 2622 2350 
Q 2625 3088 2069 3091 
Q 1653 3094 1394 2747 
Q 1069 2319 959 1747 
Q 825 1059 994 731 
Q 1169 397 1547 397 
Q 1966 397 2319 1063 
L 2619 1628 
z
M 2166 3578 
Q 3141 3594 3128 2584 
Q 3128 2584 3616 3500 
L 4128 3500 
L 3119 1603 
L 3109 919 
Q 3109 766 3194 638 
Q 3291 488 3391 488 
L 3669 488 
L 3575 0 
L 3228 0 
Q 2934 0 2722 263 
Q 2622 394 2619 669 
Q 2416 334 2066 50 
Q 1900 -81 1453 -78 
Q 722 -72 456 397 
Q 184 884 353 1747 
Q 534 2675 1009 3097 
Q 1544 3569 2166 3578 
z
" transform="scale(0.015625)"/>
       <path id="DejaVuSans-2e" d="M 684 794 
L 1344 794 
L 1344 0 
L 684 0 
L 684 794 
z
" transform="scale(0.015625)"/>
      </defs>
      <use xlink:href="#DejaVuSans-Oblique-62" transform="translate(0 0.015625)"/>
      <use xlink:href="#DejaVuSans-3d" transform="translate(63.476562 0.015625)"/>
      <use xlink:href="#DejaVuSans-32" transform="translate(147.265625 0.015625)"/>
      <use xlink:href="#DejaVuSans-2c" transform="translate(210.888672 0.015625)"/>
      <use xlink:href="#DejaVuSans-20" transform="translate(242.675781 0.015625)"/>
      <use xlink:href="#DejaVuSans-Oblique-3b1" transform="translate(274.462891 0.015625)"/>
      <use xlink:href="#DejaVuSans-3d" transform="translate(359.863281 0.015625)"/>
      <use xlink:href="#DejaVuSans-30" transform="translate(463.134766 0.015625)"/>
      <use xlink:href="#DejaVuSans-2e" transform="translate(526.757812 0.015625)"/>
      <use xlink:href="#DejaVuSans-35" transform="translate(558.544922 0.015625)"/>
     </g>
    </g>
    <g id="line2d_30">
     <g>
      <use xlink:href="#m3a9f1bc986" x="218.52" y="51.878906" style="fill-opacity: 0; stroke: #e62b4f"/>
     </g>
    </g>
    <g id="text_17">
     <!-- $b$=3, $\alpha=0.5$ -->
     <g transform="translate(234.72 55.028906) scale(0.09 -0.09)">
      <use xlink:href="#DejaVuSans-Oblique-62" transform="translate(0 0.015625)"/>
      <use xlink:href="#DejaVuSans-3d" transform="translate(63.476562 0.015625)"/>
      <use xlink:href="#DejaVuSans-33" transform="translate(147.265625 0.015625)"/>
      <use xlink:href="#DejaVuSans-2c" transform="translate(210.888672 0.015625)"/>
      <use xlink:href="#DejaVuSans-20" transform="translate(242.675781 0.015625)"/>
      <use xlink:href="#DejaVuSans-Oblique-3b1" transform="translate(274.462891 0.015625)"/>
      <use xlink:href="#DejaVuSans-3d" transform="translate(359.863281 0.015625)"/>
      <use xlink:href="#DejaVuSans-30" transform="translate(463.134766 0.015625)"/>
      <use xlink:href="#DejaVuSans-2e" transform="translate(526.757812 0.015625)"/>
      <use xlink:href="#DejaVuSans-35" transform="translate(558.544922 0.015625)"/>
     </g>
    </g>
    <g id="line2d_31">
     <g>
      <use xlink:href="#mb73373a8d4" x="218.52" y="65.089219" style="fill-opacity: 0; stroke: #00994c; stroke-linejoin: miter"/>
     </g>
    </g>
    <g id="text_18">
     <!-- $b=3, \alpha\to\infty$ -->
     <g transform="translate(234.72 68.239219) scale(0.09 -0.09)">
      <defs>
       <path id="DejaVuSans-2192" d="M 5050 2147 
L 5050 1866 
L 3822 638 
L 3447 1013 
L 4175 1741 
L 366 1741 
L 366 2272 
L 4175 2272 
L 3447 3000 
L 3822 3375 
L 5050 2147 
z
" transform="scale(0.015625)"/>
       <path id="DejaVuSans-221e" d="M 2916 1091 
Q 2819 1203 2666 1466 
Q 2456 1091 2272 925 
Q 2041 725 1681 725 
Q 1259 725 981 1041 
Q 688 1372 688 1919 
Q 688 2444 981 2800 
Q 1244 3116 1688 3116 
Q 1916 3116 2084 3022 
Q 2281 2919 2416 2741 
Q 2541 2581 2666 2366 
Q 2875 2741 3059 2906 
Q 3291 3106 3650 3106 
Q 4072 3106 4350 2791 
Q 4644 2459 4644 1913 
Q 4644 1388 4350 1031 
Q 4088 716 3644 716 
Q 3416 716 3247 809 
Q 3078 894 2916 1091 
z
M 1647 1134 
Q 2163 1134 2472 1884 
Q 2075 2703 1647 2703 
Q 1334 2703 1175 2478 
Q 1003 2238 1003 1919 
Q 1003 1569 1175 1353 
Q 1350 1134 1647 1134 
z
M 3684 2697 
Q 3219 2697 2859 1947 
Q 3253 1128 3684 1128 
Q 3997 1128 4156 1353 
Q 4328 1594 4328 1913 
Q 4328 2263 4156 2478 
Q 3981 2697 3684 2697 
z
" transform="scale(0.015625)"/>
      </defs>
      <use xlink:href="#DejaVuSans-Oblique-62" transform="translate(0 0.015625)"/>
      <use xlink:href="#DejaVuSans-3d" transform="translate(82.958984 0.015625)"/>
      <use xlink:href="#DejaVuSans-33" transform="translate(186.230469 0.015625)"/>
      <use xlink:href="#DejaVuSans-2c" transform="translate(249.853516 0.015625)"/>
      <use xlink:href="#DejaVuSans-Oblique-3b1" transform="translate(301.123047 0.015625)"/>
      <use xlink:href="#DejaVuSans-2192" transform="translate(386.523438 0.015625)"/>
      <use xlink:href="#DejaVuSans-221e" transform="translate(489.794922 0.015625)"/>
     </g>
    </g>
    <g id="line2d_32">
     <path d="M 209.52 78.949219 
L 218.52 78.949219 
L 227.52 78.949219 
" style="fill: none; stroke-dasharray: 7.4,3.2; stroke-dashoffset: 0; stroke: #00bfbf; stroke-width: 2"/>
    </g>
    <g id="text_19">
     <!-- Fit: $0.5e^{-0.5x^{1.8}}$ -->
     <g transform="translate(234.72 82.099219) scale(0.09 -0.09)">
      <defs>
       <path id="DejaVuSans-46" d="M 628 4666 
L 3309 4666 
L 3309 4134 
L 1259 4134 
L 1259 2759 
L 3109 2759 
L 3109 2228 
L 1259 2228 
L 1259 0 
L 628 0 
L 628 4666 
z
" transform="scale(0.015625)"/>
       <path id="DejaVuSans-3a" d="M 750 794 
L 1409 794 
L 1409 0 
L 750 0 
L 750 794 
z
M 750 3309 
L 1409 3309 
L 1409 2516 
L 750 2516 
L 750 3309 
z
" transform="scale(0.015625)"/>
       <path id="DejaVuSans-Oblique-65" d="M 3078 2063 
Q 3088 2113 3092 2166 
Q 3097 2219 3097 2272 
Q 3097 2653 2873 2875 
Q 2650 3097 2266 3097 
Q 1838 3097 1509 2826 
Q 1181 2556 1013 2059 
L 3078 2063 
z
M 3578 1613 
L 903 1613 
Q 884 1494 878 1425 
Q 872 1356 872 1306 
Q 872 872 1139 634 
Q 1406 397 1894 397 
Q 2269 397 2603 481 
Q 2938 566 3225 728 
L 3116 159 
Q 2806 34 2476 -28 
Q 2147 -91 1806 -91 
Q 1078 -91 686 257 
Q 294 606 294 1247 
Q 294 1794 489 2264 
Q 684 2734 1063 3103 
Q 1306 3334 1642 3459 
Q 1978 3584 2356 3584 
Q 2950 3584 3301 3228 
Q 3653 2872 3653 2272 
Q 3653 2128 3634 1964 
Q 3616 1800 3578 1613 
z
" transform="scale(0.015625)"/>
       <path id="DejaVuSans-Oblique-78" d="M 3841 3500 
L 2234 1784 
L 3219 0 
L 2559 0 
L 1819 1388 
L 531 0 
L -166 0 
L 1556 1844 
L 641 3500 
L 1300 3500 
L 1972 2234 
L 3144 3500 
L 3841 3500 
z
" transform="scale(0.015625)"/>
      </defs>
      <use xlink:href="#DejaVuSans-46" transform="translate(0 0.554688)"/>
      <use xlink:href="#DejaVuSans-69" transform="translate(57.519531 0.554688)"/>
      <use xlink:href="#DejaVuSans-74" transform="translate(85.302734 0.554688)"/>
      <use xlink:href="#DejaVuSans-3a" transform="translate(124.511719 0.554688)"/>
      <use xlink:href="#DejaVuSans-20" transform="translate(158.203125 0.554688)"/>
      <use xlink:href="#DejaVuSans-30" transform="translate(189.990234 0.554688)"/>
      <use xlink:href="#DejaVuSans-2e" transform="translate(253.613281 0.554688)"/>
      <use xlink:href="#DejaVuSans-35" transform="translate(285.400391 0.554688)"/>
      <use xlink:href="#DejaVuSans-Oblique-65" transform="translate(349.023438 0.554688)"/>
      <use xlink:href="#DejaVuSans-2212" transform="translate(415.196771 38.835938) scale(0.7)"/>
      <use xlink:href="#DejaVuSans-30" transform="translate(473.849115 38.835938) scale(0.7)"/>
      <use xlink:href="#DejaVuSans-2e" transform="translate(518.385247 38.835938) scale(0.7)"/>
      <use xlink:href="#DejaVuSans-35" transform="translate(540.636224 38.835938) scale(0.7)"/>
      <use xlink:href="#DejaVuSans-Oblique-78" transform="translate(585.172357 38.835938) scale(0.7)"/>
      <use xlink:href="#DejaVuSans-31" transform="translate(629.72444 65.632812) scale(0.49)"/>
      <use xlink:href="#DejaVuSans-2e" transform="translate(660.899733 65.632812) scale(0.49)"/>
      <use xlink:href="#DejaVuSans-38" transform="translate(675.189167 65.632812) scale(0.49)"/>
     </g>
    </g>
   </g>
  </g>
 </g>
 <defs>
  <clipPath id="p04282fa609">
   <rect x="63.281214" y="26.88" width="243.618786" height="144.28"/>
  </clipPath>
 </defs>
</svg>
