<?xml version="1.0" encoding="utf-8" standalone="no"?>
<!DOCTYPE svg PUBLIC "-//W3C//DTD SVG 1.1//EN"
  "http://www.w3.org/Graphics/SVG/1.1/DTD/svg11.dtd">
<svg xmlns:xlink="http://www.w3.org/1999/xlink" width="360pt" height="180pt" viewBox="0 0 360 180" xmlns="http://www.w3.org/2000/svg" version="1.1">
 <metadata>
  <rdf:RDF xmlns:dc="http://purl.org/dc/elements/1.1/" xmlns:cc="http://creativecommons.org/ns#" xmlns:rdf="http://www.w3.org/1999/02/22-rdf-syntax-ns#">
   <cc:Work>
    <dc:type rdf:resource="http://purl.org/dc/dcmitype/StillImage"/>
    <dc:date>2025-11-12T21:09:15.163517</dc:date>
    <dc:format>image/svg+xml</dc:format>
    <dc:creator>
     <cc:Agent>
      <dc:title>Matplotlib v3.9.1, https://matplotlib.org/</dc:title>
     </cc:Agent>
    </dc:creator>
   </cc:Work>
  </rdf:RDF>
 </metadata>
 <defs>
  <style type="text/css">*{stroke-linejoin: round; stroke-linecap: butt}</style>
 </defs>
 <g id="figure_1">
  <g id="patch_1">
   <path d="M 0 180 
L 360 180 
L 360 0 
L 0 0 
z
" style="fill: #ffffff"/>
  </g>
  <g id="axes_1">
   <g id="patch_2">
    <path d="M 63.101214 135.16 
L 344.8575 135.16 
L 344.8575 28.32 
L 63.101214 28.32 
z
" style="fill: #ffffff"/>
   </g>
   <g id="matplotlib.axis_1">
    <g id="xtick_1">
     <g id="line2d_1">
      <path d="M 63.101214 135.16 
L 63.101214 28.32 
" clip-path="url(#p4799fb68d3)" style="fill: none; stroke-dasharray: 2.22,0.96; stroke-dashoffset: 0; stroke: #b0b0b0; stroke-opacity: 0.7; stroke-width: 0.6"/>
     </g>
     <g id="line2d_2">
      <defs>
       <path id="m66fc2a885e" d="M 0 0 
L 0 3.5 
" style="stroke: #000000; stroke-width: 0.8"/>
      </defs>
      <g>
       <use xlink:href="#m66fc2a885e" x="63.101214" y="135.16" style="stroke: #000000; stroke-width: 0.8"/>
      </g>
     </g>
     <g id="text_1">
      <!-- $0$ -->
      <g transform="translate(59.901214 149.758438) scale(0.1 -0.1)">
       <defs>
        <path id="DejaVuSans-30" d="M 2034 4250 
Q 1547 4250 1301 3770 
Q 1056 3291 1056 2328 
Q 1056 1369 1301 889 
Q 1547 409 2034 409 
Q 2525 409 2770 889 
Q 3016 1369 3016 2328 
Q 3016 3291 2770 3770 
Q 2525 4250 2034 4250 
z
M 2034 4750 
Q 2819 4750 3233 4129 
Q 3647 3509 3647 2328 
Q 3647 1150 3233 529 
Q 2819 -91 2034 -91 
Q 1250 -91 836 529 
Q 422 1150 422 2328 
Q 422 3509 836 4129 
Q 1250 4750 2034 4750 
z
" transform="scale(0.015625)"/>
       </defs>
       <use xlink:href="#DejaVuSans-30" transform="translate(0 0.78125)"/>
      </g>
     </g>
    </g>
    <g id="xtick_2">
     <g id="line2d_3">
      <path d="M 135.930281 135.16 
L 135.930281 28.32 
" clip-path="url(#p4799fb68d3)" style="fill: none; stroke-dasharray: 2.22,0.96; stroke-dashoffset: 0; stroke: #b0b0b0; stroke-opacity: 0.7; stroke-width: 0.6"/>
     </g>
     <g id="line2d_4">
      <g>
       <use xlink:href="#m66fc2a885e" x="135.930281" y="135.16" style="stroke: #000000; stroke-width: 0.8"/>
      </g>
     </g>
     <g id="text_2">
      <!-- $0.1$ -->
      <g transform="translate(127.930281 149.758438) scale(0.1 -0.1)">
       <defs>
        <path id="DejaVuSans-2e" d="M 684 794 
L 1344 794 
L 1344 0 
L 684 0 
L 684 794 
z
" transform="scale(0.015625)"/>
        <path id="DejaVuSans-31" d="M 794 531 
L 1825 531 
L 1825 4091 
L 703 3866 
L 703 4441 
L 1819 4666 
L 2450 4666 
L 2450 531 
L 3481 531 
L 3481 0 
L 794 0 
L 794 531 
z
" transform="scale(0.015625)"/>
       </defs>
       <use xlink:href="#DejaVuSans-30" transform="translate(0 0.78125)"/>
       <use xlink:href="#DejaVuSans-2e" transform="translate(63.623047 0.78125)"/>
       <use xlink:href="#DejaVuSans-31" transform="translate(95.410156 0.78125)"/>
      </g>
     </g>
    </g>
    <g id="xtick_3">
     <g id="line2d_5">
      <path d="M 184.608234 135.16 
L 184.608234 28.32 
" clip-path="url(#p4799fb68d3)" style="fill: none; stroke-dasharray: 2.22,0.96; stroke-dashoffset: 0; stroke: #b0b0b0; stroke-opacity: 0.7; stroke-width: 0.6"/>
     </g>
     <g id="line2d_6">
      <g>
       <use xlink:href="#m66fc2a885e" x="184.608234" y="135.16" style="stroke: #000000; stroke-width: 0.8"/>
      </g>
     </g>
     <g id="text_3">
      <!-- $0.5$ -->
      <g transform="translate(176.608234 149.758438) scale(0.1 -0.1)">
       <defs>
        <path id="DejaVuSans-35" d="M 691 4666 
L 3169 4666 
L 3169 4134 
L 1269 4134 
L 1269 2991 
Q 1406 3038 1543 3061 
Q 1681 3084 1819 3084 
Q 2600 3084 3056 2656 
Q 3513 2228 3513 1497 
Q 3513 744 3044 326 
Q 2575 -91 1722 -91 
Q 1428 -91 1123 -41 
Q 819 9 494 109 
L 494 744 
Q 775 591 1075 516 
Q 1375 441 1709 441 
Q 2250 441 2565 725 
Q 2881 1009 2881 1497 
Q 2881 1984 2565 2268 
Q 2250 2553 1709 2553 
Q 1456 2553 1204 2497 
Q 953 2441 691 2322 
L 691 4666 
z
" transform="scale(0.015625)"/>
       </defs>
       <use xlink:href="#DejaVuSans-30" transform="translate(0 0.78125)"/>
       <use xlink:href="#DejaVuSans-2e" transform="translate(63.623047 0.78125)"/>
       <use xlink:href="#DejaVuSans-35" transform="translate(95.410156 0.78125)"/>
      </g>
     </g>
    </g>
    <g id="xtick_4">
     <g id="line2d_7">
      <path d="M 205.572688 135.16 
L 205.572688 28.32 
" clip-path="url(#p4799fb68d3)" style="fill: none; stroke-dasharray: 2.22,0.96; stroke-dashoffset: 0; stroke: #b0b0b0; stroke-opacity: 0.7; stroke-width: 0.6"/>
     </g>
     <g id="line2d_8">
      <g>
       <use xlink:href="#m66fc2a885e" x="205.572688" y="135.16" style="stroke: #000000; stroke-width: 0.8"/>
      </g>
     </g>
     <g id="text_4">
      <!-- $1$ -->
      <g transform="translate(202.372688 149.758438) scale(0.1 -0.1)">
       <use xlink:href="#DejaVuSans-31" transform="translate(0 0.09375)"/>
      </g>
     </g>
    </g>
    <g id="xtick_5">
     <g id="line2d_9">
      <path d="M 226.537141 135.16 
L 226.537141 28.32 
" clip-path="url(#p4799fb68d3)" style="fill: none; stroke-dasharray: 2.22,0.96; stroke-dashoffset: 0; stroke: #b0b0b0; stroke-opacity: 0.7; stroke-width: 0.6"/>
     </g>
     <g id="line2d_10">
      <g>
       <use xlink:href="#m66fc2a885e" x="226.537141" y="135.16" style="stroke: #000000; stroke-width: 0.8"/>
      </g>
     </g>
     <g id="text_5">
      <!-- $2$ -->
      <g transform="translate(223.337141 149.758438) scale(0.1 -0.1)">
       <defs>
        <path id="DejaVuSans-32" d="M 1228 531 
L 3431 531 
L 3431 0 
L 469 0 
L 469 531 
Q 828 903 1448 1529 
Q 2069 2156 2228 2338 
Q 2531 2678 2651 2914 
Q 2772 3150 2772 3378 
Q 2772 3750 2511 3984 
Q 2250 4219 1831 4219 
Q 1534 4219 1204 4116 
Q 875 4013 500 3803 
L 500 4441 
Q 881 4594 1212 4672 
Q 1544 4750 1819 4750 
Q 2544 4750 2975 4387 
Q 3406 4025 3406 3419 
Q 3406 3131 3298 2873 
Q 3191 2616 2906 2266 
Q 2828 2175 2409 1742 
Q 1991 1309 1228 531 
z
" transform="scale(0.015625)"/>
       </defs>
       <use xlink:href="#DejaVuSans-32" transform="translate(0 0.78125)"/>
      </g>
     </g>
    </g>
    <g id="xtick_6">
     <g id="line2d_11">
      <path d="M 275.215094 135.16 
L 275.215094 28.32 
" clip-path="url(#p4799fb68d3)" style="fill: none; stroke-dasharray: 2.22,0.96; stroke-dashoffset: 0; stroke: #b0b0b0; stroke-opacity: 0.7; stroke-width: 0.6"/>
     </g>
     <g id="line2d_12">
      <g>
       <use xlink:href="#m66fc2a885e" x="275.215094" y="135.16" style="stroke: #000000; stroke-width: 0.8"/>
      </g>
     </g>
     <g id="text_6">
      <!-- $10$ -->
      <g transform="translate(268.815094 149.758438) scale(0.1 -0.1)">
       <use xlink:href="#DejaVuSans-31" transform="translate(0 0.78125)"/>
       <use xlink:href="#DejaVuSans-30" transform="translate(63.623047 0.78125)"/>
      </g>
     </g>
    </g>
    <g id="xtick_7">
     <g id="line2d_13">
      <path d="M 344.8575 135.16 
L 344.8575 28.32 
" clip-path="url(#p4799fb68d3)" style="fill: none; stroke-dasharray: 2.22,0.96; stroke-dashoffset: 0; stroke: #b0b0b0; stroke-opacity: 0.7; stroke-width: 0.6"/>
     </g>
     <g id="line2d_14">
      <g>
       <use xlink:href="#m66fc2a885e" x="344.8575" y="135.16" style="stroke: #000000; stroke-width: 0.8"/>
      </g>
     </g>
     <g id="text_7">
      <!-- $\infty$ -->
      <g transform="translate(340.6575 149.758438) scale(0.1 -0.1)">
       <defs>
        <path id="DejaVuSans-221e" d="M 2916 1091 
Q 2819 1203 2666 1466 
Q 2456 1091 2272 925 
Q 2041 725 1681 725 
Q 1259 725 981 1041 
Q 688 1372 688 1919 
Q 688 2444 981 2800 
Q 1244 3116 1688 3116 
Q 1916 3116 2084 3022 
Q 2281 2919 2416 2741 
Q 2541 2581 2666 2366 
Q 2875 2741 3059 2906 
Q 3291 3106 3650 3106 
Q 4072 3106 4350 2791 
Q 4644 2459 4644 1913 
Q 4644 1388 4350 1031 
Q 4088 716 3644 716 
Q 3416 716 3247 809 
Q 3078 894 2916 1091 
z
M 1647 1134 
Q 2163 1134 2472 1884 
Q 2075 2703 1647 2703 
Q 1334 2703 1175 2478 
Q 1003 2238 1003 1919 
Q 1003 1569 1175 1353 
Q 1350 1134 1647 1134 
z
M 3684 2697 
Q 3219 2697 2859 1947 
Q 3253 1128 3684 1128 
Q 3997 1128 4156 1353 
Q 4328 1594 4328 1913 
Q 4328 2263 4156 2478 
Q 3981 2697 3684 2697 
z
" transform="scale(0.015625)"/>
       </defs>
       <use xlink:href="#DejaVuSans-221e" transform="translate(0 0.3125)"/>
      </g>
     </g>
    </g>
    <g id="xtick_8">
     <g id="line2d_15">
      <defs>
       <path id="m5ff42055d6" d="M 0 0 
L 0 2 
" style="stroke: #000000; stroke-width: 0.6"/>
      </defs>
      <g>
       <use xlink:href="#m5ff42055d6" x="87.252329" y="135.16" style="stroke: #000000; stroke-width: 0.6"/>
      </g>
     </g>
    </g>
    <g id="xtick_9">
     <g id="line2d_16">
      <g>
       <use xlink:href="#m5ff42055d6" x="99.515748" y="135.16" style="stroke: #000000; stroke-width: 0.6"/>
      </g>
     </g>
    </g>
    <g id="xtick_10">
     <g id="line2d_17">
      <g>
       <use xlink:href="#m5ff42055d6" x="108.216782" y="135.16" style="stroke: #000000; stroke-width: 0.6"/>
      </g>
     </g>
    </g>
    <g id="xtick_11">
     <g id="line2d_18">
      <g>
       <use xlink:href="#m5ff42055d6" x="114.965828" y="135.16" style="stroke: #000000; stroke-width: 0.6"/>
      </g>
     </g>
    </g>
    <g id="xtick_12">
     <g id="line2d_19">
      <g>
       <use xlink:href="#m5ff42055d6" x="120.480201" y="135.16" style="stroke: #000000; stroke-width: 0.6"/>
      </g>
     </g>
    </g>
    <g id="xtick_13">
     <g id="line2d_20">
      <g>
       <use xlink:href="#m5ff42055d6" x="125.142536" y="135.16" style="stroke: #000000; stroke-width: 0.6"/>
      </g>
     </g>
    </g>
    <g id="xtick_14">
     <g id="line2d_21">
      <g>
       <use xlink:href="#m5ff42055d6" x="129.181235" y="135.16" style="stroke: #000000; stroke-width: 0.6"/>
      </g>
     </g>
    </g>
    <g id="xtick_15">
     <g id="line2d_22">
      <g>
       <use xlink:href="#m5ff42055d6" x="132.74362" y="135.16" style="stroke: #000000; stroke-width: 0.6"/>
      </g>
     </g>
    </g>
    <g id="xtick_16">
     <g id="line2d_23">
      <g>
       <use xlink:href="#m5ff42055d6" x="156.894735" y="135.16" style="stroke: #000000; stroke-width: 0.6"/>
      </g>
     </g>
    </g>
    <g id="xtick_17">
     <g id="line2d_24">
      <g>
       <use xlink:href="#m5ff42055d6" x="169.158154" y="135.16" style="stroke: #000000; stroke-width: 0.6"/>
      </g>
     </g>
    </g>
    <g id="xtick_18">
     <g id="line2d_25">
      <g>
       <use xlink:href="#m5ff42055d6" x="177.859188" y="135.16" style="stroke: #000000; stroke-width: 0.6"/>
      </g>
     </g>
    </g>
    <g id="xtick_19">
     <g id="line2d_26">
      <g>
       <use xlink:href="#m5ff42055d6" x="190.122607" y="135.16" style="stroke: #000000; stroke-width: 0.6"/>
      </g>
     </g>
    </g>
    <g id="xtick_20">
     <g id="line2d_27">
      <g>
       <use xlink:href="#m5ff42055d6" x="194.784942" y="135.16" style="stroke: #000000; stroke-width: 0.6"/>
      </g>
     </g>
    </g>
    <g id="xtick_21">
     <g id="line2d_28">
      <g>
       <use xlink:href="#m5ff42055d6" x="198.823641" y="135.16" style="stroke: #000000; stroke-width: 0.6"/>
      </g>
     </g>
    </g>
    <g id="xtick_22">
     <g id="line2d_29">
      <g>
       <use xlink:href="#m5ff42055d6" x="202.386026" y="135.16" style="stroke: #000000; stroke-width: 0.6"/>
      </g>
     </g>
    </g>
    <g id="xtick_23">
     <g id="line2d_30">
      <g>
       <use xlink:href="#m5ff42055d6" x="238.80056" y="135.16" style="stroke: #000000; stroke-width: 0.6"/>
      </g>
     </g>
    </g>
    <g id="xtick_24">
     <g id="line2d_31">
      <g>
       <use xlink:href="#m5ff42055d6" x="247.501594" y="135.16" style="stroke: #000000; stroke-width: 0.6"/>
      </g>
     </g>
    </g>
    <g id="xtick_25">
     <g id="line2d_32">
      <g>
       <use xlink:href="#m5ff42055d6" x="254.250641" y="135.16" style="stroke: #000000; stroke-width: 0.6"/>
      </g>
     </g>
    </g>
    <g id="xtick_26">
     <g id="line2d_33">
      <g>
       <use xlink:href="#m5ff42055d6" x="259.765013" y="135.16" style="stroke: #000000; stroke-width: 0.6"/>
      </g>
     </g>
    </g>
    <g id="xtick_27">
     <g id="line2d_34">
      <g>
       <use xlink:href="#m5ff42055d6" x="264.427349" y="135.16" style="stroke: #000000; stroke-width: 0.6"/>
      </g>
     </g>
    </g>
    <g id="xtick_28">
     <g id="line2d_35">
      <g>
       <use xlink:href="#m5ff42055d6" x="268.466047" y="135.16" style="stroke: #000000; stroke-width: 0.6"/>
      </g>
     </g>
    </g>
    <g id="xtick_29">
     <g id="line2d_36">
      <g>
       <use xlink:href="#m5ff42055d6" x="272.028432" y="135.16" style="stroke: #000000; stroke-width: 0.6"/>
      </g>
     </g>
    </g>
    <g id="xtick_30">
     <g id="line2d_37">
      <g>
       <use xlink:href="#m5ff42055d6" x="296.179547" y="135.16" style="stroke: #000000; stroke-width: 0.6"/>
      </g>
     </g>
    </g>
    <g id="xtick_31">
     <g id="line2d_38">
      <g>
       <use xlink:href="#m5ff42055d6" x="308.442966" y="135.16" style="stroke: #000000; stroke-width: 0.6"/>
      </g>
     </g>
    </g>
    <g id="xtick_32">
     <g id="line2d_39">
      <g>
       <use xlink:href="#m5ff42055d6" x="317.144" y="135.16" style="stroke: #000000; stroke-width: 0.6"/>
      </g>
     </g>
    </g>
    <g id="xtick_33">
     <g id="line2d_40">
      <g>
       <use xlink:href="#m5ff42055d6" x="323.893047" y="135.16" style="stroke: #000000; stroke-width: 0.6"/>
      </g>
     </g>
    </g>
    <g id="xtick_34">
     <g id="line2d_41">
      <g>
       <use xlink:href="#m5ff42055d6" x="329.407419" y="135.16" style="stroke: #000000; stroke-width: 0.6"/>
      </g>
     </g>
    </g>
    <g id="xtick_35">
     <g id="line2d_42">
      <g>
       <use xlink:href="#m5ff42055d6" x="334.069755" y="135.16" style="stroke: #000000; stroke-width: 0.6"/>
      </g>
     </g>
    </g>
    <g id="xtick_36">
     <g id="line2d_43">
      <g>
       <use xlink:href="#m5ff42055d6" x="338.108454" y="135.16" style="stroke: #000000; stroke-width: 0.6"/>
      </g>
     </g>
    </g>
    <g id="xtick_37">
     <g id="line2d_44">
      <g>
       <use xlink:href="#m5ff42055d6" x="341.670838" y="135.16" style="stroke: #000000; stroke-width: 0.6"/>
      </g>
     </g>
    </g>
    <g id="text_8">
     <!-- $\alpha$ -->
     <g transform="translate(200.019357 164.95625) scale(0.12 -0.12)">
      <defs>
       <path id="DejaVuSans-Oblique-3b1" d="M 2619 1628 
L 2622 2350 
Q 2625 3088 2069 3091 
Q 1653 3094 1394 2747 
Q 1069 2319 959 1747 
Q 825 1059 994 731 
Q 1169 397 1547 397 
Q 1966 397 2319 1063 
L 2619 1628 
z
M 2166 3578 
Q 3141 3594 3128 2584 
Q 3128 2584 3616 3500 
L 4128 3500 
L 3119 1603 
L 3109 919 
Q 3109 766 3194 638 
Q 3291 488 3391 488 
L 3669 488 
L 3575 0 
L 3228 0 
Q 2934 0 2722 263 
Q 2622 394 2619 669 
Q 2416 334 2066 50 
Q 1900 -81 1453 -78 
Q 722 -72 456 397 
Q 184 884 353 1747 
Q 534 2675 1009 3097 
Q 1544 3569 2166 3578 
z
" transform="scale(0.015625)"/>
      </defs>
      <use xlink:href="#DejaVuSans-Oblique-3b1" transform="translate(0 0.84375)"/>
     </g>
    </g>
   </g>
   <g id="matplotlib.axis_2">
    <g id="ytick_1">
     <g id="line2d_45">
      <path d="M 63.101214 110.366416 
L 344.8575 110.366416 
" clip-path="url(#p4799fb68d3)" style="fill: none; stroke-dasharray: 2.22,0.96; stroke-dashoffset: 0; stroke: #b0b0b0; stroke-opacity: 0.7; stroke-width: 0.6"/>
     </g>
     <g id="line2d_46">
      <defs>
       <path id="m7ef59ba466" d="M 0 0 
L -3.5 0 
" style="stroke: #000000; stroke-width: 0.8"/>
      </defs>
      <g>
       <use xlink:href="#m7ef59ba466" x="63.101214" y="110.366416" style="stroke: #000000; stroke-width: 0.8"/>
      </g>
     </g>
     <g id="text_9">
      <!-- $\mathdefault{10^{-11}}$ -->
      <g transform="translate(28.201214 114.165635) scale(0.1 -0.1)">
       <defs>
        <path id="DejaVuSans-2212" d="M 678 2272 
L 4684 2272 
L 4684 1741 
L 678 1741 
L 678 2272 
z
" transform="scale(0.015625)"/>
       </defs>
       <use xlink:href="#DejaVuSans-31" transform="translate(0 0.684375)"/>
       <use xlink:href="#DejaVuSans-30" transform="translate(63.623047 0.684375)"/>
       <use xlink:href="#DejaVuSans-2212" transform="translate(128.203125 38.965625) scale(0.7)"/>
       <use xlink:href="#DejaVuSans-31" transform="translate(186.855469 38.965625) scale(0.7)"/>
       <use xlink:href="#DejaVuSans-31" transform="translate(231.391602 38.965625) scale(0.7)"/>
      </g>
     </g>
    </g>
    <g id="ytick_2">
     <g id="line2d_47">
      <path d="M 63.101214 81.849786 
L 344.8575 81.849786 
" clip-path="url(#p4799fb68d3)" style="fill: none; stroke-dasharray: 2.22,0.96; stroke-dashoffset: 0; stroke: #b0b0b0; stroke-opacity: 0.7; stroke-width: 0.6"/>
     </g>
     <g id="line2d_48">
      <g>
       <use xlink:href="#m7ef59ba466" x="63.101214" y="81.849786" style="stroke: #000000; stroke-width: 0.8"/>
      </g>
     </g>
     <g id="text_10">
      <!-- $\mathdefault{10^{-9}}$ -->
      <g transform="translate(32.601214 85.649005) scale(0.1 -0.1)">
       <defs>
        <path id="DejaVuSans-39" d="M 703 97 
L 703 672 
Q 941 559 1184 500 
Q 1428 441 1663 441 
Q 2288 441 2617 861 
Q 2947 1281 2994 2138 
Q 2813 1869 2534 1725 
Q 2256 1581 1919 1581 
Q 1219 1581 811 2004 
Q 403 2428 403 3163 
Q 403 3881 828 4315 
Q 1253 4750 1959 4750 
Q 2769 4750 3195 4129 
Q 3622 3509 3622 2328 
Q 3622 1225 3098 567 
Q 2575 -91 1691 -91 
Q 1453 -91 1209 -44 
Q 966 3 703 97 
z
M 1959 2075 
Q 2384 2075 2632 2365 
Q 2881 2656 2881 3163 
Q 2881 3666 2632 3958 
Q 2384 4250 1959 4250 
Q 1534 4250 1286 3958 
Q 1038 3666 1038 3163 
Q 1038 2656 1286 2365 
Q 1534 2075 1959 2075 
z
" transform="scale(0.015625)"/>
       </defs>
       <use xlink:href="#DejaVuSans-31" transform="translate(0 0.765625)"/>
       <use xlink:href="#DejaVuSans-30" transform="translate(63.623047 0.765625)"/>
       <use xlink:href="#DejaVuSans-2212" transform="translate(128.203125 39.046875) scale(0.7)"/>
       <use xlink:href="#DejaVuSans-39" transform="translate(186.855469 39.046875) scale(0.7)"/>
      </g>
     </g>
    </g>
    <g id="ytick_3">
     <g id="line2d_49">
      <path d="M 63.101214 53.333156 
L 344.8575 53.333156 
" clip-path="url(#p4799fb68d3)" style="fill: none; stroke-dasharray: 2.22,0.96; stroke-dashoffset: 0; stroke: #b0b0b0; stroke-opacity: 0.7; stroke-width: 0.6"/>
     </g>
     <g id="line2d_50">
      <g>
       <use xlink:href="#m7ef59ba466" x="63.101214" y="53.333156" style="stroke: #000000; stroke-width: 0.8"/>
      </g>
     </g>
     <g id="text_11">
      <!-- $\mathdefault{10^{-7}}$ -->
      <g transform="translate(32.601214 57.132375) scale(0.1 -0.1)">
       <defs>
        <path id="DejaVuSans-37" d="M 525 4666 
L 3525 4666 
L 3525 4397 
L 1831 0 
L 1172 0 
L 2766 4134 
L 525 4134 
L 525 4666 
z
" transform="scale(0.015625)"/>
       </defs>
       <use xlink:href="#DejaVuSans-31" transform="translate(0 0.684375)"/>
       <use xlink:href="#DejaVuSans-30" transform="translate(63.623047 0.684375)"/>
       <use xlink:href="#DejaVuSans-2212" transform="translate(128.203125 38.965625) scale(0.7)"/>
       <use xlink:href="#DejaVuSans-37" transform="translate(186.855469 38.965625) scale(0.7)"/>
      </g>
     </g>
    </g>
    <g id="text_12">
     <!-- Frobenius norm -->
     <g transform="translate(21.705589 128.24375) rotate(-90) scale(0.12 -0.12)">
      <defs>
       <path id="DejaVuSans-46" d="M 628 4666 
L 3309 4666 
L 3309 4134 
L 1259 4134 
L 1259 2759 
L 3109 2759 
L 3109 2228 
L 1259 2228 
L 1259 0 
L 628 0 
L 628 4666 
z
" transform="scale(0.015625)"/>
       <path id="DejaVuSans-72" d="M 2631 2963 
Q 2534 3019 2420 3045 
Q 2306 3072 2169 3072 
Q 1681 3072 1420 2755 
Q 1159 2438 1159 1844 
L 1159 0 
L 581 0 
L 581 3500 
L 1159 3500 
L 1159 2956 
Q 1341 3275 1631 3429 
Q 1922 3584 2338 3584 
Q 2397 3584 2469 3576 
Q 2541 3569 2628 3553 
L 2631 2963 
z
" transform="scale(0.015625)"/>
       <path id="DejaVuSans-6f" d="M 1959 3097 
Q 1497 3097 1228 2736 
Q 959 2375 959 1747 
Q 959 1119 1226 758 
Q 1494 397 1959 397 
Q 2419 397 2687 759 
Q 2956 1122 2956 1747 
Q 2956 2369 2687 2733 
Q 2419 3097 1959 3097 
z
M 1959 3584 
Q 2709 3584 3137 3096 
Q 3566 2609 3566 1747 
Q 3566 888 3137 398 
Q 2709 -91 1959 -91 
Q 1206 -91 779 398 
Q 353 888 353 1747 
Q 353 2609 779 3096 
Q 1206 3584 1959 3584 
z
" transform="scale(0.015625)"/>
       <path id="DejaVuSans-62" d="M 3116 1747 
Q 3116 2381 2855 2742 
Q 2594 3103 2138 3103 
Q 1681 3103 1420 2742 
Q 1159 2381 1159 1747 
Q 1159 1113 1420 752 
Q 1681 391 2138 391 
Q 2594 391 2855 752 
Q 3116 1113 3116 1747 
z
M 1159 2969 
Q 1341 3281 1617 3432 
Q 1894 3584 2278 3584 
Q 2916 3584 3314 3078 
Q 3713 2572 3713 1747 
Q 3713 922 3314 415 
Q 2916 -91 2278 -91 
Q 1894 -91 1617 61 
Q 1341 213 1159 525 
L 1159 0 
L 581 0 
L 581 4863 
L 1159 4863 
L 1159 2969 
z
" transform="scale(0.015625)"/>
       <path id="DejaVuSans-65" d="M 3597 1894 
L 3597 1613 
L 953 1613 
Q 991 1019 1311 708 
Q 1631 397 2203 397 
Q 2534 397 2845 478 
Q 3156 559 3463 722 
L 3463 178 
Q 3153 47 2828 -22 
Q 2503 -91 2169 -91 
Q 1331 -91 842 396 
Q 353 884 353 1716 
Q 353 2575 817 3079 
Q 1281 3584 2069 3584 
Q 2775 3584 3186 3129 
Q 3597 2675 3597 1894 
z
M 3022 2063 
Q 3016 2534 2758 2815 
Q 2500 3097 2075 3097 
Q 1594 3097 1305 2825 
Q 1016 2553 972 2059 
L 3022 2063 
z
" transform="scale(0.015625)"/>
       <path id="DejaVuSans-6e" d="M 3513 2113 
L 3513 0 
L 2938 0 
L 2938 2094 
Q 2938 2591 2744 2837 
Q 2550 3084 2163 3084 
Q 1697 3084 1428 2787 
Q 1159 2491 1159 1978 
L 1159 0 
L 581 0 
L 581 3500 
L 1159 3500 
L 1159 2956 
Q 1366 3272 1645 3428 
Q 1925 3584 2291 3584 
Q 2894 3584 3203 3211 
Q 3513 2838 3513 2113 
z
" transform="scale(0.015625)"/>
       <path id="DejaVuSans-69" d="M 603 3500 
L 1178 3500 
L 1178 0 
L 603 0 
L 603 3500 
z
M 603 4863 
L 1178 4863 
L 1178 4134 
L 603 4134 
L 603 4863 
z
" transform="scale(0.015625)"/>
       <path id="DejaVuSans-75" d="M 544 1381 
L 544 3500 
L 1119 3500 
L 1119 1403 
Q 1119 906 1312 657 
Q 1506 409 1894 409 
Q 2359 409 2629 706 
Q 2900 1003 2900 1516 
L 2900 3500 
L 3475 3500 
L 3475 0 
L 2900 0 
L 2900 538 
Q 2691 219 2414 64 
Q 2138 -91 1772 -91 
Q 1169 -91 856 284 
Q 544 659 544 1381 
z
M 1991 3584 
L 1991 3584 
z
" transform="scale(0.015625)"/>
       <path id="DejaVuSans-73" d="M 2834 3397 
L 2834 2853 
Q 2591 2978 2328 3040 
Q 2066 3103 1784 3103 
Q 1356 3103 1142 2972 
Q 928 2841 928 2578 
Q 928 2378 1081 2264 
Q 1234 2150 1697 2047 
L 1894 2003 
Q 2506 1872 2764 1633 
Q 3022 1394 3022 966 
Q 3022 478 2636 193 
Q 2250 -91 1575 -91 
Q 1294 -91 989 -36 
Q 684 19 347 128 
L 347 722 
Q 666 556 975 473 
Q 1284 391 1588 391 
Q 1994 391 2212 530 
Q 2431 669 2431 922 
Q 2431 1156 2273 1281 
Q 2116 1406 1581 1522 
L 1381 1569 
Q 847 1681 609 1914 
Q 372 2147 372 2553 
Q 372 3047 722 3315 
Q 1072 3584 1716 3584 
Q 2034 3584 2315 3537 
Q 2597 3491 2834 3397 
z
" transform="scale(0.015625)"/>
       <path id="DejaVuSans-20" transform="scale(0.015625)"/>
       <path id="DejaVuSans-6d" d="M 3328 2828 
Q 3544 3216 3844 3400 
Q 4144 3584 4550 3584 
Q 5097 3584 5394 3201 
Q 5691 2819 5691 2113 
L 5691 0 
L 5113 0 
L 5113 2094 
Q 5113 2597 4934 2840 
Q 4756 3084 4391 3084 
Q 3944 3084 3684 2787 
Q 3425 2491 3425 1978 
L 3425 0 
L 2847 0 
L 2847 2094 
Q 2847 2600 2669 2842 
Q 2491 3084 2119 3084 
Q 1678 3084 1418 2786 
Q 1159 2488 1159 1978 
L 1159 0 
L 581 0 
L 581 3500 
L 1159 3500 
L 1159 2956 
Q 1356 3278 1631 3431 
Q 1906 3584 2284 3584 
Q 2666 3584 2933 3390 
Q 3200 3197 3328 2828 
z
" transform="scale(0.015625)"/>
      </defs>
      <use xlink:href="#DejaVuSans-46"/>
      <use xlink:href="#DejaVuSans-72" x="50.269531"/>
      <use xlink:href="#DejaVuSans-6f" x="89.132812"/>
      <use xlink:href="#DejaVuSans-62" x="150.314453"/>
      <use xlink:href="#DejaVuSans-65" x="213.791016"/>
      <use xlink:href="#DejaVuSans-6e" x="275.314453"/>
      <use xlink:href="#DejaVuSans-69" x="338.693359"/>
      <use xlink:href="#DejaVuSans-75" x="366.476562"/>
      <use xlink:href="#DejaVuSans-73" x="429.855469"/>
      <use xlink:href="#DejaVuSans-20" x="481.955078"/>
      <use xlink:href="#DejaVuSans-6e" x="513.742188"/>
      <use xlink:href="#DejaVuSans-6f" x="577.121094"/>
      <use xlink:href="#DejaVuSans-72" x="638.302734"/>
      <use xlink:href="#DejaVuSans-6d" x="677.666016"/>
     </g>
    </g>
   </g>
   <g id="line2d_51">
    <path d="M 66.287875 100.809647 
L 135.930281 68.111296 
L 169.158154 54.237989 
L 184.608234 48.418708 
L 205.572688 44.876187 
L 226.537141 60.375739 
L 238.80056 88.301441 
L 254.250641 109.550953 
L 344.8575 127.792872 
" clip-path="url(#p4799fb68d3)" style="fill: none; stroke: #000004; stroke-width: 1.4; stroke-linecap: square"/>
    <defs>
     <path id="m3ae4a0a14e" d="M 0 3 
C 0.795609 3 1.55874 2.683901 2.12132 2.12132 
C 2.683901 1.55874 3 0.795609 3 0 
C 3 -0.795609 2.683901 -1.55874 2.12132 -2.12132 
C 1.55874 -2.683901 0.795609 -3 0 -3 
C -0.795609 -3 -1.55874 -2.683901 -2.12132 -2.12132 
C -2.683901 -1.55874 -3 -0.795609 -3 0 
C -3 0.795609 -2.683901 1.55874 -2.12132 2.12132 
C -1.55874 2.683901 -0.795609 3 0 3 
z
" style="stroke: #000004"/>
    </defs>
    <g clip-path="url(#p4799fb68d3)">
     <use xlink:href="#m3ae4a0a14e" x="66.287875" y="100.809647" style="fill-opacity: 0; stroke: #000004"/>
     <use xlink:href="#m3ae4a0a14e" x="135.930281" y="68.111296" style="fill-opacity: 0; stroke: #000004"/>
     <use xlink:href="#m3ae4a0a14e" x="169.158154" y="54.237989" style="fill-opacity: 0; stroke: #000004"/>
     <use xlink:href="#m3ae4a0a14e" x="184.608234" y="48.418708" style="fill-opacity: 0; stroke: #000004"/>
     <use xlink:href="#m3ae4a0a14e" x="205.572688" y="44.876187" style="fill-opacity: 0; stroke: #000004"/>
     <use xlink:href="#m3ae4a0a14e" x="226.537141" y="60.375739" style="fill-opacity: 0; stroke: #000004"/>
     <use xlink:href="#m3ae4a0a14e" x="238.80056" y="88.301441" style="fill-opacity: 0; stroke: #000004"/>
     <use xlink:href="#m3ae4a0a14e" x="254.250641" y="109.550953" style="fill-opacity: 0; stroke: #000004"/>
     <use xlink:href="#m3ae4a0a14e" x="344.8575" y="127.792872" style="fill-opacity: 0; stroke: #000004"/>
    </g>
   </g>
   <g id="line2d_52">
    <path d="M 66.287875 96.611454 
L 135.930281 61.223184 
L 169.158154 47.340738 
L 184.608234 41.511364 
L 205.572688 37.956839 
L 226.537141 53.533091 
L 238.80056 81.221539 
L 254.250641 105.261787 
L 344.8575 120.989927 
" clip-path="url(#p4799fb68d3)" style="fill: none; stroke: #57106e; stroke-width: 1.4; stroke-linecap: square"/>
    <defs>
     <path id="me95df12117" d="M 0 3 
C 0.795609 3 1.55874 2.683901 2.12132 2.12132 
C 2.683901 1.55874 3 0.795609 3 0 
C 3 -0.795609 2.683901 -1.55874 2.12132 -2.12132 
C 1.55874 -2.683901 0.795609 -3 0 -3 
C -0.795609 -3 -1.55874 -2.683901 -2.12132 -2.12132 
C -2.683901 -1.55874 -3 -0.795609 -3 0 
C -3 0.795609 -2.683901 1.55874 -2.12132 2.12132 
C -1.55874 2.683901 -0.795609 3 0 3 
z
" style="stroke: #57106e"/>
    </defs>
    <g clip-path="url(#p4799fb68d3)">
     <use xlink:href="#me95df12117" x="66.287875" y="96.611454" style="fill-opacity: 0; stroke: #57106e"/>
     <use xlink:href="#me95df12117" x="135.930281" y="61.223184" style="fill-opacity: 0; stroke: #57106e"/>
     <use xlink:href="#me95df12117" x="169.158154" y="47.340738" style="fill-opacity: 0; stroke: #57106e"/>
     <use xlink:href="#me95df12117" x="184.608234" y="41.511364" style="fill-opacity: 0; stroke: #57106e"/>
     <use xlink:href="#me95df12117" x="205.572688" y="37.956839" style="fill-opacity: 0; stroke: #57106e"/>
     <use xlink:href="#me95df12117" x="226.537141" y="53.533091" style="fill-opacity: 0; stroke: #57106e"/>
     <use xlink:href="#me95df12117" x="238.80056" y="81.221539" style="fill-opacity: 0; stroke: #57106e"/>
     <use xlink:href="#me95df12117" x="254.250641" y="105.261787" style="fill-opacity: 0; stroke: #57106e"/>
     <use xlink:href="#me95df12117" x="344.8575" y="120.989927" style="fill-opacity: 0; stroke: #57106e"/>
    </g>
   </g>
   <g id="line2d_53">
    <path d="M 66.287875 97.888966 
L 135.930281 56.360139 
L 169.158154 42.482454 
L 184.608234 36.660437 
L 205.572688 33.176364 
L 226.537141 49.273138 
L 238.80056 76.834309 
L 254.250641 106.663188 
L 344.8575 123.500691 
" clip-path="url(#p4799fb68d3)" style="fill: none; stroke: #bc3754; stroke-width: 1.4; stroke-linecap: square"/>
    <defs>
     <path id="m5a5fdaf194" d="M 0 3 
C 0.795609 3 1.55874 2.683901 2.12132 2.12132 
C 2.683901 1.55874 3 0.795609 3 0 
C 3 -0.795609 2.683901 -1.55874 2.12132 -2.12132 
C 1.55874 -2.683901 0.795609 -3 0 -3 
C -0.795609 -3 -1.55874 -2.683901 -2.12132 -2.12132 
C -2.683901 -1.55874 -3 -0.795609 -3 0 
C -3 0.795609 -2.683901 1.55874 -2.12132 2.12132 
C -1.55874 2.683901 -0.795609 3 0 3 
z
" style="stroke: #bc3754"/>
    </defs>
    <g clip-path="url(#p4799fb68d3)">
     <use xlink:href="#m5a5fdaf194" x="66.287875" y="97.888966" style="fill-opacity: 0; stroke: #bc3754"/>
     <use xlink:href="#m5a5fdaf194" x="135.930281" y="56.360139" style="fill-opacity: 0; stroke: #bc3754"/>
     <use xlink:href="#m5a5fdaf194" x="169.158154" y="42.482454" style="fill-opacity: 0; stroke: #bc3754"/>
     <use xlink:href="#m5a5fdaf194" x="184.608234" y="36.660437" style="fill-opacity: 0; stroke: #bc3754"/>
     <use xlink:href="#m5a5fdaf194" x="205.572688" y="33.176364" style="fill-opacity: 0; stroke: #bc3754"/>
     <use xlink:href="#m5a5fdaf194" x="226.537141" y="49.273138" style="fill-opacity: 0; stroke: #bc3754"/>
     <use xlink:href="#m5a5fdaf194" x="238.80056" y="76.834309" style="fill-opacity: 0; stroke: #bc3754"/>
     <use xlink:href="#m5a5fdaf194" x="254.250641" y="106.663188" style="fill-opacity: 0; stroke: #bc3754"/>
     <use xlink:href="#m5a5fdaf194" x="344.8575" y="123.500691" style="fill-opacity: 0; stroke: #bc3754"/>
    </g>
   </g>
   <g id="line2d_54">
    <path d="M 66.287875 94.570459 
L 135.930281 59.089204 
L 169.158154 45.061665 
L 184.608234 39.07518 
L 205.572688 35.101362 
L 226.537141 50.163211 
L 238.80056 76.343066 
L 254.250641 103.011682 
L 344.8575 130.303636 
" clip-path="url(#p4799fb68d3)" style="fill: none; stroke: #f98e09; stroke-width: 1.4; stroke-linecap: square"/>
    <defs>
     <path id="me11750a7e3" d="M 0 3 
C 0.795609 3 1.55874 2.683901 2.12132 2.12132 
C 2.683901 1.55874 3 0.795609 3 0 
C 3 -0.795609 2.683901 -1.55874 2.12132 -2.12132 
C 1.55874 -2.683901 0.795609 -3 0 -3 
C -0.795609 -3 -1.55874 -2.683901 -2.12132 -2.12132 
C -2.683901 -1.55874 -3 -0.795609 -3 0 
C -3 0.795609 -2.683901 1.55874 -2.12132 2.12132 
C -1.55874 2.683901 -0.795609 3 0 3 
z
" style="stroke: #f98e09"/>
    </defs>
    <g clip-path="url(#p4799fb68d3)">
     <use xlink:href="#me11750a7e3" x="66.287875" y="94.570459" style="fill-opacity: 0; stroke: #f98e09"/>
     <use xlink:href="#me11750a7e3" x="135.930281" y="59.089204" style="fill-opacity: 0; stroke: #f98e09"/>
     <use xlink:href="#me11750a7e3" x="169.158154" y="45.061665" style="fill-opacity: 0; stroke: #f98e09"/>
     <use xlink:href="#me11750a7e3" x="184.608234" y="39.07518" style="fill-opacity: 0; stroke: #f98e09"/>
     <use xlink:href="#me11750a7e3" x="205.572688" y="35.101362" style="fill-opacity: 0; stroke: #f98e09"/>
     <use xlink:href="#me11750a7e3" x="226.537141" y="50.163211" style="fill-opacity: 0; stroke: #f98e09"/>
     <use xlink:href="#me11750a7e3" x="238.80056" y="76.343066" style="fill-opacity: 0; stroke: #f98e09"/>
     <use xlink:href="#me11750a7e3" x="254.250641" y="103.011682" style="fill-opacity: 0; stroke: #f98e09"/>
     <use xlink:href="#me11750a7e3" x="344.8575" y="130.303636" style="fill-opacity: 0; stroke: #f98e09"/>
    </g>
   </g>
   <g id="patch_3">
    <path d="M 63.101214 135.16 
L 63.101214 28.32 
" style="fill: none; stroke: #000000; stroke-width: 0.8; stroke-linejoin: miter; stroke-linecap: square"/>
   </g>
   <g id="patch_4">
    <path d="M 344.8575 135.16 
L 344.8575 28.32 
" style="fill: none; stroke: #000000; stroke-width: 0.8; stroke-linejoin: miter; stroke-linecap: square"/>
   </g>
   <g id="patch_5">
    <path d="M 63.101214 135.16 
L 344.8575 135.16 
" style="fill: none; stroke: #000000; stroke-width: 0.8; stroke-linejoin: miter; stroke-linecap: square"/>
   </g>
   <g id="patch_6">
    <path d="M 63.101214 28.32 
L 344.8575 28.32 
" style="fill: none; stroke: #000000; stroke-width: 0.8; stroke-linejoin: miter; stroke-linecap: square"/>
   </g>
   <g id="text_13">
    <!-- Signal magnitude at site 20 vs $\alpha$ for different $t$ -->
    <g transform="translate(64.479357 22.32) scale(0.12 -0.12)">
     <defs>
      <path id="DejaVuSans-53" d="M 3425 4513 
L 3425 3897 
Q 3066 4069 2747 4153 
Q 2428 4238 2131 4238 
Q 1616 4238 1336 4038 
Q 1056 3838 1056 3469 
Q 1056 3159 1242 3001 
Q 1428 2844 1947 2747 
L 2328 2669 
Q 3034 2534 3370 2195 
Q 3706 1856 3706 1288 
Q 3706 609 3251 259 
Q 2797 -91 1919 -91 
Q 1588 -91 1214 -16 
Q 841 59 441 206 
L 441 856 
Q 825 641 1194 531 
Q 1563 422 1919 422 
Q 2459 422 2753 634 
Q 3047 847 3047 1241 
Q 3047 1584 2836 1778 
Q 2625 1972 2144 2069 
L 1759 2144 
Q 1053 2284 737 2584 
Q 422 2884 422 3419 
Q 422 4038 858 4394 
Q 1294 4750 2059 4750 
Q 2388 4750 2728 4690 
Q 3069 4631 3425 4513 
z
" transform="scale(0.015625)"/>
      <path id="DejaVuSans-67" d="M 2906 1791 
Q 2906 2416 2648 2759 
Q 2391 3103 1925 3103 
Q 1463 3103 1205 2759 
Q 947 2416 947 1791 
Q 947 1169 1205 825 
Q 1463 481 1925 481 
Q 2391 481 2648 825 
Q 2906 1169 2906 1791 
z
M 3481 434 
Q 3481 -459 3084 -895 
Q 2688 -1331 1869 -1331 
Q 1566 -1331 1297 -1286 
Q 1028 -1241 775 -1147 
L 775 -588 
Q 1028 -725 1275 -790 
Q 1522 -856 1778 -856 
Q 2344 -856 2625 -561 
Q 2906 -266 2906 331 
L 2906 616 
Q 2728 306 2450 153 
Q 2172 0 1784 0 
Q 1141 0 747 490 
Q 353 981 353 1791 
Q 353 2603 747 3093 
Q 1141 3584 1784 3584 
Q 2172 3584 2450 3431 
Q 2728 3278 2906 2969 
L 2906 3500 
L 3481 3500 
L 3481 434 
z
" transform="scale(0.015625)"/>
      <path id="DejaVuSans-61" d="M 2194 1759 
Q 1497 1759 1228 1600 
Q 959 1441 959 1056 
Q 959 750 1161 570 
Q 1363 391 1709 391 
Q 2188 391 2477 730 
Q 2766 1069 2766 1631 
L 2766 1759 
L 2194 1759 
z
M 3341 1997 
L 3341 0 
L 2766 0 
L 2766 531 
Q 2569 213 2275 61 
Q 1981 -91 1556 -91 
Q 1019 -91 701 211 
Q 384 513 384 1019 
Q 384 1609 779 1909 
Q 1175 2209 1959 2209 
L 2766 2209 
L 2766 2266 
Q 2766 2663 2505 2880 
Q 2244 3097 1772 3097 
Q 1472 3097 1187 3025 
Q 903 2953 641 2809 
L 641 3341 
Q 956 3463 1253 3523 
Q 1550 3584 1831 3584 
Q 2591 3584 2966 3190 
Q 3341 2797 3341 1997 
z
" transform="scale(0.015625)"/>
      <path id="DejaVuSans-6c" d="M 603 4863 
L 1178 4863 
L 1178 0 
L 603 0 
L 603 4863 
z
" transform="scale(0.015625)"/>
      <path id="DejaVuSans-74" d="M 1172 4494 
L 1172 3500 
L 2356 3500 
L 2356 3053 
L 1172 3053 
L 1172 1153 
Q 1172 725 1289 603 
Q 1406 481 1766 481 
L 2356 481 
L 2356 0 
L 1766 0 
Q 1100 0 847 248 
Q 594 497 594 1153 
L 594 3053 
L 172 3053 
L 172 3500 
L 594 3500 
L 594 4494 
L 1172 4494 
z
" transform="scale(0.015625)"/>
      <path id="DejaVuSans-64" d="M 2906 2969 
L 2906 4863 
L 3481 4863 
L 3481 0 
L 2906 0 
L 2906 525 
Q 2725 213 2448 61 
Q 2172 -91 1784 -91 
Q 1150 -91 751 415 
Q 353 922 353 1747 
Q 353 2572 751 3078 
Q 1150 3584 1784 3584 
Q 2172 3584 2448 3432 
Q 2725 3281 2906 2969 
z
M 947 1747 
Q 947 1113 1208 752 
Q 1469 391 1925 391 
Q 2381 391 2643 752 
Q 2906 1113 2906 1747 
Q 2906 2381 2643 2742 
Q 2381 3103 1925 3103 
Q 1469 3103 1208 2742 
Q 947 2381 947 1747 
z
" transform="scale(0.015625)"/>
      <path id="DejaVuSans-76" d="M 191 3500 
L 800 3500 
L 1894 563 
L 2988 3500 
L 3597 3500 
L 2284 0 
L 1503 0 
L 191 3500 
z
" transform="scale(0.015625)"/>
      <path id="DejaVuSans-66" d="M 2375 4863 
L 2375 4384 
L 1825 4384 
Q 1516 4384 1395 4259 
Q 1275 4134 1275 3809 
L 1275 3500 
L 2222 3500 
L 2222 3053 
L 1275 3053 
L 1275 0 
L 697 0 
L 697 3053 
L 147 3053 
L 147 3500 
L 697 3500 
L 697 3744 
Q 697 4328 969 4595 
Q 1241 4863 1831 4863 
L 2375 4863 
z
" transform="scale(0.015625)"/>
      <path id="DejaVuSans-Oblique-74" d="M 2706 3500 
L 2619 3053 
L 1472 3053 
L 1100 1153 
Q 1081 1047 1072 975 
Q 1063 903 1063 863 
Q 1063 663 1183 572 
Q 1303 481 1569 481 
L 2150 481 
L 2053 0 
L 1503 0 
Q 991 0 739 200 
Q 488 400 488 806 
Q 488 878 497 964 
Q 506 1050 525 1153 
L 897 3053 
L 409 3053 
L 500 3500 
L 978 3500 
L 1172 4494 
L 1747 4494 
L 1556 3500 
L 2706 3500 
z
" transform="scale(0.015625)"/>
     </defs>
     <use xlink:href="#DejaVuSans-53" transform="translate(0 0.015625)"/>
     <use xlink:href="#DejaVuSans-69" transform="translate(63.476562 0.015625)"/>
     <use xlink:href="#DejaVuSans-67" transform="translate(91.259766 0.015625)"/>
     <use xlink:href="#DejaVuSans-6e" transform="translate(154.736328 0.015625)"/>
     <use xlink:href="#DejaVuSans-61" transform="translate(218.115234 0.015625)"/>
     <use xlink:href="#DejaVuSans-6c" transform="translate(279.394531 0.015625)"/>
     <use xlink:href="#DejaVuSans-20" transform="translate(307.177734 0.015625)"/>
     <use xlink:href="#DejaVuSans-6d" transform="translate(338.964844 0.015625)"/>
     <use xlink:href="#DejaVuSans-61" transform="translate(436.376953 0.015625)"/>
     <use xlink:href="#DejaVuSans-67" transform="translate(497.65625 0.015625)"/>
     <use xlink:href="#DejaVuSans-6e" transform="translate(561.132812 0.015625)"/>
     <use xlink:href="#DejaVuSans-69" transform="translate(624.511719 0.015625)"/>
     <use xlink:href="#DejaVuSans-74" transform="translate(652.294922 0.015625)"/>
     <use xlink:href="#DejaVuSans-75" transform="translate(691.503906 0.015625)"/>
     <use xlink:href="#DejaVuSans-64" transform="translate(754.882812 0.015625)"/>
     <use xlink:href="#DejaVuSans-65" transform="translate(818.359375 0.015625)"/>
     <use xlink:href="#DejaVuSans-20" transform="translate(879.882812 0.015625)"/>
     <use xlink:href="#DejaVuSans-61" transform="translate(911.669922 0.015625)"/>
     <use xlink:href="#DejaVuSans-74" transform="translate(972.949219 0.015625)"/>
     <use xlink:href="#DejaVuSans-20" transform="translate(1012.158203 0.015625)"/>
     <use xlink:href="#DejaVuSans-73" transform="translate(1043.945312 0.015625)"/>
     <use xlink:href="#DejaVuSans-69" transform="translate(1096.044922 0.015625)"/>
     <use xlink:href="#DejaVuSans-74" transform="translate(1123.828125 0.015625)"/>
     <use xlink:href="#DejaVuSans-65" transform="translate(1163.037109 0.015625)"/>
     <use xlink:href="#DejaVuSans-20" transform="translate(1224.560547 0.015625)"/>
     <use xlink:href="#DejaVuSans-32" transform="translate(1256.347656 0.015625)"/>
     <use xlink:href="#DejaVuSans-30" transform="translate(1319.970703 0.015625)"/>
     <use xlink:href="#DejaVuSans-20" transform="translate(1383.59375 0.015625)"/>
     <use xlink:href="#DejaVuSans-76" transform="translate(1415.380859 0.015625)"/>
     <use xlink:href="#DejaVuSans-73" transform="translate(1474.560547 0.015625)"/>
     <use xlink:href="#DejaVuSans-20" transform="translate(1526.660156 0.015625)"/>
     <use xlink:href="#DejaVuSans-Oblique-3b1" transform="translate(1558.447266 0.015625)"/>
     <use xlink:href="#DejaVuSans-20" transform="translate(1624.365234 0.015625)"/>
     <use xlink:href="#DejaVuSans-66" transform="translate(1656.152344 0.015625)"/>
     <use xlink:href="#DejaVuSans-6f" transform="translate(1691.357422 0.015625)"/>
     <use xlink:href="#DejaVuSans-72" transform="translate(1752.539062 0.015625)"/>
     <use xlink:href="#DejaVuSans-20" transform="translate(1793.652344 0.015625)"/>
     <use xlink:href="#DejaVuSans-64" transform="translate(1825.439453 0.015625)"/>
     <use xlink:href="#DejaVuSans-69" transform="translate(1888.916016 0.015625)"/>
     <use xlink:href="#DejaVuSans-66" transform="translate(1916.699219 0.015625)"/>
     <use xlink:href="#DejaVuSans-66" transform="translate(1951.904297 0.015625)"/>
     <use xlink:href="#DejaVuSans-65" transform="translate(1987.109375 0.015625)"/>
     <use xlink:href="#DejaVuSans-72" transform="translate(2048.632812 0.015625)"/>
     <use xlink:href="#DejaVuSans-65" transform="translate(2089.746094 0.015625)"/>
     <use xlink:href="#DejaVuSans-6e" transform="translate(2151.269531 0.015625)"/>
     <use xlink:href="#DejaVuSans-74" transform="translate(2214.648438 0.015625)"/>
     <use xlink:href="#DejaVuSans-20" transform="translate(2253.857422 0.015625)"/>
     <use xlink:href="#DejaVuSans-Oblique-74" transform="translate(2285.644531 0.015625)"/>
    </g>
   </g>
   <g id="legend_1">
    <g id="patch_7">
     <path d="M 273.7575 109.710625 
L 337.8575 109.710625 
Q 339.8575 109.710625 339.8575 107.710625 
L 339.8575 35.32 
Q 339.8575 33.32 337.8575 33.32 
L 273.7575 33.32 
Q 271.7575 33.32 271.7575 35.32 
L 271.7575 107.710625 
Q 271.7575 109.710625 273.7575 109.710625 
z
" style="fill: #ffffff; opacity: 0.8; stroke: #cccccc; stroke-linejoin: miter"/>
    </g>
    <g id="text_14">
     <!-- Time -->
     <g transform="translate(293.573906 44.918437) scale(0.1 -0.1)">
      <defs>
       <path id="DejaVuSans-54" d="M -19 4666 
L 3928 4666 
L 3928 4134 
L 2272 4134 
L 2272 0 
L 1638 0 
L 1638 4134 
L -19 4134 
L -19 4666 
z
" transform="scale(0.015625)"/>
      </defs>
      <use xlink:href="#DejaVuSans-54"/>
      <use xlink:href="#DejaVuSans-69" x="57.958984"/>
      <use xlink:href="#DejaVuSans-6d" x="85.742188"/>
      <use xlink:href="#DejaVuSans-65" x="183.154297"/>
     </g>
    </g>
    <g id="line2d_55">
     <path d="M 275.7575 56.096562 
L 285.7575 56.096562 
L 295.7575 56.096562 
" style="fill: none; stroke: #000004; stroke-width: 1.4; stroke-linecap: square"/>
     <g>
      <use xlink:href="#m3ae4a0a14e" x="285.7575" y="56.096562" style="fill-opacity: 0; stroke: #000004"/>
     </g>
    </g>
    <g id="text_15">
     <!-- $t=0.5$ -->
     <g transform="translate(303.7575 59.596562) scale(0.1 -0.1)">
      <defs>
       <path id="DejaVuSans-3d" d="M 678 2906 
L 4684 2906 
L 4684 2381 
L 678 2381 
L 678 2906 
z
M 678 1631 
L 4684 1631 
L 4684 1100 
L 678 1100 
L 678 1631 
z
" transform="scale(0.015625)"/>
      </defs>
      <use xlink:href="#DejaVuSans-Oblique-74" transform="translate(0 0.78125)"/>
      <use xlink:href="#DejaVuSans-3d" transform="translate(58.691406 0.78125)"/>
      <use xlink:href="#DejaVuSans-30" transform="translate(161.962891 0.78125)"/>
      <use xlink:href="#DejaVuSans-2e" transform="translate(225.585938 0.78125)"/>
      <use xlink:href="#DejaVuSans-35" transform="translate(257.373047 0.78125)"/>
     </g>
    </g>
    <g id="line2d_56">
     <path d="M 275.7575 70.774687 
L 285.7575 70.774687 
L 295.7575 70.774687 
" style="fill: none; stroke: #57106e; stroke-width: 1.4; stroke-linecap: square"/>
     <g>
      <use xlink:href="#me95df12117" x="285.7575" y="70.774687" style="fill-opacity: 0; stroke: #57106e"/>
     </g>
    </g>
    <g id="text_16">
     <!-- $t=1.0$ -->
     <g transform="translate(303.7575 74.274687) scale(0.1 -0.1)">
      <use xlink:href="#DejaVuSans-Oblique-74" transform="translate(0 0.78125)"/>
      <use xlink:href="#DejaVuSans-3d" transform="translate(58.691406 0.78125)"/>
      <use xlink:href="#DejaVuSans-31" transform="translate(161.962891 0.78125)"/>
      <use xlink:href="#DejaVuSans-2e" transform="translate(225.585938 0.78125)"/>
      <use xlink:href="#DejaVuSans-30" transform="translate(257.373047 0.78125)"/>
     </g>
    </g>
    <g id="line2d_57">
     <path d="M 275.7575 85.452812 
L 285.7575 85.452812 
L 295.7575 85.452812 
" style="fill: none; stroke: #bc3754; stroke-width: 1.4; stroke-linecap: square"/>
     <g>
      <use xlink:href="#m5a5fdaf194" x="285.7575" y="85.452812" style="fill-opacity: 0; stroke: #bc3754"/>
     </g>
    </g>
    <g id="text_17">
     <!-- $t=1.5$ -->
     <g transform="translate(303.7575 88.952812) scale(0.1 -0.1)">
      <use xlink:href="#DejaVuSans-Oblique-74" transform="translate(0 0.09375)"/>
      <use xlink:href="#DejaVuSans-3d" transform="translate(58.691406 0.09375)"/>
      <use xlink:href="#DejaVuSans-31" transform="translate(161.962891 0.09375)"/>
      <use xlink:href="#DejaVuSans-2e" transform="translate(225.585938 0.09375)"/>
      <use xlink:href="#DejaVuSans-35" transform="translate(257.373047 0.09375)"/>
     </g>
    </g>
    <g id="line2d_58">
     <path d="M 275.7575 100.130937 
L 285.7575 100.130937 
L 295.7575 100.130937 
" style="fill: none; stroke: #f98e09; stroke-width: 1.4; stroke-linecap: square"/>
     <g>
      <use xlink:href="#me11750a7e3" x="285.7575" y="100.130937" style="fill-opacity: 0; stroke: #f98e09"/>
     </g>
    </g>
    <g id="text_18">
     <!-- $t=2.0$ -->
     <g transform="translate(303.7575 103.630937) scale(0.1 -0.1)">
      <use xlink:href="#DejaVuSans-Oblique-74" transform="translate(0 0.78125)"/>
      <use xlink:href="#DejaVuSans-3d" transform="translate(58.691406 0.78125)"/>
      <use xlink:href="#DejaVuSans-32" transform="translate(161.962891 0.78125)"/>
      <use xlink:href="#DejaVuSans-2e" transform="translate(225.585938 0.78125)"/>
      <use xlink:href="#DejaVuSans-30" transform="translate(257.373047 0.78125)"/>
     </g>
    </g>
   </g>
  </g>
 </g>
 <defs>
  <clipPath id="p4799fb68d3">
   <rect x="63.101214" y="28.32" width="281.756286" height="106.84"/>
  </clipPath>
 </defs>
</svg>
