<?xml version="1.0" encoding="utf-8" standalone="no"?>
<!DOCTYPE svg PUBLIC "-//W3C//DTD SVG 1.1//EN"
  "http://www.w3.org/Graphics/SVG/1.1/DTD/svg11.dtd">
<svg xmlns:xlink="http://www.w3.org/1999/xlink" width="360pt" height="216pt" viewBox="0 0 360 216" xmlns="http://www.w3.org/2000/svg" version="1.1">
 <metadata>
  <rdf:RDF xmlns:dc="http://purl.org/dc/elements/1.1/" xmlns:cc="http://creativecommons.org/ns#" xmlns:rdf="http://www.w3.org/1999/02/22-rdf-syntax-ns#">
   <cc:Work>
    <dc:type rdf:resource="http://purl.org/dc/dcmitype/StillImage"/>
    <dc:date>2025-10-29T13:09:01.285267</dc:date>
    <dc:format>image/svg+xml</dc:format>
    <dc:creator>
     <cc:Agent>
      <dc:title>Matplotlib v3.9.1, https://matplotlib.org/</dc:title>
     </cc:Agent>
    </dc:creator>
   </cc:Work>
  </rdf:RDF>
 </metadata>
 <defs>
  <style type="text/css">*{stroke-linejoin: round; stroke-linecap: butt}</style>
 </defs>
 <g id="figure_1">
  <g id="patch_1">
   <path d="M 0 216 
L 360 216 
L 360 0 
L 0 0 
z
" style="fill: #ffffff"/>
  </g>
  <g id="axes_1">
   <g id="patch_2">
    <path d="M 63.101214 171.16 
L 338.175 171.16 
L 338.175 28.464 
L 63.101214 28.464 
z
" style="fill: #ffffff"/>
   </g>
   <g id="matplotlib.axis_1">
    <g id="xtick_1">
     <g id="line2d_1">
      <path d="M 63.101214 171.16 
L 63.101214 28.464 
" clip-path="url(#p4e41c7c5f1)" style="fill: none; stroke-dasharray: 2.22,0.96; stroke-dashoffset: 0; stroke: #b0b0b0; stroke-opacity: 0.7; stroke-width: 0.6"/>
     </g>
     <g id="line2d_2">
      <defs>
       <path id="mc1af6b14c4" d="M 0 0 
L 0 3.5 
" style="stroke: #000000; stroke-width: 0.8"/>
      </defs>
      <g>
       <use xlink:href="#mc1af6b14c4" x="63.101214" y="171.16" style="stroke: #000000; stroke-width: 0.8"/>
      </g>
     </g>
     <g id="text_1">
      <!-- 0.00 -->
      <g transform="translate(51.968401 185.758437) scale(0.1 -0.1)">
       <defs>
        <path id="DejaVuSans-30" d="M 2034 4250 
Q 1547 4250 1301 3770 
Q 1056 3291 1056 2328 
Q 1056 1369 1301 889 
Q 1547 409 2034 409 
Q 2525 409 2770 889 
Q 3016 1369 3016 2328 
Q 3016 3291 2770 3770 
Q 2525 4250 2034 4250 
z
M 2034 4750 
Q 2819 4750 3233 4129 
Q 3647 3509 3647 2328 
Q 3647 1150 3233 529 
Q 2819 -91 2034 -91 
Q 1250 -91 836 529 
Q 422 1150 422 2328 
Q 422 3509 836 4129 
Q 1250 4750 2034 4750 
z
" transform="scale(0.015625)"/>
        <path id="DejaVuSans-2e" d="M 684 794 
L 1344 794 
L 1344 0 
L 684 0 
L 684 794 
z
" transform="scale(0.015625)"/>
       </defs>
       <use xlink:href="#DejaVuSans-30"/>
       <use xlink:href="#DejaVuSans-2e" x="63.623047"/>
       <use xlink:href="#DejaVuSans-30" x="95.410156"/>
       <use xlink:href="#DejaVuSans-30" x="159.033203"/>
      </g>
     </g>
    </g>
    <g id="xtick_2">
     <g id="line2d_3">
      <path d="M 97.485437 171.16 
L 97.485437 28.464 
" clip-path="url(#p4e41c7c5f1)" style="fill: none; stroke-dasharray: 2.22,0.96; stroke-dashoffset: 0; stroke: #b0b0b0; stroke-opacity: 0.7; stroke-width: 0.6"/>
     </g>
     <g id="line2d_4">
      <g>
       <use xlink:href="#mc1af6b14c4" x="97.485437" y="171.16" style="stroke: #000000; stroke-width: 0.8"/>
      </g>
     </g>
     <g id="text_2">
      <!-- 0.25 -->
      <g transform="translate(86.352624 185.758437) scale(0.1 -0.1)">
       <defs>
        <path id="DejaVuSans-32" d="M 1228 531 
L 3431 531 
L 3431 0 
L 469 0 
L 469 531 
Q 828 903 1448 1529 
Q 2069 2156 2228 2338 
Q 2531 2678 2651 2914 
Q 2772 3150 2772 3378 
Q 2772 3750 2511 3984 
Q 2250 4219 1831 4219 
Q 1534 4219 1204 4116 
Q 875 4013 500 3803 
L 500 4441 
Q 881 4594 1212 4672 
Q 1544 4750 1819 4750 
Q 2544 4750 2975 4387 
Q 3406 4025 3406 3419 
Q 3406 3131 3298 2873 
Q 3191 2616 2906 2266 
Q 2828 2175 2409 1742 
Q 1991 1309 1228 531 
z
" transform="scale(0.015625)"/>
        <path id="DejaVuSans-35" d="M 691 4666 
L 3169 4666 
L 3169 4134 
L 1269 4134 
L 1269 2991 
Q 1406 3038 1543 3061 
Q 1681 3084 1819 3084 
Q 2600 3084 3056 2656 
Q 3513 2228 3513 1497 
Q 3513 744 3044 326 
Q 2575 -91 1722 -91 
Q 1428 -91 1123 -41 
Q 819 9 494 109 
L 494 744 
Q 775 591 1075 516 
Q 1375 441 1709 441 
Q 2250 441 2565 725 
Q 2881 1009 2881 1497 
Q 2881 1984 2565 2268 
Q 2250 2553 1709 2553 
Q 1456 2553 1204 2497 
Q 953 2441 691 2322 
L 691 4666 
z
" transform="scale(0.015625)"/>
       </defs>
       <use xlink:href="#DejaVuSans-30"/>
       <use xlink:href="#DejaVuSans-2e" x="63.623047"/>
       <use xlink:href="#DejaVuSans-32" x="95.410156"/>
       <use xlink:href="#DejaVuSans-35" x="159.033203"/>
      </g>
     </g>
    </g>
    <g id="xtick_3">
     <g id="line2d_5">
      <path d="M 131.86966 171.16 
L 131.86966 28.464 
" clip-path="url(#p4e41c7c5f1)" style="fill: none; stroke-dasharray: 2.22,0.96; stroke-dashoffset: 0; stroke: #b0b0b0; stroke-opacity: 0.7; stroke-width: 0.6"/>
     </g>
     <g id="line2d_6">
      <g>
       <use xlink:href="#mc1af6b14c4" x="131.86966" y="171.16" style="stroke: #000000; stroke-width: 0.8"/>
      </g>
     </g>
     <g id="text_3">
      <!-- 0.50 -->
      <g transform="translate(120.736848 185.758437) scale(0.1 -0.1)">
       <use xlink:href="#DejaVuSans-30"/>
       <use xlink:href="#DejaVuSans-2e" x="63.623047"/>
       <use xlink:href="#DejaVuSans-35" x="95.410156"/>
       <use xlink:href="#DejaVuSans-30" x="159.033203"/>
      </g>
     </g>
    </g>
    <g id="xtick_4">
     <g id="line2d_7">
      <path d="M 166.253883 171.16 
L 166.253883 28.464 
" clip-path="url(#p4e41c7c5f1)" style="fill: none; stroke-dasharray: 2.22,0.96; stroke-dashoffset: 0; stroke: #b0b0b0; stroke-opacity: 0.7; stroke-width: 0.6"/>
     </g>
     <g id="line2d_8">
      <g>
       <use xlink:href="#mc1af6b14c4" x="166.253883" y="171.16" style="stroke: #000000; stroke-width: 0.8"/>
      </g>
     </g>
     <g id="text_4">
      <!-- 0.75 -->
      <g transform="translate(155.121071 185.758437) scale(0.1 -0.1)">
       <defs>
        <path id="DejaVuSans-37" d="M 525 4666 
L 3525 4666 
L 3525 4397 
L 1831 0 
L 1172 0 
L 2766 4134 
L 525 4134 
L 525 4666 
z
" transform="scale(0.015625)"/>
       </defs>
       <use xlink:href="#DejaVuSans-30"/>
       <use xlink:href="#DejaVuSans-2e" x="63.623047"/>
       <use xlink:href="#DejaVuSans-37" x="95.410156"/>
       <use xlink:href="#DejaVuSans-35" x="159.033203"/>
      </g>
     </g>
    </g>
    <g id="xtick_5">
     <g id="line2d_9">
      <path d="M 200.638107 171.16 
L 200.638107 28.464 
" clip-path="url(#p4e41c7c5f1)" style="fill: none; stroke-dasharray: 2.22,0.96; stroke-dashoffset: 0; stroke: #b0b0b0; stroke-opacity: 0.7; stroke-width: 0.6"/>
     </g>
     <g id="line2d_10">
      <g>
       <use xlink:href="#mc1af6b14c4" x="200.638107" y="171.16" style="stroke: #000000; stroke-width: 0.8"/>
      </g>
     </g>
     <g id="text_5">
      <!-- 1.00 -->
      <g transform="translate(189.505294 185.758437) scale(0.1 -0.1)">
       <defs>
        <path id="DejaVuSans-31" d="M 794 531 
L 1825 531 
L 1825 4091 
L 703 3866 
L 703 4441 
L 1819 4666 
L 2450 4666 
L 2450 531 
L 3481 531 
L 3481 0 
L 794 0 
L 794 531 
z
" transform="scale(0.015625)"/>
       </defs>
       <use xlink:href="#DejaVuSans-31"/>
       <use xlink:href="#DejaVuSans-2e" x="63.623047"/>
       <use xlink:href="#DejaVuSans-30" x="95.410156"/>
       <use xlink:href="#DejaVuSans-30" x="159.033203"/>
      </g>
     </g>
    </g>
    <g id="xtick_6">
     <g id="line2d_11">
      <path d="M 235.02233 171.16 
L 235.02233 28.464 
" clip-path="url(#p4e41c7c5f1)" style="fill: none; stroke-dasharray: 2.22,0.96; stroke-dashoffset: 0; stroke: #b0b0b0; stroke-opacity: 0.7; stroke-width: 0.6"/>
     </g>
     <g id="line2d_12">
      <g>
       <use xlink:href="#mc1af6b14c4" x="235.02233" y="171.16" style="stroke: #000000; stroke-width: 0.8"/>
      </g>
     </g>
     <g id="text_6">
      <!-- 1.25 -->
      <g transform="translate(223.889518 185.758437) scale(0.1 -0.1)">
       <use xlink:href="#DejaVuSans-31"/>
       <use xlink:href="#DejaVuSans-2e" x="63.623047"/>
       <use xlink:href="#DejaVuSans-32" x="95.410156"/>
       <use xlink:href="#DejaVuSans-35" x="159.033203"/>
      </g>
     </g>
    </g>
    <g id="xtick_7">
     <g id="line2d_13">
      <path d="M 269.406553 171.16 
L 269.406553 28.464 
" clip-path="url(#p4e41c7c5f1)" style="fill: none; stroke-dasharray: 2.22,0.96; stroke-dashoffset: 0; stroke: #b0b0b0; stroke-opacity: 0.7; stroke-width: 0.6"/>
     </g>
     <g id="line2d_14">
      <g>
       <use xlink:href="#mc1af6b14c4" x="269.406553" y="171.16" style="stroke: #000000; stroke-width: 0.8"/>
      </g>
     </g>
     <g id="text_7">
      <!-- 1.50 -->
      <g transform="translate(258.273741 185.758437) scale(0.1 -0.1)">
       <use xlink:href="#DejaVuSans-31"/>
       <use xlink:href="#DejaVuSans-2e" x="63.623047"/>
       <use xlink:href="#DejaVuSans-35" x="95.410156"/>
       <use xlink:href="#DejaVuSans-30" x="159.033203"/>
      </g>
     </g>
    </g>
    <g id="xtick_8">
     <g id="line2d_15">
      <path d="M 303.790777 171.16 
L 303.790777 28.464 
" clip-path="url(#p4e41c7c5f1)" style="fill: none; stroke-dasharray: 2.22,0.96; stroke-dashoffset: 0; stroke: #b0b0b0; stroke-opacity: 0.7; stroke-width: 0.6"/>
     </g>
     <g id="line2d_16">
      <g>
       <use xlink:href="#mc1af6b14c4" x="303.790777" y="171.16" style="stroke: #000000; stroke-width: 0.8"/>
      </g>
     </g>
     <g id="text_8">
      <!-- 1.75 -->
      <g transform="translate(292.657964 185.758437) scale(0.1 -0.1)">
       <use xlink:href="#DejaVuSans-31"/>
       <use xlink:href="#DejaVuSans-2e" x="63.623047"/>
       <use xlink:href="#DejaVuSans-37" x="95.410156"/>
       <use xlink:href="#DejaVuSans-35" x="159.033203"/>
      </g>
     </g>
    </g>
    <g id="xtick_9">
     <g id="line2d_17">
      <path d="M 338.175 171.16 
L 338.175 28.464 
" clip-path="url(#p4e41c7c5f1)" style="fill: none; stroke-dasharray: 2.22,0.96; stroke-dashoffset: 0; stroke: #b0b0b0; stroke-opacity: 0.7; stroke-width: 0.6"/>
     </g>
     <g id="line2d_18">
      <g>
       <use xlink:href="#mc1af6b14c4" x="338.175" y="171.16" style="stroke: #000000; stroke-width: 0.8"/>
      </g>
     </g>
     <g id="text_9">
      <!-- 2.00 -->
      <g transform="translate(327.042187 185.758437) scale(0.1 -0.1)">
       <use xlink:href="#DejaVuSans-32"/>
       <use xlink:href="#DejaVuSans-2e" x="63.623047"/>
       <use xlink:href="#DejaVuSans-30" x="95.410156"/>
       <use xlink:href="#DejaVuSans-30" x="159.033203"/>
      </g>
     </g>
    </g>
    <g id="text_10">
     <!-- Time -->
     <g transform="translate(185.957794 200.95625) scale(0.12 -0.12)">
      <defs>
       <path id="DejaVuSans-54" d="M -19 4666 
L 3928 4666 
L 3928 4134 
L 2272 4134 
L 2272 0 
L 1638 0 
L 1638 4134 
L -19 4134 
L -19 4666 
z
" transform="scale(0.015625)"/>
       <path id="DejaVuSans-69" d="M 603 3500 
L 1178 3500 
L 1178 0 
L 603 0 
L 603 3500 
z
M 603 4863 
L 1178 4863 
L 1178 4134 
L 603 4134 
L 603 4863 
z
" transform="scale(0.015625)"/>
       <path id="DejaVuSans-6d" d="M 3328 2828 
Q 3544 3216 3844 3400 
Q 4144 3584 4550 3584 
Q 5097 3584 5394 3201 
Q 5691 2819 5691 2113 
L 5691 0 
L 5113 0 
L 5113 2094 
Q 5113 2597 4934 2840 
Q 4756 3084 4391 3084 
Q 3944 3084 3684 2787 
Q 3425 2491 3425 1978 
L 3425 0 
L 2847 0 
L 2847 2094 
Q 2847 2600 2669 2842 
Q 2491 3084 2119 3084 
Q 1678 3084 1418 2786 
Q 1159 2488 1159 1978 
L 1159 0 
L 581 0 
L 581 3500 
L 1159 3500 
L 1159 2956 
Q 1356 3278 1631 3431 
Q 1906 3584 2284 3584 
Q 2666 3584 2933 3390 
Q 3200 3197 3328 2828 
z
" transform="scale(0.015625)"/>
       <path id="DejaVuSans-65" d="M 3597 1894 
L 3597 1613 
L 953 1613 
Q 991 1019 1311 708 
Q 1631 397 2203 397 
Q 2534 397 2845 478 
Q 3156 559 3463 722 
L 3463 178 
Q 3153 47 2828 -22 
Q 2503 -91 2169 -91 
Q 1331 -91 842 396 
Q 353 884 353 1716 
Q 353 2575 817 3079 
Q 1281 3584 2069 3584 
Q 2775 3584 3186 3129 
Q 3597 2675 3597 1894 
z
M 3022 2063 
Q 3016 2534 2758 2815 
Q 2500 3097 2075 3097 
Q 1594 3097 1305 2825 
Q 1016 2553 972 2059 
L 3022 2063 
z
" transform="scale(0.015625)"/>
      </defs>
      <use xlink:href="#DejaVuSans-54"/>
      <use xlink:href="#DejaVuSans-69" x="57.958984"/>
      <use xlink:href="#DejaVuSans-6d" x="85.742188"/>
      <use xlink:href="#DejaVuSans-65" x="183.154297"/>
     </g>
    </g>
   </g>
   <g id="matplotlib.axis_2">
    <g id="ytick_1">
     <g id="line2d_19">
      <path d="M 63.101214 153.267993 
L 338.175 153.267993 
" clip-path="url(#p4e41c7c5f1)" style="fill: none; stroke-dasharray: 2.22,0.96; stroke-dashoffset: 0; stroke: #b0b0b0; stroke-opacity: 0.7; stroke-width: 0.6"/>
     </g>
     <g id="line2d_20">
      <defs>
       <path id="m3061414c65" d="M 0 0 
L -3.5 0 
" style="stroke: #000000; stroke-width: 0.8"/>
      </defs>
      <g>
       <use xlink:href="#m3061414c65" x="63.101214" y="153.267993" style="stroke: #000000; stroke-width: 0.8"/>
      </g>
     </g>
     <g id="text_11">
      <!-- $\mathdefault{10^{-11}}$ -->
      <g transform="translate(28.201214 157.067212) scale(0.1 -0.1)">
       <defs>
        <path id="DejaVuSans-2212" d="M 678 2272 
L 4684 2272 
L 4684 1741 
L 678 1741 
L 678 2272 
z
" transform="scale(0.015625)"/>
       </defs>
       <use xlink:href="#DejaVuSans-31" transform="translate(0 0.684375)"/>
       <use xlink:href="#DejaVuSans-30" transform="translate(63.623047 0.684375)"/>
       <use xlink:href="#DejaVuSans-2212" transform="translate(128.203125 38.965625) scale(0.7)"/>
       <use xlink:href="#DejaVuSans-31" transform="translate(186.855469 38.965625) scale(0.7)"/>
       <use xlink:href="#DejaVuSans-31" transform="translate(231.391602 38.965625) scale(0.7)"/>
      </g>
     </g>
    </g>
    <g id="ytick_2">
     <g id="line2d_21">
      <path d="M 63.101214 130.456343 
L 338.175 130.456343 
" clip-path="url(#p4e41c7c5f1)" style="fill: none; stroke-dasharray: 2.22,0.96; stroke-dashoffset: 0; stroke: #b0b0b0; stroke-opacity: 0.7; stroke-width: 0.6"/>
     </g>
     <g id="line2d_22">
      <g>
       <use xlink:href="#m3061414c65" x="63.101214" y="130.456343" style="stroke: #000000; stroke-width: 0.8"/>
      </g>
     </g>
     <g id="text_12">
      <!-- $\mathdefault{10^{-9}}$ -->
      <g transform="translate(32.601214 134.255561) scale(0.1 -0.1)">
       <defs>
        <path id="DejaVuSans-39" d="M 703 97 
L 703 672 
Q 941 559 1184 500 
Q 1428 441 1663 441 
Q 2288 441 2617 861 
Q 2947 1281 2994 2138 
Q 2813 1869 2534 1725 
Q 2256 1581 1919 1581 
Q 1219 1581 811 2004 
Q 403 2428 403 3163 
Q 403 3881 828 4315 
Q 1253 4750 1959 4750 
Q 2769 4750 3195 4129 
Q 3622 3509 3622 2328 
Q 3622 1225 3098 567 
Q 2575 -91 1691 -91 
Q 1453 -91 1209 -44 
Q 966 3 703 97 
z
M 1959 2075 
Q 2384 2075 2632 2365 
Q 2881 2656 2881 3163 
Q 2881 3666 2632 3958 
Q 2384 4250 1959 4250 
Q 1534 4250 1286 3958 
Q 1038 3666 1038 3163 
Q 1038 2656 1286 2365 
Q 1534 2075 1959 2075 
z
" transform="scale(0.015625)"/>
       </defs>
       <use xlink:href="#DejaVuSans-31" transform="translate(0 0.765625)"/>
       <use xlink:href="#DejaVuSans-30" transform="translate(63.623047 0.765625)"/>
       <use xlink:href="#DejaVuSans-2212" transform="translate(128.203125 39.046875) scale(0.7)"/>
       <use xlink:href="#DejaVuSans-39" transform="translate(186.855469 39.046875) scale(0.7)"/>
      </g>
     </g>
    </g>
    <g id="ytick_3">
     <g id="line2d_23">
      <path d="M 63.101214 107.644692 
L 338.175 107.644692 
" clip-path="url(#p4e41c7c5f1)" style="fill: none; stroke-dasharray: 2.22,0.96; stroke-dashoffset: 0; stroke: #b0b0b0; stroke-opacity: 0.7; stroke-width: 0.6"/>
     </g>
     <g id="line2d_24">
      <g>
       <use xlink:href="#m3061414c65" x="63.101214" y="107.644692" style="stroke: #000000; stroke-width: 0.8"/>
      </g>
     </g>
     <g id="text_13">
      <!-- $\mathdefault{10^{-7}}$ -->
      <g transform="translate(32.601214 111.443911) scale(0.1 -0.1)">
       <use xlink:href="#DejaVuSans-31" transform="translate(0 0.684375)"/>
       <use xlink:href="#DejaVuSans-30" transform="translate(63.623047 0.684375)"/>
       <use xlink:href="#DejaVuSans-2212" transform="translate(128.203125 38.965625) scale(0.7)"/>
       <use xlink:href="#DejaVuSans-37" transform="translate(186.855469 38.965625) scale(0.7)"/>
      </g>
     </g>
    </g>
    <g id="ytick_4">
     <g id="line2d_25">
      <path d="M 63.101214 84.833042 
L 338.175 84.833042 
" clip-path="url(#p4e41c7c5f1)" style="fill: none; stroke-dasharray: 2.22,0.96; stroke-dashoffset: 0; stroke: #b0b0b0; stroke-opacity: 0.7; stroke-width: 0.6"/>
     </g>
     <g id="line2d_26">
      <g>
       <use xlink:href="#m3061414c65" x="63.101214" y="84.833042" style="stroke: #000000; stroke-width: 0.8"/>
      </g>
     </g>
     <g id="text_14">
      <!-- $\mathdefault{10^{-5}}$ -->
      <g transform="translate(32.601214 88.632261) scale(0.1 -0.1)">
       <use xlink:href="#DejaVuSans-31" transform="translate(0 0.684375)"/>
       <use xlink:href="#DejaVuSans-30" transform="translate(63.623047 0.684375)"/>
       <use xlink:href="#DejaVuSans-2212" transform="translate(128.203125 38.965625) scale(0.7)"/>
       <use xlink:href="#DejaVuSans-35" transform="translate(186.855469 38.965625) scale(0.7)"/>
      </g>
     </g>
    </g>
    <g id="ytick_5">
     <g id="line2d_27">
      <path d="M 63.101214 62.021392 
L 338.175 62.021392 
" clip-path="url(#p4e41c7c5f1)" style="fill: none; stroke-dasharray: 2.22,0.96; stroke-dashoffset: 0; stroke: #b0b0b0; stroke-opacity: 0.7; stroke-width: 0.6"/>
     </g>
     <g id="line2d_28">
      <g>
       <use xlink:href="#m3061414c65" x="63.101214" y="62.021392" style="stroke: #000000; stroke-width: 0.8"/>
      </g>
     </g>
     <g id="text_15">
      <!-- $\mathdefault{10^{-3}}$ -->
      <g transform="translate(32.601214 65.82061) scale(0.1 -0.1)">
       <defs>
        <path id="DejaVuSans-33" d="M 2597 2516 
Q 3050 2419 3304 2112 
Q 3559 1806 3559 1356 
Q 3559 666 3084 287 
Q 2609 -91 1734 -91 
Q 1441 -91 1130 -33 
Q 819 25 488 141 
L 488 750 
Q 750 597 1062 519 
Q 1375 441 1716 441 
Q 2309 441 2620 675 
Q 2931 909 2931 1356 
Q 2931 1769 2642 2001 
Q 2353 2234 1838 2234 
L 1294 2234 
L 1294 2753 
L 1863 2753 
Q 2328 2753 2575 2939 
Q 2822 3125 2822 3475 
Q 2822 3834 2567 4026 
Q 2313 4219 1838 4219 
Q 1578 4219 1281 4162 
Q 984 4106 628 3988 
L 628 4550 
Q 988 4650 1302 4700 
Q 1616 4750 1894 4750 
Q 2613 4750 3031 4423 
Q 3450 4097 3450 3541 
Q 3450 3153 3228 2886 
Q 3006 2619 2597 2516 
z
" transform="scale(0.015625)"/>
       </defs>
       <use xlink:href="#DejaVuSans-31" transform="translate(0 0.765625)"/>
       <use xlink:href="#DejaVuSans-30" transform="translate(63.623047 0.765625)"/>
       <use xlink:href="#DejaVuSans-2212" transform="translate(128.203125 39.046875) scale(0.7)"/>
       <use xlink:href="#DejaVuSans-33" transform="translate(186.855469 39.046875) scale(0.7)"/>
      </g>
     </g>
    </g>
    <g id="ytick_6">
     <g id="line2d_29">
      <path d="M 63.101214 39.209741 
L 338.175 39.209741 
" clip-path="url(#p4e41c7c5f1)" style="fill: none; stroke-dasharray: 2.22,0.96; stroke-dashoffset: 0; stroke: #b0b0b0; stroke-opacity: 0.7; stroke-width: 0.6"/>
     </g>
     <g id="line2d_30">
      <g>
       <use xlink:href="#m3061414c65" x="63.101214" y="39.209741" style="stroke: #000000; stroke-width: 0.8"/>
      </g>
     </g>
     <g id="text_16">
      <!-- $\mathdefault{10^{-1}}$ -->
      <g transform="translate(32.601214 43.00896) scale(0.1 -0.1)">
       <use xlink:href="#DejaVuSans-31" transform="translate(0 0.684375)"/>
       <use xlink:href="#DejaVuSans-30" transform="translate(63.623047 0.684375)"/>
       <use xlink:href="#DejaVuSans-2212" transform="translate(128.203125 38.965625) scale(0.7)"/>
       <use xlink:href="#DejaVuSans-31" transform="translate(186.855469 38.965625) scale(0.7)"/>
      </g>
     </g>
    </g>
    <g id="text_17">
     <!-- Frobenius norm at site 12 -->
     <g transform="translate(21.705589 176.537) rotate(-90) scale(0.12 -0.12)">
      <defs>
       <path id="DejaVuSans-46" d="M 628 4666 
L 3309 4666 
L 3309 4134 
L 1259 4134 
L 1259 2759 
L 3109 2759 
L 3109 2228 
L 1259 2228 
L 1259 0 
L 628 0 
L 628 4666 
z
" transform="scale(0.015625)"/>
       <path id="DejaVuSans-72" d="M 2631 2963 
Q 2534 3019 2420 3045 
Q 2306 3072 2169 3072 
Q 1681 3072 1420 2755 
Q 1159 2438 1159 1844 
L 1159 0 
L 581 0 
L 581 3500 
L 1159 3500 
L 1159 2956 
Q 1341 3275 1631 3429 
Q 1922 3584 2338 3584 
Q 2397 3584 2469 3576 
Q 2541 3569 2628 3553 
L 2631 2963 
z
" transform="scale(0.015625)"/>
       <path id="DejaVuSans-6f" d="M 1959 3097 
Q 1497 3097 1228 2736 
Q 959 2375 959 1747 
Q 959 1119 1226 758 
Q 1494 397 1959 397 
Q 2419 397 2687 759 
Q 2956 1122 2956 1747 
Q 2956 2369 2687 2733 
Q 2419 3097 1959 3097 
z
M 1959 3584 
Q 2709 3584 3137 3096 
Q 3566 2609 3566 1747 
Q 3566 888 3137 398 
Q 2709 -91 1959 -91 
Q 1206 -91 779 398 
Q 353 888 353 1747 
Q 353 2609 779 3096 
Q 1206 3584 1959 3584 
z
" transform="scale(0.015625)"/>
       <path id="DejaVuSans-62" d="M 3116 1747 
Q 3116 2381 2855 2742 
Q 2594 3103 2138 3103 
Q 1681 3103 1420 2742 
Q 1159 2381 1159 1747 
Q 1159 1113 1420 752 
Q 1681 391 2138 391 
Q 2594 391 2855 752 
Q 3116 1113 3116 1747 
z
M 1159 2969 
Q 1341 3281 1617 3432 
Q 1894 3584 2278 3584 
Q 2916 3584 3314 3078 
Q 3713 2572 3713 1747 
Q 3713 922 3314 415 
Q 2916 -91 2278 -91 
Q 1894 -91 1617 61 
Q 1341 213 1159 525 
L 1159 0 
L 581 0 
L 581 4863 
L 1159 4863 
L 1159 2969 
z
" transform="scale(0.015625)"/>
       <path id="DejaVuSans-6e" d="M 3513 2113 
L 3513 0 
L 2938 0 
L 2938 2094 
Q 2938 2591 2744 2837 
Q 2550 3084 2163 3084 
Q 1697 3084 1428 2787 
Q 1159 2491 1159 1978 
L 1159 0 
L 581 0 
L 581 3500 
L 1159 3500 
L 1159 2956 
Q 1366 3272 1645 3428 
Q 1925 3584 2291 3584 
Q 2894 3584 3203 3211 
Q 3513 2838 3513 2113 
z
" transform="scale(0.015625)"/>
       <path id="DejaVuSans-75" d="M 544 1381 
L 544 3500 
L 1119 3500 
L 1119 1403 
Q 1119 906 1312 657 
Q 1506 409 1894 409 
Q 2359 409 2629 706 
Q 2900 1003 2900 1516 
L 2900 3500 
L 3475 3500 
L 3475 0 
L 2900 0 
L 2900 538 
Q 2691 219 2414 64 
Q 2138 -91 1772 -91 
Q 1169 -91 856 284 
Q 544 659 544 1381 
z
M 1991 3584 
L 1991 3584 
z
" transform="scale(0.015625)"/>
       <path id="DejaVuSans-73" d="M 2834 3397 
L 2834 2853 
Q 2591 2978 2328 3040 
Q 2066 3103 1784 3103 
Q 1356 3103 1142 2972 
Q 928 2841 928 2578 
Q 928 2378 1081 2264 
Q 1234 2150 1697 2047 
L 1894 2003 
Q 2506 1872 2764 1633 
Q 3022 1394 3022 966 
Q 3022 478 2636 193 
Q 2250 -91 1575 -91 
Q 1294 -91 989 -36 
Q 684 19 347 128 
L 347 722 
Q 666 556 975 473 
Q 1284 391 1588 391 
Q 1994 391 2212 530 
Q 2431 669 2431 922 
Q 2431 1156 2273 1281 
Q 2116 1406 1581 1522 
L 1381 1569 
Q 847 1681 609 1914 
Q 372 2147 372 2553 
Q 372 3047 722 3315 
Q 1072 3584 1716 3584 
Q 2034 3584 2315 3537 
Q 2597 3491 2834 3397 
z
" transform="scale(0.015625)"/>
       <path id="DejaVuSans-20" transform="scale(0.015625)"/>
       <path id="DejaVuSans-61" d="M 2194 1759 
Q 1497 1759 1228 1600 
Q 959 1441 959 1056 
Q 959 750 1161 570 
Q 1363 391 1709 391 
Q 2188 391 2477 730 
Q 2766 1069 2766 1631 
L 2766 1759 
L 2194 1759 
z
M 3341 1997 
L 3341 0 
L 2766 0 
L 2766 531 
Q 2569 213 2275 61 
Q 1981 -91 1556 -91 
Q 1019 -91 701 211 
Q 384 513 384 1019 
Q 384 1609 779 1909 
Q 1175 2209 1959 2209 
L 2766 2209 
L 2766 2266 
Q 2766 2663 2505 2880 
Q 2244 3097 1772 3097 
Q 1472 3097 1187 3025 
Q 903 2953 641 2809 
L 641 3341 
Q 956 3463 1253 3523 
Q 1550 3584 1831 3584 
Q 2591 3584 2966 3190 
Q 3341 2797 3341 1997 
z
" transform="scale(0.015625)"/>
       <path id="DejaVuSans-74" d="M 1172 4494 
L 1172 3500 
L 2356 3500 
L 2356 3053 
L 1172 3053 
L 1172 1153 
Q 1172 725 1289 603 
Q 1406 481 1766 481 
L 2356 481 
L 2356 0 
L 1766 0 
Q 1100 0 847 248 
Q 594 497 594 1153 
L 594 3053 
L 172 3053 
L 172 3500 
L 594 3500 
L 594 4494 
L 1172 4494 
z
" transform="scale(0.015625)"/>
      </defs>
      <use xlink:href="#DejaVuSans-46"/>
      <use xlink:href="#DejaVuSans-72" x="50.269531"/>
      <use xlink:href="#DejaVuSans-6f" x="89.132812"/>
      <use xlink:href="#DejaVuSans-62" x="150.314453"/>
      <use xlink:href="#DejaVuSans-65" x="213.791016"/>
      <use xlink:href="#DejaVuSans-6e" x="275.314453"/>
      <use xlink:href="#DejaVuSans-69" x="338.693359"/>
      <use xlink:href="#DejaVuSans-75" x="366.476562"/>
      <use xlink:href="#DejaVuSans-73" x="429.855469"/>
      <use xlink:href="#DejaVuSans-20" x="481.955078"/>
      <use xlink:href="#DejaVuSans-6e" x="513.742188"/>
      <use xlink:href="#DejaVuSans-6f" x="577.121094"/>
      <use xlink:href="#DejaVuSans-72" x="638.302734"/>
      <use xlink:href="#DejaVuSans-6d" x="677.666016"/>
      <use xlink:href="#DejaVuSans-20" x="775.078125"/>
      <use xlink:href="#DejaVuSans-61" x="806.865234"/>
      <use xlink:href="#DejaVuSans-74" x="868.144531"/>
      <use xlink:href="#DejaVuSans-20" x="907.353516"/>
      <use xlink:href="#DejaVuSans-73" x="939.140625"/>
      <use xlink:href="#DejaVuSans-69" x="991.240234"/>
      <use xlink:href="#DejaVuSans-74" x="1019.023438"/>
      <use xlink:href="#DejaVuSans-65" x="1058.232422"/>
      <use xlink:href="#DejaVuSans-20" x="1119.755859"/>
      <use xlink:href="#DejaVuSans-31" x="1151.542969"/>
      <use xlink:href="#DejaVuSans-32" x="1215.166016"/>
     </g>
    </g>
   </g>
   <g id="line2d_31">
    <path d="M 63.101214 164.673818 
L 74.104165 164.673818 
L 76.854903 154.127221 
L 78.230272 149.361886 
L 80.98101 141.213161 
L 83.731748 134.238644 
L 86.482485 128.169849 
L 89.233223 122.80403 
L 91.983961 118.003775 
L 94.734699 113.668457 
L 97.485437 109.722013 
L 100.236175 106.106232 
L 102.986913 102.775321 
L 105.73765 99.692718 
L 109.863757 95.470896 
L 113.989864 91.66326 
L 118.115971 88.210101 
L 122.242078 85.065762 
L 126.368184 82.195267 
L 130.494291 79.572001 
L 134.620398 77.176022 
L 138.746505 74.992711 
L 142.872612 73.011685 
L 146.998718 71.225872 
L 151.124825 69.630787 
L 155.250932 68.224002 
L 159.377039 67.004831 
L 163.503146 65.974262 
L 167.629252 65.135161 
L 171.755359 64.4928 
L 175.881466 64.055836 
L 180.007573 63.837999 
L 184.13368 63.86105 
L 188.259786 64.160343 
L 191.010524 64.541558 
L 193.761262 65.100357 
L 196.512 65.882916 
L 199.262738 66.96961 
L 200.638107 67.671169 
L 202.013476 68.520069 
L 203.388845 69.572796 
L 204.764214 70.932366 
L 206.139583 72.819909 
L 207.514951 75.876977 
L 208.89032 84.910002 
L 210.265689 77.987271 
L 211.641058 74.088166 
L 213.016427 72.02647 
L 214.391796 70.659096 
L 215.767165 69.667912 
L 217.142534 68.918643 
L 218.517903 68.342283 
L 221.268641 67.564334 
L 224.019379 67.162465 
L 226.770116 67.066188 
L 229.520854 67.25373 
L 232.271592 67.739101 
L 235.02233 68.579323 
L 236.397699 69.169999 
L 237.773068 69.911929 
L 239.148437 70.856415 
L 240.523806 72.096461 
L 241.899175 73.827288 
L 243.274544 76.585075 
L 244.649913 83.4382 
L 246.025282 80.097413 
L 247.40065 75.609291 
L 248.776019 73.364729 
L 250.151388 71.897524 
L 251.526757 70.839653 
L 252.902126 70.041839 
L 254.277495 69.429146 
L 257.028233 68.606267 
L 259.778971 68.193615 
L 262.529709 68.127472 
L 265.280447 68.406003 
L 266.655816 68.689945 
L 268.031184 69.088866 
L 269.406553 69.627672 
L 270.781922 70.347631 
L 272.157291 71.32177 
L 273.53266 72.695258 
L 274.908029 74.823354 
L 277.658767 83.065131 
L 279.034136 75.740946 
L 280.409505 72.829057 
L 281.784874 70.967975 
L 283.160243 69.598911 
L 284.535612 68.520148 
L 285.910981 67.635425 
L 288.661718 66.253951 
L 291.412456 65.220072 
L 294.163194 64.423078 
L 298.289301 63.541247 
L 302.415408 62.929349 
L 307.916883 62.403259 
L 313.418359 62.10096 
L 321.670573 61.903635 
L 332.673524 61.895861 
L 346.427214 61.885913 
L 354.679427 61.619909 
L 361 61.245189 
L 361 61.245189 
" clip-path="url(#p4e41c7c5f1)" style="fill: none; stroke: #1f78b5; stroke-width: 1.8; stroke-linecap: square"/>
   </g>
   <g id="line2d_32">
    <path d="M 63.101214 164.673818 
L 64.476583 157.567126 
L 65.851951 143.846266 
L 67.22732 136.020788 
L 68.602689 130.607217 
L 69.978058 126.582823 
L 71.353427 123.503422 
L 72.728796 121.162344 
L 74.104165 119.491512 
L 75.479534 118.559071 
L 76.854903 118.723616 
L 78.230272 121.84314 
L 79.605641 120.557462 
L 80.98101 113.09381 
L 82.356379 108.850395 
L 83.731748 105.604153 
L 85.107116 102.882439 
L 86.482485 100.49838 
L 89.233223 96.400055 
L 91.983961 92.907199 
L 94.734699 89.834173 
L 97.485437 87.075644 
L 100.236175 84.564555 
L 104.362282 81.165352 
L 108.488388 78.118557 
L 112.614495 75.357377 
L 116.740602 72.837291 
L 120.866709 70.527809 
L 126.368184 67.739985 
L 131.86966 65.253773 
L 137.371136 63.044508 
L 142.872612 61.093491 
L 148.374087 59.38535 
L 153.875563 57.906661 
L 159.377039 56.64523 
L 164.878515 55.589707 
L 170.37999 54.729286 
L 177.256835 53.911961 
L 184.13368 53.361501 
L 191.010524 53.053905 
L 197.887369 52.959879 
L 206.139583 53.074861 
L 218.517903 53.52174 
L 232.271592 53.990908 
L 241.899175 54.100954 
L 255.652864 53.998798 
L 269.406553 53.94219 
L 279.034136 54.114255 
L 288.661718 54.525952 
L 298.289301 55.179116 
L 309.292252 56.17749 
L 324.421311 57.615897 
L 329.922786 57.870197 
L 334.048893 57.853984 
L 338.175 57.642254 
L 343.676476 57.106887 
L 354.679427 55.682086 
L 361 54.922859 
L 361 54.922859 
" clip-path="url(#p4e41c7c5f1)" style="fill: none; stroke: #ff800d; stroke-width: 1.8; stroke-linecap: square"/>
   </g>
   <g id="line2d_33">
    <path d="M 63.101214 164.673818 
L 64.476583 159.233838 
L 65.851951 145.436056 
L 67.22732 137.443844 
L 68.602689 131.818395 
L 69.978058 127.497108 
L 71.353427 124.011816 
L 72.728796 121.112825 
L 74.104165 118.654545 
L 75.479534 116.544123 
L 76.854903 114.721371 
L 78.230272 113.146565 
L 79.605641 111.794739 
L 80.98101 110.652999 
L 82.356379 109.720371 
L 83.731748 109.009798 
L 85.107116 108.554965 
L 86.482485 108.427435 
L 87.857854 108.78383 
L 89.233223 110.038927 
L 90.608592 114.063798 
L 91.983961 113.750117 
L 93.35933 106.963613 
L 94.734699 103.359376 
L 96.110068 100.69075 
L 97.485437 98.491946 
L 98.860806 96.583648 
L 101.611544 93.320852 
L 104.362282 90.541882 
L 107.113019 88.090676 
L 109.863757 85.883282 
L 113.989864 82.921803 
L 118.115971 80.288441 
L 122.242078 77.916807 
L 126.368184 75.762754 
L 131.86966 73.17661 
L 137.371136 70.870558 
L 142.872612 68.807611 
L 148.374087 66.959886 
L 155.250932 64.918779 
L 162.127777 63.140579 
L 169.004621 61.58962 
L 177.256835 59.979274 
L 185.509049 58.587903 
L 195.136631 57.175693 
L 206.139583 55.780341 
L 217.142534 54.603548 
L 226.770116 53.776469 
L 236.397699 53.169424 
L 246.025282 52.804259 
L 255.652864 52.690025 
L 265.280447 52.830398 
L 273.53266 53.166114 
L 281.784874 53.738423 
L 288.661718 54.455842 
L 294.163194 55.25544 
L 298.289301 56.047071 
L 302.415408 57.085675 
L 305.166146 57.984876 
L 307.916883 59.144843 
L 309.292252 59.871406 
L 310.667621 60.74324 
L 312.04299 61.826645 
L 313.418359 63.247728 
L 314.793728 65.29668 
L 316.169097 68.953339 
L 317.544466 79.783616 
L 318.919835 67.869215 
L 320.295204 64.623123 
L 321.670573 62.651157 
L 323.045942 61.223893 
L 324.421311 60.10086 
L 325.79668 59.172453 
L 328.547417 57.686042 
L 331.298155 56.512972 
L 335.424262 55.108462 
L 339.550369 53.976492 
L 345.051845 52.742415 
L 350.55332 51.728914 
L 357.430165 50.693163 
L 361 50.24149 
L 361 50.24149 
" clip-path="url(#p4e41c7c5f1)" style="fill: none; stroke: #2ba12b; stroke-width: 1.8; stroke-linecap: square"/>
   </g>
   <g id="line2d_34">
    <path d="M 63.101214 164.673818 
L 64.476583 164.673818 
L 67.22732 148.534745 
L 68.602689 142.930426 
L 69.978058 138.605137 
L 71.353427 135.123134 
L 72.728796 132.23731 
L 74.104165 129.802088 
L 75.479534 127.732629 
L 76.854903 125.974101 
L 78.230272 124.49745 
L 79.605641 123.294644 
L 80.98101 122.379707 
L 82.356379 121.800668 
L 83.731748 121.67186 
L 85.107116 122.283444 
L 86.482485 124.673369 
L 87.857854 132.201967 
L 89.233223 120.591279 
L 90.608592 116.241191 
L 91.983961 113.164769 
L 93.35933 110.669172 
L 94.734699 108.519165 
L 97.485437 104.865515 
L 100.236175 101.773346 
L 102.986913 99.062895 
L 105.73765 96.638543 
L 108.488388 94.441628 
L 112.614495 91.489334 
L 116.740602 88.871214 
L 120.866709 86.526019 
L 124.992816 84.4095 
L 130.494291 81.886157 
L 135.995767 79.649455 
L 141.497243 77.653026 
L 146.998718 75.860257 
L 153.875563 73.86062 
L 160.752408 72.084262 
L 169.004621 70.189576 
L 178.632204 68.228953 
L 189.635155 66.224196 
L 202.013476 64.192635 
L 214.391796 62.389152 
L 225.394748 61.003332 
L 237.773068 59.690069 
L 254.277495 58.21251 
L 287.28635 55.501439 
L 296.913932 54.95012 
L 305.166146 54.700484 
L 312.04299 54.694558 
L 318.919835 54.904525 
L 325.79668 55.361018 
L 331.298155 55.929725 
L 336.799631 56.713131 
L 340.925738 57.474496 
L 345.051845 58.431782 
L 349.177951 59.667254 
L 351.928689 60.724613 
L 354.679427 62.084293 
L 356.054796 62.940081 
L 357.430165 63.978043 
L 358.805534 65.295956 
L 360.180903 67.101077 
L 361 68.814091 
L 361 68.814091 
" clip-path="url(#p4e41c7c5f1)" style="fill: none; stroke: #d62629; stroke-width: 1.8; stroke-linecap: square"/>
   </g>
   <g id="line2d_35">
    <path d="M 63.101214 164.673818 
L 96.110068 164.670899 
L 97.485437 163.011068 
L 98.860806 161.762363 
L 100.236175 160.765911 
L 101.611544 158.911827 
L 102.986913 158.061248 
L 104.362282 156.321676 
L 105.73765 155.036773 
L 107.113019 153.576989 
L 108.488388 152.792336 
L 109.863757 151.324403 
L 120.866709 141.536386 
L 131.86966 132.558366 
L 137.371136 128.556762 
L 141.497243 125.807775 
L 145.62335 123.286241 
L 149.749456 120.985852 
L 153.875563 118.908142 
L 158.00167 117.048991 
L 162.127777 115.411133 
L 166.253883 114.000347 
L 170.37999 112.830107 
L 174.506097 111.924139 
L 178.632204 111.325578 
L 181.382942 111.13354 
L 184.13368 111.150961 
L 186.884417 111.445471 
L 188.259786 111.732642 
L 189.635155 112.146245 
L 191.010524 112.728987 
L 192.385893 113.554726 
L 193.761262 114.766845 
L 195.136631 116.712768 
L 196.512 120.717555 
L 197.887369 125.098649 
L 199.262738 117.289461 
L 200.638107 114.160971 
L 202.013476 112.102728 
L 203.388845 110.538766 
L 204.764214 109.262475 
L 207.514951 107.221113 
L 210.265689 105.582565 
L 214.391796 103.511489 
L 224.019379 98.934512 
L 228.145485 96.66596 
L 233.646961 93.306267 
L 247.40065 84.627343 
L 252.902126 81.455944 
L 258.403602 78.535239 
L 263.905078 75.867179 
L 269.406553 73.443002 
L 274.908029 71.250733 
L 280.409505 69.278144 
L 285.910981 67.513696 
L 291.412456 65.946643 
L 298.289301 64.249955 
L 305.166146 62.826564 
L 312.04299 61.657321 
L 318.919835 60.723115 
L 325.79668 60.00574 
L 332.673524 59.49026 
L 339.550369 59.169811 
L 346.427214 59.054583 
L 351.928689 59.138048 
L 357.430165 59.432408 
L 361 59.786805 
L 361 59.786805 
" clip-path="url(#p4e41c7c5f1)" style="fill: none; stroke: #9466bd; stroke-width: 1.8; stroke-linecap: square"/>
   </g>
   <g id="line2d_36">
    <path d="M 63.101214 164.673818 
L 123.617447 164.673818 
L 124.992816 163.774652 
L 126.368184 164.673818 
L 127.743553 163.774652 
L 129.118922 160.747149 
L 130.494291 159.944666 
L 131.86966 156.505878 
L 133.245029 156.129354 
L 134.620398 154.019053 
L 135.995767 152.703215 
L 137.371136 150.877168 
L 140.121874 147.793435 
L 141.497243 146.500125 
L 145.62335 142.158303 
L 149.749456 138.187153 
L 153.875563 134.44945 
L 159.377039 129.838659 
L 163.503146 126.635668 
L 169.004621 122.686019 
L 174.506097 119.082916 
L 180.007573 115.814127 
L 185.509049 112.870913 
L 191.010524 110.24716 
L 196.512 107.934599 
L 202.013476 105.913722 
L 207.514951 104.13194 
L 218.517903 100.680097 
L 222.64401 99.072164 
L 226.770116 97.124826 
L 230.896223 94.846218 
L 236.397699 91.476344 
L 247.40065 84.639338 
L 252.902126 81.482816 
L 258.403602 78.569929 
L 263.905078 75.905793 
L 269.406553 73.483478 
L 274.908029 71.29211 
L 280.409505 69.320126 
L 285.910981 67.556374 
L 291.412456 65.990314 
L 298.289301 64.295416 
L 305.166146 62.87443 
L 312.04299 61.70809 
L 318.919835 60.777096 
L 325.79668 60.063022 
L 332.673524 59.550774 
L 339.550369 59.23354 
L 346.427214 59.122019 
L 351.928689 59.209734 
L 357.430165 59.511219 
L 361 59.873451 
L 361 59.873451 
" clip-path="url(#p4e41c7c5f1)" style="fill: none; stroke: #8c574a; stroke-width: 1.8; stroke-linecap: square"/>
   </g>
   <g id="patch_3">
    <path d="M 63.101214 171.16 
L 63.101214 28.464 
" style="fill: none; stroke: #000000; stroke-width: 0.8; stroke-linejoin: miter; stroke-linecap: square"/>
   </g>
   <g id="patch_4">
    <path d="M 338.175 171.16 
L 338.175 28.464 
" style="fill: none; stroke: #000000; stroke-width: 0.8; stroke-linejoin: miter; stroke-linecap: square"/>
   </g>
   <g id="patch_5">
    <path d="M 63.101214 171.16 
L 338.175 171.16 
" style="fill: none; stroke: #000000; stroke-width: 0.8; stroke-linejoin: miter; stroke-linecap: square"/>
   </g>
   <g id="patch_6">
    <path d="M 63.101214 28.464 
L 338.175 28.464 
" style="fill: none; stroke: #000000; stroke-width: 0.8; stroke-linejoin: miter; stroke-linecap: square"/>
   </g>
   <g id="text_18">
    <!-- (2,12;3,12), N=15, $J_z=1$, $J_{{long}}=2$ -->
    <g transform="translate(101.458107 22.464) scale(0.12 -0.12)">
     <defs>
      <path id="DejaVuSans-28" d="M 1984 4856 
Q 1566 4138 1362 3434 
Q 1159 2731 1159 2009 
Q 1159 1288 1364 580 
Q 1569 -128 1984 -844 
L 1484 -844 
Q 1016 -109 783 600 
Q 550 1309 550 2009 
Q 550 2706 781 3412 
Q 1013 4119 1484 4856 
L 1984 4856 
z
" transform="scale(0.015625)"/>
      <path id="DejaVuSans-2c" d="M 750 794 
L 1409 794 
L 1409 256 
L 897 -744 
L 494 -744 
L 750 256 
L 750 794 
z
" transform="scale(0.015625)"/>
      <path id="DejaVuSans-3b" d="M 750 3309 
L 1409 3309 
L 1409 2516 
L 750 2516 
L 750 3309 
z
M 750 794 
L 1409 794 
L 1409 256 
L 897 -744 
L 494 -744 
L 750 256 
L 750 794 
z
" transform="scale(0.015625)"/>
      <path id="DejaVuSans-29" d="M 513 4856 
L 1013 4856 
Q 1481 4119 1714 3412 
Q 1947 2706 1947 2009 
Q 1947 1309 1714 600 
Q 1481 -109 1013 -844 
L 513 -844 
Q 928 -128 1133 580 
Q 1338 1288 1338 2009 
Q 1338 2731 1133 3434 
Q 928 4138 513 4856 
z
" transform="scale(0.015625)"/>
      <path id="DejaVuSans-4e" d="M 628 4666 
L 1478 4666 
L 3547 763 
L 3547 4666 
L 4159 4666 
L 4159 0 
L 3309 0 
L 1241 3903 
L 1241 0 
L 628 0 
L 628 4666 
z
" transform="scale(0.015625)"/>
      <path id="DejaVuSans-3d" d="M 678 2906 
L 4684 2906 
L 4684 2381 
L 678 2381 
L 678 2906 
z
M 678 1631 
L 4684 1631 
L 4684 1100 
L 678 1100 
L 678 1631 
z
" transform="scale(0.015625)"/>
      <path id="DejaVuSans-Oblique-4a" d="M 1069 4666 
L 1703 4666 
L 856 325 
Q 691 -522 298 -901 
Q -94 -1281 -800 -1281 
L -1050 -1281 
L -947 -750 
L -750 -750 
Q -328 -750 -109 -509 
Q 109 -269 225 325 
L 1069 4666 
z
" transform="scale(0.015625)"/>
      <path id="DejaVuSans-Oblique-7a" d="M 744 3500 
L 3475 3500 
L 3372 2975 
L 738 459 
L 2913 459 
L 2822 0 
L -19 0 
L 84 525 
L 2719 3041 
L 653 3041 
L 744 3500 
z
" transform="scale(0.015625)"/>
      <path id="DejaVuSans-Oblique-6c" d="M 1172 4863 
L 1747 4863 
L 800 0 
L 225 0 
L 1172 4863 
z
" transform="scale(0.015625)"/>
      <path id="DejaVuSans-Oblique-6f" d="M 1625 -91 
Q 1009 -91 651 289 
Q 294 669 294 1325 
Q 294 1706 417 2101 
Q 541 2497 738 2766 
Q 1047 3184 1428 3384 
Q 1809 3584 2291 3584 
Q 2888 3584 3255 3212 
Q 3622 2841 3622 2241 
Q 3622 1825 3500 1412 
Q 3378 1000 3181 728 
Q 2875 309 2494 109 
Q 2113 -91 1625 -91 
z
M 891 1344 
Q 891 869 1089 633 
Q 1288 397 1691 397 
Q 2269 397 2648 901 
Q 3028 1406 3028 2181 
Q 3028 2634 2825 2865 
Q 2622 3097 2228 3097 
Q 1903 3097 1650 2945 
Q 1397 2794 1197 2484 
Q 1050 2253 970 1956 
Q 891 1659 891 1344 
z
" transform="scale(0.015625)"/>
      <path id="DejaVuSans-Oblique-6e" d="M 3566 2113 
L 3156 0 
L 2578 0 
L 2988 2091 
Q 3016 2238 3031 2350 
Q 3047 2463 3047 2528 
Q 3047 2791 2881 2937 
Q 2716 3084 2419 3084 
Q 1956 3084 1622 2776 
Q 1288 2469 1184 1941 
L 800 0 
L 225 0 
L 903 3500 
L 1478 3500 
L 1363 2950 
Q 1603 3253 1940 3418 
Q 2278 3584 2650 3584 
Q 3113 3584 3367 3334 
Q 3622 3084 3622 2631 
Q 3622 2519 3608 2391 
Q 3594 2263 3566 2113 
z
" transform="scale(0.015625)"/>
      <path id="DejaVuSans-Oblique-67" d="M 3816 3500 
L 3219 434 
Q 3047 -456 2561 -893 
Q 2075 -1331 1253 -1331 
Q 950 -1331 690 -1286 
Q 431 -1241 206 -1147 
L 313 -588 
Q 525 -725 762 -790 
Q 1000 -856 1269 -856 
Q 1816 -856 2167 -557 
Q 2519 -259 2631 300 
L 2681 563 
Q 2441 288 2122 144 
Q 1803 0 1434 0 
Q 903 0 598 351 
Q 294 703 294 1319 
Q 294 1803 478 2267 
Q 663 2731 997 3091 
Q 1219 3328 1514 3456 
Q 1809 3584 2131 3584 
Q 2484 3584 2746 3420 
Q 3009 3256 3138 2956 
L 3238 3500 
L 3816 3500 
z
M 2950 2216 
Q 2950 2641 2750 2872 
Q 2550 3103 2181 3103 
Q 1953 3103 1747 3012 
Q 1541 2922 1394 2759 
Q 1156 2491 1023 2127 
Q 891 1763 891 1375 
Q 891 944 1092 712 
Q 1294 481 1672 481 
Q 2219 481 2584 976 
Q 2950 1472 2950 2216 
z
" transform="scale(0.015625)"/>
     </defs>
     <use xlink:href="#DejaVuSans-28" transform="translate(0 0.125)"/>
     <use xlink:href="#DejaVuSans-32" transform="translate(39.013672 0.125)"/>
     <use xlink:href="#DejaVuSans-2c" transform="translate(102.636719 0.125)"/>
     <use xlink:href="#DejaVuSans-31" transform="translate(134.423828 0.125)"/>
     <use xlink:href="#DejaVuSans-32" transform="translate(198.046875 0.125)"/>
     <use xlink:href="#DejaVuSans-3b" transform="translate(255.294922 0.125)"/>
     <use xlink:href="#DejaVuSans-33" transform="translate(288.986328 0.125)"/>
     <use xlink:href="#DejaVuSans-2c" transform="translate(352.609375 0.125)"/>
     <use xlink:href="#DejaVuSans-31" transform="translate(384.396484 0.125)"/>
     <use xlink:href="#DejaVuSans-32" transform="translate(448.019531 0.125)"/>
     <use xlink:href="#DejaVuSans-29" transform="translate(511.642578 0.125)"/>
     <use xlink:href="#DejaVuSans-2c" transform="translate(550.65625 0.125)"/>
     <use xlink:href="#DejaVuSans-20" transform="translate(582.443359 0.125)"/>
     <use xlink:href="#DejaVuSans-4e" transform="translate(614.230469 0.125)"/>
     <use xlink:href="#DejaVuSans-3d" transform="translate(689.035156 0.125)"/>
     <use xlink:href="#DejaVuSans-31" transform="translate(772.824219 0.125)"/>
     <use xlink:href="#DejaVuSans-35" transform="translate(836.447266 0.125)"/>
     <use xlink:href="#DejaVuSans-2c" transform="translate(900.070312 0.125)"/>
     <use xlink:href="#DejaVuSans-20" transform="translate(931.857422 0.125)"/>
     <use xlink:href="#DejaVuSans-Oblique-4a" transform="translate(963.644531 0.125)"/>
     <use xlink:href="#DejaVuSans-Oblique-7a" transform="translate(993.136719 -16.28125) scale(0.7)"/>
     <use xlink:href="#DejaVuSans-3d" transform="translate(1052.09668 0.125)"/>
     <use xlink:href="#DejaVuSans-31" transform="translate(1155.368164 0.125)"/>
     <use xlink:href="#DejaVuSans-2c" transform="translate(1218.991211 0.125)"/>
     <use xlink:href="#DejaVuSans-20" transform="translate(1250.77832 0.125)"/>
     <use xlink:href="#DejaVuSans-Oblique-4a" transform="translate(1282.56543 0.125)"/>
     <use xlink:href="#DejaVuSans-Oblique-6c" transform="translate(1312.057617 -16.28125) scale(0.7)"/>
     <use xlink:href="#DejaVuSans-Oblique-6f" transform="translate(1331.505859 -16.28125) scale(0.7)"/>
     <use xlink:href="#DejaVuSans-Oblique-6e" transform="translate(1374.333008 -16.28125) scale(0.7)"/>
     <use xlink:href="#DejaVuSans-Oblique-67" transform="translate(1418.698242 -16.28125) scale(0.7)"/>
     <use xlink:href="#DejaVuSans-3d" transform="translate(1485.348633 0.125)"/>
     <use xlink:href="#DejaVuSans-32" transform="translate(1588.620117 0.125)"/>
    </g>
   </g>
   <g id="legend_1">
    <g id="patch_7">
     <path d="M 271.755 166.66 
L 331.875 166.66 
Q 333.675 166.66 333.675 164.86 
L 333.675 86.498125 
Q 333.675 84.698125 331.875 84.698125 
L 271.755 84.698125 
Q 269.955 84.698125 269.955 86.498125 
L 269.955 164.86 
Q 269.955 166.66 271.755 166.66 
z
" style="fill: #ffffff; opacity: 0.8; stroke: #cccccc; stroke-linejoin: miter"/>
    </g>
    <g id="line2d_37">
     <path d="M 273.555 91.986719 
L 282.555 91.986719 
L 291.555 91.986719 
" style="fill: none; stroke: #1f78b5; stroke-width: 1.8; stroke-linecap: square"/>
    </g>
    <g id="text_19">
     <!-- $\alpha=0$ -->
     <g transform="translate(298.755 95.136719) scale(0.09 -0.09)">
      <defs>
       <path id="DejaVuSans-Oblique-3b1" d="M 2619 1628 
L 2622 2350 
Q 2625 3088 2069 3091 
Q 1653 3094 1394 2747 
Q 1069 2319 959 1747 
Q 825 1059 994 731 
Q 1169 397 1547 397 
Q 1966 397 2319 1063 
L 2619 1628 
z
M 2166 3578 
Q 3141 3594 3128 2584 
Q 3128 2584 3616 3500 
L 4128 3500 
L 3119 1603 
L 3109 919 
Q 3109 766 3194 638 
Q 3291 488 3391 488 
L 3669 488 
L 3575 0 
L 3228 0 
Q 2934 0 2722 263 
Q 2622 394 2619 669 
Q 2416 334 2066 50 
Q 1900 -81 1453 -78 
Q 722 -72 456 397 
Q 184 884 353 1747 
Q 534 2675 1009 3097 
Q 1544 3569 2166 3578 
z
" transform="scale(0.015625)"/>
      </defs>
      <use xlink:href="#DejaVuSans-Oblique-3b1" transform="translate(0 0.78125)"/>
      <use xlink:href="#DejaVuSans-3d" transform="translate(85.400391 0.78125)"/>
      <use xlink:href="#DejaVuSans-30" transform="translate(188.671875 0.78125)"/>
     </g>
    </g>
    <g id="line2d_38">
     <path d="M 273.555 105.197031 
L 282.555 105.197031 
L 291.555 105.197031 
" style="fill: none; stroke: #ff800d; stroke-width: 1.8; stroke-linecap: square"/>
    </g>
    <g id="text_20">
     <!-- $\alpha=0.5$ -->
     <g transform="translate(298.755 108.347031) scale(0.09 -0.09)">
      <use xlink:href="#DejaVuSans-Oblique-3b1" transform="translate(0 0.78125)"/>
      <use xlink:href="#DejaVuSans-3d" transform="translate(85.400391 0.78125)"/>
      <use xlink:href="#DejaVuSans-30" transform="translate(188.671875 0.78125)"/>
      <use xlink:href="#DejaVuSans-2e" transform="translate(252.294922 0.78125)"/>
      <use xlink:href="#DejaVuSans-35" transform="translate(284.082031 0.78125)"/>
     </g>
    </g>
    <g id="line2d_39">
     <path d="M 273.555 118.407344 
L 282.555 118.407344 
L 291.555 118.407344 
" style="fill: none; stroke: #2ba12b; stroke-width: 1.8; stroke-linecap: square"/>
    </g>
    <g id="text_21">
     <!-- $\alpha=2$ -->
     <g transform="translate(298.755 121.557344) scale(0.09 -0.09)">
      <use xlink:href="#DejaVuSans-Oblique-3b1" transform="translate(0 0.78125)"/>
      <use xlink:href="#DejaVuSans-3d" transform="translate(85.400391 0.78125)"/>
      <use xlink:href="#DejaVuSans-32" transform="translate(188.671875 0.78125)"/>
     </g>
    </g>
    <g id="line2d_40">
     <path d="M 273.555 131.617656 
L 282.555 131.617656 
L 291.555 131.617656 
" style="fill: none; stroke: #d62629; stroke-width: 1.8; stroke-linecap: square"/>
    </g>
    <g id="text_22">
     <!-- $\alpha=3$ -->
     <g transform="translate(298.755 134.767656) scale(0.09 -0.09)">
      <use xlink:href="#DejaVuSans-Oblique-3b1" transform="translate(0 0.78125)"/>
      <use xlink:href="#DejaVuSans-3d" transform="translate(85.400391 0.78125)"/>
      <use xlink:href="#DejaVuSans-33" transform="translate(188.671875 0.78125)"/>
     </g>
    </g>
    <g id="line2d_41">
     <path d="M 273.555 144.827969 
L 282.555 144.827969 
L 291.555 144.827969 
" style="fill: none; stroke: #9466bd; stroke-width: 1.8; stroke-linecap: square"/>
    </g>
    <g id="text_23">
     <!-- $\alpha=10$ -->
     <g transform="translate(298.755 147.977969) scale(0.09 -0.09)">
      <use xlink:href="#DejaVuSans-Oblique-3b1" transform="translate(0 0.78125)"/>
      <use xlink:href="#DejaVuSans-3d" transform="translate(85.400391 0.78125)"/>
      <use xlink:href="#DejaVuSans-31" transform="translate(188.671875 0.78125)"/>
      <use xlink:href="#DejaVuSans-30" transform="translate(252.294922 0.78125)"/>
     </g>
    </g>
    <g id="line2d_42">
     <path d="M 273.555 158.038281 
L 282.555 158.038281 
L 291.555 158.038281 
" style="fill: none; stroke: #8c574a; stroke-width: 1.8; stroke-linecap: square"/>
    </g>
    <g id="text_24">
     <!-- $\alpha=\infty$ -->
     <g transform="translate(298.755 161.188281) scale(0.09 -0.09)">
      <defs>
       <path id="DejaVuSans-221e" d="M 2916 1091 
Q 2819 1203 2666 1466 
Q 2456 1091 2272 925 
Q 2041 725 1681 725 
Q 1259 725 981 1041 
Q 688 1372 688 1919 
Q 688 2444 981 2800 
Q 1244 3116 1688 3116 
Q 1916 3116 2084 3022 
Q 2281 2919 2416 2741 
Q 2541 2581 2666 2366 
Q 2875 2741 3059 2906 
Q 3291 3106 3650 3106 
Q 4072 3106 4350 2791 
Q 4644 2459 4644 1913 
Q 4644 1388 4350 1031 
Q 4088 716 3644 716 
Q 3416 716 3247 809 
Q 3078 894 2916 1091 
z
M 1647 1134 
Q 2163 1134 2472 1884 
Q 2075 2703 1647 2703 
Q 1334 2703 1175 2478 
Q 1003 2238 1003 1919 
Q 1003 1569 1175 1353 
Q 1350 1134 1647 1134 
z
M 3684 2697 
Q 3219 2697 2859 1947 
Q 3253 1128 3684 1128 
Q 3997 1128 4156 1353 
Q 4328 1594 4328 1913 
Q 4328 2263 4156 2478 
Q 3981 2697 3684 2697 
z
" transform="scale(0.015625)"/>
      </defs>
      <use xlink:href="#DejaVuSans-Oblique-3b1" transform="translate(0 0.84375)"/>
      <use xlink:href="#DejaVuSans-3d" transform="translate(85.400391 0.84375)"/>
      <use xlink:href="#DejaVuSans-221e" transform="translate(188.671875 0.84375)"/>
     </g>
    </g>
   </g>
  </g>
 </g>
 <defs>
  <clipPath id="p4e41c7c5f1">
   <rect x="63.101214" y="28.464" width="275.073786" height="142.696"/>
  </clipPath>
 </defs>
</svg>
